<svg width="445" height="348" viewBox="0 0 445 348" fill="none"
    xmlns="http://www.w3.org/2000/svg">
    <path d="M445 307.21H0V307.432H445V307.21Z" fill="#EBEBEB"/>
    <path d="M210.931 267.516H39.0808C37.7346 267.514 36.4442 266.977 35.4931 266.025C34.542 265.072 34.0078 263.781 34.0078 262.434V20.8616C34.0195 19.5231 34.5589 18.2432 35.5087 17.3C36.4586 16.3568 37.7422 15.8265 39.0808 15.8242H210.931C212.279 15.8242 213.571 16.3596 214.524 17.3127C215.477 18.2657 216.013 19.5583 216.013 20.9061V262.434C216.013 263.782 215.477 265.075 214.524 266.028C213.571 266.981 212.279 267.516 210.931 267.516V267.516ZM39.0808 16.0022C37.7936 16.0046 36.5598 16.5176 35.6505 17.4286C34.7411 18.3397 34.2303 19.5744 34.2303 20.8616V262.434C34.2303 263.722 34.7411 264.956 35.6505 265.867C36.5598 266.778 37.7936 267.291 39.0808 267.294H210.931C212.219 267.291 213.454 266.779 214.364 265.868C215.275 264.957 215.788 263.722 215.79 262.434V20.8616C215.788 19.5735 215.275 18.3389 214.364 17.4281C213.454 16.5173 212.219 16.0046 210.931 16.0022H39.0808Z" fill="#EBEBEB"/>
    <path d="M403.447 267.516H231.588C230.241 267.514 228.949 266.978 227.997 266.025C227.044 265.073 226.508 263.781 226.506 262.434V20.8616C226.52 19.5223 227.061 18.2424 228.013 17.2995C228.964 16.3565 230.248 15.8265 231.588 15.8242H403.447C404.784 15.8289 406.065 16.3602 407.013 17.3032C407.961 18.2461 408.499 19.5246 408.511 20.8616V262.434C408.511 263.779 407.978 265.069 407.029 266.021C406.08 266.974 404.791 267.511 403.447 267.516V267.516ZM231.588 16.0022C230.3 16.0046 229.065 16.5173 228.154 17.4281C227.243 18.3389 226.731 19.5735 226.728 20.8616V262.434C226.731 263.722 227.243 264.957 228.154 265.868C229.065 266.779 230.3 267.291 231.588 267.294H403.447C404.735 267.291 405.969 266.779 406.88 265.868C407.791 264.957 408.304 263.722 408.306 262.434V20.8616C408.304 19.5735 407.791 18.3389 406.88 17.4281C405.969 16.5173 404.735 16.0046 403.447 16.0022H231.588Z" fill="#EBEBEB"/>
    <path d="M400.412 315.683H372.314V315.905H400.412V315.683Z" fill="#EBEBEB"/>
    <path d="M298.452 313.271H268.717V313.494H298.452V313.271Z" fill="#EBEBEB"/>
    <path d="M408.528 323.951H352.965V324.174H408.528V323.951Z" fill="#EBEBEB"/>
    <path d="M63.8042 322.456H46.6895V322.679H63.8042V322.456Z" fill="#EBEBEB"/>
    <path d="M98.6925 322.456H71.7344V322.679H98.6925V322.456Z" fill="#EBEBEB"/>
    <path d="M217.285 318.7H168.727V318.923H217.285V318.7Z" fill="#EBEBEB"/>
    <path d="M242.312 72.0098L191.6 122.731V291.644H369.591V72.0098H242.312Z" fill="white"/>
    <path d="M369.59 292.125H191.59C191.463 292.125 191.34 292.074 191.25 291.984C191.16 291.894 191.109 291.772 191.109 291.644V122.731C191.109 122.668 191.122 122.606 191.146 122.548C191.171 122.49 191.207 122.437 191.252 122.393L241.982 71.6629C242.073 71.5749 242.193 71.5241 242.32 71.5205H369.59C369.653 71.5205 369.716 71.5329 369.774 71.5571C369.832 71.5812 369.885 71.6166 369.93 71.6613C369.974 71.7059 370.01 71.7589 370.034 71.8172C370.058 71.8755 370.071 71.938 370.071 72.0011V291.644C370.071 291.707 370.058 291.77 370.034 291.828C370.01 291.886 369.974 291.939 369.93 291.984C369.885 292.029 369.832 292.064 369.774 292.088C369.716 292.112 369.653 292.125 369.59 292.125V292.125ZM192.079 291.173H369.109V72.4906H242.516L192.079 122.927V291.173Z" fill="#E0E0E0"/>
    <path d="M191.6 122.731L244.813 129.593L242.312 72.0098L191.6 122.731Z" fill="#E6E6E6"/>
    <path d="M191.6 122.731H242.312V72.0098L191.6 122.731Z" fill="white"/>
    <path d="M242.311 123.202H191.581C191.487 123.203 191.394 123.175 191.315 123.123C191.235 123.071 191.173 122.996 191.136 122.909C191.1 122.822 191.09 122.726 191.109 122.634C191.128 122.542 191.175 122.457 191.243 122.392L241.973 71.6624C242.042 71.5965 242.127 71.5514 242.22 71.5325C242.313 71.5135 242.41 71.5216 242.498 71.5556C242.585 71.5935 242.659 71.6557 242.711 71.7346C242.763 71.8136 242.791 71.906 242.792 72.0006V122.731C242.79 122.857 242.738 122.977 242.648 123.065C242.558 123.153 242.437 123.202 242.311 123.202V123.202ZM192.756 122.25H241.84V73.1665L192.756 122.25Z" fill="#E0E0E0"/>
    <path d="M290.888 195.773L321.148 165.513C321.824 164.837 322.36 164.034 322.726 163.151C323.092 162.267 323.28 161.32 323.28 160.364C323.28 159.408 323.092 158.461 322.726 157.578C322.36 156.694 321.824 155.892 321.148 155.216C320.471 154.54 319.669 154.003 318.785 153.637C317.902 153.271 316.955 153.083 315.999 153.083C315.043 153.083 314.096 153.271 313.213 153.637C312.329 154.003 311.526 154.54 310.85 155.216L280.59 185.476L250.33 155.216C248.965 153.85 247.113 153.083 245.182 153.083C243.251 153.083 241.399 153.85 240.033 155.216C238.668 156.581 237.9 158.433 237.9 160.364C237.9 162.295 238.668 164.147 240.033 165.513L270.293 195.773L240.033 226.033C238.668 227.398 237.9 229.25 237.9 231.182C237.9 233.113 238.668 234.965 240.033 236.33C241.399 237.696 243.251 238.463 245.182 238.463C247.113 238.463 248.965 237.696 250.33 236.33L280.59 206.07L310.85 236.33C312.216 237.696 314.068 238.463 315.999 238.463C317.93 238.463 319.782 237.696 321.148 236.33C322.513 234.965 323.28 233.113 323.28 231.182C323.28 229.25 322.513 227.398 321.148 226.033L290.888 195.773Z" fill="#F0F0F0"/>
    <path d="M198.469 170.685C196.762 172.39 194.447 173.348 192.034 173.348C189.621 173.348 187.307 172.39 185.599 170.685L156.398 141.475L169.268 128.605L198.469 157.851C200.163 159.557 201.114 161.863 201.114 164.268C201.114 166.672 200.163 168.979 198.469 170.685V170.685Z" fill="#F0F0F0"/>
    <path d="M156.395 141.531L169.264 128.662L170.454 129.851C171.687 131.084 172.38 132.757 172.38 134.502C172.38 136.246 171.687 137.919 170.454 139.152L166.885 142.721C165.652 143.954 163.979 144.647 162.235 144.647C160.49 144.647 158.817 143.954 157.584 142.721L156.395 141.531V141.531Z" fill="#E0E0E0"/>
    <path d="M75.3916 47.6057C66.5607 56.4456 60.5488 67.7051 58.1158 79.961C55.6828 92.2169 56.9379 104.919 61.7225 116.462C66.507 128.004 74.6063 137.87 84.9965 144.81C95.3866 151.751 107.601 155.455 120.096 155.455C132.591 155.455 144.806 151.751 155.196 144.81C165.586 137.87 173.686 128.004 178.47 116.462C183.255 104.919 184.51 92.2169 182.077 79.961C179.644 67.7051 173.632 56.4456 164.801 47.6057C158.932 41.7312 151.964 37.071 144.293 33.8914C136.622 30.7118 128.4 29.0752 120.096 29.0752C111.793 29.0752 103.57 30.7118 95.8997 33.8914C88.229 37.071 81.2601 41.7312 75.3916 47.6057V47.6057ZM161.152 133.366C153.033 141.485 142.688 147.014 131.427 149.254C120.166 151.494 108.493 150.344 97.8847 145.95C87.2766 141.556 78.2098 134.115 71.8307 124.568C65.4516 115.021 62.0468 103.797 62.0468 92.3149C62.0468 80.8328 65.4516 69.6086 71.8307 60.0615C78.2098 50.5145 87.2766 43.0735 97.8847 38.6795C108.493 34.2854 120.166 33.1357 131.427 35.3756C142.688 37.6156 153.033 43.1447 161.152 51.2636C166.543 56.6545 170.819 63.0545 173.737 70.0981C176.655 77.1417 178.156 84.691 178.156 92.3149C178.156 99.9388 176.655 107.488 173.737 114.532C170.819 121.575 166.543 127.975 161.152 133.366V133.366Z" fill="#E0E0E0"/>
    <path d="M153.312 127.653C152.894 127.652 152.485 127.527 152.138 127.294C151.79 127.061 151.52 126.731 151.36 126.344C151.2 125.958 151.158 125.533 151.239 125.123C151.32 124.712 151.521 124.335 151.817 124.039C160.215 115.617 164.931 104.209 164.931 92.3152C164.931 80.4215 160.215 69.013 151.817 60.5912C151.601 60.3994 151.427 60.1656 151.304 59.904C151.182 59.6425 151.115 59.3587 151.106 59.0702C151.098 58.7816 151.148 58.4944 151.255 58.2261C151.362 57.9578 151.522 57.7142 151.726 57.5101C151.93 57.3059 152.174 57.1457 152.442 57.0392C152.71 56.9326 152.997 56.8821 153.286 56.8906C153.575 56.8991 153.858 56.9664 154.12 57.0886C154.381 57.2107 154.615 57.385 154.807 57.6008C163.998 66.814 169.16 79.2967 169.16 92.3108C169.16 105.325 163.998 117.808 154.807 127.021C154.612 127.219 154.379 127.377 154.122 127.486C153.866 127.594 153.59 127.651 153.312 127.653V127.653Z" fill="#E0E0E0"/>
    <path d="M74.3866 105.296C73.9104 105.297 73.448 105.136 73.0747 104.84C72.7014 104.545 72.4392 104.131 72.3307 103.668C70.7913 97.1485 70.5971 90.3838 71.7601 83.787C72.9231 77.1901 75.4188 70.8997 79.0947 65.2998C79.4039 64.8278 79.888 64.4978 80.4405 64.3827C80.9929 64.2675 81.5685 64.3765 82.0406 64.6857C82.5127 64.995 82.8426 65.479 82.9578 66.0315C83.0729 66.584 82.9639 67.1596 82.6547 67.6316C79.2891 72.747 77.001 78.4944 75.9298 84.5233C74.8587 90.5521 75.0271 96.736 76.4247 102.698C76.4908 102.968 76.5026 103.248 76.4594 103.523C76.4163 103.797 76.319 104.061 76.1733 104.298C76.0276 104.534 75.8363 104.74 75.6106 104.902C75.3849 105.064 75.1292 105.18 74.8583 105.243C74.7033 105.277 74.5452 105.295 74.3866 105.296V105.296Z" fill="#E0E0E0"/>
    <path d="M86.8822 127.653C86.321 127.651 85.7832 127.427 85.387 127.03C81.5745 123.232 78.4169 118.829 76.042 114C75.9193 113.751 75.8468 113.481 75.8287 113.204C75.8106 112.927 75.8472 112.649 75.9365 112.386C76.0257 112.123 76.1659 111.881 76.3489 111.672C76.532 111.463 76.7543 111.293 77.0032 111.17C77.2522 111.047 77.5229 110.975 77.7998 110.957C78.0768 110.939 78.3546 110.975 78.6174 111.064C78.8802 111.154 79.1229 111.294 79.3315 111.477C79.5402 111.66 79.7107 111.882 79.8334 112.131C82.0108 116.541 84.8972 120.564 88.3774 124.039C88.7731 124.436 88.9953 124.974 88.9953 125.535C88.9953 126.095 88.7731 126.633 88.3774 127.03C87.9796 127.425 87.4429 127.649 86.8822 127.653V127.653Z" fill="#E0E0E0"/>
    <path d="M187.819 252.035L196.138 260.354L176.818 279.675C175.83 280.663 174.49 281.218 173.093 281.218C171.695 281.218 170.355 280.663 169.367 279.675L168.492 278.8C167.504 277.812 166.949 276.472 166.949 275.074C166.949 273.677 167.504 272.337 168.492 271.349L187.812 252.028L187.819 252.035Z" fill="#F0F0F0"/>
    <path d="M187.831 252.053L196.138 260.36L195.742 260.756C194.845 261.652 193.63 262.156 192.362 262.156C191.095 262.156 189.879 261.652 188.983 260.756L187.422 259.195C186.526 258.299 186.022 257.084 186.022 255.816C186.022 254.548 186.526 253.333 187.422 252.436L187.818 252.04L187.831 252.053Z" fill="#E0E0E0"/>
    <path d="M253.072 206.907L233.581 226.389C231.417 228.708 230.239 231.776 230.295 234.947C230.351 238.117 231.636 241.142 233.879 243.383C236.123 245.624 239.149 246.906 242.319 246.959C245.49 247.011 248.557 245.83 250.873 243.664L258.759 235.788C260.419 225.79 258.398 215.529 253.072 206.907Z" fill="#F0F0F0"/>
    <path d="M260.414 225.704C259.856 217.636 256.917 209.915 251.971 203.517C247.024 197.119 240.291 192.332 232.623 189.761C224.955 187.19 216.697 186.95 208.893 189.073C201.089 191.196 194.09 195.585 188.781 201.686C183.472 207.787 180.092 215.325 179.068 223.347C178.043 231.37 179.421 239.515 183.027 246.755C186.632 253.994 192.303 260.001 199.323 264.017C206.343 268.032 214.397 269.876 222.464 269.314C233.279 268.561 243.352 263.544 250.468 255.366C257.585 247.188 261.162 236.519 260.414 225.704ZM182.174 231.151C181.659 223.744 183.351 216.35 187.038 209.905C190.724 203.46 196.24 198.253 202.886 194.942C209.532 191.632 217.01 190.366 224.376 191.306C231.741 192.246 238.662 195.349 244.264 200.222C249.866 205.096 253.896 211.521 255.846 218.686C257.796 225.85 257.578 233.432 255.219 240.472C252.859 247.512 248.466 253.695 242.593 258.238C236.72 262.781 229.631 265.48 222.224 265.994C212.293 266.684 202.494 263.401 194.984 256.866C187.473 250.332 182.865 241.082 182.174 231.151Z" fill="#E0E0E0"/>
    <path d="M198.807 252.484C195.657 249.754 193.077 246.428 191.215 242.699C189.354 238.969 188.247 234.909 187.958 230.75C187.937 230.566 187.954 230.38 188.007 230.203C188.061 230.026 188.149 229.862 188.268 229.72C188.386 229.578 188.532 229.461 188.697 229.377C188.862 229.293 189.042 229.243 189.226 229.231C189.411 229.218 189.596 229.243 189.771 229.304C189.945 229.365 190.106 229.46 190.242 229.585C190.379 229.709 190.489 229.86 190.566 230.028C190.643 230.196 190.685 230.378 190.69 230.563C191.235 238.228 194.795 245.363 200.59 250.409C206.384 255.455 213.942 257.999 221.609 257.486C221.97 257.461 222.326 257.581 222.599 257.819C222.872 258.056 223.039 258.393 223.064 258.754C223.089 259.115 222.969 259.471 222.731 259.744C222.493 260.017 222.157 260.184 221.795 260.209C217.644 260.498 213.476 259.964 209.531 258.638C205.586 257.312 201.942 255.221 198.807 252.484V252.484Z" fill="#E0E0E0"/>
    <path d="M247.99 221.414C247.787 221.238 247.641 221.006 247.572 220.746C246.5 216.937 244.663 213.386 242.174 210.311C239.684 207.235 236.594 204.699 233.091 202.857C232.785 202.681 232.559 202.393 232.459 202.054C232.36 201.715 232.396 201.35 232.559 201.037C232.722 200.723 233 200.485 233.335 200.371C233.669 200.258 234.035 200.278 234.355 200.428C238.189 202.443 241.571 205.219 244.297 208.586C247.022 211.952 249.033 215.838 250.206 220.008C250.255 220.181 250.269 220.362 250.247 220.54C250.225 220.718 250.169 220.891 250.08 221.047C249.992 221.203 249.873 221.341 249.731 221.451C249.589 221.561 249.427 221.642 249.254 221.69C249.037 221.75 248.808 221.756 248.588 221.708C248.368 221.66 248.162 221.559 247.99 221.414V221.414Z" fill="#E0E0E0"/>
    <path d="M216.616 199.28C216.344 199.038 216.178 198.699 216.154 198.336C216.129 197.975 216.248 197.62 216.485 197.346C216.722 197.073 217.057 196.904 217.417 196.877C220.889 196.635 224.376 196.963 227.741 197.847C227.917 197.893 228.081 197.973 228.225 198.083C228.37 198.193 228.491 198.33 228.582 198.486C228.674 198.643 228.733 198.816 228.758 198.996C228.782 199.175 228.771 199.358 228.725 199.533C228.679 199.709 228.598 199.873 228.489 200.017C228.379 200.162 228.242 200.283 228.085 200.374C227.929 200.466 227.756 200.525 227.576 200.55C227.396 200.574 227.214 200.563 227.038 200.517C223.967 199.704 220.782 199.403 217.613 199.627C217.248 199.645 216.891 199.52 216.616 199.28V199.28Z" fill="#E0E0E0"/>
    <path d="M222.5 347.403C317.803 347.403 395.062 342.892 395.062 337.328C395.062 331.764 317.803 327.253 222.5 327.253C127.196 327.253 49.9375 331.764 49.9375 337.328C49.9375 342.892 127.196 347.403 222.5 347.403Z" fill="#F5F5F5"/>
    <path d="M122.66 96.7074C115.487 103.925 127.68 115.13 119.625 120.275C126.202 123.577 149.253 127.768 155.225 114.783C150.873 111.401 153.899 103.089 149.885 95.1054C143.878 83.2684 115.487 88.5105 122.66 96.7074Z" fill="#1C1D36"/>
    <path d="M123.31 96.5203C121.076 96.1465 113.52 99.9023 119.145 109.986C123.675 118.138 119.901 118.717 119.901 118.717C119.901 118.717 124.351 118.841 121.681 112.781C118.851 106.31 117.525 99.5997 123.31 96.5203Z" fill="#1C1D36"/>
    <path d="M176.221 160.547C175.946 160.043 175.484 159.668 174.934 159.501C174.385 159.335 173.792 159.391 173.284 159.657L172.759 159.933C172.59 160.022 172.269 160.235 172.011 160.387C171.753 160.538 171.451 160.707 171.166 160.85C170.605 161.132 170.025 161.376 169.43 161.579C168.33 161.978 167.173 162.197 166.004 162.229C164.929 162.242 163.861 162.07 162.844 161.722C162.199 161.482 161.576 161.184 160.984 160.832C160.219 159.141 159.489 157.432 158.866 155.67C158.109 153.614 157.442 151.513 156.855 149.386C156.267 147.259 155.751 145.105 155.324 142.943C155.101 141.866 154.905 140.78 154.727 139.703L154.487 138.092C154.407 137.576 154.336 136.989 154.291 136.579V136.401C154.173 135.221 153.591 134.136 152.673 133.385C151.755 132.634 150.577 132.278 149.396 132.396C148.216 132.514 147.131 133.096 146.38 134.014C145.629 134.932 145.273 136.111 145.391 137.291C145.454 138.048 145.507 138.626 145.587 139.258C145.667 139.89 145.756 140.495 145.845 141.109C146.041 142.338 146.264 143.548 146.513 144.758C147.008 147.163 147.631 149.54 148.382 151.878C148.729 153.053 149.156 154.21 149.557 155.376C149.957 156.542 150.447 157.681 150.954 158.811C151.925 161.095 153.028 163.321 154.256 165.478L154.363 165.673C154.682 166.253 155.161 166.728 155.742 167.044C157.424 167.961 159.242 168.604 161.127 168.949C163.062 169.29 165.046 169.248 166.965 168.824C169.674 168.196 172.162 166.845 174.165 164.917C174.494 164.614 174.806 164.303 175.055 163.973C175.304 163.644 175.607 163.333 175.945 162.87C176.206 162.548 176.37 162.159 176.419 161.748C176.468 161.337 176.399 160.921 176.221 160.547Z" fill="#FF8B7B"/>
    <path d="M182.138 152.217H181.88C181.028 152.199 180.183 152.377 179.411 152.739C178.64 153.1 177.961 153.634 177.43 154.3L173.131 159.693V163.378C176.584 164.748 180.963 161.055 180.963 161.055L183.179 160.494C183.925 160.308 184.575 159.852 185.004 159.214C185.433 158.576 185.611 157.802 185.502 157.041L185.181 154.878C185.077 154.144 184.712 153.471 184.154 152.982C183.595 152.494 182.88 152.222 182.138 152.217V152.217Z" fill="#FF8B7B"/>
    <path d="M154.175 131.418C157.05 134.372 157.228 143.192 157.228 143.192L145.729 152.448C145.729 152.448 141.003 139.365 143.62 134.746C145.836 130.83 150.508 127.653 154.175 131.418Z" fill="#FFC42D"/>
    <g opacity="0.2">
        <path d="M154.175 131.418C157.05 134.372 157.228 143.192 157.228 143.192L145.729 152.448C145.729 152.448 141.003 139.365 143.62 134.746C145.836 130.83 150.508 127.653 154.175 131.418Z" fill="white"/>
    </g>
    <path d="M135.146 329.701L141.501 330.395L142.373 313.129L136.019 312.426L135.146 329.701Z" fill="#FF8B7B"/>
    <path d="M142.542 326.247H135.075C134.925 326.242 134.778 326.296 134.667 326.398C134.555 326.499 134.488 326.64 134.479 326.79L133.98 333.848C133.98 334.217 134.125 334.572 134.382 334.836C134.64 335.101 134.991 335.254 135.36 335.263C138.511 335.263 138.546 335.263 142.48 335.263H153.08C156.337 335.263 156.346 331.961 154.94 331.659C148.612 330.324 146.147 328.472 143.913 326.71C143.52 326.408 143.038 326.245 142.542 326.247V326.247Z" fill="#1C1D36"/>
    <path opacity="0.2" d="M142.373 313.138L141.92 322.038H135.529L136.019 312.435L142.373 313.138Z" fill="black"/>
    <path d="M145.8 175.374C145.8 175.374 151.3 221.414 151.3 241.884C146.966 270.364 143.29 320.346 143.29 320.346L134.497 320.115C134.497 320.115 130.501 265.683 134.203 242.178C129.46 221.12 123.604 172.526 123.604 172.526L145.8 175.374Z" fill="#1C1D36"/>
    <path opacity="0.2" d="M128.847 188.19C127.798 188.652 126.782 189.181 125.803 189.775C127.013 198.862 128.606 210.298 130.297 220.853C133.181 212.167 131.623 193.068 128.847 188.19Z" fill="black"/>
    <path d="M66.332 313.672L71.5741 317.33L80.6165 302.591L75.3744 298.934L66.332 313.672Z" fill="#FF8B7B"/>
    <path d="M72.8999 315.398L68.4499 309.408C68.3651 309.285 68.2356 309.201 68.0892 309.172C67.9427 309.144 67.791 309.174 67.6667 309.257L61.7037 313.084C61.4062 313.303 61.2068 313.63 61.1485 313.994C61.0902 314.359 61.1777 314.732 61.3922 315.033C63.2523 317.569 63.2879 317.587 65.6286 320.738C67.0793 322.669 69.9718 326.558 71.9654 329.237C73.959 331.916 76.5667 329.887 75.9615 328.57C73.2915 322.705 73.2915 319.67 73.3449 316.786C73.354 316.287 73.1975 315.799 72.8999 315.398V315.398Z" fill="#1C1D36"/>
    <path opacity="0.2" d="M80.6085 302.591L75.9538 310.192L70.3379 307.13L75.3753 298.934L80.6085 302.591Z" fill="black"/>
    <path d="M98.4881 319.848C93.9402 319.848 84.4706 319.848 84.3104 313.155C84.1858 307.904 90.6828 305.724 96.2898 305.457C96.911 305.427 97.532 305.52 98.1174 305.73C98.7028 305.94 99.241 306.263 99.7014 306.681C100.162 307.1 100.535 307.604 100.8 308.167C101.066 308.73 101.217 309.339 101.247 309.96V310.316C107.602 310.014 111.713 308.625 113.218 306.258C116.608 300.918 110.111 287.132 103.837 273.808C96.45 258.135 88.084 240.38 87.9238 223.372C87.9179 222.75 88.0345 222.133 88.2671 221.557C88.4996 220.98 88.8435 220.455 89.279 220.011C89.7146 219.567 90.2333 219.214 90.8055 218.97C91.3777 218.727 91.9923 218.599 92.6141 218.593V218.593C93.8614 218.595 95.0577 219.089 95.9439 219.966C96.8301 220.844 97.3348 222.036 97.3489 223.283C97.4913 238.217 105.359 254.976 112.354 269.768C120.364 286.838 127.351 301.585 121.165 311.331C117.579 317.062 110.147 319.848 98.4881 319.848Z" fill="#FFC42D"/>
    <path d="M138.759 174.466C138.759 174.466 123.576 227.083 116.162 246.165C101.797 271.138 77.963 309.355 77.963 309.355L70.3535 304.905C70.3535 304.905 88.1535 260.761 100.124 240.202C103.337 218.842 115.485 171.44 115.485 171.44L138.759 174.466Z" fill="#1C1D36"/>
    <path d="M74.2704 319.697C74.5724 320.197 75.0376 320.577 75.5876 320.774C75.7486 320.812 75.9172 320.805 76.0744 320.753C76.2316 320.702 76.3712 320.607 76.4776 320.48C76.5516 320.412 76.6081 320.327 76.6422 320.233C76.6762 320.138 76.687 320.037 76.6734 319.937C76.5666 318.869 73.8076 317.481 73.2558 317.214C73.2236 317.201 73.1878 317.2 73.155 317.211C73.1222 317.223 73.0948 317.246 73.0778 317.276C73.0563 317.309 73.0449 317.348 73.0449 317.387C73.0449 317.427 73.0563 317.465 73.0778 317.498C73.4046 318.267 73.8039 319.004 74.2704 319.697V319.697ZM76.1661 319.697C76.2444 319.795 76.2965 319.911 76.3174 320.035C76.3217 320.07 76.3174 320.105 76.305 320.137C76.2926 320.17 76.2724 320.199 76.2462 320.222C76.1744 320.304 76.0822 320.365 75.979 320.399C75.8758 320.434 75.7653 320.44 75.6588 320.418C75.0714 320.302 74.2971 319.35 73.5495 317.846C74.5188 318.297 75.4038 318.911 76.1661 319.661V319.697Z" fill="#FFC42D"/>
    <path d="M73.0343 317.534L73.0877 317.579C73.9777 318.068 76.2917 318.469 76.799 317.73C76.8841 317.595 76.9255 317.437 76.9176 317.278C76.9096 317.119 76.8526 316.966 76.7545 316.84C75.8645 315.265 73.1945 317.116 73.0788 317.196C73.0522 317.217 73.0311 317.244 73.0172 317.275C73.0033 317.306 72.9969 317.34 72.9987 317.374C72.9951 317.43 73.0074 317.485 73.0343 317.534ZM76.4163 317.018C76.4422 317.049 76.466 317.082 76.4875 317.116C76.5854 317.285 76.6032 317.41 76.5498 317.481C76.2561 317.908 74.5473 317.757 73.5505 317.365C74.218 316.965 75.7755 316.155 76.4163 317.018Z" fill="#FFC42D"/>
    <path d="M146.85 327.716C147.433 327.769 148.017 327.622 148.505 327.298C148.629 327.189 148.72 327.049 148.769 326.892C148.818 326.735 148.822 326.567 148.781 326.408C148.769 326.307 148.733 326.211 148.678 326.126C148.622 326.041 148.548 325.97 148.461 325.918C147.571 325.375 144.785 326.755 144.242 327.04C144.212 327.057 144.188 327.084 144.175 327.116C144.162 327.148 144.161 327.184 144.171 327.218C144.185 327.255 144.207 327.288 144.237 327.315C144.266 327.341 144.302 327.36 144.34 327.369C145.163 327.57 146.004 327.686 146.85 327.716V327.716ZM147.954 326.176C148.08 326.168 148.207 326.196 148.318 326.256C148.363 326.256 148.407 326.319 148.425 326.426C148.449 326.532 148.443 326.643 148.408 326.746C148.374 326.85 148.312 326.942 148.229 327.013C147.793 327.413 146.565 327.467 144.91 327.173C145.845 326.672 146.86 326.335 147.909 326.176H147.954Z" fill="#FFC42D"/>
    <path d="M144.34 327.413H144.402C145.292 327.004 147.027 325.375 146.743 324.53C146.683 324.39 146.584 324.271 146.458 324.187C146.331 324.103 146.183 324.058 146.031 324.058C144.251 323.853 144.126 327.075 144.117 327.209C144.117 327.244 144.127 327.279 144.144 327.31C144.161 327.341 144.185 327.368 144.215 327.387C144.253 327.408 144.296 327.417 144.34 327.413V327.413ZM145.942 324.388H146.066C146.253 324.388 146.369 324.468 146.396 324.557C146.565 325.046 145.425 326.337 144.509 326.897C144.589 326.123 144.874 324.388 145.959 324.388H145.942Z" fill="#FFC42D"/>
    <path d="M115.486 171.485L145.8 175.365C152.635 152.35 154.887 141.234 155.492 135.885C155.652 134.54 155.338 133.182 154.603 132.045C153.869 130.907 152.76 130.062 151.469 129.655C149.689 129.085 147.393 128.409 145.114 127.875C144.34 127.67 143.548 127.483 142.774 127.305C138.236 126.385 133.637 125.79 129.014 125.525C128.329 125.463 127.653 125.427 126.967 125.392C125.623 125.321 124.297 125.303 123.087 125.303C122.178 125.302 121.28 125.49 120.448 125.855C119.616 126.221 118.87 126.755 118.256 127.425C117.642 128.095 117.175 128.885 116.883 129.746C116.592 130.606 116.483 131.518 116.563 132.423C116.804 135.093 116.99 137.576 117.133 139.854C117.471 145.194 117.578 149.466 117.498 153.204C117.316 159.342 116.643 165.455 115.486 171.485V171.485Z" fill="#FFC42D"/>
    <g opacity="0.3">
        <path d="M115.486 171.485L145.8 175.365C152.635 152.35 154.887 141.234 155.492 135.885C155.652 134.54 155.338 133.182 154.603 132.045C153.869 130.907 152.76 130.062 151.469 129.655C149.689 129.085 147.393 128.409 145.114 127.875C144.34 127.67 143.548 127.483 142.774 127.305C138.236 126.385 133.637 125.79 129.014 125.525C128.329 125.463 127.653 125.427 126.967 125.392C125.623 125.321 124.297 125.303 123.087 125.303C122.178 125.302 121.28 125.49 120.448 125.855C119.616 126.221 118.87 126.755 118.256 127.425C117.642 128.095 117.175 128.885 116.883 129.746C116.592 130.606 116.483 131.518 116.563 132.423C116.804 135.093 116.99 137.576 117.133 139.854C117.471 145.194 117.578 149.466 117.498 153.204C117.316 159.342 116.643 165.455 115.486 171.485V171.485Z" fill="white"/>
    </g>
    <path opacity="0.3" d="M117.48 153.169C121.485 147.99 122.936 142.062 121.636 138.796L117.115 139.81C117.48 145.133 117.578 149.423 117.48 153.169Z" fill="#FFC42D"/>
    <path d="M145.114 127.822C144.331 127.617 143.548 127.43 142.773 127.252C138.231 126.335 133.631 125.741 129.005 125.472C128.32 125.419 127.643 125.383 126.967 125.347L125.783 125.294L126.673 126.851C126.798 127.065 129.824 132.013 137.353 137.336L138.964 138.457L140.513 137.273C142.004 136.204 143.223 134.798 144.07 133.17C144.917 131.542 145.369 129.737 145.39 127.902L145.114 127.822Z" fill="white"/>
    <path d="M132.352 116.323C132.067 120.07 131.186 123.888 129.006 125.49C129.006 125.49 131.783 130.109 138.974 135.155C143.477 131.711 142.774 127.252 142.774 127.252C137.986 125.472 138.324 122.153 140.344 116.857L136.606 114.846C136.284 114.49 135.864 114.238 135.399 114.119C134.934 114 134.444 114.021 133.991 114.178C133.538 114.336 133.141 114.623 132.849 115.004C132.558 115.386 132.385 115.844 132.352 116.323V116.323Z" fill="#FF8B7B"/>
    <path opacity="0.2" d="M136.606 114.846C136.303 114.511 135.914 114.267 135.481 114.14C135.048 114.013 134.588 114.008 134.152 114.126C133.717 114.244 133.322 114.48 133.012 114.808C132.702 115.136 132.489 115.544 132.396 115.985C133.816 118.848 136.106 121.188 138.938 122.669C139.039 120.662 139.513 118.691 140.335 116.857L136.606 114.846Z" fill="black"/>
    <path d="M126.531 104.575C128.391 111.811 129.023 114.908 133.446 117.925C140.094 122.5 148.576 118.637 148.905 111.001C149.217 104.121 146.129 93.4414 138.403 91.9106C136.698 91.562 134.932 91.656 133.273 92.1837C131.614 92.7114 130.118 93.6552 128.928 94.9251C127.737 96.195 126.892 97.7487 126.472 99.438C126.053 101.127 126.073 102.896 126.531 104.575V104.575Z" fill="#FF8B7B"/>
    <path d="M144.946 93.405C140.588 97.2789 135.418 100.128 129.816 101.744C129.816 101.744 135.343 113.501 125.001 110.537C122.001 100.525 125.001 95.3274 127.671 92.8799C135.894 90.2099 141.679 89.3199 144.946 93.405Z" fill="#1C1D36"/>
    <path d="M126.186 111.704C126.792 113.015 127.893 114.033 129.247 114.534C131.027 115.175 132.086 113.644 131.704 111.864C131.356 110.271 130.004 108.011 128.144 108.126C127.741 108.161 127.354 108.294 127.015 108.515C126.677 108.735 126.399 109.036 126.205 109.39C126.011 109.744 125.908 110.141 125.904 110.545C125.901 110.948 125.998 111.347 126.186 111.704V111.704Z" fill="#FF8B7B"/>
    <path d="M115.265 169.652L113.547 172.188C113.414 172.384 113.636 172.633 113.983 172.678L145.774 176.754C146.05 176.754 146.29 176.683 146.335 176.514L146.958 173.844C146.958 173.657 146.78 173.47 146.486 173.425L115.781 169.492C115.688 169.47 115.592 169.473 115.501 169.502C115.41 169.53 115.329 169.582 115.265 169.652V169.652Z" fill="#FFC42D"/>
    <path d="M118.941 173.612L118.122 173.505C117.962 173.505 117.846 173.381 117.873 173.283L118.71 169.803C118.741 169.744 118.792 169.698 118.854 169.672C118.915 169.647 118.984 169.642 119.048 169.661L119.875 169.767C120.036 169.767 120.151 169.883 120.125 169.99L119.288 173.461C119.261 173.568 119.11 173.63 118.941 173.612Z" fill="#1C1D36"/>
    <path d="M143.423 176.745L142.605 176.647C142.444 176.647 142.329 176.523 142.355 176.416L143.192 172.945C143.192 172.847 143.37 172.776 143.53 172.794L144.358 172.901C144.518 172.901 144.634 173.025 144.607 173.123L143.77 176.603C143.744 176.701 143.592 176.772 143.423 176.745Z" fill="#1C1D36"/>
    <path d="M131.186 175.178L130.367 175.071C130.198 175.071 130.083 174.956 130.109 174.849L130.946 171.378C130.946 171.271 131.124 171.209 131.293 171.227L132.112 171.333C132.272 171.333 132.388 171.458 132.37 171.556L131.524 175.036C131.507 175.134 131.346 175.196 131.186 175.178Z" fill="#1C1D36"/>
    <path d="M138.93 104.264C139.037 104.86 139.446 105.288 139.82 105.207C140.194 105.127 140.434 104.593 140.318 103.997C140.202 103.401 139.793 102.974 139.428 103.054C139.063 103.134 138.841 103.668 138.93 104.264Z" fill="#1C1D36"/>
    <path d="M145.658 102.973C145.774 103.57 146.183 103.988 146.548 103.917C146.913 103.845 147.162 103.294 147.047 102.697C146.931 102.101 146.522 101.683 146.157 101.754C145.792 101.825 145.552 102.377 145.658 102.973Z" fill="#1C1D36"/>
    <path d="M145.961 101.825L147.314 101.131C147.314 101.131 146.851 102.395 145.961 101.825Z" fill="#1C1D36"/>
    <path d="M143.877 104.308C144.672 105.561 145.633 106.702 146.734 107.699C146.473 107.976 146.154 108.192 145.801 108.332C145.447 108.472 145.067 108.532 144.687 108.508L143.877 104.308Z" fill="#FF5652"/>
    <path d="M139.676 110.912C139.649 110.943 139.634 110.982 139.633 111.023C139.632 111.064 139.645 111.105 139.67 111.137C139.695 111.17 139.731 111.192 139.771 111.202C139.811 111.211 139.853 111.206 139.89 111.188C140.562 110.845 141.306 110.666 142.061 110.666C142.816 110.666 143.56 110.845 144.233 111.188C144.273 111.211 144.321 111.217 144.366 111.205C144.411 111.194 144.449 111.165 144.473 111.125C144.497 111.085 144.505 111.037 144.496 110.99C144.486 110.944 144.459 110.903 144.42 110.876C143.694 110.504 142.89 110.311 142.075 110.311C141.259 110.311 140.455 110.504 139.729 110.876C139.729 110.876 139.729 110.894 139.676 110.912Z" fill="#1C1D36"/>
    <path d="M136.608 102.43C136.662 102.396 136.706 102.347 136.732 102.288C136.918 101.882 137.197 101.526 137.546 101.249C137.896 100.972 138.306 100.782 138.743 100.695C138.79 100.689 138.836 100.674 138.877 100.651C138.918 100.628 138.954 100.597 138.983 100.56C139.012 100.522 139.033 100.48 139.046 100.434C139.058 100.388 139.061 100.341 139.055 100.294C139.051 100.248 139.037 100.202 139.015 100.161C138.992 100.12 138.962 100.084 138.925 100.055C138.889 100.026 138.847 100.004 138.802 99.992C138.757 99.9796 138.71 99.9764 138.663 99.9826C138.107 100.086 137.584 100.322 137.136 100.668C136.689 101.015 136.331 101.463 136.091 101.976C136.057 102.046 136.046 102.126 136.062 102.203C136.077 102.279 136.117 102.349 136.176 102.401C136.234 102.452 136.309 102.483 136.387 102.489C136.465 102.494 136.542 102.473 136.608 102.43V102.43Z" fill="#1C1D36"/>
    <path d="M147.661 97.9174L147.706 97.8728C147.733 97.8344 147.752 97.7909 147.762 97.7449C147.772 97.699 147.773 97.6514 147.765 97.6051C147.757 97.5587 147.74 97.5145 147.714 97.4749C147.689 97.4353 147.655 97.4012 147.617 97.3745C147.157 97.0438 146.624 96.8276 146.064 96.744C145.504 96.6605 144.931 96.7118 144.395 96.8938C144.309 96.9312 144.241 97.0001 144.205 97.0862C144.168 97.1723 144.166 97.2691 144.199 97.3566C144.235 97.4439 144.303 97.5134 144.39 97.5501C144.477 97.5868 144.575 97.5877 144.662 97.5524C145.088 97.4128 145.541 97.3771 145.984 97.4483C146.427 97.5195 146.846 97.6956 147.207 97.9618C147.276 98.0105 147.359 98.0328 147.443 98.0246C147.526 98.0164 147.604 97.9783 147.661 97.9174V97.9174Z" fill="#1C1D36"/>
    <path d="M139.258 103.115L140.611 102.43C140.611 102.43 140.086 103.685 139.258 103.115Z" fill="#1C1D36"/>
    <path d="M92.6574 228.063C91.4093 228.063 90.2117 227.57 89.325 226.692C88.4384 225.813 87.9343 224.62 87.9226 223.372C87.798 210.734 92.0077 200.063 100.098 192.516C110.057 183.225 125.587 178.908 143.85 180.35C156.657 181.364 164.872 178.249 174.377 174.627C175.944 174.04 177.519 173.435 179.139 172.847C180.319 172.418 181.621 172.474 182.76 173.005C183.898 173.536 184.779 174.497 185.209 175.677C185.638 176.858 185.581 178.16 185.051 179.298C184.52 180.437 183.559 181.318 182.378 181.747C180.803 182.317 179.272 182.904 177.75 183.483C168.058 187.167 158.046 190.968 143.103 189.793C127.528 188.556 114.551 191.982 106.559 199.44C100.329 205.208 97.2943 213.226 97.3922 223.283C97.3981 223.905 97.2814 224.522 97.0489 225.099C96.8163 225.676 96.4725 226.201 96.0369 226.645C95.6014 227.088 95.0827 227.442 94.5105 227.685C93.9383 227.929 93.3237 228.057 92.7019 228.063H92.6574Z" fill="#FFC42D"/>
    <path d="M202.158 188.433L183.113 195.41C181.524 195.992 179.768 195.919 178.233 195.207C176.698 194.495 175.508 193.202 174.926 191.613L167.061 170.144C166.479 168.555 166.552 166.8 167.264 165.264C167.976 163.729 169.269 162.539 170.858 161.957L189.903 154.98L202.149 188.408L202.158 188.433Z" fill="#FFC42D"/>
    <path opacity="0.7" d="M202.158 188.433L183.113 195.41C181.524 195.992 179.768 195.919 178.233 195.207C176.698 194.495 175.508 193.202 174.926 191.613L167.061 170.144C166.479 168.555 166.552 166.8 167.264 165.264C167.976 163.729 169.269 162.539 170.858 161.957L189.903 154.98L202.149 188.408L202.158 188.433Z" fill="white"/>
    <path opacity="0.2" d="M181.419 158.082L189.918 154.976L202.165 188.422L193.665 191.537C193.1 190.99 192.667 190.32 192.402 189.579L181.722 160.396C181.442 159.658 181.339 158.866 181.419 158.082V158.082Z" fill="#FFC42D"/>
    <path d="M209.004 163.306L208.168 163.612L210.207 169.178L211.043 168.872L209.004 163.306Z" fill="#FFC42D"/>
    <path d="M206.88 160.146L203.88 151.94C203.366 150.549 202.438 149.348 201.22 148.5C200.003 147.652 198.555 147.197 197.072 147.197C196.228 147.194 195.39 147.342 194.598 147.633L189.187 149.617L188.875 148.781L194.295 146.796C195.184 146.47 196.125 146.304 197.072 146.307C198.739 146.311 200.365 146.824 201.731 147.779C203.098 148.733 204.14 150.083 204.717 151.647L207.716 159.852L206.88 160.146Z" fill="#FFC42D"/>
    <path d="M202.308 190.829L210.255 187.955C212.852 187.015 214.196 184.149 213.256 181.552L202.469 151.727C201.53 149.131 198.663 147.787 196.066 148.726L188.119 151.601C185.522 152.54 184.178 155.407 185.118 158.003L195.905 187.828C196.845 190.425 199.711 191.768 202.308 190.829Z" fill="#FFC42D"/>
    <path d="M197.758 160.778C197.939 161.275 197.969 161.814 197.844 162.327C197.719 162.84 197.445 163.305 197.056 163.662C196.666 164.02 196.18 164.253 195.658 164.334C195.135 164.415 194.601 164.339 194.122 164.115C193.643 163.892 193.241 163.532 192.967 163.08C192.693 162.628 192.559 162.105 192.583 161.577C192.606 161.05 192.785 160.54 193.098 160.115C193.411 159.689 193.843 159.365 194.34 159.185C195.005 158.944 195.738 158.977 196.378 159.275C197.019 159.574 197.515 160.115 197.758 160.778Z" fill="#1C1D36"/>
    <path d="M204.407 178.926C204.588 179.422 204.618 179.96 204.492 180.473C204.367 180.986 204.093 181.45 203.704 181.807C203.315 182.164 202.829 182.398 202.307 182.478C201.785 182.559 201.252 182.484 200.773 182.261C200.294 182.038 199.892 181.679 199.618 181.228C199.343 180.777 199.209 180.255 199.231 179.727C199.253 179.2 199.431 178.691 199.743 178.265C200.054 177.838 200.485 177.514 200.981 177.333C201.31 177.212 201.66 177.158 202.011 177.172C202.362 177.187 202.706 177.271 203.024 177.419C203.342 177.567 203.628 177.776 203.866 178.035C204.103 178.293 204.287 178.596 204.407 178.926V178.926Z" fill="#1C1D36"/>
    <path d="M126.38 176.781L126.309 176.701C124.92 175.313 123.452 173.8 122.126 172.251C120.8 170.702 119.5 169.154 118.317 167.552C117.156 165.989 116.101 164.351 115.157 162.648C114.482 161.43 113.908 160.159 113.439 158.848C113.973 157.068 114.543 155.288 115.219 153.579C115.994 151.523 116.866 149.503 117.818 147.509C118.771 145.515 119.785 143.557 120.88 141.644C121.414 140.683 121.975 139.73 122.553 138.796L123.443 137.425C123.719 136.98 124.048 136.535 124.28 136.153L124.378 136.01C125.01 135.046 125.244 133.873 125.029 132.74C124.814 131.607 124.168 130.602 123.226 129.936C122.284 129.27 121.121 128.996 119.981 129.171C118.841 129.346 117.813 129.957 117.115 130.875C116.67 131.48 116.332 131.961 115.976 132.486C115.62 133.011 115.3 133.536 114.961 134.061C114.312 135.111 113.68 136.17 113.075 137.247C111.871 139.396 110.78 141.606 109.808 143.869C109.31 144.99 108.918 146.138 108.411 147.286C107.904 148.435 107.565 149.6 107.209 150.793C106.454 153.156 105.833 155.56 105.349 157.993V158.198C105.211 158.847 105.257 159.522 105.483 160.147C106.345 162.429 107.49 164.594 108.892 166.591C110.211 168.486 111.681 170.272 113.288 171.931C114.853 173.529 116.515 175.03 118.263 176.425C120.011 177.818 121.845 179.1 123.755 180.261C124.218 180.532 124.765 180.625 125.292 180.522C125.819 180.419 126.291 180.127 126.618 179.701C126.946 179.276 127.107 178.745 127.071 178.209C127.036 177.673 126.806 177.169 126.425 176.79L126.38 176.781Z" fill="#FF8B7B"/>
    <path d="M136.722 181.204L136.606 180.973C136.237 180.201 135.693 179.527 135.018 179.001C134.343 178.476 133.556 178.115 132.717 177.947L125.962 176.576L122.66 178.223C123.016 181.925 128.303 184.141 128.303 184.141L129.807 185.859C130.314 186.435 131.016 186.803 131.778 186.894C132.54 186.984 133.309 186.79 133.936 186.348L135.716 185.076C136.315 184.653 136.744 184.033 136.928 183.324C137.112 182.615 137.039 181.864 136.722 181.204V181.204Z" fill="#FF8B7B"/>
    <path d="M120.32 125.873C116.573 127.59 112.586 133.535 112.586 133.535L120.596 148.532C120.596 148.532 129.701 138.039 128.935 132.788C128.312 128.329 125.09 123.683 120.32 125.873Z" fill="#FFC42D"/>
    <g opacity="0.3">
        <path d="M120.32 125.873C116.573 127.59 112.586 133.535 112.586 133.535L120.596 148.532C120.596 148.532 129.701 138.039 128.935 132.788C128.312 128.329 125.09 123.683 120.32 125.873Z" fill="white"/>
    </g>
    <path d="M376.729 322.367C368.888 322.367 361.181 320.756 357.443 315.879C339.75 292.739 339.91 246.192 340.061 201.149C340.15 176.896 342.064 153.979 339.367 136.179C337.783 125.686 332.247 118.485 326.658 114.765C318.363 109.283 306.971 112.229 302.103 113.484C301.496 113.653 300.862 113.7 300.237 113.621C299.613 113.543 299.01 113.34 298.464 113.026C297.919 112.711 297.442 112.291 297.06 111.79C296.679 111.289 296.402 110.717 296.244 110.107C296.087 109.498 296.052 108.863 296.143 108.24C296.234 107.617 296.449 107.018 296.774 106.479C297.099 105.94 297.528 105.471 298.037 105.099C298.545 104.728 299.123 104.462 299.735 104.317C305.814 102.741 320.072 99.0656 331.873 106.862C339.839 112.122 346.727 121.511 348.73 134.764C351.533 153.276 349.62 176.531 349.531 201.149C349.379 244.607 349.228 289.543 364.963 310.094C366.236 311.749 371.193 313.235 379.426 312.808C380.156 312.808 380.868 312.728 381.571 312.666C381.252 312.021 381.088 311.311 381.09 310.592C381.09 309.336 381.589 308.132 382.477 307.244C383.365 306.356 384.569 305.857 385.825 305.857C396.176 305.857 401.622 306.747 402.673 311.482C402.975 312.844 403.135 316.261 398.134 318.602C394.396 320.355 385.478 322.367 376.729 322.367Z" fill="#FFC42D"/>
    <path d="M273.114 326.451L263.457 322.651L268.548 305.91L278.213 309.702L273.114 326.451Z" fill="#FFC3BD"/>
    <path d="M263.226 321.628L274.12 325.9C274.258 325.956 274.373 326.056 274.447 326.185C274.521 326.314 274.55 326.464 274.529 326.612L273.461 333.393C273.433 333.557 273.369 333.713 273.273 333.849C273.177 333.985 273.052 334.097 272.907 334.178C272.762 334.259 272.6 334.307 272.435 334.317C272.269 334.328 272.102 334.301 271.948 334.239C269.216 333.109 264.935 331.24 261.473 329.878C259.346 329.041 255.296 327.706 252.35 326.549C249.405 325.392 250.17 322.331 251.46 322.544C257.326 323.488 259.568 322.482 261.909 321.61C262.334 321.447 262.806 321.453 263.226 321.628V321.628Z" fill="#1C1D36"/>
    <path opacity="0.2" d="M278.215 309.71L268.549 305.91L265.924 314.543L275.589 318.343L278.215 309.71Z" fill="black"/>
    <path d="M290.292 180.127C290.292 180.127 281.552 223.328 278.214 244.634C274.459 268.513 264.535 312.132 264.535 312.132L277.378 317.178C277.378 317.178 295.721 272.518 298.275 250.891C305.974 233.313 321.282 181.587 321.282 181.587L290.292 180.127Z" fill="#FFC42D"/>
    <path d="M263.912 312.202L278.01 317.747L280.422 313.475L264.66 306.942L263.912 312.202Z" fill="#1C1D36"/>
    <path d="M260.459 321.814C259.967 321.661 259.541 321.348 259.249 320.924C259.167 320.768 259.125 320.594 259.125 320.417C259.125 320.241 259.167 320.067 259.249 319.91C259.285 319.813 259.347 319.729 259.429 319.666C259.511 319.603 259.609 319.564 259.711 319.554C260.646 319.456 262.381 321.734 262.55 322.001C262.57 322.03 262.58 322.064 262.58 322.099C262.58 322.134 262.57 322.168 262.55 322.197C262.532 322.226 262.505 322.25 262.473 322.264C262.442 322.278 262.407 322.283 262.372 322.277C261.72 322.193 261.078 322.038 260.459 321.814V321.814ZM259.987 319.954C259.915 319.919 259.836 319.904 259.756 319.91C259.702 319.91 259.64 319.91 259.578 320.061C259.519 320.167 259.487 320.287 259.487 320.408C259.487 320.53 259.519 320.649 259.578 320.755C259.836 321.227 260.726 321.645 262.016 321.859C261.474 321.095 260.784 320.447 259.987 319.954V319.954Z" fill="#FFC42D"/>
    <path d="M262.355 322.269C262.326 322.259 262.301 322.24 262.283 322.215C261.714 321.539 260.913 319.447 261.393 318.727C261.468 318.615 261.578 318.532 261.706 318.491C261.834 318.451 261.971 318.455 262.096 318.504C262.229 318.538 262.352 318.599 262.46 318.683C262.567 318.767 262.655 318.873 262.719 318.994C263.271 319.981 262.648 322.064 262.622 322.153C262.611 322.185 262.592 322.213 262.567 322.235C262.542 322.257 262.512 322.271 262.479 322.278C262.459 322.287 262.438 322.292 262.416 322.29C262.394 322.288 262.373 322.281 262.355 322.269V322.269ZM262.052 318.869H261.981C261.749 318.816 261.696 318.869 261.669 318.949C261.402 319.376 261.838 320.889 262.346 321.717C262.6 320.894 262.6 320.013 262.346 319.189C262.289 319.051 262.185 318.937 262.052 318.869V318.869Z" fill="#FFC42D"/>
    <path opacity="0.2" d="M309.132 206.284C304.29 212.283 302.377 227.573 302.395 240.318C305.661 231.32 309.408 219.892 312.701 209.515L309.132 206.284Z" fill="black"/>
    <path d="M331.232 328.062H320.854L319.475 310.618H329.852L331.232 328.062Z" fill="#FFC3BD"/>
    <path d="M320.267 327.19H331.971C332.121 327.189 332.267 327.24 332.383 327.334C332.5 327.428 332.581 327.56 332.612 327.707L334.098 334.399C334.133 334.563 334.13 334.732 334.091 334.894C334.051 335.057 333.976 335.208 333.87 335.337C333.764 335.466 333.63 335.57 333.478 335.64C333.327 335.71 333.161 335.746 332.994 335.743C330.04 335.69 325.385 335.512 321.665 335.512C319.368 335.512 315.114 335.752 311.955 335.752C308.795 335.752 308.395 332.628 309.667 332.344C315.479 331.071 317.206 329.326 319.057 327.653C319.391 327.357 319.821 327.192 320.267 327.19V327.19Z" fill="#1C1D36"/>
    <path opacity="0.2" d="M329.851 310.618H319.465L320.186 319.616H330.572L329.851 310.618Z" fill="black"/>
    <path d="M302.857 180.67C302.857 180.67 308.607 228.81 309.817 246.138C311.499 270.257 318.005 317.872 318.005 317.872H331.8C331.8 317.872 333.278 269.243 330.786 247.607C334.221 228.73 333.135 182.121 333.135 182.121L302.857 180.67Z" fill="#FFC42D"/>
    <path d="M317.455 318.165H332.603L333.288 313.315L316.227 312.994L317.455 318.165Z" fill="#1C1D36"/>
    <path d="M317.73 328.374C317.217 328.412 316.706 328.277 316.279 327.991C316.147 327.875 316.044 327.728 315.979 327.564C315.914 327.4 315.889 327.223 315.906 327.048C315.906 326.943 315.935 326.84 315.99 326.75C316.045 326.661 316.123 326.588 316.217 326.54C317.054 326.113 319.483 327.608 319.777 327.777C319.808 327.795 319.833 327.821 319.849 327.853C319.865 327.885 319.871 327.92 319.866 327.955C319.858 327.991 319.84 328.024 319.815 328.05C319.79 328.077 319.759 328.096 319.724 328.107C319.071 328.271 318.403 328.36 317.73 328.374ZM316.609 326.816C316.529 326.811 316.449 326.827 316.377 326.861C316.333 326.861 316.279 326.932 316.27 327.065C316.252 327.185 316.264 327.308 316.306 327.421C316.348 327.535 316.419 327.636 316.511 327.715C316.92 328.062 317.908 328.107 319.181 327.849C318.406 327.344 317.542 326.994 316.635 326.816H316.609Z" fill="#FFC42D"/>
    <path d="M319.689 328.107H319.6C318.826 327.68 317.313 326.034 317.473 325.188C317.499 325.057 317.571 324.939 317.675 324.855C317.779 324.77 317.909 324.725 318.042 324.725C318.177 324.706 318.314 324.716 318.445 324.755C318.575 324.793 318.696 324.859 318.799 324.948C319.689 325.669 319.858 327.84 319.867 327.929C319.869 327.962 319.862 327.994 319.848 328.024C319.834 328.054 319.813 328.079 319.787 328.098C319.755 328.109 319.722 328.112 319.689 328.107V328.107ZM318.167 325.055H318.087C317.855 325.055 317.838 325.197 317.829 325.241C317.731 325.731 318.719 327.021 319.466 327.573C319.412 326.713 319.102 325.889 318.576 325.206C318.461 325.111 318.316 325.058 318.167 325.055V325.055Z" fill="#FFC42D"/>
    <path d="M307.621 114.284L299.308 114.178C296.513 114.178 293.737 114.089 290.986 114.044C290.15 114.044 289.331 113.991 288.503 113.955C288.557 113.955 288.592 113.857 288.637 113.813C289.224 113.19 289.812 112.549 290.417 111.935C290.719 111.614 291.016 111.303 291.307 111C291.583 110.698 291.939 110.36 292.126 110.11L292.882 109.149C293.478 108.388 293.82 107.459 293.859 106.494C293.897 105.528 293.631 104.574 293.097 103.769C292.563 102.963 291.789 102.346 290.884 102.005C289.98 101.664 288.991 101.616 288.058 101.869L286.412 102.314C285.905 102.465 285.397 102.634 284.89 102.803C283.893 103.151 282.914 103.533 281.944 103.952C279.989 104.815 278.1 105.82 276.293 106.96C274.42 108.156 272.649 109.505 270.997 110.991C269.249 112.581 267.665 114.343 266.271 116.251C265.919 116.727 265.621 117.241 265.381 117.782C264.555 119.676 264.514 121.821 265.268 123.746C266.023 125.67 267.51 127.216 269.404 128.044L270.214 128.4C272.043 129.187 273.937 129.812 275.874 130.269C277.565 130.705 279.167 130.99 280.743 131.257C282.318 131.524 283.858 131.737 285.388 131.924C286.919 132.111 288.432 132.254 289.945 132.378C292.962 132.645 295.953 132.779 298.934 132.868C301.916 132.957 304.835 132.957 307.932 132.814C310.347 132.711 312.627 131.669 314.285 129.91C315.943 128.151 316.849 125.814 316.809 123.398C316.77 120.981 315.788 118.675 314.073 116.971C312.359 115.267 310.047 114.3 307.629 114.276L307.621 114.284Z" fill="#FFC3BD"/>
    <path d="M312.462 130.527C305.28 138.715 287.996 135.653 287.996 135.653L288.948 115.255C294.873 113.951 300.914 113.25 306.98 113.163C317.126 113.145 318.212 123.959 312.462 130.527Z" fill="#1C1D36"/>
    <path d="M293.29 124.253C292.863 127.546 292.4 131.978 292.124 137.941C288.378 156.898 286.98 170.328 290.291 180.127C292.908 183.358 327.004 182.735 333.136 182.112C336.696 173.301 337.069 148.007 337.488 126.745C337.54 123.815 336.541 120.963 334.672 118.707C332.802 116.45 330.186 114.938 327.297 114.445C319.624 113.085 311.797 112.821 304.05 113.662C301.331 113.971 298.794 115.182 296.844 117.102C294.894 119.022 293.643 121.539 293.29 124.253V124.253Z" fill="#1C1D36"/>
    <path opacity="0.2" d="M326.373 137.193C326.489 143.673 331.188 154.023 336.475 159.274C336.795 153.801 337 147.864 337.16 141.875L326.373 137.193Z" fill="black"/>
    <path d="M356.079 149.786L355.777 149.074C354.533 146.105 353.078 143.229 351.425 140.468C349.84 137.798 348.132 135.279 346.361 132.849C344.59 130.42 342.712 128.097 340.789 125.836C339.81 124.715 338.84 123.593 337.817 122.508L336.277 120.888L334.639 119.232C332.924 117.539 330.616 116.579 328.206 116.558C325.795 116.537 323.471 117.455 321.726 119.118C319.981 120.781 318.952 123.058 318.857 125.467C318.762 127.876 319.609 130.227 321.218 132.022L321.485 132.315L326.709 138.127C328.489 140.103 330.189 142.114 331.88 144.117C332.699 145.123 333.545 146.128 334.31 147.152C335.075 148.175 335.885 149.163 336.651 150.178C337.754 151.717 338.822 153.248 339.775 154.752C339.629 155.512 339.445 156.263 339.223 157.004C338.583 159.16 337.832 161.281 336.971 163.359C336.081 165.557 335.138 167.809 334.159 170.025C333.18 172.241 332.129 174.555 331.195 176.78L331.106 176.976C330.696 177.959 330.634 179.053 330.93 180.077C331.225 181.101 331.862 181.993 332.733 182.606C333.605 183.219 334.659 183.516 335.723 183.449C336.786 183.382 337.795 182.954 338.582 182.236C340.545 180.416 342.408 178.49 344.162 176.468C345.942 174.469 347.613 172.362 349.173 170.149C349.965 169.037 350.722 167.88 351.469 166.678C352.246 165.457 352.956 164.194 353.596 162.896C354.317 161.48 354.941 160.017 355.465 158.517C356.148 156.596 356.532 154.582 356.604 152.545C356.627 151.599 356.448 150.658 356.079 149.786V149.786Z" fill="#FFC3BD"/>
    <path d="M327.902 114.561C339.908 116.617 347.731 132.868 347.731 132.868L333.26 148.434C333.26 148.434 324.92 139.944 319.91 132.076C314.507 123.514 319.305 113.101 327.902 114.561Z" fill="#1C1D36"/>
    <path d="M305.973 88.9372C303.961 85.5641 303.303 80.9272 306.987 76.2013C306.269 76.2913 305.541 76.1711 304.89 75.8551C304.239 75.5391 303.694 75.0411 303.32 74.4213C307.355 71.1204 312.428 69.3548 317.64 69.4373C328.409 69.4373 329.21 73.5936 328.846 76.4327C336.215 76.9044 341.59 96.0661 322.909 99.457C312.22 88.1985 305.973 88.9372 305.973 88.9372Z" fill="#1C1D36"/>
    <path d="M328.171 76.7796C328.171 76.7796 331.171 73.718 327.441 70.0156C328.277 70.2449 329.04 70.6867 329.654 71.2981C330.269 71.9095 330.715 72.6696 330.948 73.5044C331.473 75.6582 330.022 77.3848 328.171 76.7796Z" fill="#1C1D36"/>
    <path d="M324.04 97.1162C323.755 103.017 323.221 109.728 324.209 114.436C322.679 116.848 318.763 119.624 311.749 120.247C309.257 118.832 305.964 115.37 307.112 113.59C310.094 111.677 311.358 105.883 310.503 101.548L324.04 97.1162Z" fill="#FFC3BD"/>
    <path opacity="0.2" d="M320.623 98.2285L310.486 101.548C310.831 103.394 310.846 105.286 310.531 107.137C313.557 107.04 317.749 104.761 319.324 102.625C319.837 102.025 320.218 101.323 320.442 100.565C320.666 99.8077 320.728 99.0115 320.623 98.2285Z" fill="black"/>
    <path d="M326.996 87.7713C325.118 95.007 324.388 99.3413 319.956 102.376C313.289 106.942 304.906 101.824 304.576 94.1793C304.292 87.2907 307.407 76.6107 315.15 75.0888C316.855 74.7468 318.619 74.8465 320.274 75.3783C321.93 75.91 323.422 76.8562 324.609 78.127C325.796 79.3978 326.638 80.9509 327.056 82.6389C327.474 84.3269 327.453 86.0936 326.996 87.7713V87.7713Z" fill="#FFC3BD"/>
    <path d="M325.5 77.4121C322.323 79.6727 318.38 89.2491 326.39 93.0939C333.582 86.7749 331.722 77.4121 325.5 77.4121Z" fill="#1C1D36"/>
    <path d="M327.332 78.5601C328.694 72.2589 312.79 69.0015 307.752 76.3618C306.044 80.794 326.371 84.71 327.332 78.5601Z" fill="#1C1D36"/>
    <path d="M315.469 95.4521C313.817 94.7049 312.045 94.256 310.236 94.126C310.211 94.1259 310.186 94.1311 310.162 94.141C310.139 94.151 310.118 94.1655 310.101 94.1838C310.083 94.2021 310.069 94.2238 310.061 94.2475C310.052 94.2712 310.048 94.2965 310.049 94.3218C310.059 94.3793 310.088 94.4318 310.132 94.4706C310.176 94.5094 310.231 94.5322 310.289 94.5354C312.023 94.6607 313.722 95.0884 315.309 95.7992C315.359 95.8211 315.415 95.8231 315.466 95.8049C315.518 95.7867 315.56 95.7497 315.585 95.7013C315.595 95.6774 315.599 95.6518 315.599 95.626C315.598 95.6002 315.592 95.5748 315.582 95.5513C315.571 95.5279 315.555 95.507 315.536 95.4899C315.516 95.4729 315.494 95.46 315.469 95.4521V95.4521Z" fill="#1C1D36"/>
    <path d="M328.732 95.684C327.442 97.053 325.663 97.8561 323.783 97.9179C321.291 97.9713 320.66 95.595 321.861 93.5658C322.947 91.7858 325.546 89.5074 327.806 90.4152C330.067 91.323 330.298 93.9841 328.732 95.684Z" fill="#FFC3BD"/>
    <path d="M315.487 87.6469C315.371 88.2432 314.962 88.6704 314.597 88.5903C314.232 88.5102 313.992 87.9673 314.107 87.371C314.223 86.7747 314.633 86.3564 314.997 86.481C315.362 86.6056 315.603 87.0239 315.487 87.6469Z" fill="#1C1D36"/>
    <path d="M308.751 86.3383C308.635 86.9346 308.226 87.3529 307.861 87.2817C307.496 87.2105 307.247 86.6587 307.363 86.0624C307.478 85.4661 307.888 85.0389 308.253 85.119C308.617 85.1991 308.831 85.742 308.751 86.3383Z" fill="#1C1D36"/>
    <path d="M310.833 87.0234C309.765 88.7079 308.472 90.2381 306.988 91.5713C307.878 92.755 309.845 92.5236 309.845 92.5236L310.833 87.0234Z" fill="#ED847E"/>
    <path d="M314.518 84.1846C314.581 84.1707 314.647 84.1732 314.71 84.1919C314.772 84.2106 314.828 84.2449 314.874 84.2914C315.16 84.6368 315.523 84.9096 315.935 85.0875C316.346 85.2654 316.794 85.3434 317.241 85.3149C317.335 85.3021 317.431 85.3265 317.507 85.3831C317.584 85.4396 317.635 85.5237 317.651 85.6175C317.658 85.6639 317.656 85.7112 317.645 85.7567C317.634 85.8023 317.613 85.8451 317.585 85.8825C317.557 85.9199 317.521 85.9512 317.48 85.9745C317.44 85.9978 317.395 86.0126 317.348 86.018C316.783 86.0635 316.215 85.9734 315.692 85.7551C315.169 85.5368 314.705 85.1967 314.34 84.7631C314.306 84.7308 314.28 84.6921 314.262 84.6493C314.244 84.6064 314.234 84.5604 314.234 84.5139C314.234 84.4675 314.244 84.4214 314.262 84.3786C314.28 84.3358 314.306 84.2971 314.34 84.2647C314.393 84.2254 314.453 84.1981 314.518 84.1846V84.1846Z" fill="#1C1D36"/>
    <path d="M306.668 82.2087C306.594 82.1934 306.528 82.1525 306.481 82.0931C306.451 82.0559 306.429 82.0132 306.416 81.9674C306.403 81.9215 306.399 81.8735 306.405 81.8262C306.411 81.7789 306.426 81.7332 306.45 81.6919C306.474 81.6506 306.505 81.6145 306.543 81.5858C306.981 81.2275 307.497 80.9785 308.049 80.8593C308.602 80.7402 309.175 80.7542 309.721 80.9004C309.811 80.931 309.886 80.9955 309.929 81.0803C309.972 81.1651 309.98 81.2635 309.952 81.3544C309.917 81.4403 309.851 81.5103 309.767 81.5512C309.684 81.5922 309.588 81.6013 309.498 81.5769V81.5769C309.063 81.4659 308.608 81.4597 308.17 81.5587C307.733 81.6577 307.325 81.8592 306.98 82.1465C306.938 82.1838 306.887 82.2093 306.832 82.2203C306.778 82.2313 306.721 82.2273 306.668 82.2087V82.2087Z" fill="#1C1D36"/>
    <path d="M335.397 176.522L327.752 176.469L331.704 185.244C331.704 185.244 338.227 183.847 337.871 180.305L335.397 176.522Z" fill="#FFC3BD"/>
    <path d="M323.862 182.494L325.117 184.968C325.455 185.627 326.026 186.136 326.719 186.396C327.412 186.656 328.177 186.649 328.864 186.374L331.703 185.244L327.752 176.469L324.717 178.783C324.161 179.202 323.771 179.804 323.615 180.483C323.458 181.162 323.546 181.874 323.862 182.494Z" fill="#FFC3BD"/>
    <path d="M277.199 170.061C276.275 170.052 275.374 169.773 274.607 169.258C273.84 168.744 273.239 168.017 272.879 167.167C272.519 166.316 272.415 165.379 272.58 164.47C272.745 163.562 273.172 162.721 273.808 162.051C277.208 158.544 280.278 155.821 282.984 153.445C289.516 147.686 291.768 145.435 291.554 141.118C291.235 138.455 290.669 135.827 289.863 133.268C287.914 126.104 285.707 117.996 289.49 111.49C291.519 107.992 294.963 105.598 299.733 104.37C300.94 104.084 302.21 104.282 303.271 104.922C304.333 105.562 305.101 106.593 305.411 107.793C305.721 108.993 305.548 110.267 304.929 111.341C304.31 112.415 303.295 113.204 302.101 113.537C298.746 114.427 297.936 115.789 297.651 116.252C295.871 119.322 297.589 125.677 298.977 130.776C299.982 133.992 300.656 137.303 300.988 140.655C301.433 149.778 296.049 154.531 289.223 160.547C286.65 162.825 283.722 165.406 280.572 168.646C280.132 169.095 279.608 169.451 279.028 169.694C278.449 169.938 277.827 170.062 277.199 170.061V170.061Z" fill="#FFC42D"/>
    <path d="M287.586 102.065L294.991 100.169L293.264 109.639C293.264 109.639 286.598 109.843 286.1 106.328L287.586 102.065Z" fill="#FFC3BD"/>
    <path d="M300.188 105.189L299.618 107.663C299.443 108.419 298.992 109.081 298.353 109.521C297.714 109.961 296.933 110.146 296.165 110.039L293.264 109.639L294.99 100.169L298.39 101.637C299.058 101.925 299.604 102.438 299.933 103.087C300.261 103.736 300.351 104.48 300.188 105.189Z" fill="#FFC3BD"/>
    <path d="M274.552 154.488L274.351 154.287C273.451 153.387 271.991 153.387 271.091 154.287L244.846 180.541C243.946 181.442 243.947 182.901 244.847 183.801L245.048 184.002C245.949 184.902 247.408 184.902 248.308 184.002L274.553 157.748C275.453 156.848 275.453 155.388 274.552 154.488Z" fill="#1C1D36"/>
    <path d="M288.23 168.149L288.028 167.947C287.128 167.047 285.669 167.047 284.768 167.947L258.519 194.196C257.619 195.097 257.619 196.556 258.519 197.456L258.721 197.658C259.621 198.558 261.08 198.558 261.981 197.658L288.23 171.409C289.13 170.508 289.13 169.049 288.23 168.149Z" fill="#1C1D36"/>
    <path d="M253.127 164.261L271.623 145.765C272.215 145.172 272.919 144.702 273.693 144.382C274.467 144.061 275.297 143.896 276.135 143.896C276.973 143.896 277.803 144.061 278.577 144.382C279.351 144.702 280.055 145.172 280.647 145.765L296.815 161.932C297.407 162.525 297.877 163.228 298.198 164.002C298.519 164.777 298.684 165.606 298.684 166.445C298.684 167.283 298.519 168.112 298.198 168.887C297.877 169.661 297.407 170.364 296.815 170.957L278.319 189.453L253.127 164.261Z" fill="#FFC42D"/>
    <path opacity="0.7" d="M253.127 164.261L271.623 145.765C272.215 145.172 272.919 144.702 273.693 144.382C274.467 144.061 275.297 143.896 276.135 143.896C276.973 143.896 277.803 144.061 278.577 144.382C279.351 144.702 280.055 145.172 280.647 145.765L296.815 161.932C297.407 162.525 297.877 163.228 298.198 164.002C298.519 164.777 298.684 165.606 298.684 166.445C298.684 167.283 298.519 168.112 298.198 168.887C297.877 169.661 297.407 170.364 296.815 170.957L278.319 189.453L253.127 164.261Z" fill="white"/>
    <path opacity="0.2" d="M259.506 157.832L253.098 164.231L278.294 189.427L284.693 183.019C284.438 182.274 284.015 181.598 283.456 181.043L261.481 159.114C260.932 158.538 260.255 158.1 259.506 157.832V157.832Z" fill="#FFC42D"/>
    <path d="M252.018 161.005L251.558 161.464C249.605 163.417 249.605 166.584 251.558 168.538L273.994 190.973C275.947 192.927 279.114 192.927 281.067 190.973L281.527 190.514C283.48 188.56 283.48 185.394 281.527 183.44L259.091 161.005C257.138 159.051 253.971 159.051 252.018 161.005Z" fill="#FFC42D"/>
    <path d="M321.753 0.658203H123.248C119.109 0.658203 115.754 4.01329 115.754 8.152V44.3572C115.754 48.4959 119.109 51.851 123.248 51.851H321.753C325.892 51.851 329.247 48.4959 329.247 44.3572V8.152C329.247 4.01329 325.892 0.658203 321.753 0.658203Z" fill="white"/>
    <path d="M321.753 52.51H123.283C121.122 52.5076 119.05 51.648 117.521 50.1196C115.993 48.5913 115.133 46.519 115.131 44.3576V8.1524C115.133 5.99097 115.993 3.91875 117.521 2.39038C119.05 0.862023 121.122 0.00235578 123.283 0H321.753C323.915 0.00235578 325.987 0.862023 327.515 2.39038C329.044 3.91875 329.903 5.99097 329.906 8.1524V44.3576C329.903 46.519 329.044 48.5913 327.515 50.1196C325.987 51.648 323.915 52.5076 321.753 52.51ZM123.283 1.3172C121.471 1.31955 119.734 2.04045 118.453 3.32178C117.171 4.60312 116.45 6.34031 116.448 8.1524V44.3576C116.45 46.1697 117.171 47.9069 118.453 49.1882C119.734 50.4696 121.471 51.1904 123.283 51.1928H321.753C323.565 51.1904 325.303 50.4696 326.584 49.1882C327.865 47.9069 328.586 46.1697 328.588 44.3576V8.1524C328.586 6.34031 327.865 4.60312 326.584 3.32178C325.303 2.04045 323.565 1.31955 321.753 1.3172H123.283Z" fill="#1C1D36"/>
    <g opacity="0.4">
        <path d="M133.305 35.1555V15.8959H140.567C141.549 15.8774 142.531 15.9369 143.504 16.0739C144.351 16.1961 145.162 16.4996 145.88 16.9639C146.547 17.4392 147.078 18.0804 147.42 18.824C147.94 19.9274 148.124 21.1591 147.95 22.3662C147.776 23.5733 147.251 24.7028 146.441 25.6147C145.403 26.742 143.522 27.3086 140.798 27.3146H135.85V35.1466L133.305 35.1555ZM135.85 25.054H140.834C142.071 25.1805 143.313 24.8652 144.341 24.164C144.694 23.8374 144.971 23.4365 145.151 22.9903C145.331 22.544 145.41 22.0634 145.382 21.583C145.403 20.844 145.188 20.1177 144.768 19.5093C144.38 18.953 143.811 18.55 143.157 18.3701C142.373 18.2306 141.577 18.1739 140.781 18.201H135.85V25.054Z" fill="#1C1D36"/>
        <path d="M160.058 33.4381C159.307 34.0982 158.454 34.6304 157.53 35.0134C156.695 35.3201 155.812 35.4738 154.923 35.4673C153.637 35.5568 152.365 35.1561 151.363 34.3459C150.962 33.9863 150.644 33.5435 150.432 33.0486C150.22 32.5536 150.118 32.0183 150.134 31.4801C150.126 30.8249 150.285 30.1783 150.597 29.6022C150.904 29.0746 151.327 28.6241 151.834 28.285C152.36 27.9386 152.936 27.6773 153.543 27.5107C154.236 27.3514 154.937 27.2325 155.644 27.1547C157.073 27.0245 158.486 26.7532 159.862 26.3448C159.862 26.0244 159.862 25.8108 159.862 25.7307C159.902 25.3631 159.863 24.9912 159.748 24.6398C159.633 24.2884 159.444 23.9656 159.195 23.6926C158.431 23.1116 157.482 22.827 156.525 22.8916C155.663 22.8291 154.803 23.0309 154.059 23.4701C153.447 24.0103 153.033 24.7405 152.885 25.5438L150.571 25.2234C150.73 24.3562 151.086 23.5372 151.612 22.8293C152.163 22.1732 152.888 21.6859 153.703 21.4231C154.723 21.0776 155.795 20.9119 156.872 20.9336C157.856 20.8999 158.838 21.0415 159.773 21.3519C160.382 21.5249 160.929 21.8679 161.35 22.3409C161.771 22.8138 162.048 23.3969 162.149 24.0219C162.248 24.7443 162.287 25.4736 162.265 26.2024V29.353C162.23 30.7461 162.281 32.1401 162.416 33.5271C162.524 34.1132 162.725 34.6782 163.013 35.2003H160.547C160.277 34.6482 160.111 34.0507 160.058 33.4381ZM159.862 28.1515C158.614 28.599 157.318 28.8978 156 29.0415C155.294 29.1171 154.601 29.2785 153.935 29.5221C153.553 29.6769 153.227 29.9438 153 30.2875C152.738 30.7066 152.633 31.2053 152.705 31.6945C152.777 32.1837 153.02 32.6313 153.392 32.9575C153.986 33.4205 154.732 33.6457 155.483 33.5894C156.331 33.6057 157.169 33.4001 157.913 32.9931C158.593 32.6244 159.141 32.0516 159.479 31.3555C159.771 30.6047 159.901 29.8013 159.862 28.997V28.1515Z" fill="#1C1D36"/>
        <path d="M165.487 36.2949L167.783 36.6331C167.804 36.9323 167.885 37.2242 168.023 37.4906C168.161 37.757 168.352 37.9922 168.584 38.1817C169.291 38.6588 170.136 38.8903 170.987 38.8403C171.881 38.8988 172.771 38.6679 173.524 38.1817C174.128 37.7297 174.556 37.0815 174.734 36.3483C174.893 35.345 174.95 34.3282 174.903 33.3134C174.436 33.8835 173.846 34.3401 173.177 34.6484C172.508 34.9568 171.777 35.109 171.041 35.0934C170.186 35.1357 169.334 34.969 168.559 34.6076C167.783 34.2463 167.108 33.7012 166.591 33.0197C165.52 31.5824 164.962 29.8275 165.006 28.0357C164.993 26.7703 165.241 25.5158 165.736 24.3511C166.162 23.295 166.889 22.3879 167.828 21.7434C168.79 21.1275 169.916 20.8172 171.058 20.8534C171.845 20.843 172.624 21.018 173.33 21.3644C174.037 21.7108 174.652 22.2187 175.126 22.847V21.1649H177.306V33.26C177.403 34.8285 177.179 36.4001 176.648 37.8791C176.19 38.8018 175.451 39.5558 174.538 40.0329C173.438 40.5928 172.212 40.8624 170.978 40.8161C169.546 40.8842 168.13 40.4911 166.938 39.6947C166.426 39.2989 166.024 38.7787 165.77 38.1836C165.516 37.5885 165.419 36.9383 165.487 36.2949V36.2949ZM167.436 27.9111C167.314 29.3337 167.702 30.7533 168.531 31.9161C168.861 32.3194 169.279 32.6426 169.752 32.8614C170.225 33.0803 170.742 33.1892 171.263 33.1799C171.783 33.1871 172.298 33.0781 172.771 32.861C173.244 32.644 173.662 32.3242 173.995 31.925C174.826 30.7898 175.218 29.3927 175.099 27.9912C175.205 26.6077 174.799 25.2334 173.96 24.1286C173.632 23.7203 173.215 23.3914 172.742 23.1664C172.269 22.9415 171.751 22.8262 171.227 22.8292C170.715 22.8276 170.208 22.9421 169.746 23.164C169.283 23.386 168.877 23.7096 168.557 24.1108C167.734 25.2059 167.335 26.5624 167.436 27.9289V27.9111Z" fill="#1C1D36"/>
        <path d="M190.46 30.6612L192.907 30.9638C192.586 32.2827 191.831 33.4552 190.762 34.2924C189.596 35.1137 188.191 35.5267 186.766 35.4672C185.869 35.5213 184.971 35.3851 184.131 35.0676C183.29 34.7501 182.526 34.2584 181.889 33.6249C180.624 32.1617 179.984 30.2597 180.109 28.3294C179.977 26.3466 180.614 24.3891 181.889 22.8648C182.489 22.2251 183.218 21.721 184.029 21.3864C184.839 21.0517 185.712 20.8943 186.588 20.9246C187.443 20.8949 188.294 21.0497 189.083 21.3784C189.872 21.707 190.582 22.2018 191.163 22.8292C192.423 24.313 193.06 26.2262 192.943 28.1692C192.943 28.3116 192.943 28.5252 192.943 28.8011H182.539C182.522 30.1067 182.984 31.3732 183.838 32.3611C184.212 32.7579 184.665 33.0716 185.168 33.2817C185.671 33.4918 186.212 33.5936 186.757 33.5804C187.551 33.6004 188.329 33.3597 188.973 32.8951C189.684 32.3188 190.203 31.5395 190.46 30.6612V30.6612ZM182.699 26.8431H190.46C190.439 25.8836 190.129 24.9528 189.57 24.1731C189.22 23.7328 188.772 23.3798 188.263 23.1419C187.753 22.9041 187.195 22.7879 186.633 22.8025C186.127 22.79 185.624 22.8806 185.154 23.0688C184.684 23.257 184.258 23.5389 183.9 23.8972C183.123 24.6815 182.682 25.7385 182.672 26.8431H182.699Z" fill="#1C1D36"/>
        <path d="M203.32 35.155V21.1642H205.447V23.1489C205.924 22.4108 206.586 21.8104 207.366 21.4075C208.147 21.0046 209.02 20.8133 209.897 20.8527C210.695 20.8431 211.485 20.9976 212.22 21.3066C212.847 21.5478 213.395 21.9574 213.805 22.4903C214.172 23.0257 214.424 23.632 214.543 24.2703C214.645 25.0312 214.687 25.799 214.668 26.5665V35.1461H212.309V26.6644C212.339 25.9332 212.245 25.2022 212.033 24.5017C211.842 24.0244 211.497 23.6239 211.054 23.3625C210.553 23.0698 209.98 22.9219 209.399 22.9353C208.44 22.9176 207.509 23.2607 206.791 23.8965C206.062 24.5373 205.697 25.7477 205.697 27.5366V35.155H203.32Z" fill="#1C1D36"/>
        <path d="M217.41 28.1781C217.41 25.5971 218.128 23.6836 219.564 22.4376C220.785 21.3974 222.348 20.8458 223.952 20.889C224.824 20.8569 225.692 21.0084 226.502 21.3334C227.311 21.6584 228.044 22.1498 228.651 22.7758C229.293 23.4757 229.788 24.2969 230.107 25.1911C230.427 26.0852 230.564 27.0342 230.511 27.9823C230.577 29.4384 230.3 30.8896 229.701 32.2187C229.173 33.2325 228.355 34.066 227.352 34.6128C226.323 35.1951 225.161 35.5016 223.979 35.5028C223.097 35.5448 222.217 35.3991 221.396 35.0754C220.575 34.7516 219.833 34.2572 219.217 33.6249C218.573 32.8802 218.082 32.0159 217.772 31.0813C217.462 30.1467 217.339 29.1601 217.41 28.1781V28.1781ZM219.84 28.1781C219.733 29.6128 220.147 31.0381 221.006 32.192C221.367 32.6199 221.818 32.9618 222.328 33.1928C222.838 33.4238 223.392 33.538 223.952 33.527C224.51 33.538 225.063 33.4229 225.57 33.1902C226.077 32.9575 226.525 32.6132 226.88 32.1831C227.753 31.0082 228.17 29.5569 228.055 28.098C228.159 26.6911 227.737 25.2957 226.871 24.182C226.505 23.7642 226.054 23.4294 225.549 23.2001C225.043 22.9707 224.494 22.8521 223.939 22.8521C223.383 22.8521 222.834 22.9707 222.329 23.2001C221.823 23.4294 221.372 23.7642 221.006 24.182C220.144 25.328 219.726 26.7478 219.831 28.1781H219.84Z" fill="#1C1D36"/>
        <path d="M238.413 33.0374L238.761 35.1289C238.176 35.2614 237.58 35.333 236.981 35.3425C236.292 35.3764 235.606 35.2356 234.987 34.9331C234.547 34.6926 234.195 34.3186 233.981 33.8651C233.736 32.9551 233.64 32.0113 233.696 31.0705V23.0605H231.961V21.1648H233.696V17.7472L236.046 16.3232V21.1648H238.422V23.0071H236.046V31.1684C236.021 31.6054 236.063 32.0437 236.171 32.4678C236.257 32.6579 236.4 32.8166 236.58 32.9217C236.829 33.054 237.109 33.1156 237.39 33.0997C237.732 33.1018 238.074 33.081 238.413 33.0374Z" fill="#1C1D36"/>
        <path d="M248.773 35.1554V23.0425H246.682V21.1646H248.773V19.7139C248.738 19.0018 248.822 18.2889 249.022 17.6046C249.247 16.9875 249.67 16.4618 250.224 16.1094C250.955 15.6879 251.793 15.4898 252.636 15.5398C253.377 15.5491 254.116 15.6266 254.843 15.7712L254.487 17.836C254.026 17.7496 253.558 17.7049 253.09 17.7025C252.541 17.6513 251.995 17.8175 251.568 18.1653C251.216 18.6649 251.058 19.2754 251.123 19.883V21.1646H253.846V23.0069H251.123V35.1554H248.773Z" fill="#1C1D36"/>
        <path d="M254.799 28.1781C254.799 25.5971 255.517 23.6836 256.953 22.4376C258.178 21.3975 259.743 20.8461 261.349 20.889C262.221 20.8569 263.09 21.0084 263.899 21.3334C264.709 21.6584 265.441 22.1498 266.049 22.7758C266.687 23.4772 267.179 24.299 267.495 25.1931C267.812 26.0872 267.946 27.0355 267.891 27.9823C267.959 29.4376 267.685 30.8888 267.09 32.2187C266.562 33.2351 265.74 34.0692 264.731 34.6128C263.706 35.1951 262.547 35.5017 261.367 35.5028C260.486 35.5414 259.607 35.3942 258.787 35.0706C257.966 34.7471 257.223 34.2545 256.606 33.6249C255.962 32.8802 255.47 32.0159 255.16 31.0813C254.85 30.1467 254.728 29.1601 254.799 28.1781V28.1781ZM257.238 28.1781C257.125 29.6133 257.54 31.0403 258.404 32.192C258.769 32.6125 259.22 32.9498 259.726 33.1809C260.233 33.412 260.784 33.5316 261.341 33.5316C261.897 33.5316 262.448 33.412 262.955 33.1809C263.461 32.9498 263.912 32.6125 264.278 32.192C265.143 31.0141 265.557 29.5643 265.443 28.1069C265.546 26.7016 265.128 25.3078 264.269 24.1909C263.903 23.7731 263.452 23.4383 262.946 23.209C262.44 22.9796 261.891 22.861 261.336 22.861C260.781 22.861 260.232 22.9796 259.726 23.209C259.22 23.4383 258.769 23.7731 258.404 24.1909C257.533 25.3302 257.109 26.7481 257.211 28.1781H257.238Z" fill="#1C1D36"/>
        <path d="M279.79 35.1549V33.1079C279.316 33.8525 278.657 34.4614 277.877 34.8748C277.097 35.2882 276.223 35.492 275.34 35.4664C274.547 35.4761 273.761 35.3153 273.035 34.9947C272.412 34.7476 271.865 34.339 271.451 33.811C271.083 33.2767 270.834 32.6697 270.721 32.031C270.606 31.3012 270.558 30.5623 270.579 29.8238V21.1641H272.946V28.9071C272.917 29.7403 272.965 30.5745 273.089 31.3991C273.216 31.9863 273.551 32.5078 274.032 32.8676C274.551 33.2347 275.176 33.4222 275.812 33.4016C276.514 33.4019 277.204 33.2111 277.806 32.8498C278.403 32.5182 278.87 31.9944 279.132 31.3635C279.428 30.4873 279.557 29.5638 279.515 28.6401V21.1641H281.882V35.1549H279.79Z" fill="#1C1D36"/>
        <path d="M285.611 35.155V21.1642H287.738V23.1489C288.215 22.4108 288.877 21.8104 289.657 21.4075C290.438 21.0046 291.311 20.8133 292.188 20.8527C292.986 20.8431 293.776 20.9976 294.511 21.3066C295.138 21.5478 295.686 21.9574 296.096 22.4903C296.463 23.0257 296.715 23.632 296.834 24.2703C296.936 25.0312 296.978 25.799 296.959 26.5665V35.1461H294.591V26.6644C294.621 25.9332 294.527 25.2022 294.316 24.5017C294.124 24.0244 293.78 23.6239 293.337 23.3625C292.835 23.0698 292.262 22.9219 291.681 22.9353C290.722 22.9193 289.792 23.2622 289.073 23.8965C288.344 24.5373 287.979 25.7477 287.979 27.5366V35.155H285.611Z" fill="#1C1D36"/>
        <path d="M309.632 35.1551V33.3751C309.227 34.0397 308.65 34.583 307.963 34.9479C307.275 35.3128 306.502 35.4858 305.725 35.4488C304.638 35.4642 303.572 35.1542 302.663 34.5588C301.711 33.9237 300.958 33.0319 300.492 31.9867C299.963 30.797 299.702 29.5058 299.726 28.2042C299.708 26.9072 299.943 25.6191 300.42 24.4128C300.824 23.344 301.556 22.4309 302.512 21.8051C303.439 21.2064 304.523 20.8967 305.627 20.9151C306.408 20.9014 307.179 21.0851 307.87 21.4491C308.504 21.777 309.053 22.2495 309.472 22.8286V15.8955H311.821V35.1551H309.632ZM302.156 28.1953C302.048 29.6219 302.449 31.0405 303.286 32.2003C303.602 32.6087 304.007 32.9402 304.469 33.1698C304.931 33.3995 305.44 33.5214 305.956 33.5264C306.469 33.5317 306.976 33.4198 307.439 33.1992C307.901 32.9787 308.308 32.6552 308.626 32.2537C309.431 31.134 309.812 29.7655 309.703 28.3911C309.825 26.9032 309.436 25.4182 308.599 24.1814C308.282 23.7634 307.871 23.4252 307.4 23.1935C306.929 22.9618 306.41 22.8429 305.885 22.8464C305.371 22.836 304.861 22.9465 304.397 23.1691C303.934 23.3917 303.529 23.7202 303.215 24.128C302.41 25.3238 302.036 26.7585 302.156 28.1953V28.1953Z" fill="#1C1D36"/>
    </g>
    <path d="M222.501 78.1506C231.614 78.1506 239.001 70.763 239.001 61.65C239.001 52.537 231.614 45.1494 222.501 45.1494C213.388 45.1494 206 52.537 206 61.65C206 70.763 213.388 78.1506 222.501 78.1506Z" fill="#1C1D36"/>
    <path d="M222.501 75.6948C230.258 75.6948 236.545 69.407 236.545 61.6506C236.545 53.8942 230.258 47.6064 222.501 47.6064C214.745 47.6064 208.457 53.8942 208.457 61.6506C208.457 69.407 214.745 75.6948 222.501 75.6948Z" fill="white"/>
    <path d="M231.997 58.6247H225.411L230.937 42.2754L213.004 64.6767H219.59L214.063 81.026L231.997 58.6247Z" fill="#FFC42D"/>
    <path d="M232.56 73.6676L234.523 71.7041L212.44 49.6211L210.477 51.5846L232.56 73.6676Z" fill="#1C1D36"/>
</svg>
