<svg width="213" height="48" viewBox="0 0 213 48" fill="none" xmlns="http://www.w3.org/2000/svg">
<g opacity="0.3">
<path d="M23.3254 0C10.4431 0 0 10.1867 0 22.753C0 35.3192 10.4431 45.5059 23.3254 45.5059C36.208 45.5059 46.651 35.3192 46.651 22.753C46.651 10.1867 36.208 0 23.3254 0ZM25.4179 37.72C25.4098 37.72 25.4043 37.72 25.3962 37.72C25.3552 37.72 25.317 37.7066 25.2869 37.68C25.2514 37.6507 25.2322 37.6053 25.2322 37.56V31.2397C25.2322 31.165 25.2842 31.1011 25.3579 31.0851C28.5402 30.355 31.0779 27.877 31.8291 24.7701C31.8456 24.6981 31.911 24.6475 31.9875 24.6475H38.4643C38.5107 24.6475 38.5571 24.6661 38.5872 24.7008C38.6173 24.7354 38.6336 24.7806 38.6254 24.8286C37.7131 31.5274 32.2798 36.8274 25.4179 37.72ZM38.4725 21.0022C38.4698 21.0022 38.467 21.0022 38.4643 21.0022H31.9848C31.9083 21.0022 31.8427 20.9517 31.8264 20.8797C30.8949 17.016 27.412 14.3195 23.3582 14.3195C18.5478 14.3195 14.6362 18.1352 14.6362 22.8275C14.6362 26.7818 17.4006 30.1792 21.3614 31.0877C21.4352 31.1037 21.4872 31.1677 21.4872 31.2422V37.5627C21.4872 37.608 21.468 37.6507 21.4325 37.6826C21.4024 37.7093 21.3642 37.7226 21.3232 37.7226C21.315 37.7226 21.3096 37.7226 21.3014 37.7226C13.6828 36.7286 7.93816 30.3258 7.93816 22.8302C7.93816 14.5353 14.8574 7.78594 23.3582 7.78594C31.0288 7.78594 37.5792 13.3682 38.62 20.7758C38.6309 20.7971 38.6363 20.8211 38.6363 20.8451C38.6363 20.9304 38.5626 21.0022 38.4725 21.0022Z" fill="#30342D"/>
<path d="M60.0996 22.7875C60.0996 20.6773 60.5094 18.6654 61.3316 16.7523C62.1539 14.8391 63.2711 13.1871 64.6887 11.7962C66.1065 10.4052 67.8111 9.29677 69.8079 8.47076C71.802 7.6474 73.9217 7.23438 76.1671 7.23438C78.4126 7.23438 80.5186 7.65005 82.4855 8.48141C84.4522 9.31276 86.1814 10.4745 87.6674 11.964L84.2583 15.7051C82.1495 13.3043 79.4507 12.1026 76.1644 12.1026C74.2031 12.1026 72.4057 12.5902 70.7694 13.5681C69.1332 14.546 67.8521 15.8543 66.926 17.4957C65.9999 19.1371 65.5356 20.917 65.5356 22.8275C65.5356 24.7541 66.0137 26.5286 66.967 28.1514C67.9202 29.7741 69.2151 31.0584 70.8514 31.999C72.4876 32.9424 74.2742 33.4139 76.2081 33.4139C77.6286 33.4139 79.0382 33.1075 80.4367 32.4947C81.8353 31.8818 83.029 31.0798 84.0178 30.0912L87.2222 33.811C85.7334 35.2099 84.0534 36.305 82.1794 37.0965C80.3055 37.8878 78.3142 38.2848 76.2054 38.2848C73.299 38.2848 70.6137 37.608 68.1498 36.2571C65.6858 34.9061 63.73 33.0382 62.2767 30.6562C60.8262 28.2739 60.0996 25.652 60.0996 22.7875ZM90.7732 37.7493V7.74865H95.8842V19.9258C96.3841 19.5554 96.8075 19.2677 97.1516 19.0626C97.4959 18.8573 98.0286 18.6522 98.7443 18.447C99.4599 18.2418 100.238 18.1379 101.077 18.1379C102.186 18.1379 103.213 18.303 104.161 18.6334C105.109 18.9638 105.958 19.4568 106.718 20.1176C107.474 20.7786 108.067 21.6658 108.494 22.7795C108.92 23.8934 109.133 25.183 109.133 26.6486V37.7493H104.019V27.472C104.019 24.4422 102.659 22.9261 99.9407 22.9261C97.2364 22.9261 95.8842 24.4157 95.8842 27.392V37.7466H90.7732V37.7493ZM113.577 14.3782C112.954 13.7706 112.643 13.0272 112.643 12.1426C112.643 11.2579 112.954 10.5172 113.577 9.91495C114.2 9.31543 114.97 9.01433 115.891 9.01433C116.798 9.01433 117.554 9.3101 118.163 9.90429C118.773 10.4985 119.076 11.2446 119.076 12.1399C119.076 13.0379 118.773 13.7866 118.163 14.3861C117.554 14.9857 116.798 15.2868 115.891 15.2868C114.97 15.2894 114.197 14.9857 113.577 14.3782ZM113.312 37.7493V18.4949H118.423V37.7493H113.312ZM123.031 47.9998V18.4949H128.142V19.9258C129.645 18.7347 131.469 18.1379 133.619 18.1379C136.52 18.1379 138.987 19.1158 141.019 21.069C143.051 23.0221 144.068 25.3989 144.068 28.1994C144.068 30.0192 143.606 31.7034 142.68 33.2514C141.754 34.7995 140.489 36.0253 138.883 36.9285C137.277 37.8318 135.523 38.2822 133.619 38.2822C131.469 38.2822 129.642 37.688 128.142 36.5022V47.9998H123.031ZM128.145 28.4365C128.213 29.8194 128.776 31.0078 129.838 32.0018C130.901 32.9957 132.16 33.4939 133.622 33.4939C135.111 33.4939 136.386 32.9717 137.457 31.9245C138.525 30.8773 139.061 29.6355 139.061 28.2021C139.061 26.7792 138.525 25.5454 137.457 24.4982C136.389 23.451 135.111 22.9288 133.622 22.9288C132.16 22.9288 130.901 23.4298 129.838 24.429C128.776 25.4309 128.213 26.6139 128.145 27.9835V28.4365ZM146.99 47.9998V18.4949H152.102V19.9258C153.604 18.7347 155.429 18.1379 157.578 18.1379C160.479 18.1379 162.946 19.1158 164.978 21.069C167.01 23.0221 168.028 25.3989 168.028 28.1994C168.028 30.0192 167.565 31.7034 166.639 33.2514C165.714 34.7995 164.448 36.0253 162.842 36.9285C161.236 37.8318 159.482 38.2822 157.578 38.2822C155.429 38.2822 153.601 37.688 152.102 36.5022V47.9998H146.99ZM152.104 28.4365C152.172 29.8194 152.735 31.0078 153.798 32.0018C154.86 32.9957 156.12 33.4939 157.581 33.4939C159.07 33.4939 160.346 32.9717 161.416 31.9245C162.485 30.8773 163.02 29.6355 163.02 28.2021C163.02 26.7792 162.485 25.5454 161.416 24.4982C160.348 23.451 159.07 22.9288 157.581 22.9288C156.12 22.9288 154.86 23.4298 153.798 24.429C152.735 25.4309 152.172 26.6139 152.104 27.9835V28.4365ZM169.999 28.3086C169.999 26.9496 170.239 25.6547 170.72 24.421C171.2 23.1872 171.872 22.1054 172.74 21.1755C173.605 20.2456 174.684 19.5075 175.973 18.9586C177.266 18.4123 178.676 18.1379 180.202 18.1379C182.095 18.1379 183.805 18.5989 185.335 19.5235C186.861 20.448 188.047 21.671 188.885 23.1952C189.724 24.7194 190.143 26.3848 190.143 28.1914C190.143 28.7589 190.101 29.2866 190.02 29.7741H174.968C175.266 30.9811 175.896 31.9458 176.864 32.6678C177.831 33.3899 179.031 33.7498 180.464 33.7498C181.41 33.7498 182.316 33.5738 183.183 33.2195C184.048 32.8651 184.759 32.3322 185.312 31.6234L188.8 34.3253C187.908 35.5589 186.725 36.5235 185.25 37.227C183.775 37.9278 182.194 38.2795 180.503 38.2795C178.554 38.2795 176.776 37.8451 175.167 36.9739C173.559 36.1026 172.293 34.9035 171.373 33.3714C170.461 31.8445 169.999 30.1552 169.999 28.3086ZM175.154 26.113H184.992C184.845 25.1378 184.311 24.3197 183.389 23.6589C182.469 23.0008 181.396 22.6704 180.164 22.6704C178.986 22.6704 177.954 22.9848 177.061 23.6109C176.167 24.2371 175.53 25.0712 175.154 26.113ZM193.322 37.7493V18.4949H198.432V19.9258C199.378 19.2384 200.397 18.7667 201.487 18.5163C202.576 18.2658 204.087 18.1379 206.021 18.1379V22.9261C204.738 22.9261 203.637 22.9981 202.724 23.1446C201.812 23.2885 201.077 23.491 200.522 23.7469C199.968 24.0026 199.536 24.357 199.224 24.8046C198.914 25.2523 198.703 25.724 198.597 26.217C198.487 26.7099 198.436 27.3147 198.436 28.0262V37.7493H193.322ZM206.021 10.4798C206.021 10.1121 206.095 9.76041 206.242 9.42733C206.391 9.09426 206.588 8.80649 206.836 8.56668C207.084 8.32687 207.38 8.13501 207.72 7.99378C208.064 7.85257 208.423 7.78063 208.797 7.78063C209.172 7.78063 209.528 7.85257 209.871 7.99378C210.212 8.13767 210.504 8.32953 210.749 8.56934C210.996 8.80916 211.192 9.09959 211.336 9.43266C211.482 9.76573 211.556 10.1121 211.556 10.4745C211.556 10.8369 211.482 11.1833 211.336 11.519C211.189 11.8548 210.996 12.1426 210.748 12.385C210.501 12.6275 210.207 12.8194 209.864 12.9659C209.524 13.1098 209.165 13.1818 208.789 13.1818C208.288 13.1818 207.828 13.0618 207.4 12.822C206.978 12.5822 206.639 12.2545 206.391 11.8388C206.144 11.4231 206.021 10.9701 206.021 10.4798ZM206.543 10.4798C206.543 10.773 206.6 11.0501 206.717 11.3165C206.836 11.583 206.994 11.8122 207.194 12.0067C207.392 12.2012 207.631 12.3557 207.909 12.473C208.188 12.5875 208.48 12.6462 208.791 12.6462C209.2 12.6462 209.581 12.5476 209.925 12.3531C210.269 12.1586 210.543 11.8947 210.74 11.5617C210.938 11.2313 211.037 10.8689 211.037 10.4772C211.037 10.0802 210.938 9.70978 210.74 9.37138C210.543 9.03298 210.269 8.76119 209.919 8.56135C209.573 8.3615 209.192 8.26025 208.783 8.26025C208.373 8.26025 207.996 8.3615 207.652 8.56135C207.308 8.76119 207.037 9.03031 206.84 9.37138C206.642 9.70978 206.543 10.0802 206.543 10.4798ZM207.704 12.0093V8.93439H208.666C208.786 8.93439 208.89 8.93705 208.975 8.93972C209.06 8.94239 209.154 8.95305 209.261 8.96636C209.368 8.97969 209.458 8.99834 209.528 9.02233C209.602 9.04631 209.676 9.07828 209.751 9.12357C209.824 9.16621 209.884 9.21949 209.93 9.27812C209.976 9.33674 210.012 9.41135 210.042 9.50194C210.069 9.59255 210.087 9.6938 210.087 9.8057C210.087 10.3013 209.826 10.6051 209.304 10.7223L210.087 12.0173H209.455L208.701 10.765H208.231V12.012H207.704V12.0093ZM208.231 10.304H208.805C208.917 10.304 209.015 10.2987 209.095 10.288C209.173 10.2774 209.25 10.2587 209.322 10.2267C209.396 10.1974 209.45 10.1494 209.488 10.0855C209.527 10.0215 209.546 9.94161 209.546 9.84301C209.546 9.66716 209.485 9.54724 209.362 9.48863C209.239 9.43001 209.053 9.39802 208.805 9.39802H208.231V10.304Z" fill="#30342D"/>
</g>
</svg>
