<svg width="25" height="24" viewBox="0 0 25 24" fill="none" xmlns="http://www.w3.org/2000/svg">
<g clip-path="url(#clip0_3422_50644)">
<path d="M21.7569 4.60987C21.2436 4.09888 20.6341 3.69352 19.9633 3.41696C19.2925 3.14039 18.5735 2.99805 17.8474 2.99805C17.1213 2.99805 16.4024 3.14039 15.7316 3.41696C15.0608 3.69352 14.4513 4.09888 13.938 4.60987L12.8727 5.66987L11.8074 4.60987C10.7705 3.57818 9.36427 2.99858 7.89794 2.99858C6.43161 2.99858 5.02534 3.57818 3.98849 4.60987C2.95164 5.64156 2.36914 7.04084 2.36914 8.49987C2.36914 9.95891 2.95164 11.3582 3.98849 12.3899L5.05379 13.4499L12.8727 21.2299L20.6916 13.4499L21.7569 12.3899C22.2704 11.8791 22.6778 11.2727 22.9558 10.6052C23.2337 9.93777 23.3768 9.22236 23.3768 8.49987C23.3768 7.77738 23.2337 7.06198 22.9558 6.39452C22.6778 5.72706 22.2704 5.12063 21.7569 4.60987V4.60987Z" stroke="white" stroke-width="2" stroke-linecap="round" stroke-linejoin="round"/>
</g>
<defs>
<clipPath id="clip0_3422_50644">
<rect width="24.12" height="24" fill="white" transform="translate(0.8125)"/>
</clipPath>
</defs>
</svg>
