<svg width="24" height="24" viewBox="0 0 24 24" fill="none" xmlns="http://www.w3.org/2000/svg">
<rect opacity="0.01" width="24" height="24" fill="#070E45"/>
<mask id="mask0_2360_19935" style="mask-type:alpha" maskUnits="userSpaceOnUse" x="2" y="2" width="20" height="20">
<path d="M21.5682 10.1818H12.25V14.0455H17.6136C17.1136 16.5 15.0227 17.9091 12.25 17.9091C8.97727 17.9091 6.34091 15.2727 6.34091 12C6.34091 8.72727 8.97727 6.09091 12.25 6.09091C13.6591 6.09091 14.9318 6.59091 15.9318 7.40909L18.8409 4.5C17.0682 2.95455 14.7955 2 12.25 2C6.70455 2 2.25 6.45455 2.25 12C2.25 17.5455 6.70455 22 12.25 22C17.25 22 21.7955 18.3636 21.7955 12C21.7955 11.4091 21.7045 10.7727 21.5682 10.1818H21.5682Z" fill="black"/>
</mask>
<g mask="url(#mask0_2360_19935)">
<path d="M1.34082 17.909V6.09082L9.06809 11.9999L1.34082 17.909Z" fill="#FBBC05"/>
</g>
<mask id="mask1_2360_19935" style="mask-type:alpha" maskUnits="userSpaceOnUse" x="2" y="2" width="20" height="20">
<path d="M21.5682 10.1818H12.25V14.0455H17.6136C17.1136 16.5 15.0227 17.9091 12.25 17.9091C8.97727 17.9091 6.34091 15.2727 6.34091 12C6.34091 8.72727 8.97727 6.09091 12.25 6.09091C13.6591 6.09091 14.9318 6.59091 15.9318 7.40909L18.8409 4.5C17.0682 2.95455 14.7955 2 12.25 2C6.70455 2 2.25 6.45455 2.25 12C2.25 17.5455 6.70455 22 12.25 22C17.25 22 21.7955 18.3636 21.7955 12C21.7955 11.4091 21.7045 10.7727 21.5682 10.1818H21.5682Z" fill="black"/>
</mask>
<g mask="url(#mask1_2360_19935)">
<path d="M1.34082 6.09083L9.06809 11.9999L12.2499 9.22719L23.159 7.45446V1.09082H1.34082L1.34082 6.09083Z" fill="#EA4335"/>
</g>
<mask id="mask2_2360_19935" style="mask-type:alpha" maskUnits="userSpaceOnUse" x="2" y="2" width="20" height="20">
<path d="M21.5682 10.1818H12.25V14.0455H17.6136C17.1136 16.5 15.0227 17.9091 12.25 17.9091C8.97727 17.9091 6.34091 15.2727 6.34091 12C6.34091 8.72727 8.97727 6.09091 12.25 6.09091C13.6591 6.09091 14.9318 6.59091 15.9318 7.40909L18.8409 4.5C17.0682 2.95455 14.7955 2 12.25 2C6.70455 2 2.25 6.45455 2.25 12C2.25 17.5455 6.70455 22 12.25 22C17.25 22 21.7955 18.3636 21.7955 12C21.7955 11.4091 21.7045 10.7727 21.5682 10.1818H21.5682Z" fill="black"/>
</mask>
<g mask="url(#mask2_2360_19935)">
<path d="M1.34082 17.909L14.9772 7.45445L18.5681 7.909L23.159 1.09082V22.909H1.34082V17.909Z" fill="#34A853"/>
</g>
<mask id="mask3_2360_19935" style="mask-type:alpha" maskUnits="userSpaceOnUse" x="2" y="2" width="20" height="20">
<path d="M21.5682 10.1818H12.25V14.0455H17.6136C17.1136 16.5 15.0227 17.9091 12.25 17.9091C8.97727 17.9091 6.34091 15.2727 6.34091 12C6.34091 8.72727 8.97727 6.09091 12.25 6.09091C13.6591 6.09091 14.9318 6.59091 15.9318 7.40909L18.8409 4.5C17.0682 2.95455 14.7955 2 12.25 2C6.70455 2 2.25 6.45455 2.25 12C2.25 17.5455 6.70455 22 12.25 22C17.25 22 21.7955 18.3636 21.7955 12C21.7955 11.4091 21.7045 10.7727 21.5682 10.1818H21.5682Z" fill="black"/>
</mask>
<g mask="url(#mask3_2360_19935)">
<path d="M23.1591 22.909L9.06818 11.9999L7.25 10.6363L23.1591 6.09082V22.909Z" fill="#4285F4"/>
</g>
</svg>
