<svg width="24" height="24" viewBox="0 0 12 12" fill="none" xmlns="http://www.w3.org/2000/svg">
<path d="M5.27902 8.11469C5.76159 8.11469 6.18559 7.85621 6.41968 7.4706C6.47442 7.47625 6.52981 7.47913 6.58569 7.47913H6.58572H6.58574H6.58577H6.58579H6.58582H6.58584H6.58587H6.5859H6.58592H6.58595H6.58597H6.586H6.58602H6.58605H6.58607H6.58609H6.58612H6.58614H6.58617H6.58619H6.58622H6.58624H6.58626H6.58629H6.58631H6.58633H6.58636H6.58638H6.5864H6.58643H6.58645H6.58647H6.5865H6.58652H6.58654H6.58656H6.58659H6.58661H6.58663H6.58665H6.58668H6.5867H6.58672H6.58674H6.58676H6.58678H6.58681H6.58683H6.58685H6.58687H6.58689H6.58691H6.58693H6.58695H6.58697H6.587H6.58702H6.58704H6.58706H6.58708H6.5871H6.58712H6.58714H6.58716H6.58718H6.5872H6.58722H6.58724H6.58726H6.58728H6.5873H6.58731H6.58733H6.58735H6.58737H6.58739H6.58741H6.58743H6.58745H6.58747H6.58748H6.5875H6.58752H6.58754H6.58756H6.58757H6.58759H6.58761H6.58763H6.58765H6.58766H6.58768H6.5877H6.58772H6.58773H6.58775H6.58777H6.58779H6.5878H6.58782H6.58784H6.58785H6.58787H6.58789H6.5879H6.58792H6.58794H6.58795H6.58797H6.58798H6.588H6.58802H6.58803H6.58805H6.58806H6.58808H6.58809H6.58811H6.58813H6.58814H6.58816H6.58817H6.58819H6.5882H6.58822H6.58823H6.58825H6.58826H6.58827H6.58829H6.5883H6.58832H6.58833H6.58835H6.58836H6.58837H6.58839H6.5884H6.58842H6.58843H6.58844H6.58846H6.58847H6.58848H6.5885H6.58851H6.58852H6.58854H6.58855H6.58856H6.58858H6.58859H6.5886H6.58862H6.58863H6.58864H6.58865H6.58867H6.58868H6.58869H6.5887H6.58872H6.58873H6.58874H6.58875H6.58876H6.58878H6.58879H6.5888H6.58881H6.58882H6.58883H6.58884H6.58886H6.58887H6.58888H6.58889H6.5889H6.58891H6.58892H6.58893H6.58894H6.58896H6.58897H6.58898H6.58899H6.589H6.58901H6.58902H6.58903H6.58904H6.58905H6.58906H6.58907H6.58908H6.58909H6.5891H6.58911H6.58912H6.58913H6.58914H6.58915H6.58916H6.58917H6.58918H6.58919H6.5892H6.5892H6.58921H6.58922H6.58923H6.58924H6.58925H6.58926H6.58927H6.58928H6.58928H6.58929H6.5893H6.58931H6.58932H6.58933H6.58934H6.58934H6.58935H6.58936H6.58937H6.58938H6.58938H6.58939H6.5894H6.58941H6.58942H6.58942H6.58943H6.58944H6.58945H6.58945H6.58946H6.58947H6.58948H6.58948H6.58949H6.5895H6.5895H6.58951H6.58952H6.58953H6.58953H6.58954H6.58955H6.58955H6.58956H6.58957H6.58957H6.58958H6.58959H6.58959H6.5896H6.58961H6.58961H6.58962H6.58962H6.58963H6.58964H6.58964H6.58965H6.58965H6.58966H6.58967H6.58967H6.58968H6.58968H6.58969H6.58969H6.5897H6.58971H6.58971H6.58972H6.58972H6.58973H6.58973H6.58974H6.58974H6.58975H6.58975H6.58976H6.58976H6.58977H6.58977H6.58978H6.58978H6.58979H6.58979H6.5898H6.5898H6.58981H6.58981H6.58982H6.58982H6.58982H6.58983H6.58983H6.58984H6.58984H6.58985H6.58985H6.58985H6.58986H6.58986H6.58987H6.58987H6.58987H6.58988H6.58988H6.58989H6.58989H6.58989H6.5899H6.5899H6.58991H6.58992H6.58992H6.58993H6.58994H6.58994H6.58995H6.58995H6.58996H6.58997H6.58997H6.58998H6.58998H6.58999H6.58999H6.59H6.59H6.59001H6.59001H6.59002H6.59002H6.59003H6.59003H6.59004H6.59004H6.59004H6.59005H6.59005H6.59006H6.59006H6.59007H6.59007H6.59008H6.59008H6.59008H6.59009H6.59009H6.5901H6.5901H6.5901H6.59011H6.59011H6.59012H6.59012H6.59012H6.59013H6.59014H6.65641C6.88296 7.84932 7.28492 8.10136 7.74526 8.11823C7.35082 8.22007 6.98265 8.4244 6.68542 8.72075L6.00125 9.39692L5.3171 8.72078C5.01698 8.42151 4.64584 8.21547 4.24535 8.11469H5.27902ZM8.23051 8.04579C8.56902 7.92814 8.84619 7.67753 8.99902 7.35697V7.72358C8.99902 7.89147 8.85993 8.04358 8.66569 8.04358H8.33236C8.29837 8.04358 8.26441 8.04432 8.23051 8.04579ZM8.99902 2.87469V3.62699C8.81424 3.19161 8.4396 2.85714 7.98261 2.72084L7.97485 2.71853L7.96706 2.71634C7.28982 2.52624 6.56257 2.80059 6.18307 3.40542L6.18306 3.40541L6.1805 3.40955C6.17406 3.41992 6.16761 3.43031 6.16115 3.44074C5.77949 2.96026 5.19004 2.65247 4.52791 2.65247C3.92255 2.65247 3.37913 2.91051 2.99902 3.321V2.87469C2.99902 2.70679 3.13811 2.55469 3.33236 2.55469H8.66569C8.85993 2.55469 8.99902 2.70679 8.99902 2.87469ZM2.99902 7.72358V7.68936C3.17567 7.85219 3.38606 7.97312 3.61477 8.04358H3.33236C3.13811 8.04358 2.99902 7.89147 2.99902 7.72358Z" fill="#292D32" stroke="white" stroke-width="2"/>
<path d="M7.46137 5.81253V4.50586C7.19915 4.93253 6.92804 5.3903 6.68359 5.80808H7.46137V5.81253Z" fill="white"/>
</svg>
