<svg width="24" height="24" viewBox="0 0 24 24" fill="none" xmlns="http://www.w3.org/2000/svg">
<path d="M20.7206 18.24L19.7806 17.3C20.2706 16.56 20.5606 15.67 20.5606 14.71C20.5606 12.11 18.4506 10 15.8506 10C13.2506 10 11.1406 12.11 11.1406 14.71C11.1406 17.31 13.2506 19.42 15.8506 19.42C16.8106 19.42 17.6906 19.13 18.4406 18.64L19.3806 19.58C19.5706 19.77 19.8106 19.86 20.0606 19.86C20.3106 19.86 20.5506 19.77 20.7406 19.58C21.0906 19.22 21.0906 18.62 20.7206 18.24Z" fill="#F8F8F8"/>
<path d="M19.5819 4.02V6.24C19.5819 7.05 19.0819 8.06 18.5819 8.57L18.4019 8.73C18.2619 8.86 18.0519 8.89 17.8719 8.83C17.6719 8.76 17.4719 8.71 17.2719 8.66C16.8319 8.55 16.3619 8.5 15.8819 8.5C12.4319 8.5 9.63188 11.3 9.63188 14.75C9.63188 15.89 9.94187 17.01 10.5319 17.97C11.0319 18.81 11.7319 19.51 12.4919 19.98C12.7219 20.13 12.8119 20.45 12.6119 20.63C12.5419 20.69 12.4719 20.74 12.4019 20.79L11.0019 21.7C9.70187 22.51 7.91187 21.6 7.91187 19.98V14.63C7.91187 13.92 7.51188 13.01 7.11188 12.51L3.32187 8.47C2.82187 7.96 2.42188 7.05 2.42188 6.45V4.12C2.42188 2.91 3.32187 2 4.41187 2H17.5919C18.6819 2 19.5819 2.91 19.5819 4.02Z" fill="#F8F8F8"/>
</svg>
