<svg width="25" height="25" viewBox="0 0 25 25" fill="none" xmlns="http://www.w3.org/2000/svg">
<path d="M18.5001 7.95102C18.4401 7.94102 18.3701 7.94102 18.3101 7.95102C16.9301 7.90102 15.8301 6.77102 15.8301 5.37102C15.8301 3.94102 16.9801 2.79102 18.4101 2.79102C19.8401 2.79102 20.9901 3.95102 20.9901 5.37102C20.9801 6.77102 19.8801 7.90102 18.5001 7.95102Z" stroke="#292D32" stroke-width="1.5" stroke-linecap="round" stroke-linejoin="round"/>
<path d="M17.4704 15.2312C18.8404 15.4612 20.3504 15.2212 21.4104 14.5112C22.8204 13.5712 22.8204 12.0312 21.4104 11.0912C20.3404 10.3812 18.8104 10.1412 17.4404 10.3812" stroke="#292D32" stroke-width="1.5" stroke-linecap="round" stroke-linejoin="round"/>
<path d="M6.47047 7.95102C6.53047 7.94102 6.60047 7.94102 6.66047 7.95102C8.04047 7.90102 9.14047 6.77102 9.14047 5.37102C9.14047 3.94102 7.99047 2.79102 6.56047 2.79102C5.13047 2.79102 3.98047 3.95102 3.98047 5.37102C3.99047 6.77102 5.09047 7.90102 6.47047 7.95102Z" stroke="#292D32" stroke-width="1.5" stroke-linecap="round" stroke-linejoin="round"/>
<path d="M7.50043 15.2312C6.13043 15.4612 4.62043 15.2212 3.56043 14.5112C2.15043 13.5712 2.15043 12.0312 3.56043 11.0912C4.63043 10.3812 6.16043 10.1412 7.53043 10.3812" stroke="#292D32" stroke-width="1.5" stroke-linecap="round" stroke-linejoin="round"/>
<path d="M12.5001 15.4207C12.4401 15.4107 12.3701 15.4107 12.3101 15.4207C10.9301 15.3707 9.83008 14.2407 9.83008 12.8407C9.83008 11.4107 10.9801 10.2607 12.4101 10.2607C13.8401 10.2607 14.9901 11.4207 14.9901 12.8407C14.9801 14.2407 13.8801 15.3807 12.5001 15.4207Z" stroke="#292D32" stroke-width="1.5" stroke-linecap="round" stroke-linejoin="round"/>
<path d="M9.58973 18.5704C8.17973 19.5104 8.17973 21.0504 9.58973 21.9904C11.1897 23.0604 13.8097 23.0604 15.4097 21.9904C16.8197 21.0504 16.8197 19.5104 15.4097 18.5704C13.8197 17.5104 11.1897 17.5104 9.58973 18.5704Z" stroke="#292D32" stroke-width="1.5" stroke-linecap="round" stroke-linejoin="round"/>
</svg>
