<svg width="120" height="120" viewBox="0 0 120 120" fill="none" xmlns="http://www.w3.org/2000/svg">
<g clip-path="url(#clip0_8_5482)">
<path d="M39.5333 55.1669C37.0676 55.1752 34.6454 55.8181 32.5 57.0336C35.5205 49.2153 40.5302 42.3212 47.0333 37.0336C47.4054 36.7272 47.7135 36.3505 47.94 35.925C48.1665 35.4995 48.307 35.0336 48.3534 34.5538C48.3998 34.074 48.3513 33.5898 48.2106 33.1288C48.0699 32.6678 47.8398 32.239 47.5333 31.8669C47.2269 31.4948 46.8502 31.1867 46.4247 30.9602C45.9993 30.7338 45.5333 30.5933 45.0536 30.5469C44.5738 30.5004 44.0896 30.5489 43.6286 30.6897C43.1675 30.8304 42.7388 31.0605 42.3667 31.3669C29.0333 42.2002 23.1 57.2002 23.1 66.5002C23.123 69.7885 24.1029 72.999 25.9201 75.7397C27.7374 78.4803 30.3133 80.6325 33.3333 81.9336C35.2879 82.8804 37.4283 83.3814 39.6 83.4002C41.5115 83.4932 43.422 83.1969 45.2156 82.5294C47.0093 81.8619 48.6486 80.8371 50.0343 79.5171C51.4201 78.1971 52.5233 76.6094 53.277 74.8503C54.0308 73.0912 54.4195 71.1974 54.4195 69.2836C54.4195 67.3698 54.0308 65.4759 53.277 63.7168C52.5233 61.9577 51.4201 60.3701 50.0343 59.0501C48.6486 57.7301 47.0093 56.7053 45.2156 56.0378C43.422 55.3703 41.5115 55.074 39.6 55.1669H39.5333Z" fill="#FFC42D"/>
<path d="M76.6667 55.1666C74.2005 55.1719 71.7776 55.8149 69.6333 57.0332C72.6526 49.2231 77.6492 42.3313 84.1333 37.0332C84.5392 36.7407 84.8809 36.3682 85.1374 35.9387C85.3939 35.5091 85.5598 35.0316 85.6248 34.5356C85.6899 34.0395 85.6527 33.5354 85.5157 33.0543C85.3786 32.5731 85.1446 32.1251 84.8279 31.7378C84.5112 31.3505 84.1186 31.0321 83.6743 30.8022C83.2299 30.5723 82.7432 30.4357 82.2442 30.401C81.7451 30.3662 81.2442 30.4339 80.7722 30.6C80.3003 30.766 79.8673 31.0269 79.5 31.3666C66.1667 42.1999 60.2333 57.1999 60.2333 66.4999C60.2491 69.751 61.2005 72.9288 62.9738 75.6537C64.747 78.3786 67.2672 80.5354 70.2333 81.8666C72.2374 82.8411 74.4383 83.3429 76.6667 83.3332C78.5782 83.4262 80.4887 83.1299 82.2823 82.4624C84.0759 81.7949 85.7153 80.7701 87.101 79.4501C88.4867 78.1301 89.5899 76.5424 90.3437 74.7833C91.0975 73.0242 91.4862 71.1304 91.4862 69.2166C91.4862 67.3028 91.0975 65.4089 90.3437 63.6498C89.5899 61.8907 88.4867 60.3031 87.101 58.9831C85.7153 57.6631 84.0759 56.6383 82.2823 55.9708C80.4887 55.3033 78.5782 55.007 76.6667 55.0999V55.1666Z" fill="#FFC42D"/>
</g>
<defs>
<clipPath id="clip0_8_5482">
<rect width="120" height="120" fill="white"/>
</clipPath>
</defs>
</svg>
