<svg width="32" height="32" viewBox="0 0 32 32" fill="none" xmlns="http://www.w3.org/2000/svg">
<g clip-path="url(#clip0_3422_54444)">
<path d="M24.1704 4.41113H2.92193C2.14775 4.41166 1.40545 4.71951 0.858117 5.26703C0.310784 5.81455 0.00319454 6.55695 0.00292969 7.33113V28.5801C0.00306225 29.3543 0.310641 30.0966 0.858031 30.644C1.40542 31.1914 2.1478 31.499 2.92193 31.4991H24.1704C24.9446 31.499 25.6871 31.1914 26.2345 30.6439C26.7819 30.0964 27.0894 29.3538 27.0894 28.5796V7.33113C27.0893 6.55691 26.7817 5.81443 26.2344 5.26688C25.687 4.71933 24.9446 4.41153 24.1704 4.41113ZM25.5304 27.1411C25.5306 27.4804 25.4639 27.8163 25.3341 28.1298C25.2044 28.4433 25.0142 28.7281 24.7744 28.9681C24.5346 29.208 24.2499 29.3984 23.9365 29.5283C23.6231 29.6582 23.2872 29.7251 22.9479 29.7251H4.14693C3.80756 29.7253 3.47148 29.6585 3.15792 29.5287C2.84436 29.3989 2.55945 29.2086 2.31947 28.9686C2.0795 28.7286 1.88917 28.4437 1.75936 28.1301C1.62955 27.8166 1.5628 27.4805 1.56293 27.1411V8.34063C1.56293 8.00132 1.62977 7.66533 1.75963 7.35185C1.8895 7.03838 2.07984 6.75355 2.3198 6.51365C2.55975 6.27374 2.84461 6.08345 3.15811 5.95365C3.47162 5.82384 3.80762 5.75707 4.14693 5.75713H22.9479C23.6329 5.75753 24.2897 6.02988 24.7739 6.51432C25.2582 6.99876 25.5303 7.65566 25.5304 8.34063V27.1411Z" fill="#344549"/>
<path d="M28.0299 1.82153C24.1794 5.15553 20.6469 8.69253 17.6634 12.8315C16.3474 14.6575 15.3129 16.686 14.3569 18.715C13.9074 19.67 13.6389 20.6635 13.3864 21.657C11.5499 19.95 9.76244 18.1945 7.74644 16.677C6.30894 15.5955 1.48394 18.987 3.16894 20.256C6.18894 22.528 8.70394 25.3565 11.6389 27.7295C12.8679 28.721 15.5914 26.569 16.2294 25.6645C18.3299 22.6895 18.6169 19.05 20.1484 15.8035C22.4864 10.839 26.6319 6.76353 30.7234 3.21853C33.7784 0.574528 30.0874 0.0400283 28.0309 1.81953" fill="#37B34A"/>
</g>
<defs>
<clipPath id="clip0_3422_54444">
<rect width="32" height="32" fill="white" transform="translate(0 -0.000976562)"/>
</clipPath>
</defs>
</svg>
