<svg width="25" height="24" viewBox="0 0 25 24" fill="none" xmlns="http://www.w3.org/2000/svg">
<path d="M22.7991 18.33C22.7991 18.69 22.7191 19.06 22.5491 19.42C22.3791 19.78 22.1591 20.12 21.8691 20.44C21.3791 20.98 20.8391 21.37 20.2291 21.62C19.6291 21.87 18.9791 22 18.2791 22C17.2591 22 16.1691 21.76 15.0191 21.27C13.8691 20.78 12.7191 20.12 11.5791 19.29C10.4291 18.45 9.3391 17.52 8.2991 16.49C7.2691 15.45 6.3391 14.36 5.5091 13.22C4.6891 12.08 4.0291 10.94 3.5491 9.81C3.0691 8.67 2.8291 7.58 2.8291 6.54C2.8291 5.86 2.9491 5.21 3.1891 4.61C3.4291 4 3.8091 3.44 4.3391 2.94C4.9791 2.31 5.6791 2 6.4191 2C6.6991 2 6.9791 2.06 7.2291 2.18C7.4891 2.3 7.7191 2.48 7.8991 2.74L10.2191 6.01C10.3991 6.26 10.5291 6.49 10.6191 6.71C10.7091 6.92 10.7591 7.13 10.7591 7.32C10.7591 7.56 10.6891 7.8 10.5491 8.03C10.4191 8.26 10.2291 8.5 9.9891 8.74L9.2291 9.53C9.1191 9.64 9.0691 9.77 9.0691 9.93C9.0691 10.01 9.0791 10.08 9.0991 10.16C9.1291 10.24 9.1591 10.3 9.1791 10.36C9.3591 10.69 9.6691 11.12 10.1091 11.64C10.5591 12.16 11.0391 12.69 11.5591 13.22C12.0991 13.75 12.6191 14.24 13.1491 14.69C13.6691 15.13 14.0991 15.43 14.4391 15.61C14.4891 15.63 14.5491 15.66 14.6191 15.69C14.6991 15.72 14.7791 15.73 14.8691 15.73C15.0391 15.73 15.1691 15.67 15.2791 15.56L16.0391 14.81C16.2891 14.56 16.5291 14.37 16.7591 14.25C16.9891 14.11 17.2191 14.04 17.4691 14.04C17.6591 14.04 17.8591 14.08 18.0791 14.17C18.2991 14.26 18.5291 14.39 18.7791 14.56L22.0891 16.91C22.3491 17.09 22.5291 17.3 22.6391 17.55C22.7391 17.8 22.7991 18.05 22.7991 18.33Z" stroke="white" stroke-width="1.5" stroke-miterlimit="10"/>
<path d="M19.3291 9C19.3291 8.4 18.8591 7.48 18.1591 6.73C17.5191 6.04 16.6691 5.5 15.8291 5.5" stroke="white" stroke-width="1.5" stroke-linecap="round" stroke-linejoin="round"/>
<path d="M22.8291 9C22.8291 5.13 19.6991 2 15.8291 2" stroke="white" stroke-width="1.5" stroke-linecap="round" stroke-linejoin="round"/>
</svg>
