<svg width="198" height="181" viewBox="0 0 198 181" fill="none" xmlns="http://www.w3.org/2000/svg">
<path d="M28.9963 164.943C67.6558 185.141 130.344 185.141 169.004 164.943C207.663 144.744 207.668 111.997 169.004 91.7985C130.34 71.5997 67.6558 71.5997 28.9963 91.7985C-9.66315 111.997 -9.66774 144.744 28.9963 164.943Z" fill="#FDF1C9"/>
<path d="M129.213 159.834C140.871 159.834 150.322 155.33 150.322 149.774C150.322 144.218 140.871 139.714 129.213 139.714C117.554 139.714 108.104 144.218 108.104 149.774C108.104 155.33 117.554 159.834 129.213 159.834Z" fill="#EBEBEB"/>
<path d="M166.608 136.891C175.603 136.891 182.894 133.416 182.894 129.129C182.894 124.843 175.603 121.368 166.608 121.368C157.614 121.368 150.322 124.843 150.322 129.129C150.322 133.416 157.614 136.891 166.608 136.891Z" fill="#EBEBEB"/>
<path d="M50.5334 126.955C49.6138 122.099 46.2481 115.179 42.1422 111.322C38.1925 107.616 32.3302 106.324 29.9944 108.034C27.6587 109.744 29.1898 113.441 33.7233 117.947C38.8409 123.028 48.6667 137.125 50.5334 145.112V126.955Z" fill="#094519"/>
<path d="M50.5331 138.638C50.4755 138.637 50.4202 138.615 50.3778 138.576C50.3354 138.537 50.3089 138.484 50.3032 138.426C49.1446 126.196 40.5924 112.448 32.3713 109.584C32.3139 109.563 32.2669 109.52 32.2403 109.465C32.2136 109.41 32.2095 109.347 32.2287 109.289C32.2496 109.232 32.292 109.185 32.3469 109.158C32.4019 109.132 32.465 109.127 32.523 109.147C41.0476 112.112 49.5768 125.777 50.7722 138.385C50.7774 138.446 50.7587 138.506 50.7201 138.553C50.6814 138.601 50.6259 138.631 50.5653 138.638H50.5331Z" fill="white"/>
<path d="M50.5334 150.984C50.5334 150.984 48.9425 152.253 43.6365 151.756C38.3305 151.259 35.5947 147.466 35.5947 145.838C35.5947 144.211 40.4731 143.93 41.5307 139.893C40.455 141.046 39.0239 141.806 37.4661 142.05C34.7073 142.569 32.4911 141.687 31.8612 136.661C33.2209 136.86 34.6081 136.745 35.9166 136.325C38.1006 135.622 38.6202 134.422 38.05 134.164C37.4799 133.907 34.436 134.164 32.4865 133.424C30.537 132.684 32.0267 122.532 33.305 121.81C34.5832 121.088 40.6295 122.789 41.8065 123.699C42.8549 124.509 44.3262 125.911 43.6457 128.877C44.4518 128.123 45.0801 127.2 45.4849 126.173C46.055 124.794 46.4689 125.116 47.3241 125.644C47.8376 125.934 48.2834 126.33 48.6315 126.806C48.9796 127.281 49.222 127.826 49.3426 128.403C49.5495 129.691 49.2138 134.132 47.4022 135.576C47.4022 135.576 49.1403 135.797 50.561 132.863C50.561 132.863 53.3198 133.976 53.9451 135.778C54.5704 137.581 55.2509 146.404 50.5334 150.984Z" fill="#0D5520"/>
<path d="M51.002 151.985C50.9458 151.985 50.8916 151.964 50.8494 151.927C50.8072 151.89 50.7798 151.839 50.7721 151.783C49.5582 141.847 42.0038 128.793 34.5965 123.892C34.5453 123.858 34.5097 123.805 34.4977 123.744C34.4856 123.684 34.498 123.621 34.5321 123.57C34.5663 123.519 34.6194 123.483 34.6797 123.471C34.7401 123.459 34.8028 123.472 34.854 123.506C42.3532 128.495 50.0272 141.681 51.2273 151.728C51.2351 151.788 51.2187 151.849 51.1816 151.898C51.1446 151.946 51.0899 151.977 51.0296 151.985H51.002Z" fill="white"/>
<path d="M51.4665 153.375C51.1921 153.185 50.9661 152.933 50.8064 152.64C50.6467 152.347 50.5578 152.021 50.5469 151.687V41.8377C50.5656 41.492 50.6658 41.1557 50.8392 40.856C51.0126 40.5564 51.2543 40.302 51.5446 40.1135L120.514 0.286108C120.802 0.105293 121.134 0.00648249 121.474 0.000308211C121.814 -0.00586607 122.15 0.0808284 122.445 0.251065C122.739 0.421302 122.982 0.66864 123.146 0.96647C123.311 1.2643 123.391 1.60135 123.378 1.94137L53.3976 153.338C53.1013 153.495 52.772 153.581 52.4364 153.587C52.1009 153.594 51.7686 153.521 51.4665 153.375Z" fill="#E0E0E0"/>
<path d="M52.4 43.9252L80.4152 25.5932L78.5485 24.5127L51.531 40.1135C51.2406 40.302 50.9989 40.5565 50.8255 40.8561C50.6521 41.1557 50.552 41.4921 50.5332 41.8377V42.8447L52.4 43.9252Z" fill="#37474F"/>
<path opacity="0.2" d="M52.4 43.9252L80.4152 25.5932L78.5485 24.5127L51.531 40.1135C51.2406 40.302 50.9989 40.5565 50.8255 40.8561C50.6521 41.1557 50.552 41.4921 50.5332 41.8377V42.8447L52.4 43.9252Z" fill="#37474F"/>
<path d="M61.7569 47.1572L50.823 40.8672C50.6449 41.1637 50.5452 41.5008 50.5334 41.8466V151.678C50.5215 152.017 50.6024 152.354 50.7672 152.651C50.9321 152.948 51.1748 153.195 51.4693 153.364C51.7637 153.534 52.0988 153.62 52.4386 153.614C52.7784 153.608 53.11 153.509 53.3979 153.328L61.7569 148.523V47.1572Z" fill="#263238"/>
<path opacity="0.4" d="M61.7569 47.1572L50.823 40.8672C50.6449 41.1637 50.5452 41.5008 50.5334 41.8466V151.678C50.5215 152.017 50.6024 152.354 50.7672 152.651C50.9321 152.948 51.1748 153.195 51.4693 153.364C51.7637 153.534 52.0988 153.62 52.4386 153.614C52.7784 153.608 53.11 153.509 53.3979 153.328L61.7569 148.523V47.1572Z" fill="#263238"/>
<path d="M53.3982 153.337L122.367 113.51C122.658 113.322 122.899 113.067 123.073 112.768C123.246 112.468 123.346 112.132 123.365 111.786V1.94104C123.365 1.30652 122.905 1.04904 122.367 1.3663L53.3982 41.1937C53.1078 41.3822 52.8661 41.6366 52.6927 41.9362C52.5193 42.2359 52.4192 42.5722 52.4004 42.9179V152.763C52.4004 153.397 52.8464 153.655 53.3982 153.337Z" fill="#455A64"/>
<path opacity="0.1" d="M53.3982 153.337L122.367 113.51C122.658 113.322 122.899 113.067 123.073 112.768C123.246 112.468 123.346 112.132 123.365 111.786V1.94104C123.365 1.30652 122.905 1.04904 122.367 1.3663L53.3982 41.1937C53.1078 41.3822 52.8661 41.6366 52.6927 41.9362C52.5193 42.2359 52.4192 42.5722 52.4004 42.9179V152.763C52.4004 153.397 52.8464 153.655 53.3982 153.337Z" fill="#455A64"/>
<path d="M58.1296 68.2898L74.6822 58.726C75.7811 58.0915 76.6731 58.5421 76.6731 59.733C76.6239 60.4016 76.4181 61.0493 76.0723 61.6236C75.7264 62.1979 75.2502 62.6828 74.6822 63.0389L58.1296 72.6026C57.0261 73.2371 56.1387 72.7865 56.1387 71.5957C56.1867 70.9268 56.3921 70.2787 56.7381 69.7042C57.084 69.1297 57.5608 68.6451 58.1296 68.2898Z" fill="#FFC42D"/>
<path d="M58.1296 75.0762L69.0865 68.7495C70.1854 68.115 71.0774 68.5656 71.0774 69.7564C71.0283 70.425 70.8224 71.0727 70.4766 71.647C70.1307 72.2213 69.6545 72.7062 69.0865 73.0623L58.1296 79.3891C57.0261 80.0236 56.1387 79.573 56.1387 78.3822C56.1867 77.7133 56.3921 77.0652 56.7381 76.4907C57.084 75.9162 57.5608 75.4315 58.1296 75.0762Z" fill="#FFC42D"/>
<path d="M56.9341 86.6905L59.0768 85.4536C59.5366 85.2007 59.8722 85.4077 59.8722 85.9134V88.3871C59.8573 88.6634 59.7775 88.9322 59.6393 89.1719C59.5011 89.4115 59.3084 89.6152 59.0768 89.7665L56.9341 90.985C56.4743 91.2424 56.1387 91.0355 56.1387 90.5252V88.0515C56.1568 87.7785 56.238 87.5135 56.3761 87.2773C56.5141 87.0411 56.7052 86.8402 56.9341 86.6905Z" fill="#FFC42D"/>
<path opacity="0.2" d="M56.9341 86.6905L59.0768 85.4536C59.5366 85.2007 59.8722 85.4077 59.8722 85.9134V88.3871C59.8573 88.6634 59.7775 88.9322 59.6393 89.1719C59.5011 89.4115 59.3084 89.6152 59.0768 89.7665L56.9341 90.985C56.4743 91.2424 56.1387 91.0355 56.1387 90.5252V88.0515C56.1568 87.7785 56.238 87.5135 56.3761 87.2773C56.5141 87.0411 56.7052 86.8402 56.9341 86.6905Z" fill="black"/>
<path d="M56.9341 95.3213L59.0768 94.0844C59.5366 93.8269 59.8722 94.0338 59.8722 94.5442V97.0179C59.8562 97.2939 59.776 97.5623 59.6379 97.8018C59.4998 98.0413 59.3076 98.2452 59.0768 98.3973L56.9341 99.6341C56.4743 99.887 56.1387 99.6801 56.1387 99.1743V96.7006C56.1529 96.4242 56.2324 96.1551 56.3706 95.9153C56.5089 95.6756 56.702 95.472 56.9341 95.3213Z" fill="#BE0000"/>
<path d="M62.736 93.0494L75.6838 85.5685C76.2356 85.2513 76.6816 85.4766 76.6816 86.0743C76.6566 86.4085 76.5532 86.732 76.3799 87.0188C76.2066 87.3056 75.9681 87.5475 75.6838 87.725L62.736 95.2058C62.1843 95.5231 61.7383 95.2978 61.7383 94.7C61.7633 94.3659 61.8666 94.0423 62.04 93.7555C62.2133 93.4687 62.4518 93.2268 62.736 93.0494Z" fill="#FFC42D"/>
<path opacity="0.2" d="M62.736 93.0494L75.6838 85.5685C76.2356 85.2513 76.6816 85.4766 76.6816 86.0743C76.6566 86.4085 76.5532 86.732 76.3799 87.0188C76.2066 87.3056 75.9681 87.5475 75.6838 87.725L62.736 95.2058C62.1843 95.5231 61.7383 95.2978 61.7383 94.7C61.7633 94.3659 61.8666 94.0423 62.04 93.7555C62.2133 93.4687 62.4518 93.2268 62.736 93.0494Z" fill="black"/>
<path d="M56.9341 103.946L59.0768 102.709C59.5366 102.452 59.8722 102.659 59.8722 103.169V105.643C59.8566 105.919 59.7765 106.188 59.6383 106.427C59.5002 106.667 59.3079 106.87 59.0768 107.022L56.9341 108.259C56.4743 108.512 56.1387 108.305 56.1387 107.799V105.326C56.1529 105.049 56.2324 104.78 56.3706 104.54C56.5089 104.301 56.702 104.097 56.9341 103.946Z" fill="#E0E0E0"/>
<path d="M62.736 101.675L75.6838 94.2033C76.2356 93.886 76.6816 94.1113 76.6816 94.7091C76.6573 95.0434 76.5543 95.3673 76.3809 95.6542C76.2074 95.941 75.9686 96.1828 75.6838 96.3597L62.736 103.841C62.1843 104.158 61.7383 103.933 61.7383 103.335C61.7619 102.999 61.8645 102.674 62.038 102.385C62.2114 102.097 62.4506 101.853 62.736 101.675Z" fill="#F0F0F0"/>
<path d="M56.9341 112.596L59.0768 111.359C59.5366 111.101 59.8722 111.308 59.8722 111.819V114.292C59.8566 114.568 59.7765 114.837 59.6383 115.076C59.5002 115.316 59.3079 115.52 59.0768 115.672L56.9341 116.909C56.4743 117.161 56.1387 116.955 56.1387 116.449V113.975C56.1529 113.699 56.2324 113.43 56.3706 113.19C56.5089 112.95 56.702 112.746 56.9341 112.596Z" fill="#E0E0E0"/>
<path d="M62.736 110.324L75.6838 102.848C76.2356 102.526 76.6816 102.756 76.6816 103.349C76.6573 103.684 76.5543 104.009 76.3809 104.296C76.2075 104.584 75.9687 104.827 75.6838 105.004L62.736 112.481C62.1843 112.798 61.7383 112.573 61.7383 111.975C61.7633 111.641 61.8666 111.317 62.04 111.03C62.2133 110.744 62.4518 110.502 62.736 110.324Z" fill="#F0F0F0"/>
<path d="M56.9341 121.221L59.0768 119.984C59.5366 119.726 59.8722 119.933 59.8722 120.444V122.917C59.8566 123.193 59.7765 123.462 59.6383 123.701C59.5002 123.941 59.3079 124.145 59.0768 124.297L56.9341 125.534C56.4743 125.786 56.1387 125.58 56.1387 125.074V122.6C56.1529 122.324 56.2324 122.055 56.3706 121.815C56.5089 121.575 56.702 121.371 56.9341 121.221Z" fill="#E0E0E0"/>
<path d="M62.736 118.95L75.6838 111.474C76.2356 111.152 76.6816 111.382 76.6816 111.975C76.6573 112.31 76.5543 112.635 76.3809 112.922C76.2075 113.21 75.9687 113.453 75.6838 113.63L62.736 121.107C62.1843 121.424 61.7383 121.199 61.7383 120.601C61.7633 120.267 61.8666 119.943 62.04 119.656C62.2133 119.37 62.4518 119.128 62.736 118.95Z" fill="#F0F0F0"/>
<path d="M57.1318 129.709L66.3277 124.389C66.8795 124.072 67.3255 124.297 67.3255 124.895C67.3005 125.229 67.1971 125.552 67.0238 125.839C66.8504 126.126 66.612 126.368 66.3277 126.545L57.1318 131.865C56.5847 132.182 56.1387 131.957 56.1387 131.364C56.1628 131.029 56.2653 130.705 56.4378 130.418C56.6103 130.13 56.8481 129.887 57.1318 129.709Z" fill="#FFC42D"/>
<path d="M57.1318 134.021L75.6845 123.313C76.2363 122.996 76.6823 123.221 76.6823 123.814C76.658 124.149 76.555 124.473 76.3816 124.761C76.2082 125.049 75.9694 125.291 75.6845 125.469L57.1318 136.178C56.5847 136.495 56.1387 136.27 56.1387 135.677C56.1628 135.342 56.2653 135.018 56.4378 134.731C56.6103 134.443 56.8481 134.2 57.1318 134.021Z" fill="#FFC42D"/>
<path opacity="0.8" d="M57.1318 134.021L75.6845 123.313C76.2363 122.996 76.6823 123.221 76.6823 123.814C76.658 124.149 76.555 124.473 76.3816 124.761C76.2082 125.049 75.9694 125.291 75.6845 125.469L57.1318 136.178C56.5847 136.495 56.1387 136.27 56.1387 135.677C56.1628 135.342 56.2653 135.018 56.4378 134.731C56.6103 134.443 56.8481 134.2 57.1318 134.021Z" fill="white"/>
<path d="M57.1318 134.022L70.0842 126.546C70.6314 126.229 71.0774 126.454 71.0774 127.052C71.0525 127.385 70.9497 127.709 70.7772 127.995C70.6048 128.282 70.3674 128.524 70.0842 128.702L57.1318 136.179C56.5847 136.496 56.1387 136.271 56.1387 135.678C56.1628 135.343 56.2653 135.019 56.4378 134.731C56.6103 134.444 56.8481 134.201 57.1318 134.022Z" fill="#FFC42D"/>
<path d="M57.1318 138.343L66.3277 133.024C66.8795 132.706 67.3255 132.932 67.3255 133.529C67.3005 133.864 67.1971 134.187 67.0238 134.474C66.8504 134.761 66.612 135.003 66.3277 135.18L57.1318 140.5C56.5847 140.817 56.1387 140.592 56.1387 139.999C56.1628 139.664 56.2653 139.34 56.4378 139.053C56.6103 138.765 56.8481 138.522 57.1318 138.343Z" fill="#FFC42D"/>
<path d="M62.736 84.4188L75.6838 76.9425C76.2356 76.6253 76.6816 76.8506 76.6816 77.4483C76.6566 77.7825 76.5532 78.1061 76.3799 78.3928C76.2066 78.6796 75.9681 78.9215 75.6838 79.099L62.736 86.5752C62.1843 86.8925 61.7383 86.6672 61.7383 86.0741C61.7626 85.7391 61.8656 85.4146 62.039 85.127C62.2123 84.8393 62.4512 84.5967 62.736 84.4188Z" fill="#FFC42D"/>
<path opacity="0.2" d="M62.736 84.4188L75.6838 76.9425C76.2356 76.6253 76.6816 76.8506 76.6816 77.4483C76.6566 77.7825 76.5532 78.1061 76.3799 78.3928C76.2066 78.6796 75.9681 78.9215 75.6838 79.099L62.736 86.5752C62.1843 86.8925 61.7383 86.6672 61.7383 86.0741C61.7626 85.7391 61.8656 85.4146 62.039 85.127C62.2123 84.8393 62.4512 84.5967 62.736 84.4188Z" fill="black"/>
<path d="M57.1318 138.343L66.3277 133.024C66.8795 132.706 67.3255 132.932 67.3255 133.529C67.3005 133.864 67.1971 134.187 67.0238 134.474C66.8504 134.761 66.612 135.003 66.3277 135.18L57.1318 140.5C56.5847 140.817 56.1387 140.592 56.1387 139.999C56.1628 139.664 56.2653 139.34 56.4378 139.053C56.6103 138.765 56.8481 138.522 57.1318 138.343Z" fill="#FFC42D"/>
<path d="M57.1318 142.642L75.6845 131.934C76.2363 131.617 76.6823 131.842 76.6823 132.435C76.658 132.77 76.555 133.095 76.3816 133.382C76.2082 133.67 75.9694 133.912 75.6845 134.09L57.1318 144.781C56.5847 145.102 56.1387 144.872 56.1387 144.279C56.1656 143.948 56.2694 143.628 56.4418 143.344C56.6142 143.059 56.8505 142.819 57.1318 142.642Z" fill="#FFC42D"/>
<path opacity="0.8" d="M57.1318 142.642L75.6845 131.934C76.2363 131.617 76.6823 131.842 76.6823 132.435C76.658 132.77 76.555 133.095 76.3816 133.382C76.2082 133.67 75.9694 133.912 75.6845 134.09L57.1318 144.781C56.5847 145.102 56.1387 144.872 56.1387 144.279C56.1656 143.948 56.2694 143.628 56.4418 143.344C56.6142 143.059 56.8505 142.819 57.1318 142.642Z" fill="white"/>
<path d="M57.1318 142.643L73.8178 132.987C74.3695 132.67 74.8155 132.896 74.8155 133.493C74.7905 133.827 74.6872 134.151 74.5138 134.438C74.3405 134.725 74.102 134.966 73.8178 135.144L57.1318 144.8C56.5847 145.121 56.1387 144.892 56.1387 144.298C56.1628 143.964 56.2653 143.64 56.4378 143.352C56.6103 143.065 56.8481 142.822 57.1318 142.643Z" fill="#FFC42D"/>
<path d="M122.376 1.36695L80.415 25.5935V137.737L122.376 113.515C122.666 113.327 122.908 113.072 123.081 112.773C123.255 112.473 123.355 112.137 123.374 111.791V1.9417C123.369 1.32557 122.909 1.04969 122.376 1.36695Z" fill="#EBEBEB"/>
<path opacity="0.6" d="M122.376 1.36695L80.415 25.5935V137.737L122.376 113.515C122.666 113.327 122.908 113.072 123.081 112.773C123.255 112.473 123.355 112.137 123.374 111.791V1.9417C123.369 1.32557 122.909 1.04969 122.376 1.36695Z" fill="#FAFAFA"/>
<path d="M80.4152 29.9056V38.5313L76.6816 42.8442H80.4152V51.4699L119.636 28.8251V7.26074L80.4152 29.9056Z" fill="#FFC42D"/>
<g opacity="0.6">
<path opacity="0.6" d="M85.5464 30.2052L101.437 21.0094C102.205 20.5496 102.816 20.9266 102.816 21.814C102.791 22.2962 102.653 22.7657 102.413 23.1849C102.174 23.6041 101.839 23.9613 101.437 24.2279L85.5464 33.4008C84.7739 33.8606 84.167 33.4836 84.167 32.5962C84.1948 32.1177 84.3339 31.6524 84.5734 31.2373C84.8129 30.8222 85.1461 30.4688 85.5464 30.2052Z" fill="white"/>
</g>
<path d="M84.6499 37.1894L115.406 19.4322C115.681 19.2758 115.902 19.3862 115.902 19.6851C115.89 19.8523 115.839 20.0144 115.753 20.1582C115.666 20.302 115.548 20.4235 115.406 20.5127L84.6499 38.2469C84.374 38.4033 84.1533 38.2929 84.1533 37.9941C84.1687 37.8308 84.2215 37.6733 84.3076 37.5337C84.3937 37.3942 84.5108 37.2763 84.6499 37.1894Z" fill="#FFC42D"/>
<path d="M84.6499 37.1894L115.406 19.4322C115.681 19.2758 115.902 19.3862 115.902 19.6851C115.89 19.8523 115.839 20.0144 115.753 20.1582C115.666 20.302 115.548 20.4235 115.406 20.5127L84.6499 38.2469C84.374 38.4033 84.1533 38.2929 84.1533 37.9941C84.1687 37.8308 84.2215 37.6733 84.3076 37.5337C84.3937 37.3942 84.5108 37.2763 84.6499 37.1894Z" fill="#FFC42D"/>
<path opacity="0.6" d="M84.6499 37.1894L115.406 19.4322C115.681 19.2758 115.902 19.3862 115.902 19.6851C115.89 19.8523 115.839 20.0144 115.753 20.1582C115.666 20.302 115.548 20.4235 115.406 20.5127L84.6499 38.2469C84.374 38.4033 84.1533 38.2929 84.1533 37.9941C84.1687 37.8308 84.2215 37.6733 84.3076 37.5337C84.3937 37.3942 84.5108 37.2763 84.6499 37.1894Z" fill="white"/>
<path d="M84.6499 40.4073L115.406 22.65C115.681 22.4891 115.902 22.604 115.902 22.9029C115.89 23.0696 115.839 23.231 115.753 23.3741C115.666 23.5172 115.547 23.6377 115.406 23.7259L84.6499 41.4832C84.374 41.6441 84.1533 41.5292 84.1533 41.2303C84.1652 41.0636 84.2164 40.9022 84.3027 40.7591C84.389 40.616 84.508 40.4955 84.6499 40.4073Z" fill="#FFC42D"/>
<path opacity="0.6" d="M84.6499 40.4073L115.406 22.65C115.681 22.4891 115.902 22.604 115.902 22.9029C115.89 23.0696 115.839 23.231 115.753 23.3741C115.666 23.5172 115.547 23.6377 115.406 23.7259L84.6499 41.4832C84.374 41.6441 84.1533 41.5292 84.1533 41.2303C84.1652 41.0636 84.2164 40.9022 84.3027 40.7591C84.389 40.616 84.508 40.4955 84.6499 40.4073Z" fill="white"/>
<path opacity="0.6" d="M84.6499 43.6259L115.406 25.8687C115.681 25.7124 115.902 25.8227 115.902 26.1216C115.89 26.2889 115.839 26.451 115.753 26.5948C115.666 26.7386 115.548 26.86 115.406 26.9492L84.6499 44.7065C84.374 44.8628 84.1533 44.7524 84.1533 44.4536C84.1652 44.2863 84.2164 44.1242 84.3026 43.9804C84.3889 43.8366 84.5079 43.7151 84.6499 43.6259Z" fill="white"/>
<path d="M85.809 52.6842L87.9654 51.4428C88.4252 51.1853 88.7609 51.3922 88.7609 51.9026V54.3763C88.7456 54.6525 88.6656 54.9211 88.5275 55.1607C88.3893 55.4003 88.1968 55.6041 87.9654 55.7557L85.8228 56.9925C85.363 57.2454 85.0273 57.0385 85.0273 56.5327V54.0636C85.04 53.7884 85.1174 53.5201 85.2532 53.2805C85.389 53.0408 85.5794 52.8365 85.809 52.6842Z" fill="#BE0000"/>
<path d="M91.611 50.4126L104.559 42.9318C105.111 42.6145 105.557 42.8398 105.557 43.4376C105.532 43.7717 105.428 44.0953 105.255 44.3821C105.082 44.6689 104.843 44.9108 104.559 45.0882L91.611 52.5691C91.0593 52.8863 90.6133 52.661 90.6133 52.0633C90.6383 51.7291 90.7416 51.4056 90.915 51.1188C91.0883 50.832 91.3268 50.5901 91.611 50.4126Z" fill="#FFC42D"/>
<path opacity="0.8" d="M91.611 50.4126L104.559 42.9318C105.111 42.6145 105.557 42.8398 105.557 43.4376C105.532 43.7717 105.428 44.0953 105.255 44.3821C105.082 44.6689 104.843 44.9108 104.559 45.0882L91.611 52.5691C91.0593 52.8863 90.6133 52.661 90.6133 52.0633C90.6383 51.7291 90.7416 51.4056 90.915 51.1188C91.0883 50.832 91.3268 50.5901 91.611 50.4126Z" fill="white"/>
<path d="M85.5103 60.4089L118.156 41.5574C118.432 41.3965 118.652 41.5114 118.652 41.8057C118.641 41.973 118.59 42.1353 118.503 42.2792C118.417 42.423 118.298 42.5444 118.156 42.6333L85.5103 61.4849C85.2344 61.6458 85.0137 61.5308 85.0137 61.232C85.0255 61.0653 85.0767 60.9038 85.163 60.7608C85.2494 60.6177 85.3683 60.4971 85.5103 60.4089Z" fill="#FFC42D"/>
<path d="M85.5103 63.6411L118.156 44.7896C118.432 44.6333 118.652 44.7436 118.652 45.0425C118.64 45.2098 118.589 45.3719 118.503 45.5157C118.417 45.6595 118.298 45.7809 118.156 45.8701L85.5103 64.7217C85.2344 64.878 85.0137 64.7676 85.0137 64.4688C85.0256 64.3015 85.0767 64.1394 85.163 63.9956C85.2493 63.8518 85.3683 63.7304 85.5103 63.6411Z" fill="#FFC42D"/>
<path d="M85.5103 66.8777L118.156 48.0261C118.432 47.8652 118.652 47.9801 118.652 48.2744C118.641 48.4418 118.59 48.604 118.503 48.7479C118.417 48.8917 118.298 49.0131 118.156 49.102L85.5103 67.9536C85.2344 68.1145 85.0137 67.9996 85.0137 67.7053C85.0252 67.5379 85.0762 67.3757 85.1625 67.2318C85.2488 67.088 85.368 66.9666 85.5103 66.8777Z" fill="#FFC42D"/>
<path d="M85.5103 70.1197L118.156 51.2681C118.432 51.1118 118.652 51.2221 118.652 51.521C118.64 51.6883 118.589 51.8504 118.503 51.9942C118.417 52.138 118.298 52.2594 118.156 52.3486L85.5103 71.2002C85.2344 71.3565 85.0137 71.2462 85.0137 70.9473C85.0256 70.78 85.0767 70.6179 85.163 70.4741C85.2493 70.3303 85.3683 70.2089 85.5103 70.1197Z" fill="#FFC42D"/>
<path d="M85.5103 60.4089L118.156 41.5574C118.432 41.3965 118.652 41.5114 118.652 41.8057C118.641 41.973 118.59 42.1353 118.503 42.2792C118.417 42.423 118.298 42.5444 118.156 42.6333L85.5103 61.4849C85.2344 61.6458 85.0137 61.5308 85.0137 61.232C85.0255 61.0653 85.0767 60.9038 85.163 60.7608C85.2494 60.6177 85.3683 60.4971 85.5103 60.4089Z" fill="#E0E0E0"/>
<path d="M85.5103 63.6411L118.156 44.7896C118.432 44.6333 118.652 44.7436 118.652 45.0425C118.64 45.2098 118.589 45.3719 118.503 45.5157C118.417 45.6595 118.298 45.7809 118.156 45.8701L85.5103 64.7217C85.2344 64.878 85.0137 64.7676 85.0137 64.4688C85.0256 64.3015 85.0767 64.1394 85.163 63.9956C85.2493 63.8518 85.3683 63.7304 85.5103 63.6411Z" fill="#E0E0E0"/>
<path d="M85.5103 66.8777L118.156 48.0261C118.432 47.8652 118.652 47.9801 118.652 48.2744C118.641 48.4418 118.59 48.604 118.503 48.7479C118.417 48.8917 118.298 49.0131 118.156 49.102L85.5103 67.9536C85.2344 68.1145 85.0137 67.9996 85.0137 67.7053C85.0252 67.5379 85.0762 67.3757 85.1625 67.2318C85.2488 67.088 85.368 66.9666 85.5103 66.8777Z" fill="#E0E0E0"/>
<path d="M85.5103 70.1197L118.156 51.2681C118.432 51.1118 118.652 51.2221 118.652 51.521C118.64 51.6883 118.589 51.8504 118.503 51.9942C118.417 52.138 118.298 52.2594 118.156 52.3486L85.5103 71.2002C85.2344 71.3565 85.0137 71.2462 85.0137 70.9473C85.0256 70.78 85.0767 70.6179 85.163 70.4741C85.2493 70.3303 85.3683 70.2089 85.5103 70.1197Z" fill="#E0E0E0"/>
<path opacity="0.8" d="M85.5103 60.4089L118.156 41.5574C118.432 41.3965 118.652 41.5114 118.652 41.8057C118.641 41.973 118.59 42.1353 118.503 42.2792C118.417 42.423 118.298 42.5444 118.156 42.6333L85.5103 61.4849C85.2344 61.6458 85.0137 61.5308 85.0137 61.232C85.0255 61.0653 85.0767 60.9038 85.163 60.7608C85.2494 60.6177 85.3683 60.4971 85.5103 60.4089Z" fill="#E0E0E0"/>
<path opacity="0.8" d="M85.5103 63.6411L118.156 44.7896C118.432 44.6333 118.652 44.7436 118.652 45.0425C118.64 45.2098 118.589 45.3719 118.503 45.5157C118.417 45.6595 118.298 45.7809 118.156 45.8701L85.5103 64.7217C85.2344 64.878 85.0137 64.7676 85.0137 64.4688C85.0256 64.3015 85.0767 64.1394 85.163 63.9956C85.2493 63.8518 85.3683 63.7304 85.5103 63.6411Z" fill="#E0E0E0"/>
<path opacity="0.8" d="M85.5103 66.8777L118.156 48.0261C118.432 47.8652 118.652 47.9801 118.652 48.2744C118.641 48.4418 118.59 48.604 118.503 48.7479C118.417 48.8917 118.298 49.0131 118.156 49.102L85.5103 67.9536C85.2344 68.1145 85.0137 67.9996 85.0137 67.7053C85.0252 67.5379 85.0762 67.3757 85.1625 67.2318C85.2488 67.088 85.368 66.9666 85.5103 66.8777Z" fill="#E0E0E0"/>
<path opacity="0.8" d="M85.5103 70.1197L118.156 51.2681C118.432 51.1118 118.652 51.2221 118.652 51.521C118.64 51.6883 118.589 51.8504 118.503 51.9942C118.417 52.138 118.298 52.2594 118.156 52.3486L85.5103 71.2002C85.2344 71.3565 85.0137 71.2462 85.0137 70.9473C85.0256 70.78 85.0767 70.6179 85.163 70.4741C85.2493 70.3303 85.3683 70.2089 85.5103 70.1197Z" fill="#E0E0E0"/>
<path d="M85.5103 83.8582L118.156 65.0066C118.432 64.8457 118.652 64.9606 118.652 65.2549C118.641 65.4223 118.59 65.5845 118.503 65.7284C118.417 65.8722 118.298 65.9936 118.156 66.0825L85.5103 84.9341C85.2344 85.095 85.0137 84.9801 85.0137 84.6812C85.0255 84.5145 85.0767 84.3531 85.163 84.21C85.2494 84.0669 85.3683 83.9464 85.5103 83.8582Z" fill="#E0E0E0"/>
<path d="M85.5103 87.0904L118.156 68.2388C118.432 68.0825 118.652 68.1928 118.652 68.4917C118.64 68.659 118.589 68.8211 118.503 68.9649C118.417 69.1087 118.298 69.2301 118.156 69.3193L85.5103 88.1709C85.2344 88.3272 85.0137 88.2169 85.0137 87.918C85.0256 87.7507 85.0767 87.5886 85.163 87.4448C85.2493 87.301 85.3683 87.1796 85.5103 87.0904Z" fill="#E0E0E0"/>
<path d="M85.5103 90.3279L118.156 71.4763C118.432 71.3154 118.652 71.4303 118.652 71.7246C118.641 71.892 118.59 72.0542 118.503 72.1981C118.417 72.3419 118.298 72.4633 118.156 72.5522L85.5103 91.4038C85.2344 91.5647 85.0137 91.4498 85.0137 91.1555C85.0252 90.9881 85.0762 90.8259 85.1625 90.682C85.2488 90.5382 85.368 90.4168 85.5103 90.3279Z" fill="#E0E0E0"/>
<path d="M85.5103 93.5689L118.156 74.7173C118.432 74.561 118.652 74.6713 118.652 74.9702C118.64 75.1375 118.589 75.2996 118.503 75.4434C118.417 75.5872 118.298 75.7086 118.156 75.7978L85.5103 94.6494C85.2344 94.8057 85.0137 94.6954 85.0137 94.3965C85.0256 94.2292 85.0767 94.0671 85.163 93.9233C85.2493 93.7795 85.3683 93.6581 85.5103 93.5689Z" fill="#E0E0E0"/>
<path opacity="0.8" d="M85.5103 83.8582L118.156 65.0066C118.432 64.8457 118.652 64.9606 118.652 65.2549C118.641 65.4223 118.59 65.5845 118.503 65.7284C118.417 65.8722 118.298 65.9936 118.156 66.0825L85.5103 84.9341C85.2344 85.095 85.0137 84.9801 85.0137 84.6812C85.0255 84.5145 85.0767 84.3531 85.163 84.21C85.2494 84.0669 85.3683 83.9464 85.5103 83.8582Z" fill="#E0E0E0"/>
<path opacity="0.8" d="M85.5103 87.0904L118.156 68.2388C118.432 68.0825 118.652 68.1928 118.652 68.4917C118.64 68.659 118.589 68.8211 118.503 68.9649C118.417 69.1087 118.298 69.2301 118.156 69.3193L85.5103 88.1709C85.2344 88.3272 85.0137 88.2169 85.0137 87.918C85.0256 87.7507 85.0767 87.5886 85.163 87.4448C85.2493 87.301 85.3683 87.1796 85.5103 87.0904Z" fill="#E0E0E0"/>
<path opacity="0.8" d="M85.5103 90.3279L118.156 71.4763C118.432 71.3154 118.652 71.4303 118.652 71.7246C118.641 71.892 118.59 72.0542 118.503 72.1981C118.417 72.3419 118.298 72.4633 118.156 72.5522L85.5103 91.4038C85.2344 91.5647 85.0137 91.4498 85.0137 91.1555C85.0252 90.9881 85.0762 90.8259 85.1625 90.682C85.2488 90.5382 85.368 90.4168 85.5103 90.3279Z" fill="#E0E0E0"/>
<path opacity="0.8" d="M85.5103 93.5689L118.156 74.7173C118.432 74.561 118.652 74.6713 118.652 74.9702C118.64 75.1375 118.589 75.2996 118.503 75.4434C118.417 75.5872 118.298 75.7086 118.156 75.7978L85.5103 94.6494C85.2344 94.8057 85.0137 94.6954 85.0137 94.3965C85.0256 94.2292 85.0767 94.0671 85.163 93.9233C85.2493 93.7795 85.3683 93.6581 85.5103 93.5689Z" fill="#E0E0E0"/>
<path d="M85.5103 107.767L118.156 88.9158C118.432 88.7549 118.652 88.8698 118.652 89.1641C118.641 89.3314 118.59 89.4937 118.503 89.6375C118.417 89.7814 118.298 89.9028 118.156 89.9917L85.5103 108.843C85.2344 109.004 85.0137 108.889 85.0137 108.59C85.0255 108.424 85.0767 108.262 85.163 108.119C85.2494 107.976 85.3683 107.856 85.5103 107.767Z" fill="#E0E0E0"/>
<path d="M85.5103 111L118.156 92.148C118.432 91.9917 118.652 92.102 118.652 92.4009C118.64 92.5681 118.589 92.7303 118.503 92.8741C118.417 93.0179 118.298 93.1393 118.156 93.2285L85.5103 112.08C85.2344 112.236 85.0137 112.126 85.0137 111.827C85.0256 111.66 85.0767 111.498 85.163 111.354C85.2493 111.21 85.3683 111.089 85.5103 111Z" fill="#E0E0E0"/>
<path d="M85.5103 114.237L118.156 95.3855C118.432 95.2246 118.652 95.3395 118.652 95.6338C118.641 95.8012 118.59 95.9634 118.503 96.1073C118.417 96.2511 118.298 96.3725 118.156 96.4614L85.5103 115.313C85.2344 115.474 85.0137 115.359 85.0137 115.065C85.0252 114.897 85.0762 114.735 85.1625 114.591C85.2488 114.447 85.368 114.326 85.5103 114.237Z" fill="#E0E0E0"/>
<path d="M85.5103 117.478L118.156 98.6265C118.432 98.4702 118.652 98.5805 118.652 98.8794C118.64 99.0467 118.589 99.2088 118.503 99.3526C118.417 99.4964 118.298 99.6178 118.156 99.707L85.5103 118.559C85.2344 118.715 85.0137 118.605 85.0137 118.306C85.0256 118.138 85.0767 117.976 85.163 117.833C85.2493 117.689 85.3683 117.567 85.5103 117.478Z" fill="#E0E0E0"/>
<path opacity="0.8" d="M85.5103 107.767L118.156 88.9158C118.432 88.7549 118.652 88.8698 118.652 89.1641C118.641 89.3314 118.59 89.4937 118.503 89.6375C118.417 89.7814 118.298 89.9028 118.156 89.9917L85.5103 108.843C85.2344 109.004 85.0137 108.889 85.0137 108.59C85.0255 108.424 85.0767 108.262 85.163 108.119C85.2494 107.976 85.3683 107.856 85.5103 107.767Z" fill="#E0E0E0"/>
<path opacity="0.8" d="M85.5103 111L118.156 92.148C118.432 91.9917 118.652 92.102 118.652 92.4009C118.64 92.5681 118.589 92.7303 118.503 92.8741C118.417 93.0179 118.298 93.1393 118.156 93.2285L85.5103 112.08C85.2344 112.236 85.0137 112.126 85.0137 111.827C85.0256 111.66 85.0767 111.498 85.163 111.354C85.2493 111.21 85.3683 111.089 85.5103 111Z" fill="#E0E0E0"/>
<path opacity="0.8" d="M85.5103 114.237L118.156 95.3855C118.432 95.2246 118.652 95.3395 118.652 95.6338C118.641 95.8012 118.59 95.9634 118.503 96.1073C118.417 96.2511 118.298 96.3725 118.156 96.4614L85.5103 115.313C85.2344 115.474 85.0137 115.359 85.0137 115.065C85.0252 114.897 85.0762 114.735 85.1625 114.591C85.2488 114.447 85.368 114.326 85.5103 114.237Z" fill="#E0E0E0"/>
<path opacity="0.8" d="M85.5103 117.478L118.156 98.6265C118.432 98.4702 118.652 98.5805 118.652 98.8794C118.64 99.0467 118.589 99.2088 118.503 99.3526C118.417 99.4964 118.298 99.6178 118.156 99.707L85.5103 118.559C85.2344 118.715 85.0137 118.605 85.0137 118.306C85.0256 118.138 85.0767 117.976 85.163 117.833C85.2493 117.689 85.3683 117.567 85.5103 117.478Z" fill="#E0E0E0"/>
<path d="M85.809 76.4053L87.9654 75.1685C88.4252 74.9156 88.7609 75.1225 88.7609 75.6283V78.1112C88.7467 78.3876 88.6672 78.6567 88.5289 78.8964C88.3907 79.1362 88.1976 79.3398 87.9654 79.4905L85.8228 80.7274C85.363 80.9803 85.0273 80.778 85.0273 80.2676V77.7939C85.0389 77.5172 85.1158 77.2472 85.2516 77.0059C85.3875 76.7645 85.5785 76.5588 85.809 76.4053Z" fill="#BE0000"/>
<path d="M91.611 74.1338L104.559 66.6575C105.111 66.3403 105.557 66.5656 105.557 67.1587C105.532 67.4937 105.429 67.8182 105.256 68.1058C105.083 68.3934 104.844 68.6361 104.559 68.814L91.611 76.2718C91.0593 76.5891 90.6133 76.3638 90.6133 75.7706C90.6404 75.4389 90.7447 75.1181 90.918 74.8338C91.0912 74.5496 91.3286 74.3099 91.611 74.1338Z" fill="#FFC42D"/>
<path opacity="0.8" d="M91.611 74.1338L104.559 66.6575C105.111 66.3403 105.557 66.5656 105.557 67.1587C105.532 67.4937 105.429 67.8182 105.256 68.1058C105.083 68.3934 104.844 68.6361 104.559 68.814L91.611 76.2718C91.0593 76.5891 90.6133 76.3638 90.6133 75.7706C90.6404 75.4389 90.7447 75.1181 90.918 74.8338C91.0912 74.5496 91.3286 74.3099 91.611 74.1338Z" fill="white"/>
<path d="M85.809 100.131L87.9654 98.894C88.4252 98.6365 88.7609 98.8434 88.7609 99.3538V101.827C88.7463 102.104 88.6667 102.373 88.5284 102.612C88.3902 102.852 88.1973 103.056 87.9654 103.207L85.8228 104.444C85.363 104.697 85.0273 104.49 85.0273 103.984V101.51C85.04 101.235 85.1174 100.967 85.2532 100.727C85.389 100.487 85.5794 100.283 85.809 100.131Z" fill="#BE0000"/>
<path d="M91.611 97.8824L104.559 90.4015C105.111 90.0843 105.557 90.3096 105.557 90.9073C105.532 91.2422 105.429 91.5665 105.255 91.8541C105.082 92.1417 104.843 92.3844 104.559 92.5626L91.611 100.039C91.0593 100.356 90.6133 100.131 90.6133 99.533C90.6383 99.1989 90.7416 98.8753 90.915 98.5885C91.0883 98.3017 91.3268 98.0598 91.611 97.8824Z" fill="#FFC42D"/>
<path opacity="0.8" d="M91.611 97.8824L104.559 90.4015C105.111 90.0843 105.557 90.3096 105.557 90.9073C105.532 91.2422 105.429 91.5665 105.255 91.8541C105.082 92.1417 104.843 92.3844 104.559 92.5626L91.611 100.039C91.0593 100.356 90.6133 100.131 90.6133 99.533C90.6383 99.1989 90.7416 98.8753 90.915 98.5885C91.0883 98.3017 91.3268 98.0598 91.611 97.8824Z" fill="white"/>
<path d="M88.857 121.015L90.9996 119.778C91.4594 119.525 91.7996 119.732 91.7996 120.238V122.711C91.7846 122.988 91.7042 123.257 91.5652 123.497C91.4261 123.737 91.2323 123.94 90.9996 124.091L88.857 125.328C88.4202 125.585 88.0615 125.378 88.0615 124.868V122.394C88.0775 122.118 88.1578 121.85 88.2959 121.61C88.434 121.371 88.6261 121.167 88.857 121.015Z" fill="#BE0000"/>
<path d="M85.5103 129.42L94.3521 124.316C94.628 124.16 94.8487 124.27 94.8487 124.569C94.8368 124.736 94.7856 124.898 94.6993 125.042C94.6131 125.186 94.4941 125.307 94.3521 125.396L85.5103 130.5C85.2344 130.657 85.0137 130.546 85.0137 130.247C85.0256 130.08 85.0767 129.918 85.163 129.774C85.2493 129.63 85.3683 129.509 85.5103 129.42Z" fill="#E0E0E0"/>
<path d="M100.752 114.145L102.895 112.908C103.332 112.655 103.69 112.862 103.69 113.368V115.841C103.675 116.117 103.596 116.386 103.457 116.626C103.319 116.866 103.126 117.069 102.895 117.221L100.752 118.457C100.292 118.71 99.9521 118.508 99.9521 117.998V115.524C99.9676 115.247 100.048 114.978 100.187 114.739C100.326 114.499 100.52 114.295 100.752 114.145Z" fill="#BE0000"/>
<path d="M97.3999 122.55L106.242 117.446C106.518 117.285 106.738 117.4 106.738 117.699C106.726 117.865 106.675 118.027 106.589 118.17C106.503 118.313 106.384 118.434 106.242 118.522L97.3999 123.63C97.124 123.791 96.9033 123.676 96.9033 123.382C96.9141 123.214 96.9648 123.051 97.0512 122.906C97.1375 122.761 97.257 122.639 97.3999 122.55Z" fill="#E0E0E0"/>
<path d="M112.642 107.275L114.785 106.039C115.222 105.781 115.58 105.988 115.58 106.498V108.972C115.565 109.248 115.484 109.517 115.346 109.756C115.208 109.996 115.016 110.2 114.785 110.351L112.642 111.588C112.182 111.841 111.847 111.634 111.847 111.128V108.655C111.861 108.378 111.94 108.109 112.079 107.869C112.217 107.63 112.41 107.426 112.642 107.275Z" fill="#BE0000"/>
<path d="M109.291 115.681L118.132 110.577C118.408 110.416 118.629 110.531 118.629 110.825C118.617 110.993 118.566 111.155 118.48 111.299C118.394 111.443 118.275 111.564 118.132 111.653L109.291 116.757C109.019 116.917 108.794 116.803 108.794 116.504C108.807 116.337 108.859 116.176 108.945 116.033C109.031 115.89 109.149 115.77 109.291 115.681Z" fill="#E0E0E0"/>
<path d="M65.4771 38.9644C60.3182 41.8703 56.1387 49.1121 56.1387 55.1354C56.1387 61.1587 60.3182 63.6324 65.4771 60.6529C70.636 57.6735 74.8155 50.4363 74.8155 44.4774C74.8155 38.5184 70.6314 36.0539 65.4771 38.9644Z" fill="#FAFAFA"/>
<path d="M70.0014 57.526L62.5252 59.5307C62.3965 59.5727 62.2593 59.5819 62.1261 59.5575C61.9929 59.5331 61.8679 59.4758 61.7624 59.3909C61.6569 59.3059 61.5743 59.196 61.5221 59.0711C61.4698 58.9462 61.4495 58.8102 61.4631 58.6755V45.9484C61.4895 44.8949 61.8413 43.8755 62.4703 43.03C63.0993 42.1845 63.9745 41.5544 64.9759 41.2263L67.5324 40.5412C69.4773 40.0216 71.0544 41.2906 71.0544 43.3735V56.1052C71.046 56.4215 70.9405 56.7276 70.7521 56.9818C70.5637 57.236 70.3016 57.426 70.0014 57.526Z" fill="#37474F"/>
<path d="M70.3596 60.8183L69.5734 57.3469C69.5734 57.3469 69.5734 52.6616 68.9067 52.2294C68.24 51.7972 68.0469 51.7144 68.0469 51.7144C68.9021 51.4201 70.7045 51.1994 71.2654 52.8455C71.8034 54.3996 72.608 58.2297 72.9897 60.1149L70.3596 60.8183Z" fill="#F28F8F"/>
<path d="M70.2957 60.8372L67.6289 51.7563C68.8106 51.2965 70.3279 50.9148 71.0636 52.1333C71.7257 53.2276 72.7832 58.9612 72.9901 60.1153L70.2957 60.8372Z" fill="#420303"/>
<path d="M70.654 60.7398L68.0332 61.4433C68.1387 60.6906 68.3869 59.965 68.7643 59.3053C69.2888 58.5494 70.0436 57.9833 70.9161 57.6914C70.7272 58.6963 70.6395 59.7175 70.654 60.7398Z" fill="#FFC42D"/>
<path d="M70.654 60.7398L68.0332 61.4433C68.1387 60.6906 68.3869 59.965 68.7643 59.3053C69.2888 58.5494 70.0436 57.9833 70.9161 57.6914C70.7272 58.6963 70.6395 59.7175 70.654 60.7398Z" fill="#FFC42D"/>
<path opacity="0.7" d="M70.654 60.7398L68.0332 61.4433C68.1387 60.6906 68.3869 59.965 68.7643 59.3053C69.2888 58.5494 70.0436 57.9833 70.9161 57.6914C70.7272 58.6963 70.6395 59.7175 70.654 60.7398Z" fill="#420303"/>
<path d="M70.0936 60.8917L62.7369 62.855L61.9276 60.3491C61.9276 60.3491 64.0749 55.3236 61.4219 54.0315C61.7575 53.7786 64.5853 52.6751 64.5853 52.6751L67.6245 51.7555C68.2038 51.5992 70.5442 52.6384 71.1373 54.9419C71.3488 55.7558 71.2753 56.4868 70.0844 60.7261C70.0982 60.7813 70.0936 60.8365 70.0936 60.8917Z" fill="#BE0000"/>
<path d="M69.4866 42.1045C69.9924 42.2884 70.6177 43.4839 70.5579 46.3668C70.5073 48.8129 69.7717 49.5853 69.4038 49.8796C68.8529 50.1554 68.2452 50.2987 67.629 50.298V51.7556C67.629 51.7556 68.5854 52.6752 68.5256 53.374C68.4659 54.0729 67.1463 54.5695 66.2542 54.1557C65.6027 53.7884 65.0393 53.2831 64.6036 52.6752V49.3187C64.5364 49.3961 64.4545 49.4593 64.3627 49.5047C64.2708 49.5502 64.1709 49.5769 64.0686 49.5833C63.9663 49.5897 63.8638 49.5757 63.767 49.5421C63.6702 49.5085 63.581 49.456 63.5047 49.3876C63.3611 49.2893 63.2387 49.1632 63.1447 49.0168C63.0507 48.8704 62.987 48.7066 62.9574 48.5351C62.9278 48.3636 62.9329 48.1879 62.9725 48.0185C63.012 47.849 63.0851 47.6892 63.1874 47.5485C63.6472 46.9461 64.4519 46.8588 64.7645 47.4611C65.1537 46.5164 65.8503 45.7307 66.7416 45.2311C68.1946 44.3483 68.9854 43.562 69.4866 42.1045Z" fill="#AE7461"/>
<path d="M68.0293 46.4362C68.0313 46.5234 68.0063 46.6091 67.9577 46.6815C67.9092 46.7539 67.8394 46.8096 67.758 46.8408C67.7234 46.8528 67.6865 46.8562 67.6503 46.8507C67.6141 46.8451 67.5799 46.8309 67.5505 46.8092C67.521 46.7874 67.4973 46.7589 67.4814 46.7259C67.4655 46.693 67.4579 46.6567 67.4591 46.6201C67.4571 46.533 67.4821 46.4473 67.5307 46.3749C67.5792 46.3024 67.649 46.2468 67.7304 46.2155C67.765 46.2036 67.8019 46.2002 67.8381 46.2057C67.8742 46.2112 67.9085 46.2255 67.9379 46.2472C67.9674 46.2689 67.9911 46.2975 68.007 46.3304C68.0229 46.3634 68.0305 46.3997 68.0293 46.4362Z" fill="#37474F"/>
<path d="M68.1025 48.4775L68.7646 48.5235C68.7452 48.6245 68.6926 48.716 68.6151 48.7835C68.5376 48.851 68.4397 48.8906 68.337 48.896C68.1531 48.8822 68.0474 48.6844 68.1025 48.4775Z" fill="#6F4439"/>
<path d="M70.3648 44.8733L69.79 44.602C69.8243 44.5131 69.8901 44.4399 69.975 44.3967C70.0599 44.3534 70.1578 44.343 70.2498 44.3675C70.291 44.3928 70.3266 44.4261 70.3547 44.4654C70.3828 44.5047 70.4028 44.5491 70.4135 44.5962C70.4242 44.6433 70.4254 44.6921 70.417 44.7397C70.4087 44.7872 70.3909 44.8326 70.3648 44.8733Z" fill="#37474F"/>
<path d="M67.2012 45.9485L67.776 45.3645C67.7455 45.3335 67.7088 45.3093 67.6683 45.2935C67.6278 45.2777 67.5844 45.2707 67.5409 45.2728C67.4975 45.275 67.455 45.2864 67.4163 45.3061C67.3775 45.3259 67.3434 45.3536 67.3162 45.3875C67.2364 45.4543 67.1816 45.546 67.1607 45.6479C67.1399 45.7498 67.1541 45.8558 67.2012 45.9485Z" fill="#37474F"/>
<path d="M70.2316 45.6264C70.2343 45.7138 70.2096 45.7997 70.1609 45.8723C70.1123 45.9449 70.0421 46.0004 69.9603 46.0311C69.9254 46.0432 69.888 46.0465 69.8515 46.0408C69.8149 46.0351 69.7804 46.0204 69.7508 45.9981C69.7213 45.9759 69.6977 45.9467 69.6821 45.9131C69.6665 45.8796 69.6594 45.8427 69.6615 45.8058C69.6601 45.7187 69.6854 45.6333 69.7339 45.561C69.7823 45.4887 69.8517 45.433 69.9328 45.4011C69.9677 45.389 70.0051 45.3857 70.0416 45.3914C70.0782 45.3971 70.1128 45.4118 70.1423 45.4341C70.1718 45.4563 70.1954 45.4855 70.211 45.5191C70.2266 45.5526 70.2337 45.5895 70.2316 45.6264Z" fill="#37474F"/>
<path d="M68.8887 45.8105L68.9301 47.6359L69.8359 47.0934L68.8887 45.8105Z" fill="#6F4439"/>
<path d="M67.6288 50.2987C66.9024 50.3907 65.4034 50.3309 65.1689 49.7607C65.254 50.0408 65.441 50.2787 65.6931 50.4274C66.1529 50.7217 67.6288 50.7861 67.6288 50.7861V50.2987Z" fill="#6F4439"/>
<path d="M62.7778 62.8511L62.4697 61.7568L63.279 62.7178L62.7778 62.8511Z" fill="#FFC42D"/>
<path d="M62.1757 63.012C61.8455 61.4389 61.3983 59.8928 60.8377 58.3864C60.0653 56.2668 60.9297 54.4368 61.4493 54.0322C61.9688 53.6276 64.6126 52.6758 64.6126 52.6758C65.569 55.3978 65.8311 59.0439 65.8541 62.028L62.1757 63.012Z" fill="#FFC42D"/>
<path d="M62.1757 63.012C61.8455 61.4389 61.3983 59.8928 60.8377 58.3864C60.0653 56.2668 60.9297 54.4368 61.4493 54.0322C61.9688 53.6276 64.6126 52.6758 64.6126 52.6758C65.569 55.3978 65.8311 59.0439 65.8541 62.028L62.1757 63.012Z" fill="#420303"/>
<path d="M60.8704 63.3614L58.245 64.0649C58.1716 64.0155 58.1024 63.9602 58.0381 63.8994C58.0381 63.8994 59.2795 59.1084 59.675 57.5175C60.0704 55.9266 60.3738 54.8323 61.4406 54.0322C63.3579 55.2783 62.4705 58.7405 62.4705 58.7405L60.8704 63.3614Z" fill="#FFC42D"/>
<path d="M60.8704 63.3614L58.245 64.0649C58.1716 64.0155 58.1024 63.9602 58.0381 63.8994C58.0381 63.8994 59.2795 59.1084 59.675 57.5175C60.0704 55.9266 60.3738 54.8323 61.4406 54.0322C63.3579 55.2783 62.4705 58.7405 62.4705 58.7405L60.8704 63.3614Z" fill="#420303"/>
<path d="M22.6421 32.7434V23.6348C22.6145 21.8692 23.764 20.099 26.0951 18.7564C30.6931 16.0942 38.1693 16.0942 42.7765 18.7564C45.1076 20.099 46.2571 21.8692 46.2295 23.6348V32.7112C46.2295 34.4676 45.0984 37.608 42.7765 38.946C38.1785 41.6082 30.7023 41.6082 26.0951 38.946C23.7962 37.6218 22.6467 34.5044 22.6421 32.7617V32.7434Z" fill="#EBEBEB"/>
<path d="M34.4357 12.333L53.8988 23.5704L34.4357 34.8077L14.9727 23.5704L34.4357 12.333Z" fill="#F5F5F5"/>
<path d="M24.6973 29.1844L34.284 23.7129C34.3235 23.6902 34.3671 23.6756 34.4123 23.6698C34.4576 23.664 34.5035 23.6672 34.5474 23.6791C34.5914 23.6911 34.6326 23.7116 34.6687 23.7395C34.7047 23.7673 34.7349 23.8021 34.7576 23.8416C34.7802 23.8812 34.7948 23.9248 34.8006 23.97C34.8064 24.0152 34.8032 24.0611 34.7913 24.1051C34.7793 24.149 34.7588 24.1902 34.7309 24.2263C34.7031 24.2623 34.6684 24.2925 34.6288 24.3152L25.3824 29.5798L24.6973 29.1844Z" fill="#E0E0E0"/>
<path d="M53.8986 23.5703V24.375L34.4355 35.6077V34.8077L53.8986 23.5703Z" fill="#E6E6E6"/>
<path d="M14.9727 23.5703V24.375L34.4357 35.6077V34.8077L14.9727 23.5703Z" fill="#F0F0F0"/>
<path d="M24.2148 29.709L24.808 30.0493C24.8976 29.9028 25.0225 29.7811 25.1712 29.6952L25.3781 29.5757L24.7022 29.1895C24.5026 29.3236 24.3359 29.5012 24.2148 29.709Z" fill="#E0E0E0"/>
<path d="M46.2526 28.7891L34.4359 36.8125L22.6514 28.8075L34.4359 35.6078L46.2526 28.7891Z" fill="#E0E0E0"/>
<path d="M23.456 39.1709C23.6209 39.256 23.8038 39.3004 23.9893 39.3004C24.1749 39.3004 24.3578 39.256 24.5227 39.1709L25.4009 44.8402C25.4009 45.9115 22.6191 45.9115 22.6191 44.8402L23.456 39.1709Z" fill="#F5F5F5"/>
<path d="M23.4057 42.4082L23.231 45.5164C23.1736 45.499 23.1181 45.4759 23.0654 45.4474L23.4057 42.4082Z" fill="#EBEBEB"/>
<path d="M24.7204 45.5392L24.3525 40.4814L24.8997 45.4656C24.8414 45.4937 24.7816 45.5182 24.7204 45.5392Z" fill="#EBEBEB"/>
<path d="M24.0946 45.641H23.9199L24.0119 41.627L24.0946 45.641Z" fill="#EBEBEB"/>
<path d="M23.9846 39.6449C24.1884 39.6399 24.3857 39.5725 24.5501 39.4518C24.62 39.4002 24.6675 39.3239 24.6829 39.2384C24.6983 39.1529 24.6804 39.0648 24.6329 38.992C24.5827 38.9205 24.5066 38.8713 24.4207 38.855C24.3348 38.8387 24.246 38.8565 24.1731 38.9047C24.1293 38.9471 24.0708 38.9708 24.0098 38.9708C23.9489 38.9708 23.8904 38.9471 23.8466 38.9047C23.8109 38.8728 23.7689 38.8488 23.7233 38.8341C23.6777 38.8194 23.6296 38.8143 23.582 38.8192C23.5344 38.8241 23.4883 38.8389 23.4467 38.8626C23.4051 38.8862 23.3688 38.9183 23.3403 38.9568C23.3118 38.9953 23.2916 39.0392 23.281 39.0859C23.2704 39.1326 23.2697 39.181 23.2788 39.228C23.2879 39.275 23.3067 39.3196 23.334 39.3589C23.3614 39.3982 23.3966 39.4314 23.4374 39.4564C23.5957 39.5748 23.787 39.6407 23.9846 39.6449Z" fill="#E0E0E0"/>
<path d="M24.0074 38.7625C24.0524 38.7631 24.0972 38.7547 24.139 38.7379C24.1808 38.7211 24.2188 38.6961 24.2509 38.6644C24.283 38.6328 24.3085 38.5951 24.3259 38.5535C24.3433 38.5119 24.3522 38.4673 24.3522 38.4222V30.385C24.3527 30.2043 24.4004 30.0269 24.4908 29.8704C24.5811 29.7139 24.7109 29.5838 24.8672 29.493L34.6286 23.9295C34.7061 23.8851 34.7631 23.812 34.7872 23.726C34.8113 23.6399 34.8005 23.5479 34.7573 23.4697C34.7358 23.4309 34.7068 23.3967 34.6719 23.3692C34.6371 23.3416 34.5971 23.3213 34.5543 23.3093C34.5116 23.2973 34.4669 23.294 34.4228 23.2994C34.3787 23.3048 34.3361 23.319 34.2976 23.341L24.5131 28.9137C24.2523 29.0642 24.0356 29.2807 23.8847 29.5413C23.7338 29.8019 23.654 30.0976 23.6533 30.3988V38.436C23.6551 38.4807 23.6657 38.5246 23.6844 38.5652C23.7032 38.6058 23.7298 38.6423 23.7627 38.6726C23.7955 38.703 23.8341 38.7265 23.8761 38.7419C23.9181 38.7573 23.9627 38.7643 24.0074 38.7625Z" fill="#FAFAFA"/>
<path d="M24.762 38.4217C24.7629 38.2724 24.7195 38.1262 24.6372 38.0016C24.5549 37.877 24.4374 37.7796 24.2997 37.7218C24.162 37.664 24.0103 37.6484 23.8637 37.677C23.7171 37.7056 23.5823 37.777 23.4764 37.8823C23.3705 37.9876 23.2982 38.1219 23.2687 38.2683C23.2393 38.4147 23.2539 38.5666 23.3109 38.7046C23.3678 38.8427 23.4644 38.9607 23.5885 39.0438C23.7126 39.1269 23.8586 39.1712 24.008 39.1712C24.1068 39.1718 24.2047 39.1529 24.2962 39.1155C24.3876 39.0781 24.4708 39.023 24.5409 38.9533C24.611 38.8837 24.6666 38.8008 24.7045 38.7096C24.7425 38.6184 24.762 38.5206 24.762 38.4217Z" fill="#F5F5F5"/>
<path d="M23.2628 38.463C23.2942 38.5408 23.342 38.6109 23.403 38.6686C23.4639 38.7262 23.5366 38.77 23.616 38.7971C23.6954 38.8242 23.7797 38.8338 23.8632 38.8253C23.9466 38.8169 24.0273 38.7905 24.0996 38.7481C24.192 38.6925 24.2684 38.6139 24.3214 38.52C24.3745 38.4262 24.4023 38.3202 24.4023 38.2124C24.4023 38.1046 24.3745 37.9986 24.3214 37.9048C24.2684 37.8109 24.192 37.7324 24.0996 37.6768C24.2403 37.6962 24.3726 37.7551 24.481 37.8468C24.5894 37.9385 24.6696 38.059 24.7122 38.1945C24.7548 38.33 24.758 38.4747 24.7215 38.6119C24.6849 38.7492 24.6102 38.8732 24.5059 38.9696C24.4017 39.0659 24.2721 39.1307 24.1325 39.1563C23.9928 39.182 23.8488 39.1674 23.7171 39.1143C23.5854 39.0612 23.4714 38.9718 23.3886 38.8565C23.3057 38.7412 23.2573 38.6048 23.249 38.463H23.2628Z" fill="#EBEBEB"/>
<path d="M157.214 33.9843L153.66 31.9382L155.614 31.5244L157.559 32.8808L157.214 33.9843Z" fill="#E0E0E0"/>
<path d="M150.994 15.6708C150.994 10.1532 147.614 7.59218 143.462 9.98771L137.329 13.5281C133.19 15.9236 129.802 22.3792 129.802 27.9151C129.802 28.1404 129.802 28.3749 129.802 28.5726C129.802 28.6967 129.802 28.8025 129.802 28.922C129.802 29.0416 129.825 29.1381 129.834 29.2439C129.843 29.3496 129.862 29.4876 129.88 29.6071C129.972 30.2605 130.136 30.9019 130.367 31.5199C130.464 31.7498 130.565 31.9797 130.675 32.1728C130.726 32.2794 130.785 32.3824 130.85 32.4808L130.91 32.5774C131.012 32.7421 131.131 32.8961 131.264 33.0372C131.337 33.1199 131.406 33.2073 131.485 33.2855L131.724 33.5154C131.806 33.5797 131.885 33.6579 131.972 33.7223C132.055 33.7888 132.142 33.8488 132.234 33.9016L132.505 34.0579C132.857 34.2476 133.238 34.3766 133.632 34.4396C133.662 34.4322 133.694 34.4322 133.724 34.4396C133.83 34.4396 133.926 34.4626 134.032 34.4626C134.144 34.4717 134.256 34.4717 134.368 34.4626C134.663 34.4658 134.958 34.4333 135.246 34.366C135.418 34.3318 135.588 34.2888 135.756 34.2372C136.293 34.0726 136.809 33.8442 137.292 33.5568L143.425 30.0163C143.846 29.7722 144.248 29.4988 144.63 29.1979C144.63 29.1243 144.63 29.06 144.63 28.991C144.63 28.922 144.63 28.7749 144.63 28.6921C144.63 28.5082 144.63 28.3197 144.63 28.1312C144.616 23.4275 147.449 17.8778 150.994 15.6708Z" fill="#E0E0E0"/>
<path d="M152.028 11.6933L148.465 9.64258C148.488 9.64258 148.828 12.1209 148.828 12.1209L151.472 12.4335L152.028 11.6933Z" fill="#E0E0E0"/>
<path d="M135.563 35.7916L132.271 33.9248L134.252 33.0742L135.563 35.7916Z" fill="#E0E0E0"/>
<path d="M137.328 33.612C137.305 34.9746 136.867 36.2977 136.073 37.4053C135.926 37.5984 136.151 37.7685 136.317 37.6812C137.068 37.2912 137.734 36.755 138.275 36.1041C139.315 34.875 140.043 33.4127 140.395 31.8418L137.328 33.612Z" fill="#E0E0E0"/>
<path d="M136.11 37.6716L139.674 39.7222C139.674 39.7222 141.674 38.0348 141.674 34.6185L137.807 34.3564C137.807 34.3564 137.715 36.5819 136.11 37.6716Z" fill="#E0E0E0"/>
<path d="M145.601 27.6204C145.601 27.7921 145.601 27.9576 145.601 28.117C145.601 28.2089 145.601 28.2871 145.601 28.3745C145.601 28.4618 145.601 28.5354 145.628 28.6181C145.656 28.7009 145.628 28.8021 145.66 28.894C145.714 29.3013 145.809 29.702 145.945 30.0895C145.965 30.1601 145.99 30.2292 146.019 30.2964C146.053 30.3888 146.091 30.4793 146.134 30.5677C146.17 30.6531 146.211 30.7361 146.258 30.816C146.294 30.8961 146.338 30.973 146.387 31.0459L146.433 31.1194C146.514 31.2461 146.603 31.3674 146.699 31.4827C146.75 31.5497 146.805 31.6127 146.865 31.6712L147.04 31.8413C147.099 31.8972 147.162 31.9494 147.228 31.9976C147.291 32.0463 147.357 32.0909 147.426 32.131C147.495 32.1724 147.559 32.2137 147.633 32.2505L147.844 32.3517L148.065 32.4298C148.2 32.4706 148.336 32.5043 148.474 32.531H148.543C148.62 32.538 148.697 32.538 148.773 32.531C148.856 32.5403 148.939 32.5403 149.021 32.531C149.219 32.5309 149.416 32.5109 149.61 32.4712C149.765 32.4449 149.919 32.4096 150.07 32.3655C150.473 32.2418 150.861 32.0704 151.224 31.8551L155.822 29.1975C156.232 28.9608 156.618 28.6852 156.976 28.3745C157.105 28.2641 157.233 28.1446 157.362 28.025C157.594 27.8091 157.813 27.5804 158.02 27.3399L158.314 27.0732C158.392 26.9813 158.466 26.8847 158.544 26.7882C158.563 26.7547 158.586 26.7239 158.613 26.6962C158.919 26.2914 159.201 25.8692 159.459 25.4318C159.528 25.3168 159.592 25.1973 159.661 25.0777C159.73 24.9582 159.794 24.8386 159.859 24.7145C159.923 24.5904 159.983 24.4662 160.047 24.3467L160.222 23.9696C160.282 23.8455 160.337 23.7121 160.392 23.5926C160.489 23.3719 160.576 23.1328 160.654 22.9213C160.654 22.8799 160.686 22.8385 160.7 22.7972C160.751 22.6684 160.792 22.5397 160.834 22.4109C160.916 22.1626 160.99 21.9143 161.063 21.6569C161.225 21.0526 161.347 20.4381 161.427 19.8177C161.427 19.7119 161.45 19.6108 161.463 19.505C161.477 19.3993 161.463 19.3257 161.486 19.2337C161.509 19.1418 161.486 19.0498 161.486 18.9579C161.486 18.7862 161.486 18.6161 161.486 18.4475C161.486 14.3094 158.953 12.3736 155.836 14.1714L151.238 16.8336C148.134 18.6222 145.601 23.4639 145.601 27.6204Z" fill="#E0E0E0"/>
<path d="M163.146 15.9376L159.61 13.9053L158.276 14.8479L162.401 17.3445L163.146 15.9376Z" fill="#E0E0E0"/>
<path d="M151.007 34.1771L147.453 32.1311L150.239 31.2988L151.007 34.1771Z" fill="#E0E0E0"/>
<path d="M155.155 29.6436C155.155 30.3792 156.075 31.3816 157.127 31.5701C157.27 31.5977 157.233 31.9103 157.063 32.0299C156.436 32.3707 155.712 32.4906 155.008 32.3701C154.551 32.3565 154.105 32.2216 153.718 31.9792C153.33 31.7368 153.013 31.3957 152.801 30.9908L155.155 29.6436Z" fill="#FFC42D"/>
<path d="M147.021 12.0339L140.883 15.5789C136.744 17.9745 133.36 24.43 133.36 29.9613C133.36 30.1912 133.36 30.4211 133.36 30.6234C133.36 30.7475 133.36 30.8533 133.36 30.9728C133.36 31.0924 133.383 31.1843 133.397 31.2901C133.411 31.3958 133.425 31.543 133.443 31.6579C133.526 32.3089 133.68 32.9488 133.903 33.5661C133.999 33.8006 134.101 34.0259 134.211 34.2236C134.262 34.3289 134.32 34.4303 134.386 34.527C134.405 34.5606 134.426 34.5929 134.45 34.6236C134.55 34.7973 134.667 34.9606 134.799 35.111C134.873 35.1937 134.947 35.2857 135.025 35.3593L135.259 35.5892C135.342 35.6535 135.425 35.7317 135.508 35.7961C135.591 35.8616 135.678 35.9215 135.77 35.9754L136.046 36.1317C136.396 36.3207 136.775 36.4497 137.167 36.5134C137.197 36.5032 137.23 36.5032 137.259 36.5134C137.365 36.5134 137.466 36.5134 137.567 36.5134C137.679 36.5202 137.791 36.5202 137.903 36.5134C138.199 36.5146 138.493 36.4822 138.781 36.4168C138.954 36.3826 139.124 36.3396 139.292 36.2881C139.828 36.1221 140.343 35.8953 140.827 35.6122C140.805 36.9742 140.365 38.2964 139.568 39.4009C139.42 39.5986 139.646 39.7687 139.816 39.6813C140.568 39.291 141.234 38.753 141.775 38.0996C142.812 36.8705 143.539 35.4104 143.894 33.842L143.434 34.0948L146.943 32.0717C147.282 31.8761 147.609 31.6596 147.922 31.4234C147.895 31.3067 147.875 31.1885 147.862 31.0694C147.862 30.9912 147.835 30.8763 147.825 30.7567C147.809 30.6548 147.798 30.5519 147.793 30.4487V30.3935C147.789 30.3169 147.789 30.2402 147.793 30.1636C147.793 29.9889 147.793 29.805 147.793 29.621C147.793 24.9679 150.552 19.7217 154.102 17.6664L154.492 17.4365C154.456 12.1167 151.113 9.67058 147.021 12.0339Z" fill="#F0F0F0"/>
<path d="M159.413 16.2088L154.815 18.8664C151.702 20.6688 149.164 25.5104 149.164 29.667C149.164 29.8371 149.164 30.0026 149.164 30.1635C149.164 30.3245 149.164 30.3337 149.164 30.421C149.164 30.5084 149.164 30.582 149.187 30.6647C149.194 30.7557 149.207 30.8463 149.224 30.936C149.274 31.3453 149.37 31.7478 149.509 32.1361C149.527 32.2073 149.551 32.2766 149.582 32.343C149.614 32.4341 149.65 32.5232 149.693 32.6097C149.73 32.6961 149.771 32.7806 149.817 32.8625C149.855 32.9428 149.9 33.0197 149.95 33.0924C149.961 33.1185 149.975 33.1432 149.992 33.166C150.079 33.2947 150.166 33.4143 150.258 33.5292C150.311 33.5952 150.368 33.6582 150.428 33.7178L150.603 33.8879C150.663 33.9438 150.726 33.996 150.792 34.0442C150.852 34.0938 150.917 34.1384 150.985 34.1775C151.054 34.2189 151.118 34.2603 151.192 34.2971L151.403 34.3982L151.624 34.4764C151.759 34.5172 151.895 34.5509 152.033 34.5776H152.102C152.179 34.5846 152.256 34.5846 152.332 34.5776C152.416 34.5892 152.501 34.5892 152.585 34.5776C152.782 34.5787 152.98 34.5602 153.173 34.5224C153.329 34.4957 153.482 34.4604 153.633 34.4166C154.038 34.2947 154.425 34.1233 154.787 33.9063L156.341 33.0143C156.557 33.4149 156.875 33.7514 157.262 33.9896C157.65 34.2278 158.094 34.3593 158.548 34.3707C159.253 34.4893 159.977 34.3679 160.604 34.0258C160.769 33.9201 160.811 33.6074 160.664 33.566C159.611 33.3775 158.696 32.3752 158.696 31.6395L159.394 31.2349C159.804 30.9971 160.19 30.7215 160.549 30.4118C160.677 30.3015 160.806 30.1819 160.93 30.0624C161.163 29.8465 161.385 29.6178 161.592 29.3773C161.675 29.2807 161.758 29.1888 161.841 29.0784C161.923 28.9681 161.992 28.8945 162.07 28.798L162.139 28.706C162.446 28.3012 162.728 27.879 162.985 27.4416L163.192 27.0875C163.261 26.968 163.326 26.8484 163.39 26.7243C163.454 26.6001 163.51 26.476 163.574 26.3565L163.753 25.9794C163.813 25.8507 163.864 25.7219 163.919 25.6024C164.015 25.3817 164.107 25.1426 164.186 24.9311L164.227 24.8069C164.277 24.6782 164.323 24.5495 164.36 24.4207C164.448 24.1678 164.517 23.9241 164.595 23.6667C164.757 23.0623 164.878 22.4479 164.958 21.8275C164.958 21.7217 164.981 21.6206 164.99 21.5148C164.999 21.4091 164.99 21.3309 165.013 21.2435C165.036 21.1562 165.013 21.0596 165.013 20.9677C165.013 20.7975 165.013 20.6228 165.013 20.4527C165.064 16.3283 162.526 14.411 159.413 16.2088Z" fill="#F0F0F0"/>
<path d="M122.472 77.0307C120.734 76.4881 118.95 77.8951 117.783 80.7366C116.615 83.5782 114.164 90.8061 113.801 92.7327C113.438 94.6592 121.659 98.8525 121.429 98.7422C121.199 98.6318 122.472 77.0307 122.472 77.0307Z" fill="#263238"/>
<path d="M118.652 143.912C118.404 144.004 118.344 144.473 118.307 145.402C118.279 146.105 118.128 147.333 118.951 147.576C119.774 147.82 120.983 147.696 121.512 147.034C122.169 146.206 122.615 145.48 123.553 144.468C124.372 143.595 125.25 142.776 125.581 141.549C125.88 140.436 125.632 139.958 124.873 139.636C123.834 139.176 122.197 140.638 121.383 140.868C120.68 141.066 118.896 143.82 118.652 143.912Z" fill="#263238"/>
<path d="M118.651 143.052V144.193C119.079 144.467 119.574 144.619 120.082 144.632C120.59 144.646 121.092 144.521 121.534 144.271C121.585 144.161 121.833 142.639 121.833 142.639L118.651 143.052Z" fill="#9D8282"/>
<path d="M127.889 150.487C127.889 150.487 127.562 151.48 127.388 152.326C127.245 153.016 127.047 154.166 127.287 154.69C127.526 155.214 128.473 155.545 129.93 155.531C130.878 155.531 132.353 156.17 133.36 156.731C134.367 157.292 136.579 157.545 137.678 157.416C138.975 157.265 140.322 156.497 140.533 155.973C140.745 155.448 140.464 154.874 137.402 153.568C137.374 153.568 133.144 152.189 131.659 150.547L127.889 150.487Z" fill="#263238"/>
<path d="M127.889 149.255C127.889 149.255 127.889 150.101 127.889 150.584C127.889 151.066 128.459 151.788 129.939 151.738C130.978 151.701 131.7 151.421 131.659 150.565V149.328L127.889 149.255Z" fill="#9D8282"/>
<path d="M117.906 127.911C118.161 125.89 118.612 123.899 119.254 121.966C119.254 121.966 118.849 116.839 118.651 111.979C118.44 106.729 118.651 100.126 118.564 98.8201C118.564 98.8201 135.507 95.3901 135.811 101.459C136.114 107.529 135.14 122.978 134.942 125.645C134.744 128.311 134.28 130.67 133.728 134.992C133.176 139.314 131.659 149.329 131.659 149.329C131.073 149.627 130.422 149.777 129.765 149.764C129.107 149.751 128.463 149.576 127.889 149.255C127.889 149.255 126.698 137.116 126.822 134.04C126.919 131.756 127.311 129.493 127.99 127.309L127.387 117.952C127.102 113.598 126.803 111.515 126.735 109.616L126.371 109.432C126.371 109.432 125.999 116.945 125.801 119.612C125.603 122.279 125.176 124.835 124.422 129.787C123.75 134.082 121.76 143.172 121.76 143.172C119.824 144.22 118.67 143.039 118.67 143.039C118.67 143.039 117.391 131.636 117.906 127.911Z" fill="#455A64"/>
<path d="M126.735 109.63C126.735 109.63 122.625 107.603 120.569 105.777C120.569 105.777 122.477 108.467 124.988 109.663C124.988 109.663 125.88 118.992 125.875 118.808L126.39 109.612L126.735 109.63Z" fill="#37474F"/>
<path d="M130.395 75.1084L129.392 80.6259L124.408 80.2627L125.452 74.0049L130.395 75.1084Z" fill="#9D8282"/>
<path d="M119.144 79.8584C119.636 78.3595 121.539 76.7272 123.443 77.0996C126.274 77.5786 129.064 78.2749 131.788 79.1825C133.531 79.8032 135.117 81.3114 135.264 87.0496L136.147 104.136L134.036 104.595L133.301 100.724L132.96 104.595C130.753 105.147 126.923 104.692 124.408 104.136C119.167 102.991 118.537 100.816 118.537 100.816C118.537 100.816 118.468 91.2015 118.624 87.0496C118.771 83.5 118.803 80.87 119.144 79.8584Z" fill="#37474F"/>
<path d="M134.082 68.5703C134.082 68.5703 135.291 70.3589 135.135 70.5474C134.855 70.7358 134.544 70.8714 134.215 70.9474L134.082 68.5703Z" fill="#9D8282"/>
<path d="M130.395 62.9059C131.558 63.4944 133.567 64.5796 134.119 68.8327C134.689 73.2007 133.94 74.6077 133.351 75.187C132.951 75.5778 130.781 75.6008 129.696 75.2744C128.317 74.8652 125.273 73.7019 123.875 71.4581C122.229 68.8189 121.861 65.283 123.719 63.8761C126.326 61.899 129.411 62.4093 130.395 62.9059Z" fill="#9D8282"/>
<path d="M134.363 64.3682C133.981 65.4165 133.337 67.9821 130.661 69.0535C130.661 69.0535 130.28 67.4166 128.905 67.5913C127.53 67.766 127.296 69.5179 128.142 70.6076C128.988 71.6973 129.806 71.3019 129.806 71.3019C129.806 71.3019 129.99 73.6468 128.427 74.7089C128.427 74.7089 126.537 75.9044 124.537 74.9848C123.617 74.571 122.362 72.4146 121.617 70.6444C120.036 66.9016 119.81 63.8992 122.197 62.952C122.491 61.2508 123.259 60.6116 124.799 60.2944C128.114 59.6093 130.62 61.7887 133.406 61.4071C134.864 61.2048 134.8 63.1727 134.363 64.3682Z" fill="#37474F"/>
<path d="M122.141 63.5222L120.578 62.5566C120.639 62.4483 120.721 62.3534 120.819 62.2775C120.917 62.2017 121.03 62.1465 121.15 62.1154C121.27 62.0842 121.395 62.0777 121.518 62.0962C121.641 62.1147 121.758 62.1579 121.864 62.2231C121.97 62.2884 122.061 62.3743 122.132 62.4757C122.204 62.5772 122.254 62.6921 122.28 62.8134C122.306 62.9348 122.307 63.0602 122.283 63.182C122.259 63.3038 122.211 63.4195 122.141 63.5222Z" fill="#37474F"/>
<path d="M130.027 77.1184L130.597 78.769C130.597 78.769 130.178 79.5047 128.399 79.5415C126.619 79.5783 124.721 79.0127 124.132 78.2541C123.998 78.1055 123.899 77.929 123.842 77.7373C123.784 77.5457 123.77 77.3437 123.801 77.146C123.801 77.146 124.509 75.5827 125.18 75.6516L125.07 76.3321C125.07 76.3321 125.222 76.8885 126.836 77.3161C129.346 77.9828 130.027 77.1184 130.027 77.1184Z" fill="#455A64"/>
<path d="M144.326 88.0886C145.043 87.2656 145.319 85.4402 146.276 84.1895C147.232 82.9389 147.586 82.0239 147.963 82.5711C148.464 83.2929 147.333 84.7413 147.586 84.87C147.839 84.9988 148.772 86.9207 148.869 87.9782C148.965 89.0358 146.161 91.7026 146.161 91.7026L144.326 88.0886Z" fill="#9D8282"/>
<path d="M130.027 77.1183C130.143 77.116 130.257 77.1452 130.358 77.2026C130.458 77.2601 130.541 77.3438 130.597 77.4447C130.879 77.9525 131.13 78.476 131.352 79.0126L130.597 78.7689L130.027 77.1183Z" fill="#455A64"/>
<path d="M147.508 84.7226C147.508 84.7226 150.896 84.4283 151.388 84.7226C151.88 85.0169 151.733 86.4836 151.388 87.3848C151.044 88.286 149.315 88.8699 147.71 89.955C147.71 89.7895 147.508 84.7226 147.508 84.7226Z" fill="#9D8282"/>
<path d="M131.351 79.0303C132.809 79.5406 134.082 80.1246 135.443 82.681C137.19 85.964 140.501 91.2148 140.501 91.2148L144.313 87.8537C144.313 87.8537 144.887 87.2974 145.959 89.0676C146.273 89.5441 146.471 90.0872 146.539 90.6537C146.607 91.2203 146.542 91.7949 146.35 92.3321C146.35 92.3321 141.949 97.4956 141.108 98.2819C140.267 99.0681 138.873 98.4566 137.968 97.2197C137.062 95.9829 131.337 88.8331 131.337 88.8331C131.337 88.8331 128.229 84.7041 131.351 79.0303Z" fill="#37474F"/>
<path d="M170.668 70.4463H159.812C159.403 70.4463 159.01 70.2835 158.72 69.9938C158.43 69.7041 158.267 69.3111 158.267 68.9014V51.6545C158.267 50.2973 158.806 48.9956 159.766 48.0359C160.726 47.0762 162.028 46.537 163.385 46.537H167.109C168.464 46.5406 169.762 47.0814 170.719 48.0407C171.676 49.0001 172.213 50.2996 172.213 51.6545V68.9014C172.213 69.3111 172.05 69.7041 171.76 69.9938C171.471 70.2835 171.078 70.4463 170.668 70.4463Z" fill="#37474F"/>
<path d="M157.982 64.5611C156.93 67.6647 155.164 76.5939 155.164 76.5939C155.164 76.5939 151.486 81.0907 150.286 82.1804C149.628 82.7874 148.147 83.8771 148.147 83.8771L150.837 85.8542C153.266 83.9862 155.547 81.934 157.661 79.7159C158.131 79.2157 158.461 78.6003 158.617 77.9319L160.456 70.0419C160.456 70.0419 160.456 63.6967 161.426 62.8645C162.396 62.0322 162.677 61.8575 162.677 61.8575C161.431 61.7656 158.81 62.1196 157.982 64.5611Z" fill="#AE7461"/>
<path d="M163.252 61.7657C161.537 61.568 159.339 61.6048 158.267 63.5221C157.196 65.4395 155.412 75.3526 155.412 75.3526C155.412 75.3526 157.1 76.663 158.92 76.6401L163.252 61.7657Z" fill="#FFC42D"/>
<path d="M158.483 71.0029C158.792 72.4807 158.911 73.9918 158.838 75.4997C158.704 77.486 157.334 80.9529 157.334 80.9529C157.334 80.9529 158.405 82.13 161.426 81.6564C163.886 81.2747 163.017 73.8399 161.605 72.4145C160.782 71.564 159.666 71.0592 158.483 71.0029Z" fill="#FFC42D"/>
<path opacity="0.3" d="M158.483 71.0029C158.792 72.4807 158.911 73.9918 158.838 75.4997C158.704 77.486 157.334 80.9529 157.334 80.9529C157.334 80.9529 158.405 82.13 161.426 81.6564C163.886 81.2747 163.017 73.8399 161.605 72.4145C160.782 71.564 159.666 71.0592 158.483 71.0029Z" fill="black"/>
<path d="M164.167 123.511C164.186 123.85 164.101 124.187 163.923 124.476C163.468 125.228 162.933 125.928 162.328 126.564C161.477 127.484 160.203 128.564 159.288 129.359C158.783 129.819 158.764 130.472 159.491 130.707C160.845 131.036 162.274 130.837 163.486 130.15C164.406 129.663 165.684 127.392 166.438 127.07C167.307 126.679 167.79 126.486 168.084 126.086C168.307 125.858 168.446 125.562 168.478 125.246C168.511 124.929 168.435 124.611 168.264 124.343C167.854 123.58 167.238 122.407 166.985 122.541L167.063 122.78C166.866 123.401 165.174 124.122 164.305 123.952L164.167 123.511Z" fill="#37474F"/>
<path d="M173.027 97.5697C173.418 93.4315 174.54 86.7737 173.39 81.8447L158.125 82.654C157.702 87.514 157.205 102.687 157.739 104.425C158.355 106.476 163.859 120.67 164.176 123.525C164.198 123.86 164.112 124.193 163.932 124.477C163.478 125.23 162.943 125.932 162.337 126.569C161.923 127.029 161.417 127.488 160.884 127.948C160.839 128.014 160.812 128.09 160.806 128.169C160.806 128.629 161.964 128.771 162.645 128.574C163.493 128.274 164.225 127.712 164.732 126.969C165.123 126.449 166.001 125.452 166.571 124.702C166.762 124.471 166.924 124.218 167.054 123.948C167.206 123.611 167.233 123.231 167.128 122.877L167.091 122.762C166.793 121.831 166.607 120.868 166.539 119.893C166.328 116.761 165.79 109.529 165.293 107.602C164.948 106.199 164.425 104.845 163.735 103.575L165.477 90.0153C165.477 90.0153 165.661 101.97 166.204 105.018C166.631 107.46 166.797 110.513 167.298 114.702C167.758 118.711 168.291 125.773 168.291 125.773C168.305 125.776 168.319 125.776 168.332 125.773V129.148H171.188V127.19C171.188 126.305 171.262 125.422 171.408 124.55C171.868 121.884 172.825 115.782 173.022 113.718C173.335 110.444 172.153 106.329 172.153 106.329C172.153 106.329 172.645 101.607 173.027 97.5697Z" fill="#AE7461"/>
<path d="M167.647 61.9078C167.647 61.9078 171.753 62.3675 172.245 62.602C168.392 65.3102 171.514 71.3381 171.514 71.3381L170.038 75.9683C171.679 78.0695 173.096 79.3202 173.974 81.6237C174.949 84.1986 175.813 88.0287 175.583 95.8773C171.905 98.6361 160.713 98.3372 156.354 95.8773C156.354 95.8773 157.09 88.9482 157.959 83.5641C158.534 80.0098 159.89 76.1384 159.66 74.828C157.932 69.5127 157.821 68.5564 158.134 67.3701C158.994 64.032 162.396 61.7744 163.233 61.7744L167.647 61.9078Z" fill="#FFC42D"/>
<path opacity="0.6" d="M167.647 61.9078C167.647 61.9078 171.753 62.3675 172.245 62.602C168.392 65.3102 171.514 71.3381 171.514 71.3381L170.038 75.9683C171.679 78.0695 173.096 79.3202 173.974 81.6237C174.949 84.1986 175.813 88.0287 175.583 95.8773C171.905 98.6361 160.713 98.3372 156.354 95.8773C156.354 95.8773 157.09 88.9482 157.959 83.5641C158.534 80.0098 159.89 76.1384 159.66 74.828C157.932 69.5127 157.821 68.5564 158.134 67.3701C158.994 64.032 162.396 61.7744 163.233 61.7744L167.647 61.9078Z" fill="white"/>
<path d="M168.305 127.718V127.309C167.946 128.684 167.229 129.939 166.227 130.946C165.307 131.778 164.066 132.744 163.744 133.677C163.422 134.611 165.22 135.029 166.406 134.91C167.556 134.769 168.615 134.215 169.386 133.351C170.14 132.487 170.126 131.898 170.475 131.42C170.825 130.942 171.639 130.417 171.827 129.866C171.886 129.351 171.829 128.829 171.662 128.339C171.528 127.829 171.381 127.263 171.202 127.309V127.627C170.788 127.952 170.275 128.126 169.749 128.119C169.349 128.128 168.301 128.04 168.305 127.718Z" fill="#37474F"/>
<path d="M171.187 127.618C170.774 127.943 170.261 128.117 169.735 128.11C169.312 128.11 168.282 128.041 168.286 127.719V127.31C167.928 128.684 167.21 129.94 166.208 130.947L165.514 131.567C165.026 132.11 165.164 132.583 166.309 132.68C167.454 132.777 168.461 132.087 169.325 131.025C170.062 129.957 170.686 128.815 171.187 127.618Z" fill="#AE7461"/>
<path d="M160.557 49.3555C159.821 49.7923 158.911 51.6544 158.998 55.5259C159.076 58.818 160.143 59.6319 160.681 59.8664C161.219 60.1009 162.249 59.9583 163.251 59.7928V61.7653C163.251 61.7653 161.872 63.3792 161.95 64.285C162.028 65.1908 163.955 65.4023 165.256 64.5195C166.195 63.791 167.004 62.9078 167.647 61.9078L167.624 57.3697C167.624 57.3697 168.217 57.9398 169.219 57.0662C170.047 56.3443 170.323 55.1213 169.679 54.4684C169.512 54.3112 169.31 54.1963 169.089 54.1332C168.868 54.0702 168.636 54.0607 168.411 54.1057C168.186 54.1507 167.975 54.2488 167.796 54.3919C167.616 54.535 167.474 54.7188 167.38 54.9282C167.38 54.9282 166.824 53.3787 164.511 52.6292C162.424 51.9349 161.288 51.1487 160.557 49.3555Z" fill="#AE7461"/>
<path d="M162.677 54.703C162.677 54.784 162.701 54.8633 162.745 54.9309C162.79 54.9984 162.854 55.0514 162.928 55.0832C163.003 55.115 163.085 55.1242 163.165 55.1097C163.245 55.0951 163.318 55.0575 163.377 55.0015C163.435 54.9454 163.476 54.8734 163.494 54.7944C163.512 54.7154 163.506 54.6328 163.478 54.5569C163.449 54.4811 163.399 54.4153 163.334 54.3677C163.268 54.3201 163.19 54.2928 163.109 54.2892C163.053 54.2879 162.998 54.2977 162.946 54.3178C162.895 54.338 162.847 54.3681 162.807 54.4065C162.767 54.445 162.735 54.4909 162.712 54.5418C162.69 54.5927 162.678 54.6474 162.677 54.703Z" fill="#37474F"/>
<path d="M162.566 57.4893L161.605 57.7973C161.622 57.8615 161.652 57.9215 161.693 57.9739C161.733 58.0263 161.784 58.0699 161.842 58.1021C161.9 58.1343 161.964 58.1545 162.03 58.1614C162.096 58.1682 162.163 58.1617 162.226 58.1422C162.356 58.0979 162.464 58.0054 162.527 57.8838C162.59 57.7623 162.605 57.621 162.566 57.4893Z" fill="#6F4439"/>
<path d="M159.284 53.4297L160.12 52.8503C160.085 52.7937 160.039 52.745 159.984 52.7069C159.929 52.6689 159.867 52.6424 159.802 52.6291C159.736 52.6157 159.669 52.6158 159.603 52.6294C159.538 52.6429 159.476 52.6696 159.422 52.7078C159.309 52.7867 159.232 52.9062 159.207 53.0408C159.181 53.1755 159.209 53.3149 159.284 53.4297Z" fill="#37474F"/>
<path d="M163.881 53.7425L163.04 53.1632C163.075 53.1067 163.122 53.058 163.177 53.0199C163.231 52.9818 163.293 52.955 163.358 52.9413C163.423 52.9276 163.491 52.9271 163.556 52.94C163.622 52.9528 163.684 52.9787 163.739 53.016C163.85 53.0965 163.927 53.2163 163.953 53.3512C163.98 53.486 163.954 53.6259 163.881 53.7425Z" fill="#37474F"/>
<path d="M159.477 54.3996C159.476 54.4808 159.499 54.5605 159.543 54.6287C159.587 54.6969 159.65 54.7505 159.725 54.783C159.799 54.8155 159.882 54.8254 159.962 54.8114C160.042 54.7974 160.116 54.7601 160.175 54.7042C160.234 54.6484 160.275 54.5764 160.293 54.4973C160.312 54.4181 160.307 54.3353 160.278 54.2592C160.25 54.1831 160.2 54.117 160.134 54.0692C160.068 54.0214 159.99 53.994 159.909 53.9903C159.797 53.9879 159.689 54.0294 159.609 54.1061C159.528 54.1827 159.48 54.2882 159.477 54.3996Z" fill="#37474F"/>
<path d="M161.427 54.165L161.362 56.6571L160.052 56.2525L161.427 54.165Z" fill="#6F4439"/>
<path d="M163.252 59.7927C164.309 59.6502 166.471 59.0249 166.829 58.165C166.693 58.6006 166.426 58.984 166.066 59.2639C165.413 59.8203 163.252 60.4502 163.252 60.4502V59.7927Z" fill="#6F4439"/>
<path d="M170.751 73.4443L167.85 77.371L170.038 75.9686L170.751 73.4443Z" fill="#FFC42D"/>
<path d="M147.894 83.8767C147.273 84.6768 146.892 86.2309 146.565 86.7551C146.239 87.2792 145.848 87.7344 146.565 87.831C147.283 87.9275 148.331 86.5252 148.722 85.6745C148.92 85.1948 149.293 84.8084 149.766 84.594C149.43 84.4791 149.605 83.1319 149.37 82.9434C149.37 82.9434 148.147 83.4445 147.894 83.8767Z" fill="#AE7461"/>
<path d="M147.711 89.9466C148.359 89.4638 148.382 88.8707 148.506 87.9281C148.631 86.9855 151.228 85.9648 151.311 86.6683C151.394 87.3718 151.628 87.9603 150.851 88.8155C150.074 89.6707 148.897 90.5811 147.711 89.9466Z" fill="#AE7461"/>
<path d="M167.648 61.9082C167.648 61.9082 171.492 62.2439 172.246 62.6025C173 62.9611 174.255 65.1314 173.133 68.2809C172.011 71.4305 170.99 75.1365 171.105 75.8813C171.22 76.6262 173.901 80.4793 173.901 80.4793C173.161 81.0252 172.325 81.4261 171.436 81.661L170.057 78.6631L170.379 81.8495C168.993 82.1864 167.57 82.341 166.144 82.3093C166.144 82.3093 164.843 70.0695 167.648 61.9082Z" fill="#FFC42D"/>
<path d="M177.119 76.9207C177.427 75.1091 177.119 74.516 176.484 72.7412L173.266 74.8241C173.53 75.494 173.685 76.2018 173.726 76.9207C173.698 77.4449 172.985 82.6406 172.319 84.4522C172.198 84.7743 171.962 85.0399 171.656 85.197C170.994 85.6019 170.393 86.1006 169.872 86.6776C169.381 87.1374 168.985 87.2201 169.036 87.3765C169.112 87.5459 169.247 87.6814 169.417 87.757C169.587 87.8325 169.778 87.8427 169.955 87.7857C170.356 87.6556 170.74 87.4797 171.1 87.2615C170.781 87.9377 170.356 88.5586 169.84 89.1007C168.659 90.3605 168.553 91.1789 170.76 91.3491C172.139 91.4548 173.293 90.6824 174.539 87.7167C174.926 86.6295 175.243 85.5192 175.491 84.3924C176.162 81.8221 176.815 78.7461 177.119 76.9207Z" fill="#AE7461"/>
<path d="M172.245 62.6025C173.794 63.2968 174.236 64.667 174.811 66.6809C175.385 68.6948 177.188 74.7365 177.188 74.7365C177.188 74.7365 175.643 76.5757 173.509 76.0607L170.751 69.3615C170.751 69.3615 169.463 64.9889 172.245 62.6025Z" fill="#FFC42D"/>
</svg>
