<svg width="60" height="48" viewBox="0 0 60 48" fill="none" xmlns="http://www.w3.org/2000/svg">
<path d="M40.7531 6H32.7C31.95 6 31.2281 6.28125 30.675 6.7875L21.4594 15.225C21.45 15.2344 21.4406 15.2531 21.4313 15.2625C19.875 16.725 19.9031 19.0594 21.2344 20.5125C22.425 21.8156 24.9281 22.1625 26.4938 20.7656C26.5031 20.7563 26.5219 20.7563 26.5312 20.7469L34.0219 13.8844C34.6312 13.3313 35.5875 13.3688 36.1406 13.9781C36.7031 14.5875 36.6562 15.5344 36.0469 16.0969L33.6 18.3375L47.25 29.4188C47.5219 29.6438 47.7656 29.8875 47.9906 30.1406V12L42.8719 6.88125C42.3187 6.31875 41.55 6 40.7531 6ZM51 12.0188V33.0094C51 34.6688 52.3406 36.0094 54 36.0094H60V12.0188H51ZM55.5 33.0094C54.675 33.0094 54 32.3344 54 31.5094C54 30.6844 54.675 30.0094 55.5 30.0094C56.325 30.0094 57 30.6844 57 31.5094C57 32.3344 56.325 33.0094 55.5 33.0094ZM0 36H6C7.65938 36 9 34.6594 9 33V12.0188H0V36ZM4.5 30.0094C5.325 30.0094 6 30.6844 6 31.5094C6 32.3344 5.325 33.0094 4.5 33.0094C3.675 33.0094 3 32.3344 3 31.5094C3 30.675 3.675 30.0094 4.5 30.0094ZM45.3656 31.7531L31.3688 20.3906L28.5563 22.9688C25.7719 25.5094 21.5062 25.2656 19.0219 22.5563C16.5 19.8 16.6969 15.5344 19.4344 13.0219L27.1031 6H19.2469C18.45 6 17.6906 6.31875 17.1281 6.88125L12 12V32.9906H13.7156L22.2 40.6688C24.7688 42.7594 28.5469 42.3656 30.6375 39.7969L30.6562 39.7781L32.3344 41.2313C33.825 42.45 36.0281 42.2156 37.2375 40.725L40.1813 37.1063L40.6875 37.5188C41.9719 38.5594 43.8656 38.3719 44.9062 37.0781L45.7969 35.9813C46.8469 34.6875 46.65 32.8031 45.3656 31.7531Z" fill="#0D5520"/>
</svg>