<svg width="21" height="20" viewBox="0 0 21 20" fill="none" xmlns="http://www.w3.org/2000/svg">
<path d="M9.1 14.599L16.15 7.54902L14.75 6.14902L9.1 11.799L6.25 8.94902L4.85 10.349L9.1 14.599ZM10.5 19.999C9.11667 19.999 7.81667 19.7364 6.6 19.211C5.38333 18.6857 4.325 17.9734 3.425 17.074C2.525 16.174 1.81267 15.1157 1.288 13.899C0.763333 12.6824 0.500667 11.3824 0.5 9.99902C0.5 8.61569 0.762667 7.31569 1.288 6.09902C1.81333 4.88236 2.52567 3.82402 3.425 2.92402C4.325 2.02402 5.38333 1.31169 6.6 0.787024C7.81667 0.262357 9.11667 -0.000309896 10.5 -0.000976562C11.8833 -0.000976562 13.1833 0.26169 14.4 0.787024C15.6167 1.31236 16.675 2.02469 17.575 2.92402C18.475 3.82402 19.1877 4.88236 19.713 6.09902C20.2383 7.31569 20.5007 8.61569 20.5 9.99902C20.5 11.3824 20.2373 12.6824 19.712 13.899C19.1867 15.1157 18.4743 16.174 17.575 17.074C16.675 17.974 15.6167 18.6867 14.4 19.212C13.1833 19.7374 11.8833 19.9997 10.5 19.999Z" fill="#0D5520"/>
</svg>
