<svg width="198" height="196" viewBox="0 0 198 196" fill="none" xmlns="http://www.w3.org/2000/svg">
<path d="M168.777 99.4433C207.564 121.389 207.767 156.946 169.226 178.91C130.686 200.873 68.0122 200.85 29.2248 178.91C-9.56269 156.969 -9.76935 121.407 28.7755 99.4433C67.3204 77.48 129.998 77.4979 168.777 99.4433Z" fill="#FFC42D" fill-opacity="0.3"/>
<path d="M41.92 3.19827C39.8221 4.41122 38.0072 6.85059 37.1356 9.38431C36.5811 9.4465 36.0472 9.6306 35.5723 9.9234L35.2353 10.1301C33.3403 11.5212 32.0534 13.5884 31.6414 15.9028C31.5395 16.4975 31.5395 17.1051 31.6414 17.6998C31.6464 17.7569 31.6356 17.8143 31.6102 17.8658C31.5849 17.9173 31.546 17.9608 31.4977 17.9918L29.3233 19.2362C28.8268 19.5603 28.4135 19.9968 28.1169 20.5104C27.8203 21.0239 27.6488 21.6 27.6162 22.1922C27.6162 23.2793 28.3889 23.7196 29.3368 23.1715L50.505 10.9477C51.0034 10.6254 51.418 10.1893 51.7148 9.67538C52.0116 9.16145 52.1821 8.58437 52.2121 7.99167C52.2121 6.9045 51.4395 6.46874 50.496 7.01681L47.0279 9.01593C46.9201 9.07883 46.8482 9.01593 46.8886 8.86319C47.2065 7.85468 47.3375 6.79656 47.275 5.74097C47.0459 2.87481 44.9255 1.6978 42.3333 2.98712C42.1851 3.05002 42.0503 3.1219 41.92 3.19827Z" fill="#E6E6E6"/>
<path d="M25.3747 0.502539C23.8191 1.50841 22.654 3.01585 22.0728 4.77482C21.6906 4.81671 21.3225 4.9425 20.9946 5.1432C20.9141 5.18836 20.8361 5.23785 20.761 5.29145C19.4495 6.24916 18.5593 7.67704 18.2767 9.27621C18.207 9.68507 18.207 10.1028 18.2767 10.5116C18.2804 10.5512 18.2732 10.5909 18.2557 10.6266C18.2383 10.6623 18.2114 10.6924 18.1779 10.7138L16.6819 11.5763C16.3394 11.8 16.0543 12.1012 15.8498 12.4556C15.6454 12.8099 15.5272 13.2074 15.5049 13.6159C15.5049 14.3661 16.0395 14.6671 16.6909 14.2897L31.3002 5.853C31.6427 5.6293 31.9278 5.3281 32.1322 4.97377C32.3367 4.61944 32.4549 4.22194 32.4772 3.81344C32.4772 3.06321 31.9426 2.76222 31.2912 3.13958L28.9192 4.51875C28.8428 4.56368 28.7934 4.51875 28.8204 4.41543C29.0399 3.7189 29.1297 2.98802 29.0854 2.25907C28.9282 0.282411 27.4637 -0.530715 25.6622 0.358782L25.3747 0.502539Z" fill="#E6E6E6"/>
<path d="M34.8802 149.956L41.1112 153.685C41.586 153.97 42.1295 154.121 42.6836 154.121C43.2376 154.121 43.7812 153.97 44.2559 153.685L94.9168 123.347C95.0748 123.251 95.2053 123.115 95.2958 122.953C95.3863 122.792 95.4339 122.61 95.4339 122.424C95.4339 122.239 95.3863 122.057 95.2958 121.895C95.2053 121.734 95.0748 121.598 94.9168 121.501L88.6678 117.772C88.1931 117.487 87.6495 117.336 87.0955 117.336C86.5415 117.336 85.9979 117.487 85.5232 117.772L34.8802 148.123C34.7253 148.221 34.5975 148.356 34.509 148.516C34.4205 148.676 34.374 148.856 34.374 149.04C34.374 149.223 34.4205 149.403 34.509 149.563C34.5975 149.723 34.7253 149.859 34.8802 149.956Z" fill="#E0E0E0"/>
<path d="M152.801 140.827C163.268 146.874 163.327 156.672 152.927 162.714C142.527 168.757 125.608 168.761 115.141 162.714C104.674 156.668 104.615 146.874 115.015 140.827C125.415 134.781 142.334 134.785 152.801 140.827Z" fill="#FFC42D"/>
<path d="M28.5509 116.892C27.3964 115.787 26.0711 114.579 25.9902 112.979C25.9947 112.264 26.2174 111.568 26.6284 110.982C27.0394 110.397 27.6192 109.951 28.2903 109.704C28.9672 109.476 29.6832 109.386 30.3956 109.44C31.1079 109.494 31.8021 109.691 32.4368 110.019C33.7008 110.687 34.8271 111.588 35.7567 112.674C38.5535 115.782 40.5781 119.505 41.6661 123.542C42.7542 127.579 42.8752 131.816 42.0191 135.909C41.9023 136.448 41.7226 137.045 41.2375 137.301C40.4648 137.71 39.5843 136.991 39.0542 136.295C37.9046 134.768 37.036 133.05 36.489 131.219C36.0397 129.669 36.2374 127.962 35.6534 126.502C34.2248 122.921 31.3003 119.52 28.5509 116.892Z" fill="#0D5520"/>
<path d="M28.5509 116.892C27.3964 115.787 26.0711 114.579 25.9902 112.979C25.9947 112.264 26.2174 111.568 26.6284 110.982C27.0394 110.397 27.6192 109.951 28.2903 109.704C28.9672 109.476 29.6832 109.386 30.3956 109.44C31.1079 109.494 31.8021 109.691 32.4368 110.019C33.7008 110.687 34.8271 111.588 35.7567 112.674C38.5535 115.782 40.5781 119.505 41.6661 123.542C42.7542 127.579 42.8752 131.816 42.0191 135.909C41.9023 136.448 41.7226 137.045 41.2375 137.301C40.4648 137.71 39.5843 136.991 39.0542 136.295C37.9046 134.768 37.036 133.05 36.489 131.219C36.0397 129.669 36.2374 127.962 35.6534 126.502C34.2248 122.921 31.3003 119.52 28.5509 116.892Z" fill="#0D5520"/>
<path d="M40.5632 135.212C40.5227 135.212 40.4826 135.204 40.4453 135.188C40.4079 135.173 40.374 135.15 40.3456 135.121C40.3172 135.092 40.2948 135.058 40.2797 135.02C40.2646 134.983 40.2571 134.942 40.2577 134.902C40.2199 130.419 39.1853 126.001 37.2288 121.968C35.2723 117.934 32.443 114.387 28.9458 111.582C28.9122 111.556 28.884 111.524 28.863 111.488C28.842 111.451 28.8286 111.411 28.8235 111.369C28.8185 111.327 28.822 111.284 28.8337 111.244C28.8455 111.203 28.8653 111.165 28.8919 111.133C28.9181 111.1 28.9506 111.072 28.9873 111.052C29.0241 111.032 29.0646 111.019 29.1063 111.015C29.148 111.01 29.1903 111.014 29.2306 111.025C29.2709 111.037 29.3085 111.057 29.3412 111.083C32.9123 113.946 35.8011 117.568 37.7981 121.686C39.7952 125.805 40.8502 130.316 40.8867 134.893C40.8879 134.936 40.8804 134.978 40.8645 135.018C40.8487 135.057 40.8248 135.093 40.7945 135.123C40.7641 135.153 40.7279 135.176 40.6881 135.192C40.6483 135.207 40.6058 135.214 40.5632 135.212Z" fill="white"/>
<path d="M36.7763 147.467C34.8311 148.092 32.3917 147.683 31.2641 145.976C29.9164 143.972 30.7654 140.881 28.9909 139.237C27.9981 138.339 26.5381 138.24 25.2218 137.97C23.9055 137.701 22.4455 136.969 22.2478 135.639C21.9873 133.878 24.1526 132.413 23.8516 130.657C23.5506 128.9 21.1562 128.384 20.4509 126.775C19.8085 125.311 20.945 123.536 22.4545 122.988C23.9639 122.44 25.6396 122.817 27.1401 123.374C28.6405 123.932 30.1006 124.668 31.6909 124.866C33.2812 125.064 35.2579 124.745 36.4708 125.881C38.0971 127.4 37.1671 130.297 38.4205 132.13C39.2651 133.361 40.8509 133.788 42.0639 134.65C42.8178 135.198 43.4298 135.918 43.8486 136.75C44.2675 137.583 44.4812 138.503 44.4718 139.435C44.4314 141.452 43.3711 142.912 41.8437 144.071C40.2265 145.329 38.8024 146.82 36.7763 147.467Z" fill="#0D5520"/>
<path opacity="0.3" d="M36.7763 147.467C34.8311 148.092 32.3917 147.683 31.2641 145.976C29.9164 143.972 30.7654 140.881 28.9909 139.237C27.9981 138.339 26.5381 138.24 25.2218 137.97C23.9055 137.701 22.4455 136.969 22.2478 135.639C21.9873 133.878 24.1526 132.413 23.8516 130.657C23.5506 128.9 21.1562 128.384 20.4509 126.775C19.8085 125.311 20.945 123.536 22.4545 122.988C23.9639 122.44 25.6396 122.817 27.1401 123.374C28.6405 123.932 30.1006 124.668 31.6909 124.866C33.2812 125.064 35.2579 124.745 36.4708 125.881C38.0971 127.4 37.1671 130.297 38.4205 132.13C39.2651 133.361 40.8509 133.788 42.0639 134.65C42.8178 135.198 43.4298 135.918 43.8486 136.75C44.2675 137.583 44.4812 138.503 44.4718 139.435C44.4314 141.452 43.3711 142.912 41.8437 144.071C40.2265 145.329 38.8024 146.82 36.7763 147.467Z" fill="black"/>
<path d="M35.9002 133.671L35.8777 133.64C35.5857 133.217 35.2847 132.799 34.9792 132.4C32.1003 128.833 28.1956 126.236 23.7931 124.96C23.7529 124.944 23.7098 124.937 23.6667 124.939C23.6235 124.94 23.5811 124.951 23.5423 124.97C23.5036 124.989 23.4692 125.016 23.4414 125.049C23.4137 125.083 23.3932 125.121 23.3812 125.163C23.3693 125.204 23.3661 125.248 23.372 125.291C23.3779 125.333 23.3927 125.375 23.4154 125.411C23.4381 125.448 23.4682 125.48 23.5039 125.504C23.5395 125.529 23.5799 125.545 23.6224 125.553C27.9031 126.793 31.6997 129.318 34.4985 132.786C34.5839 132.894 34.6602 133.015 34.7456 133.123C31.2595 131.843 27.7015 132.57 25.8057 134.098C25.7716 134.123 25.7432 134.155 25.7222 134.192C25.7013 134.229 25.6883 134.27 25.6841 134.312C25.6798 134.355 25.6845 134.397 25.6977 134.438C25.7109 134.478 25.7324 134.515 25.7608 134.547C25.7858 134.581 25.8177 134.61 25.8545 134.632C25.8913 134.653 25.9322 134.666 25.9745 134.671C26.0168 134.676 26.0596 134.671 26.1001 134.659C26.1407 134.646 26.1781 134.625 26.21 134.596C28.0879 133.082 31.9648 132.409 35.4779 134.111C37.6633 137.336 38.9418 141.09 39.1796 144.978C39.1842 145.056 39.2184 145.129 39.2752 145.183C39.332 145.236 39.4071 145.266 39.4851 145.266C39.5256 145.264 39.5654 145.254 39.6021 145.237C39.6388 145.22 39.6717 145.195 39.6989 145.165C39.7261 145.135 39.747 145.1 39.7604 145.062C39.7739 145.023 39.7795 144.983 39.7771 144.942C39.5279 140.904 38.188 137.008 35.9002 133.671Z" fill="white"/>
<path d="M155.026 126.74C155.965 125.841 157.038 124.862 157.101 123.568C157.099 122.988 156.919 122.423 156.586 121.948C156.252 121.474 155.782 121.112 155.237 120.913C154.688 120.727 154.106 120.653 153.528 120.697C152.95 120.741 152.386 120.902 151.872 121.169C150.844 121.708 149.929 122.438 149.177 123.321C146.903 125.844 145.258 128.867 144.374 132.146C143.49 135.425 143.393 138.866 144.091 142.189C144.112 142.412 144.18 142.628 144.29 142.823C144.399 143.018 144.549 143.188 144.729 143.321C145.358 143.654 146.077 143.07 146.499 142.504C147.433 141.265 148.138 139.868 148.579 138.38C148.956 137.126 148.786 135.738 149.257 134.557C150.421 131.637 152.793 128.874 155.026 126.74Z" fill="#0D5520"/>
<path d="M145.273 141.605C145.34 141.605 145.404 141.579 145.451 141.531C145.498 141.484 145.524 141.42 145.524 141.353C145.555 137.716 146.395 134.13 147.983 130.857C149.571 127.585 151.868 124.706 154.707 122.431C154.749 122.388 154.774 122.33 154.777 122.269C154.78 122.208 154.761 122.148 154.723 122.1C154.685 122.052 154.631 122.02 154.571 122.009C154.511 121.998 154.449 122.009 154.397 122.041C151.5 124.364 149.157 127.303 147.537 130.644C145.917 133.985 145.06 137.645 145.03 141.358C145.031 141.422 145.057 141.484 145.102 141.53C145.147 141.576 145.208 141.603 145.273 141.605Z" fill="white"/>
<path d="M148.349 151.546C149.931 152.054 151.912 151.722 152.842 150.338C153.915 148.712 153.246 146.205 154.684 144.889C155.492 144.156 156.674 144.08 157.743 143.86C158.812 143.64 159.989 143.051 160.155 141.973C160.366 140.54 158.61 139.354 158.857 137.93C159.104 136.506 161.04 136.088 161.615 134.785C162.136 133.595 161.211 132.153 159.989 131.712C158.767 131.272 157.406 131.573 156.189 132.022C154.971 132.472 153.785 133.074 152.496 133.231C151.206 133.388 149.603 133.132 148.619 134.057C147.298 135.288 148.053 137.651 147.033 139.129C146.35 140.127 145.065 140.477 144.081 141.169C143.469 141.613 142.971 142.198 142.631 142.874C142.291 143.55 142.118 144.298 142.127 145.055C142.159 146.69 143.026 147.872 144.257 148.815C145.555 149.812 146.728 151.025 148.349 151.546Z" fill="#0D5520"/>
<path opacity="0.3" d="M148.349 151.546C149.931 152.054 151.912 151.722 152.842 150.338C153.915 148.712 153.246 146.205 154.684 144.889C155.492 144.156 156.674 144.08 157.743 143.86C158.812 143.64 159.989 143.051 160.155 141.973C160.366 140.54 158.61 139.354 158.857 137.93C159.104 136.506 161.04 136.088 161.615 134.785C162.136 133.595 161.211 132.153 159.989 131.712C158.767 131.272 157.406 131.573 156.189 132.022C154.971 132.472 153.785 133.074 152.496 133.231C151.206 133.388 149.603 133.132 148.619 134.057C147.298 135.288 148.053 137.651 147.033 139.129C146.35 140.127 145.065 140.477 144.081 141.169C143.469 141.613 142.971 142.198 142.631 142.874C142.291 143.55 142.118 144.298 142.127 145.055C142.159 146.69 143.026 147.872 144.257 148.815C145.555 149.812 146.728 151.025 148.349 151.546Z" fill="black"/>
<path d="M149.064 140.356V140.329C149.302 139.988 149.545 139.651 149.806 139.327C152.145 136.431 155.32 134.326 158.898 133.299C158.962 133.281 159.03 133.288 159.088 133.32C159.146 133.352 159.189 133.406 159.208 133.469C159.217 133.501 159.22 133.534 159.216 133.567C159.212 133.6 159.201 133.632 159.185 133.661C159.169 133.689 159.147 133.715 159.121 133.735C159.095 133.755 159.065 133.77 159.033 133.779C155.562 134.781 152.483 136.826 150.214 139.637C150.142 139.727 150.08 139.822 150.012 139.911C152.838 138.869 155.722 139.462 157.263 140.702C157.304 140.735 157.334 140.779 157.349 140.829C157.364 140.88 157.362 140.933 157.345 140.983C157.327 141.032 157.295 141.075 157.252 141.105C157.209 141.136 157.158 141.152 157.106 141.151C157.048 141.152 156.992 141.131 156.948 141.093C155.426 139.867 152.281 139.323 149.428 140.702C147.648 143.321 146.603 146.369 146.405 149.53C146.4 149.593 146.372 149.653 146.325 149.696C146.278 149.739 146.217 149.763 146.153 149.763C146.12 149.762 146.088 149.753 146.059 149.739C146.029 149.725 146.002 149.705 145.981 149.68C145.959 149.655 145.942 149.626 145.932 149.595C145.921 149.564 145.917 149.531 145.92 149.498C146.12 146.222 147.207 143.062 149.064 140.356Z" fill="white"/>
<path d="M112.927 29.595C113.133 29.4737 113.299 29.595 113.299 29.8106V32.3309C113.292 32.4598 113.255 32.5852 113.19 32.6969C113.125 32.8085 113.035 32.9032 112.927 32.9733C112.72 33.0946 112.554 32.9733 112.554 32.7621V30.2419C112.561 30.1124 112.598 29.9863 112.663 29.8739C112.728 29.7616 112.818 29.666 112.927 29.595Z" fill="#0D5520"/>
<path d="M108.134 34.384C108.176 34.3552 108.226 34.3398 108.277 34.3398C108.329 34.3398 108.379 34.3552 108.421 34.384L109.836 35.4981C109.971 35.6059 109.949 35.889 109.791 36.1315C109.732 36.229 109.651 36.3107 109.553 36.3696C109.511 36.399 109.461 36.4148 109.41 36.4148C109.358 36.4148 109.308 36.399 109.266 36.3696L107.851 35.2555C107.716 35.1477 107.734 34.8647 107.896 34.6221C107.955 34.5251 108.037 34.4435 108.134 34.384Z" fill="#0D5520"/>
<path d="M106.471 37.637C106.524 37.6137 106.581 37.6044 106.638 37.61L108.542 37.7762C108.722 37.7762 108.785 38.0188 108.682 38.2839C108.618 38.4477 108.505 38.5875 108.358 38.6837C108.302 38.7197 108.236 38.737 108.17 38.7331L106.265 38.5714C106.09 38.5714 106.027 38.3288 106.13 38.0637C106.19 37.886 106.311 37.735 106.471 37.637Z" fill="#0D5520"/>
<path d="M108.39 43.8994C108.52 43.8231 108.646 43.8276 108.713 43.9264C108.757 44.0384 108.768 44.1608 108.744 44.2787C108.72 44.3967 108.663 44.5052 108.579 44.5913L106.683 46.9498C106.632 47.0146 106.569 47.0694 106.499 47.1115C106.368 47.1879 106.243 47.1834 106.171 47.0846C106.128 46.9724 106.118 46.8503 106.142 46.7326C106.165 46.6148 106.222 46.5063 106.305 46.4197L108.201 44.0612C108.254 43.9962 108.318 43.9413 108.39 43.8994Z" fill="#0D5520"/>
<path d="M107.756 42.2595C107.936 42.1607 108.093 42.2146 108.125 42.4033C108.133 42.5316 108.109 42.6599 108.057 42.7772C108.005 42.8946 107.925 42.9975 107.824 43.0771L105.663 44.7618L105.6 44.8067C105.42 44.91 105.263 44.8561 105.231 44.663C105.222 44.5345 105.245 44.4058 105.297 44.2883C105.35 44.1707 105.431 44.0679 105.532 43.9891L107.689 42.3044L107.756 42.2595Z" fill="#0D5520"/>
<path d="M117.756 28.8316C117.791 28.8074 117.831 28.7912 117.873 28.7842C117.915 28.7772 117.958 28.7796 117.999 28.7912C118.156 28.8541 118.178 29.1102 118.048 29.3707L116.642 32.1156C116.578 32.2469 116.479 32.3575 116.355 32.4346C116.319 32.4577 116.279 32.4733 116.237 32.4803C116.196 32.4872 116.153 32.4854 116.112 32.475C115.955 32.4121 115.932 32.1515 116.067 31.891L117.469 29.1506C117.531 29.0184 117.631 28.9075 117.756 28.8316Z" fill="#0D5520"/>
<path d="M115.501 28.6245C115.542 28.6017 115.586 28.5864 115.632 28.5796C115.825 28.5481 115.924 28.7368 115.856 29.0019L115.11 31.8007C115.059 32.0009 114.934 32.1742 114.76 32.2858C114.722 32.3099 114.679 32.3267 114.634 32.3352C114.441 32.3667 114.338 32.178 114.41 31.913L115.151 29.1142C115.203 28.9133 115.328 28.7388 115.501 28.6245Z" fill="#0D5520"/>
<g opacity="0.2">
<path opacity="0.2" d="M112.927 29.595C113.133 29.4737 113.299 29.595 113.299 29.8106V32.3309C113.292 32.4598 113.255 32.5852 113.19 32.6969C113.125 32.8085 113.035 32.9032 112.927 32.9733C112.72 33.0946 112.554 32.9733 112.554 32.7621V30.2419C112.561 30.1124 112.598 29.9863 112.663 29.8739C112.728 29.7616 112.818 29.666 112.927 29.595Z" fill="black"/>
<path opacity="0.2" d="M108.134 34.384C108.176 34.3552 108.226 34.3398 108.277 34.3398C108.329 34.3398 108.379 34.3552 108.421 34.384L109.836 35.4981C109.971 35.6059 109.949 35.889 109.791 36.1315C109.732 36.229 109.651 36.3107 109.553 36.3696C109.511 36.399 109.461 36.4148 109.41 36.4148C109.358 36.4148 109.308 36.399 109.266 36.3696L107.851 35.2555C107.716 35.1477 107.734 34.8647 107.896 34.6221C107.955 34.5251 108.037 34.4435 108.134 34.384Z" fill="black"/>
<path opacity="0.2" d="M106.471 37.636C106.524 37.6127 106.581 37.6034 106.638 37.609L108.542 37.7752C108.722 37.7752 108.785 38.0178 108.682 38.2829C108.618 38.4467 108.505 38.5865 108.358 38.6827C108.302 38.7188 108.236 38.7361 108.17 38.7321L106.265 38.5704C106.09 38.5704 106.027 38.3278 106.13 38.0628C106.19 37.885 106.311 37.734 106.471 37.636Z" fill="black"/>
<path opacity="0.2" d="M108.39 43.8985C108.52 43.8221 108.646 43.8266 108.713 43.9254C108.757 44.0374 108.768 44.1598 108.744 44.2778C108.72 44.3957 108.663 44.5042 108.579 44.5903L106.683 46.9488C106.632 47.0136 106.569 47.0684 106.499 47.1105C106.368 47.1869 106.243 47.1824 106.171 47.0836C106.128 46.9714 106.118 46.8493 106.142 46.7316C106.165 46.6139 106.222 46.5053 106.305 46.4187L108.201 44.0602C108.254 43.9952 108.318 43.9404 108.39 43.8985Z" fill="black"/>
<path opacity="0.2" d="M107.756 42.2586C107.936 42.1597 108.093 42.2136 108.125 42.4023C108.133 42.5306 108.109 42.6589 108.057 42.7763C108.005 42.8936 107.925 42.9965 107.824 43.0762L105.663 44.7608L105.6 44.8057C105.42 44.9091 105.263 44.8552 105.231 44.662C105.222 44.5336 105.245 44.4049 105.297 44.2873C105.35 44.1697 105.431 44.067 105.532 43.9881L107.689 42.3035L107.756 42.2586Z" fill="black"/>
<path opacity="0.2" d="M117.756 28.8316C117.791 28.8074 117.831 28.7912 117.873 28.7842C117.915 28.7772 117.958 28.7796 117.999 28.7912C118.156 28.8541 118.178 29.1102 118.048 29.3707L116.642 32.1156C116.578 32.2469 116.479 32.3575 116.355 32.4346C116.319 32.4577 116.279 32.4733 116.237 32.4803C116.196 32.4872 116.153 32.4854 116.112 32.475C115.955 32.4121 115.932 32.1515 116.067 31.891L117.469 29.1506C117.531 29.0184 117.631 28.9075 117.756 28.8316Z" fill="black"/>
<path opacity="0.2" d="M115.501 28.6245C115.542 28.6017 115.586 28.5864 115.632 28.5796C115.825 28.5481 115.924 28.7368 115.856 29.0019L115.11 31.8007C115.059 32.0009 114.934 32.1742 114.76 32.2858C114.722 32.3099 114.679 32.3267 114.634 32.3352C114.441 32.3667 114.338 32.178 114.41 31.913L115.151 29.1142C115.203 28.9133 115.328 28.7388 115.501 28.6245Z" fill="black"/>
</g>
<path d="M114.113 155.14C114.674 155.693 115.345 156.123 116.082 156.401C116.82 156.678 117.607 156.798 118.394 156.752C119.961 156.644 121.495 156.247 122.918 155.58C124.369 154.969 126.184 153.262 127.752 153.293C129.283 153.282 130.811 153.175 132.329 152.974C132.385 150.836 132.166 148.7 131.678 146.618L124.369 146.42C122.397 149.192 118.56 151.496 115.658 152.359C115.209 152.494 114.804 152.748 114.488 153.095C114.171 153.441 113.955 153.867 113.861 154.327C113.859 154.343 113.859 154.36 113.861 154.376C113.913 154.64 113.998 154.896 114.113 155.14Z" fill="#455A64"/>
<path d="M127.752 153.294C126.184 153.262 124.37 154.969 122.918 155.58C121.496 156.247 119.962 156.645 118.395 156.753C117.608 156.799 116.82 156.679 116.083 156.401C115.345 156.123 114.674 155.693 114.113 155.14C113.998 154.897 113.914 154.64 113.862 154.376C113.86 154.36 113.86 154.343 113.862 154.327C113.792 154.656 113.792 154.995 113.862 155.324C113.914 155.588 113.998 155.845 114.113 156.088C114.674 156.642 115.344 157.073 116.082 157.35C116.82 157.628 117.608 157.748 118.395 157.701C119.962 157.594 121.496 157.198 122.918 156.533C124.37 155.922 126.184 154.215 127.752 154.246C129.254 154.257 130.755 154.167 132.245 153.976C132.281 153.644 132.303 153.307 132.317 152.975C130.803 153.175 129.279 153.281 127.752 153.294Z" fill="#37474F"/>
<path d="M146.957 155.603C146.963 156.366 146.889 157.128 146.737 157.876C146.506 159.196 145.782 160.38 144.711 161.187C143.736 161.766 142.624 162.076 141.49 162.085C140.498 162.192 139.495 162.084 138.547 161.771C137.823 161.503 137.214 160.994 136.822 160.329C136.822 160.329 136.822 160.356 136.822 160.369C136.959 160.855 137.211 161.302 137.556 161.67C137.902 162.038 138.331 162.318 138.808 162.485C139.756 162.799 140.762 162.905 141.755 162.795C142.886 162.795 143.996 162.492 144.971 161.919C146.045 161.113 146.77 159.927 146.998 158.604C147.149 157.857 147.223 157.097 147.218 156.335C147.22 155.816 147.327 155.303 147.531 154.826C147.736 154.349 148.034 153.918 148.408 153.559C148.591 153.386 148.763 153.203 148.925 153.011C149.041 152.875 149.129 152.717 149.184 152.546C149.239 152.376 149.259 152.196 149.244 152.018C149.244 151.879 149.217 151.739 149.199 151.604C148.934 151.928 148.3 152.692 148.139 152.844C147.769 153.203 147.474 153.632 147.271 154.105C147.068 154.579 146.962 155.088 146.957 155.603Z" fill="#37474F"/>
<path d="M141.368 147.674C141.605 149.239 141.401 150.84 140.78 152.297C140.166 153.73 139.367 155.077 138.403 156.304C137.93 156.883 137.512 157.506 137.154 158.164C136.808 158.823 136.685 159.576 136.804 160.311C137.195 160.976 137.805 161.486 138.529 161.753C139.476 162.067 140.479 162.174 141.471 162.068C142.606 162.058 143.717 161.748 144.693 161.169C145.763 160.362 146.487 159.179 146.719 157.858C146.871 157.11 146.944 156.348 146.939 155.585C146.941 155.067 147.048 154.554 147.251 154.077C147.455 153.6 147.752 153.169 148.125 152.809C148.286 152.656 148.92 151.91 149.185 151.569C149.041 150.435 148.67 149.343 148.093 148.357L141.368 147.674Z" fill="#455A64"/>
<path d="M121.759 80.7373L122.311 119.399L124.108 146.461C128.601 149.381 131.88 146.996 131.88 146.996C133.592 134.174 133.821 126.29 132.891 120.94L133.745 100.077L136.287 121.753L140.6 148.308C145.223 151.38 148.489 148.308 148.489 148.308C148.489 138.478 149.342 127.49 146.692 120.401C148.556 98.5003 145.447 81.1416 145.447 81.1416L121.759 80.7373Z" fill="#37474F"/>
<path d="M132.784 92.1247L133.727 100.094L133.327 109.865L131.593 93.8004C127.55 92.1876 127.047 89.9189 127.047 89.9189C128.738 91.1345 130.714 91.8942 132.784 92.1247Z" fill="#263238"/>
<path d="M125.178 36.0508L124.149 35.5117H124.127H124.086C124.002 35.4728 123.909 35.455 123.816 35.4597C123.723 35.4644 123.632 35.4915 123.552 35.5386L114.347 40.8531C114.166 40.9574 114.017 41.1073 113.912 41.288C113.808 41.4686 113.754 41.6734 113.754 41.8819V46.3384C113.753 46.4314 113.774 46.5234 113.817 46.6064C113.859 46.6893 113.921 46.7608 113.997 46.8146C114.032 46.8384 114.069 46.858 114.109 46.873L115.106 47.4031L115.057 46.5899L123.83 41.527C124.011 41.423 124.162 41.2732 124.267 41.0926C124.372 40.912 124.427 40.707 124.428 40.4982V36.6168L125.178 36.0508Z" fill="#455A64"/>
<path d="M124.886 42.0525L115.681 47.367C115.59 47.4198 115.487 47.4478 115.383 47.4483C115.278 47.4488 115.175 47.4218 115.084 47.3699C114.993 47.318 114.917 47.2432 114.864 47.1527C114.811 47.0623 114.783 46.9596 114.782 46.8548V42.3939C114.783 42.1857 114.839 41.9813 114.942 41.801C115.046 41.6206 115.196 41.4704 115.375 41.3651L124.607 36.0506C124.698 35.9961 124.801 35.9669 124.907 35.9658C125.013 35.9648 125.117 35.9921 125.208 36.0447C125.3 36.0974 125.376 36.1737 125.428 36.2655C125.48 36.3574 125.507 36.4615 125.506 36.5672V41.0237C125.504 41.2349 125.445 41.4418 125.336 41.6227C125.227 41.8037 125.072 41.9521 124.886 42.0525Z" fill="#455A64"/>
<path d="M115.38 42.394C115.381 42.2903 115.408 42.1885 115.46 42.0987C115.512 42.0089 115.587 41.9342 115.676 41.8819L124.886 36.5674V41.0239C124.886 41.1284 124.859 41.2311 124.807 41.3217C124.755 41.4124 124.68 41.4878 124.589 41.5405L115.384 46.8505L115.38 42.394Z" fill="#0D5520"/>
<path d="M120.883 48.9842C121.006 48.6919 121.214 48.4432 121.48 48.2699C122.261 47.7808 122.857 47.0459 123.174 46.1809C123.432 45.2572 123.574 44.305 123.596 43.3462C123.622 42.3819 123.963 41.4525 124.567 40.7002C122.931 40.0398 122.266 41.5268 121.673 43.9078L116.197 47.0524L116.274 47.2321C116.353 47.4071 116.394 47.597 116.394 47.7892C116.394 47.9814 116.353 48.1713 116.274 48.3463L114.679 51.5853C115.451 52.1374 116.352 52.4829 117.295 52.5891C118.239 52.6952 119.194 52.5585 120.07 52.1918C120.276 51.1072 120.547 50.036 120.883 48.9842Z" fill="#AE7461"/>
<path d="M119.778 55.5434C120.066 54.3799 120.412 52.848 120.636 51.5002C119.623 51.8538 118.543 51.9721 117.477 51.846C116.412 51.7199 115.389 51.3527 114.486 50.7725C113.837 51.8712 113.255 53.0084 112.743 54.1777C113.728 54.9388 114.877 55.4588 116.099 55.6959C117.32 55.9331 118.58 55.8808 119.778 55.5434Z" fill="#E0E0E0"/>
<path d="M119.271 57.484C119.271 57.484 119.495 56.6843 119.778 55.5433C118.579 55.8788 117.319 55.9289 116.097 55.6894C114.875 55.4499 113.727 54.9275 112.743 54.1641C111.194 57.7525 110.237 61.568 109.908 65.4625C109.761 66.5999 109.817 67.7546 110.075 68.8722C110.209 69.431 110.462 69.9543 110.816 70.4069C111.171 70.8595 111.618 71.2309 112.128 71.4958C113.579 72.1607 115.317 71.5857 116.62 70.6827C119.095 68.9845 120.663 66.2756 122.123 63.661L126.108 49.4336C123.75 49.6942 121.818 51.0194 119.271 57.484Z" fill="#F0F0F0"/>
<path opacity="0.1" d="M119.27 57.4844C118.336 60.7908 116.876 66.0694 116.876 66.0694C120.2 62.6911 119.27 57.4844 119.27 57.4844Z" fill="black"/>
<path opacity="0.1" d="M125.533 51.5361C124.319 52.3636 123.302 53.4479 122.554 54.7123C121.252 56.9585 120.87 59.573 120.515 62.1337C120.263 63.9307 120.013 65.7276 119.765 67.5246C120.628 66.2845 121.42 64.9961 122.137 63.6656L125.533 51.5361Z" fill="black"/>
<path d="M130.371 48.998L126.121 49.4473C122.639 52.5156 120.842 58.9532 121.592 66.0692C122.034 70.948 122.089 75.8539 121.759 80.7414C131.193 87.6328 143.965 82.6282 145.461 81.1322L144.252 72.3945C144.177 71.4132 144.341 70.4284 144.728 69.5239C145.627 67.4529 147.208 63.3827 147.424 60.2291C147.558 57.4193 146.972 54.6217 145.721 52.1023L139.544 49.4069L130.371 48.998Z" fill="#F0F0F0"/>
<path opacity="0.1" d="M144.729 69.5063C145.515 67.6823 146.84 64.3085 147.29 61.375C146.414 61.9051 145.493 62.4262 145.124 63.2978C143.96 66.1142 143.655 69.2123 144.248 72.2017C144.202 71.2784 144.366 70.3565 144.729 69.5063Z" fill="black"/>
<path d="M129.194 55.1934C125.636 63.374 125.694 71.8153 125.694 71.8153L127.442 75.5754L130.187 71.9815C129.974 66.4706 130.083 60.952 130.515 55.4539L129.194 55.1934Z" fill="#0D5520"/>
<path d="M129.041 52.1025C128.966 53.1352 129.018 54.1731 129.194 55.1933C129.603 55.3955 130.06 55.4795 130.515 55.4359C131.35 54.6962 132.066 53.8308 132.635 52.8707L130.515 52.1025H129.041Z" fill="#0D5520"/>
<path d="M130.515 52.1022C132.343 52.776 133.969 56.033 133.969 56.033C138.776 51.9539 139.526 49.4067 139.526 49.4067C138.291 47.6502 136.943 47.3672 136.943 47.3672L130.515 52.1022Z" fill="#E0E0E0"/>
<path d="M130.515 52.1018C129.118 52.1422 127.883 54.0874 127.883 54.0874C127.658 50.6822 130.515 48.0586 130.515 48.0586V52.1018Z" fill="#E0E0E0"/>
<path d="M137.056 43.5527L130.515 45.8888V48.3102C131.986 48.1017 133.398 47.5892 134.661 46.8052C135.791 46.0097 136.632 44.8681 137.056 43.5527Z" fill="#6F4439"/>
<path d="M137.056 43.5527C136.632 44.8681 135.791 46.0097 134.661 46.8052C133.398 47.5892 131.986 48.1017 130.515 48.3102V52.1018C130.515 52.1018 137.428 48.9975 137.428 47.5375V43.418L137.056 43.5527Z" fill="#AE7461"/>
<path d="M124.455 33.9619C123.728 33.9887 123.007 33.8142 122.373 33.4574C121.739 33.1007 121.215 32.5757 120.861 31.9403C120.814 31.8494 120.794 31.7473 120.803 31.6456C120.811 31.5438 120.849 31.4466 120.91 31.365C120.972 31.2834 121.055 31.2208 121.15 31.1843C121.245 31.1478 121.349 31.1389 121.449 31.1586C121.95 31.2484 122.463 31.2484 122.963 31.1586C122.387 30.4047 121.965 29.5442 121.723 28.6267C121.481 27.7091 121.423 26.7527 121.553 25.8126C121.569 25.7077 121.609 25.6081 121.671 25.5217C121.733 25.4353 121.814 25.3646 121.908 25.3152C122.001 25.2658 122.106 25.2392 122.212 25.2374C122.318 25.2356 122.423 25.2588 122.519 25.305C124.601 26.3336 126.917 26.7983 129.235 26.6527C130.47 26.5674 131.688 26.3023 132.923 26.2035C134.159 26.0541 135.413 26.2452 136.548 26.756C137.11 27.0196 137.591 27.4301 137.938 27.9441C138.286 28.458 138.489 29.0565 138.525 29.6761C138.666 29.4767 138.849 29.31 139.061 29.1876C139.272 29.0651 139.508 28.9896 139.751 28.9663C140.006 28.9363 140.263 28.9583 140.509 29.0309C140.755 29.1035 140.983 29.2252 141.18 29.3886C140.466 29.7839 139.769 30.1793 139.055 30.5701C139.787 30.3095 140.708 30.8801 141.072 31.5674C141.381 32.2834 141.515 33.0626 141.463 33.8406C141.507 34.8714 141.46 35.9041 141.324 36.9269C141.189 37.9563 140.786 38.9323 140.156 39.7571C139.602 40.435 138.861 40.9362 138.026 41.1991C136.891 41.5125 135.688 41.4733 134.576 41.0868C133.465 40.7028 132.408 40.1774 131.431 39.5235C128.942 37.8849 126.607 36.0234 124.455 33.9619Z" fill="#263238"/>
<path d="M124.298 31.9045C123.58 36.1785 124.046 40.5676 125.645 44.5955C126.014 45.5254 126.499 46.4868 127.366 46.9855C128.233 47.4841 129.406 47.3943 130.443 47.237C132.126 47.0548 133.768 46.5996 135.304 45.8893C136.852 45.1605 138.057 43.8614 138.669 42.264C139.219 42.3763 139.79 42.327 140.313 42.1222C140.836 41.9173 141.288 41.5656 141.616 41.1094C142.262 40.1615 142.597 39.0355 142.573 37.8884C142.573 37.1606 142.438 36.3025 141.782 35.9836C141.126 35.6646 140.434 36.0195 139.918 36.4328C139.061 37.141 138.435 38.089 138.121 39.1552C137.64 37.3852 136.89 35.6736 136.409 33.8991C136.22 33.1983 135.987 32.4391 135.376 32.0482C134.635 31.572 133.664 31.8461 132.806 32.0482C130.004 32.7244 127.076 32.675 124.298 31.9045Z" fill="#AE7461"/>
<path d="M129.468 37.2861L127.393 40.7812L129.868 41.2439L129.468 37.2861Z" fill="#6F4439"/>
<path d="M132.245 42.4482L130.362 43.3467C130.524 43.5606 130.751 43.7162 131.008 43.7899C131.266 43.8637 131.541 43.8516 131.791 43.7555C132.002 43.6201 132.162 43.4176 132.244 43.1805C132.326 42.9434 132.327 42.6855 132.245 42.4482Z" fill="#F28F8F"/>
<path d="M132.245 42.4482L130.362 43.3467C130.524 43.5606 130.751 43.7162 131.008 43.7899C131.266 43.8637 131.541 43.8516 131.791 43.7555C132.002 43.6201 132.162 43.4176 132.244 43.1805C132.326 42.9434 132.327 42.6855 132.245 42.4482Z" fill="#6F4439"/>
<path d="M131.144 43.8276C131.363 43.8725 131.591 43.8522 131.799 43.7692C131.971 43.6709 132.11 43.5244 132.198 43.3478C132.287 43.1713 132.322 42.9725 132.298 42.7764C132.031 42.7762 131.771 42.8665 131.561 43.0324C131.324 43.2334 131.175 43.5184 131.144 43.8276Z" fill="#F28F8F"/>
<path d="M133.053 37.4251C133.062 37.518 133.053 37.6119 133.027 37.7014C133 37.7908 132.956 37.8741 132.897 37.9465C132.837 38.0189 132.765 38.0789 132.683 38.1232C132.6 38.1675 132.51 38.1951 132.417 38.2045C132.324 38.214 132.23 38.205 132.141 38.1782C132.052 38.1514 131.968 38.1072 131.896 38.0481C131.823 37.9891 131.763 37.9164 131.719 37.8342C131.675 37.7519 131.647 37.6618 131.638 37.5689C131.628 37.4762 131.636 37.3824 131.663 37.293C131.689 37.2036 131.733 37.1204 131.792 37.0481C131.851 36.9758 131.924 36.916 132.006 36.872C132.088 36.8279 132.178 36.8007 132.271 36.7917C132.459 36.7728 132.646 36.8288 132.793 36.9474C132.939 37.0661 133.033 37.2378 133.053 37.4251Z" fill="#263238"/>
<path d="M127.096 37.7987C127.109 37.9381 127.081 38.0784 127.015 38.2019C126.949 38.3253 126.848 38.4265 126.724 38.4925C126.601 38.5586 126.46 38.5866 126.321 38.5731C126.182 38.5595 126.049 38.5051 125.941 38.4165C125.832 38.3279 125.752 38.2092 125.711 38.0754C125.67 37.9415 125.669 37.7984 125.709 37.6642C125.749 37.5299 125.828 37.4105 125.936 37.3209C126.043 37.2313 126.175 37.1756 126.314 37.1608C126.503 37.1419 126.691 37.1985 126.837 37.3181C126.984 37.4377 127.077 37.6105 127.096 37.7987Z" fill="#263238"/>
<path d="M126.121 35.0532L124.666 36.2932C124.578 36.1066 124.55 35.8978 124.585 35.6946C124.619 35.4915 124.715 35.3038 124.859 35.1566C125.039 35.0228 125.252 34.9422 125.475 34.9239C125.699 34.9056 125.923 34.9505 126.121 35.0532Z" fill="#263238"/>
<path d="M132.168 34.3573C132.725 34.6672 133.282 34.9772 133.844 35.2827C133.892 35.0818 133.878 34.871 133.803 34.6783C133.729 34.4857 133.597 34.3204 133.426 34.2045C133.222 34.1115 132.997 34.0766 132.775 34.1036C132.553 34.1305 132.343 34.2183 132.168 34.3573Z" fill="#263238"/>
<path d="M160.151 67.4526L162.398 66.3384C163.101 65.9906 163.687 65.4438 164.082 64.7661L164.788 63.5576C165.275 62.7294 165.993 62.0613 166.854 61.6349C168.149 60.9986 169.357 60.1984 170.448 59.2539C170.677 59.6184 170.773 60.0504 170.72 60.4775C170.668 60.9045 170.47 61.3005 170.16 61.5989C169.697 62.0237 169.205 62.4155 168.687 62.7715L169.77 63.0455C170.551 63.246 171.376 63.1957 172.128 62.9017L175.219 61.7023C175.308 61.6685 175.404 61.6588 175.497 61.6741C175.591 61.6894 175.679 61.7291 175.752 61.7893C175.826 61.8494 175.882 61.9279 175.915 62.0168C175.949 62.1056 175.958 62.2017 175.942 62.2953C175.657 63.6657 175.139 64.977 174.41 66.1722C174.075 66.744 173.621 67.237 173.078 67.6176C172.536 67.9982 171.917 68.2575 171.266 68.378C169.689 68.6745 168.161 68.9081 167.294 69.0294C166.798 69.1036 166.316 69.2552 165.866 69.4786L162.55 71.1273L160.151 67.4526Z" fill="#AE7461"/>
<path d="M158.004 70.9251C157.612 69.9989 157.475 68.9842 157.609 67.9871L153.359 69.9997C152.592 66.9076 151.992 63.7763 151.562 60.6196C151.059 56.3563 151.171 53.4901 145.686 52.084L145.106 63.315C145.106 63.315 145.78 77.0168 149.711 78.5353C152.964 79.7887 155.259 76.6934 160.223 73.4858C159.237 72.8814 158.462 71.987 158.004 70.9251Z" fill="#F0F0F0"/>
<path opacity="0.1" d="M150.533 72.8074C150.681 72.1695 151.728 70.7095 153.377 69.9997C153.377 69.9997 153.251 69.501 153.067 68.6924C152.213 69.1147 150.111 70.404 150.533 72.8074Z" fill="black"/>
<path d="M161.409 66.1816L157.608 67.9786C157.459 69.0523 157.629 70.1461 158.097 71.1239C158.566 72.1016 159.311 72.92 160.241 73.4773C161.358 72.7542 162.516 72.0957 163.709 71.5051C163.709 71.5051 161.687 69.8879 161.409 66.1816Z" fill="#E0E0E0"/>
<path d="M176.971 11.3028C176.971 11.2012 176.944 11.1014 176.893 11.0137C176.842 10.9261 176.768 10.8537 176.679 10.8041L174.082 9.36203H174.06C173.975 9.31357 173.879 9.28809 173.781 9.28809C173.684 9.28809 173.588 9.31357 173.503 9.36203L155.749 19.6137C155.486 19.7672 155.267 19.9869 155.115 20.2508C154.963 20.5148 154.883 20.814 154.882 21.1187V27.718L148.736 34.0748C148.188 34.6453 148.13 35.5034 148.557 35.6381L151.005 36.9858C151.048 37.0297 151.101 37.0624 151.16 37.0811C151.219 37.0999 151.281 37.1042 151.342 37.0937L154.909 36.6444V41.4872C154.908 41.5874 154.933 41.686 154.983 41.7729C155.033 41.8597 155.105 41.9317 155.192 41.9814L157.771 43.4145H157.806H157.833C157.917 43.454 158.009 43.4725 158.101 43.4686C158.194 43.4647 158.284 43.4384 158.364 43.392L176.117 33.1403C176.382 32.9886 176.602 32.7693 176.754 32.5049C176.907 32.2406 176.986 31.9405 176.985 31.6354L176.971 11.3028ZM157.941 21.3882L157.883 21.4556L157.941 21.3882ZM157.775 21.6038L157.73 21.6667L157.775 21.6038ZM157.528 22.1834C157.526 22.2088 157.526 22.2343 157.528 22.2597C157.526 22.2343 157.526 22.2088 157.528 22.1834ZM158.071 21.2849C158.091 21.2656 158.112 21.2476 158.134 21.231C158.113 21.2403 158.092 21.2508 158.071 21.2624V21.2849Z" fill="#0D5520"/>
<path d="M170.879 17.6908C170.8 17.7306 170.73 17.7855 170.673 17.8525C170.627 17.907 170.592 17.9694 170.569 18.0367C170.376 18.4259 170.211 18.8282 170.075 19.2407C169.927 19.6046 169.788 19.9685 169.662 20.3368C169.628 20.4023 169.602 20.4717 169.585 20.5435C169.543 20.631 169.51 20.7229 169.487 20.8175C169.406 21.0242 169.325 21.2263 169.249 21.433C169.217 21.4914 169.19 21.5453 169.163 21.6037C169.083 21.7747 169.017 21.952 168.965 22.1338C168.932 22.2116 168.919 22.297 168.928 22.3814C168.938 22.4657 168.969 22.5461 169.019 22.6145C169.213 22.7983 169.452 22.9284 169.711 22.9919L169.779 23.0143L169.994 23.0727L170.367 23.2569L170.439 23.3018C170.461 23.3333 170.488 23.3602 170.511 23.3872C170.535 23.4203 170.555 23.4566 170.569 23.495C170.583 23.5556 170.583 23.6186 170.569 23.6792C170.547 23.769 170.524 23.8634 170.506 23.9532C170.488 24.0431 170.394 24.2587 170.34 24.4025L170.259 24.6001L169.981 25.256C169.886 25.4672 169.819 25.6424 169.752 25.8176C169.686 25.9425 169.629 26.0716 169.581 26.2039L169.487 26.3971C169.41 26.5588 169.329 26.7206 169.253 26.8868L169.186 27.0305L168.934 27.4798L168.84 27.6595L168.548 28.1716L168.471 28.3019L168.184 28.85L168.094 28.9847L167.42 29.9641L167.151 30.328L167.074 30.4313L166.252 31.4735L165.938 31.77C165.878 31.8415 165.807 31.9023 165.726 31.9497C165.676 31.9812 165.618 31.9978 165.558 31.9978C165.498 31.9978 165.44 31.9812 165.39 31.9497L165.187 31.8464C165.187 31.8149 165.16 31.8105 165.138 31.806C164.859 31.5607 164.558 31.3412 164.239 31.1501C164.18 31.1121 164.11 31.092 164.04 31.092C163.969 31.092 163.899 31.1121 163.84 31.1501C163.803 31.1722 163.768 31.1978 163.736 31.2264C163.602 31.3384 163.485 31.4702 163.39 31.6173C163.355 31.6389 163.328 31.6723 163.314 31.7116C163.067 32.0575 162.793 32.3675 162.537 32.7C162.281 33.0324 162.065 33.2525 161.836 33.54C161.706 33.6883 161.58 33.841 161.459 33.9893C161.337 34.1375 161.185 34.3262 161.054 34.5104C161.002 34.5702 160.955 34.6349 160.915 34.7036C160.849 34.778 160.8 34.8662 160.772 34.9617C160.744 35.0572 160.738 35.1578 160.753 35.2561C160.754 35.3766 160.765 35.4968 160.785 35.6155C160.794 35.7691 160.826 35.9205 160.879 36.0648C160.893 36.1596 160.92 36.2519 160.96 36.3388C160.973 36.3667 160.988 36.3937 161.005 36.4197C161 36.4404 161 36.4619 161.005 36.4826C161.019 36.5082 161.035 36.5323 161.054 36.5544C161.064 36.5869 161.081 36.6169 161.104 36.6424C161.126 36.6679 161.154 36.6885 161.185 36.7027C161.226 36.7593 161.282 36.8042 161.346 36.833L161.459 36.8779H161.535L161.629 36.9138H161.674C161.726 36.9251 161.78 36.9251 161.832 36.9138C161.843 36.9205 161.856 36.9241 161.87 36.9241C161.883 36.9241 161.896 36.9205 161.908 36.9138C161.973 36.9296 162.041 36.9296 162.106 36.9138C162.177 36.9294 162.25 36.9294 162.321 36.9138C162.393 36.9247 162.465 36.9247 162.537 36.9138H162.667C162.769 36.9037 162.87 36.8826 162.968 36.8509H163.018L163.125 36.824C163.153 36.8194 163.179 36.8087 163.202 36.7925L163.314 36.7521C163.427 36.7193 163.536 36.6772 163.642 36.6263L163.732 36.5814L163.804 36.541C163.867 36.5059 163.929 36.4669 163.988 36.4242C164.061 36.3815 164.131 36.3351 164.199 36.2849C164.28 36.2305 164.358 36.172 164.433 36.1097C164.499 36.0648 164.566 36.0154 164.635 35.9614L164.716 35.8896L164.756 35.8536L164.868 35.7593C164.985 35.6588 165.096 35.5524 165.201 35.4403C165.288 35.3695 165.369 35.2913 165.443 35.2067C165.471 35.1868 165.495 35.1606 165.511 35.1303C165.671 34.9917 165.821 34.8416 165.96 34.6811C166.08 34.5757 166.194 34.4631 166.301 34.3442C166.392 34.264 166.476 34.1769 166.553 34.0836L166.692 33.9399C166.735 33.9085 166.77 33.8688 166.796 33.8231C166.817 33.8108 166.835 33.7919 166.845 33.7691L166.921 33.6973C166.963 33.6514 167.002 33.6034 167.038 33.5535C167.119 33.4725 167.196 33.387 167.267 33.2974L167.339 33.2076L167.411 33.1177C167.554 32.9609 167.687 32.7959 167.811 32.6236C167.878 32.5583 167.935 32.4842 167.982 32.4035C168.065 32.309 168.142 32.2084 168.211 32.1025C168.326 31.9595 168.433 31.8095 168.53 31.6532C168.593 31.5724 168.62 31.5319 168.651 31.496L168.732 31.3792C168.79 31.2983 168.84 31.2175 168.894 31.1321L168.997 30.9928C169.03 30.9451 169.06 30.8956 169.087 30.8446C169.154 30.7611 169.213 30.6708 169.262 30.575C169.348 30.4605 169.426 30.3404 169.496 30.2157C169.522 30.1815 169.546 30.1455 169.567 30.1078C169.58 30.0909 169.59 30.0728 169.599 30.0539L169.63 29.9955L169.707 29.8877C169.779 29.7754 169.846 29.6631 169.909 29.5418L169.999 29.3935L170.282 28.9039C170.322 28.857 170.353 28.8039 170.376 28.7466C170.448 28.6298 170.515 28.513 170.583 28.3872C170.583 28.3468 170.623 28.3064 170.646 28.2659C170.683 28.2112 170.715 28.1525 170.74 28.0907L170.983 27.6415C171.023 27.5561 171.068 27.4753 171.108 27.3899C171.177 27.2772 171.236 27.1584 171.284 27.035C171.477 26.6801 171.647 26.3207 171.805 25.9524L171.877 25.7861C171.944 25.6575 172.001 25.5238 172.047 25.3863C172.232 24.9741 172.395 24.5528 172.537 24.1239L172.577 24.0161C172.671 23.7738 172.75 23.5263 172.815 23.2749C172.914 22.9694 172.995 22.6684 173.072 22.3764C173.099 22.2776 173.125 22.1787 173.148 22.0754C173.169 22.0469 173.178 22.0117 173.175 21.9766C173.176 21.9526 173.176 21.9286 173.175 21.9047L173.211 21.7699C173.322 21.4046 173.409 21.0324 173.471 20.6558V20.5974C173.48 20.565 173.48 20.531 173.471 20.4986C173.471 20.4986 173.471 20.4581 173.471 20.4402C173.471 20.4222 173.471 20.3683 173.471 20.3368C173.469 20.2994 173.469 20.2619 173.471 20.2245C173.5 20.0659 173.513 19.905 173.512 19.7438C173.512 19.681 173.512 19.6136 173.512 19.5462C173.523 19.5005 173.523 19.4526 173.512 19.4069C173.512 19.3845 173.512 19.3575 173.512 19.3305C173.51 19.1898 173.486 19.0502 173.44 18.9172C173.404 18.7177 173.341 18.5241 173.251 18.3422C173.147 18.0474 172.982 17.778 172.766 17.5516C172.71 17.4678 172.63 17.4022 172.537 17.3629C172.537 17.3629 172.514 17.3269 172.488 17.3314C172.413 17.2748 172.321 17.2461 172.227 17.2506C171.944 17.2395 171.663 17.2885 171.4 17.3943L171.306 17.4347C171.225 17.4549 171.146 17.4851 171.072 17.5246L171.028 17.5516C171.005 17.6189 170.938 17.6459 170.879 17.6908Z" fill="white"/>
<path opacity="0.1" d="M157.542 42.9558C157.541 43.0542 157.566 43.1511 157.614 43.237C157.662 43.3228 157.732 43.3947 157.816 43.4455L155.237 42.0124C155.15 41.9627 155.078 41.8907 155.028 41.8038C154.979 41.717 154.953 41.6183 154.954 41.5182V36.6754L157.546 36.3564L157.542 42.9558Z" fill="black"/>
<path opacity="0.2" d="M155.748 19.6137L173.507 9.36203C173.592 9.31357 173.688 9.28809 173.785 9.28809C173.883 9.28809 173.979 9.31357 174.064 9.36203H174.086L176.683 10.8041C176.595 10.7545 176.496 10.7284 176.396 10.7284C176.295 10.7284 176.196 10.7545 176.108 10.8041L158.35 21.0558C158.02 21.2448 157.761 21.5367 157.613 21.8869L155.034 20.3999C155.184 20.0692 155.434 19.7941 155.748 19.6137Z" fill="white"/>
<path opacity="0.1" d="M154.899 27.7271V21.1278C154.899 20.883 154.951 20.641 155.052 20.418L157.613 21.887C157.527 22.0997 157.483 22.327 157.483 22.5564V29.1557L154.899 27.7271Z" fill="white"/>
<path opacity="0.05" d="M148.754 34.0743L154.899 27.7266L157.501 29.1731L151.355 35.5254C150.879 36.0195 150.771 36.7249 151.022 36.9989L148.574 35.6512C148.147 35.5029 148.206 34.6449 148.754 34.0743Z" fill="white"/>
<path d="M92.2121 7.42533C91.8707 6.13152 89.4493 3.66518 87.0414 3.7146C86.8082 3.72312 86.5785 3.77333 86.363 3.86285L39.5656 32.7985C38.7714 33.3016 38.1456 34.0306 37.7686 34.8919C37.4691 35.5648 37.3159 36.2937 37.3194 37.0303V147.067C37.3194 149.871 40.2934 152.544 43.0876 151.259C43.1492 151.236 43.2092 151.209 43.2673 151.178L90.0693 122.188C90.7711 121.732 91.3455 121.104 91.7384 120.365C92.1313 119.625 92.3299 118.798 92.3155 117.961V7.95992C92.3205 7.77632 92.2852 7.59385 92.2121 7.42533Z" fill="#37474F"/>
<path d="M43.8337 48.6611C43.8275 48.2414 43.9281 47.827 44.1262 47.4568C44.3242 47.0867 44.6131 46.773 44.9658 46.5452L88.4208 19.6716C88.5974 19.5723 88.7976 19.5225 89.0001 19.5277C89.2027 19.5329 89.4001 19.5927 89.5714 19.7009C89.7427 19.8091 89.8815 19.9617 89.9732 20.1424C90.0648 20.3231 90.1059 20.5252 90.092 20.7273V109.461C90.0979 109.88 89.9971 110.294 89.799 110.664C89.601 111.033 89.3122 111.346 88.9599 111.573L45.5049 138.491C45.3283 138.591 45.1281 138.64 44.9256 138.635C44.723 138.63 44.5256 138.57 44.3543 138.462C44.183 138.354 44.0442 138.201 43.9525 138.021C43.8609 137.84 43.8198 137.638 43.8337 137.436V48.6611Z" fill="#FFC42D"/>
<path d="M37.3018 37.03V147.067C37.3018 149.87 40.2757 152.543 43.07 151.258C42.8944 151.318 42.7067 151.334 42.5235 151.305C42.3403 151.275 42.1672 151.201 42.0194 151.089C41.8716 150.976 41.7537 150.829 41.676 150.661C41.5984 150.492 41.5633 150.307 41.574 150.122V40.0713C41.5741 39.1201 41.8369 38.1874 42.3333 37.3759L37.769 34.9141C37.4663 35.5787 37.3071 36.2997 37.3018 37.03Z" fill="#263238"/>
<path d="M87.0458 3.70972C86.8126 3.71824 86.5829 3.76845 86.3674 3.85796L39.5655 32.7981C38.7713 33.3012 38.1455 34.0302 37.7686 34.8915L42.3508 37.3803C42.7239 36.7551 43.2396 36.2271 43.8558 35.8394L90.6577 6.89933C90.7914 6.81852 90.9411 6.76787 91.0965 6.75091C91.2518 6.73395 91.4089 6.75109 91.5569 6.80114C91.7049 6.85119 91.8402 6.93294 91.9534 7.04068C92.0665 7.14842 92.1548 7.27956 92.212 7.42494C91.8751 6.12663 89.4537 3.6603 87.0458 3.70972Z" fill="#455A64"/>
<path d="M72.729 25.0664C73.0614 24.8597 73.331 25.0215 73.331 25.4303C73.3229 25.6511 73.265 25.8673 73.1615 26.0626C73.058 26.2578 72.9117 26.4272 72.7335 26.5579L63.551 32.3216C63.2231 32.5283 62.958 32.3531 62.958 31.9443C62.9654 31.7261 63.0222 31.5125 63.1241 31.3195C63.2261 31.1265 63.3705 30.9592 63.5465 30.8301L72.729 25.0664Z" fill="#263238"/>
<path d="M61.1928 32.3086C61.5207 32.102 61.7858 32.2682 61.7858 32.677C61.7786 32.8969 61.7214 33.1123 61.6187 33.3069C61.516 33.5014 61.3703 33.6701 61.1928 33.8001C60.8649 34.0067 60.5953 33.8405 60.5908 33.4272C60.6001 33.2074 60.6591 32.9925 60.7633 32.7988C60.8676 32.605 61.0144 32.4374 61.1928 32.3086Z" fill="#263238"/>
<path d="M67.068 24.2313C67.7239 23.818 68.254 24.146 68.254 24.9681C68.24 25.407 68.1268 25.8371 67.923 26.2261C67.7191 26.6151 67.4299 26.9529 67.077 27.2143C66.4166 27.6231 65.873 27.2862 65.873 26.4686C65.8896 26.0294 66.0057 25.5998 66.2128 25.2123C66.4198 24.8247 66.7122 24.4892 67.068 24.2313Z" fill="#263238"/>
<path d="M67.0726 127.821C68.4203 126.981 69.4895 127.651 69.494 129.322C69.4985 130.993 68.4248 133.046 67.0861 133.886C65.7473 134.726 64.6422 134.039 64.6377 132.368C64.6741 131.475 64.912 130.603 65.3337 129.815C65.7554 129.028 66.3499 128.346 67.0726 127.821Z" fill="#263238"/>
<path d="M71.4894 65.8489C71.3726 65.9165 71.2678 66.003 71.1794 66.105C71.1093 66.1917 71.056 66.2908 71.0222 66.397C70.7271 67.0123 70.4749 67.6472 70.2674 68.2973C70.0428 68.8678 69.8182 69.4429 69.643 70.0179C69.5901 70.1217 69.5508 70.2319 69.5262 70.3458C69.4598 70.4899 69.4087 70.6404 69.3735 70.7951L69.0096 71.7564C68.9691 71.8508 68.9242 71.9406 68.8838 72.0305C68.7625 72.3005 68.6633 72.58 68.5873 72.8661C68.5365 72.9884 68.517 73.1213 68.5303 73.2531C68.5436 73.3848 68.5894 73.5112 68.6637 73.6208C68.9578 73.9058 69.3195 74.1114 69.7149 74.2183L69.8227 74.2497C69.9305 74.2857 70.0383 74.3126 70.1462 74.3441L70.7122 74.6316L70.82 74.708C70.8599 74.7508 70.8974 74.7958 70.9323 74.8427C70.9711 74.8906 71.0001 74.9455 71.0177 75.0045C71.0408 75.1004 71.0408 75.2005 71.0177 75.2965L70.9233 75.7457C70.8425 75.9883 70.7571 76.2309 70.6718 76.469L70.5505 76.7835C70.4247 77.1204 70.2944 77.4618 70.1641 77.7987C70.0338 78.1357 69.917 78.4097 69.8137 78.6972C69.7158 78.8929 69.6288 79.0939 69.5532 79.2992C69.5082 79.4025 69.4588 79.5058 69.4139 79.6047C69.2926 79.8607 69.1758 80.1168 69.059 80.3729L68.9512 80.602L68.5738 81.3477C68.5289 81.4421 68.4795 81.5364 68.4301 81.6308L67.9808 82.4394C67.9449 82.5068 67.9044 82.5742 67.864 82.6416C67.7023 82.9156 67.5406 83.1941 67.3743 83.4682L67.2396 83.6793C66.8981 84.1959 66.5567 84.7126 66.2108 85.2292L65.8065 85.7997L65.6942 85.9569L64.4408 87.5967L64.0185 88.0774C63.9279 88.188 63.8202 88.2836 63.6995 88.3604C63.6257 88.413 63.5385 88.4438 63.448 88.4494C63.3575 88.4549 63.2672 88.435 63.1874 88.3918L62.8774 88.2211C62.8774 88.1762 62.837 88.1672 62.8056 88.1627C62.3761 87.7758 61.9113 87.4299 61.4174 87.1295C61.3271 87.0709 61.2218 87.0397 61.1142 87.0397C61.0065 87.0397 60.9012 87.0709 60.8109 87.1295C60.7551 87.1636 60.7025 87.2027 60.6537 87.2463C60.4508 87.4273 60.2725 87.6342 60.1236 87.8617C60.0735 87.9028 60.0361 87.9574 60.0158 88.019C59.6384 88.5625 59.2251 89.0477 58.8343 89.5688C58.4704 89.9956 58.111 90.4359 57.7651 90.8941C57.5674 91.1277 57.3787 91.3658 57.199 91.6264C56.9793 91.8861 56.7739 92.1575 56.5836 92.4395C56.5016 92.5344 56.4307 92.6384 56.3724 92.7495C56.2707 92.8683 56.196 93.0077 56.1534 93.1582C56.1107 93.3086 56.1011 93.4665 56.1253 93.621C56.1215 93.8092 56.1366 93.9973 56.1703 94.1825C56.1876 94.4112 56.2359 94.6364 56.314 94.8519C56.3324 95.0073 56.3748 95.1589 56.4398 95.3012C56.4581 95.3444 56.4791 95.3864 56.5027 95.4269C56.5049 95.4609 56.5125 95.4942 56.5252 95.5258C56.5453 95.5679 56.571 95.6072 56.6015 95.6426C56.6338 95.7436 56.7049 95.8276 56.7992 95.8762C56.861 95.9637 56.9446 96.0334 57.0418 96.0783C57.0986 96.1061 57.1571 96.1301 57.217 96.1502L57.3338 96.1817C57.3797 96.2057 57.4279 96.2253 57.4776 96.2401H57.5449C57.6237 96.2537 57.7043 96.2537 57.783 96.2401C57.8 96.2504 57.8194 96.2559 57.8392 96.2559C57.859 96.2559 57.8784 96.2504 57.8954 96.2401C57.9941 96.265 58.0976 96.265 58.1963 96.2401C58.3047 96.2602 58.4159 96.2602 58.5243 96.2401C58.6361 96.2471 58.7483 96.2365 58.8567 96.2086H59.0544C59.2069 96.1877 59.3573 96.1531 59.5036 96.1053H59.571C59.6289 96.0965 59.686 96.083 59.7417 96.0649C59.78 96.054 59.8164 96.0374 59.8496 96.0155C59.9798 95.975 60.0023 95.9615 60.0293 95.9526C60.1969 95.8983 60.3606 95.8323 60.5189 95.7549L60.6627 95.683L60.766 95.6201C60.8636 95.5645 60.9567 95.5014 61.0445 95.4314L61.3725 95.2158C61.4951 95.1308 61.6108 95.0361 61.7184 94.9328C61.8282 94.8634 61.9332 94.7869 62.0329 94.7037C62.0733 94.6722 62.1137 94.6318 62.1542 94.5958L62.2126 94.533L62.3833 94.3847C62.554 94.2275 62.7247 94.0657 62.8864 93.8861C63.0217 93.7733 63.1465 93.6485 63.2593 93.5132C63.3023 93.4841 63.3365 93.4436 63.3581 93.3964C63.5921 93.1825 63.8126 92.9545 64.0185 92.7135C64.1997 92.5442 64.3721 92.3658 64.5351 92.1789C64.6736 92.0536 64.8014 91.9168 64.917 91.7701L65.1236 91.541C65.1876 91.4909 65.2423 91.4301 65.2854 91.3613C65.3163 91.3395 65.341 91.3101 65.3572 91.276C65.3984 91.2378 65.4374 91.1973 65.474 91.1547C65.5398 91.0863 65.5999 91.0127 65.6537 90.9345C65.7775 90.8059 65.8944 90.671 66.0042 90.5302L66.112 90.3865L66.2243 90.2517C66.4309 89.9956 66.6376 89.7485 66.8263 89.4655C66.9274 89.3634 67.015 89.2486 67.0868 89.1241C67.2146 88.9748 67.3303 88.8156 67.4327 88.6479C67.6071 88.4264 67.7691 88.1955 67.9179 87.9561C68.0123 87.8258 68.0572 87.7674 68.0976 87.7045C68.1381 87.6416 68.1875 87.5832 68.2279 87.5203C68.2683 87.4574 68.3896 87.2687 68.466 87.1385L68.6232 86.9183C68.6754 86.8416 68.7234 86.7621 68.767 86.6802C68.8682 86.548 68.9569 86.4066 69.032 86.2579C69.1609 86.0754 69.2779 85.8849 69.3824 85.6874C69.4265 85.6367 69.4642 85.5809 69.4948 85.5212L69.5442 85.4358C69.561 85.4053 69.576 85.3738 69.5891 85.3415C69.6295 85.2876 69.6655 85.2292 69.7014 85.1708C69.8152 84.9971 69.9185 84.8174 70.0114 84.6317L70.1506 84.3981L70.5999 83.6254C70.6576 83.5483 70.7044 83.4636 70.7392 83.3738C70.8515 83.1941 70.9548 83.0054 71.0536 82.8123L71.148 82.6191C71.2034 82.5319 71.2515 82.4402 71.2917 82.3451L71.6601 81.6442C71.723 81.5095 71.7904 81.3792 71.8533 81.2489C71.9575 81.0705 72.0476 80.8843 72.1228 80.6918C72.4148 80.1303 72.6709 79.5598 72.909 78.9847L73.0168 78.7242C73.1193 78.5177 73.2078 78.3046 73.2819 78.0863C73.5604 77.4304 73.812 76.7655 74.0231 76.1006C74.0231 76.0422 74.0635 75.9883 74.086 75.9344C74.2289 75.5514 74.3474 75.1598 74.4409 74.7619C74.5981 74.2812 74.7194 73.805 74.8362 73.3333C74.8722 73.1716 74.9126 73.0143 74.953 72.8571C74.9806 72.8077 74.9946 72.7519 74.9935 72.6954C74.9935 72.6594 75.0159 72.6235 75.0249 72.5875L75.0788 72.3764C75.2487 71.7986 75.3808 71.2103 75.4742 70.6154V70.5255C75.4886 70.4756 75.4886 70.4227 75.4742 70.3728V70.2784C75.4742 70.2245 75.4741 70.1706 75.4966 70.1122V69.9415C75.5411 69.6925 75.5622 69.4398 75.5595 69.1868C75.5595 69.0835 75.5595 68.9756 75.5595 68.8723C75.5736 68.7996 75.5736 68.7249 75.5595 68.6522C75.5571 68.6118 75.5571 68.5713 75.5595 68.5309C75.5549 68.3094 75.517 68.0898 75.4472 67.8795C75.3952 67.5677 75.2983 67.2651 75.1597 66.981C75.0038 66.5189 74.7545 66.0938 74.4274 65.7321C74.342 65.6023 74.2201 65.5007 74.077 65.4401C74.077 65.4132 74.0456 65.3772 74.0006 65.3907C73.8887 65.3013 73.7484 65.2551 73.6053 65.2604C73.1756 65.2421 72.7473 65.3204 72.3519 65.4895L72.2082 65.5479C72.0853 65.5836 71.9664 65.6318 71.8533 65.6917L71.7859 65.7366C71.705 65.7366 71.5972 65.786 71.4894 65.8489Z" fill="white"/>
</svg>
