<svg width="48" height="48" viewBox="0 0 48 48" fill="none" xmlns="http://www.w3.org/2000/svg">
<path d="M31 24C36 24 40 28 40 33C40 34.76 39.5 36.42 38.62 37.8L44.78 44L42 46.78L35.76 40.64C34.38 41.5 32.74 42 31 42C26 42 22 38 22 33C22 28 26 24 31 24ZM31 28C29.6739 28 28.4021 28.5268 27.4645 29.4645C26.5268 30.4021 26 31.6739 26 33C26 34.3261 26.5268 35.5979 27.4645 36.5355C28.4021 37.4732 29.6739 38 31 38C32.3261 38 33.5979 37.4732 34.5355 36.5355C35.4732 35.5979 36 34.3261 36 33C36 31.6739 35.4732 30.4021 34.5355 29.4645C33.5979 28.5268 32.3261 28 31 28ZM20 8C22.1217 8 24.1566 8.84285 25.6569 10.3431C27.1571 11.8434 28 13.8783 28 16C28 17.82 27.38 19.5 26.36 20.86C24.64 21.5 23.1 22.52 21.82 23.8L20 24C17.8783 24 15.8434 23.1571 14.3431 21.6569C12.8429 20.1566 12 18.1217 12 16C12 13.8783 12.8429 11.8434 14.3431 10.3431C15.8434 8.84285 17.8783 8 20 8ZM4 40V36C4 31.76 10.62 28.28 19 28C18.36 29.56 18 31.24 18 33C18 35.58 18.76 38 20 40H4Z" fill="#0D5520"/>
</svg>
