<svg width="1440" height="769" viewBox="0 0 1440 769" fill="none" xmlns="http://www.w3.org/2000/svg">
<circle cx="25.6256" cy="795.286" r="30.8893" stroke="#F9F9F9"/>
<circle cx="553.391" cy="795.286" r="30.8893" stroke="#F9F9F9"/>
<circle cx="780.276" cy="795.286" r="30.8893" stroke="#F9F9F9"/>
<circle cx="633.792" cy="782.069" r="17.6728" stroke="#F9F9F9"/>
<path d="M591.939 769.402C598.181 788.859 616.831 826.013 641.501 818.964C672.34 810.153 674.543 765.547 697.672 769.402C720.801 773.256 730.713 818.964 749.437 818.964" stroke="#F9F9F9" stroke-linecap="round"/>
<circle cx="1304.12" cy="795.286" r="30.8893" stroke="#F9F9F9"/>
<circle cx="1384.52" cy="782.069" r="17.6728" stroke="#F9F9F9"/>
<path d="M1342.67 769.402C1348.91 788.859 1367.56 826.013 1392.23 818.964C1423.07 810.153 1425.27 765.547 1448.4 769.402C1471.53 773.256 1481.44 818.964 1500.16 818.964" stroke="#F9F9F9" stroke-linecap="round"/>
<circle cx="17.7799" cy="554.632" r="30.8893" stroke="#F9F9F9"/>
<circle cx="17.7777" cy="554.631" r="8.86172" stroke="#F9F9F9"/>
<circle cx="236.403" cy="573.357" r="8.86172" stroke="#F9F9F9"/>
<circle cx="323.413" cy="545.821" r="8.86172" stroke="#F9F9F9"/>
<path d="M187.941 583.267C201.709 550.042 240.147 503.527 283.761 583.267" stroke="#F9F9F9" stroke-linecap="round"/>
<path d="M372.424 536.461C358.657 569.686 320.218 616.201 276.604 536.461" stroke="#F9F9F9" stroke-linecap="round"/>
<path d="M197.855 529.851L149.395 580.515L105.407 529.851L52.4735 580.515M166.542 529.851L149.395 548.373L134.484 529.851M83.041 580.515L105.407 563.082L121.064 580.515" stroke="#F9F9F9" stroke-linecap="round"/>
<circle cx="545.546" cy="554.632" r="30.8893" stroke="#F9F9F9"/>
<circle cx="772.43" cy="554.632" r="30.8893" stroke="#F9F9F9"/>
<circle cx="625.946" cy="541.416" r="17.6728" stroke="#F9F9F9"/>
<circle cx="686.52" cy="567.849" r="17.6728" stroke="#F9F9F9"/>
<circle cx="545.547" cy="554.631" r="8.86172" stroke="#F9F9F9"/>
<circle cx="772.428" cy="554.631" r="8.86172" stroke="#F9F9F9"/>
<circle cx="991.053" cy="573.357" r="8.86172" stroke="#F9F9F9"/>
<circle cx="1078.06" cy="545.821" r="8.86172" stroke="#F9F9F9"/>
<path d="M942.592 583.267C956.359 550.042 994.797 503.527 1038.41 583.267" stroke="#F9F9F9" stroke-linecap="round"/>
<path d="M1127.07 536.461C1113.31 569.686 1074.87 616.201 1031.25 536.461" stroke="#F9F9F9" stroke-linecap="round"/>
<path d="M584.094 528.748C590.335 548.206 608.985 585.359 633.656 578.31C664.494 569.499 666.697 524.893 689.826 528.748C712.955 532.603 722.867 578.31 741.591 578.31" stroke="#F9F9F9" stroke-linecap="round"/>
<path d="M363.268 580.516L411.728 529.853L455.716 580.516L508.65 529.853M394.581 580.516L411.728 561.994L426.639 580.516M478.082 529.853L455.716 547.285L440.059 529.853" stroke="#F9F9F9" stroke-linecap="round"/>
<path d="M952.506 529.851L904.045 580.515L860.058 529.851L807.124 580.515M921.193 529.851L904.045 548.373L889.134 529.851M837.691 580.515L860.058 563.082L875.714 580.515" stroke="#F9F9F9" stroke-linecap="round"/>
<circle cx="1296.27" cy="554.632" r="30.8893" stroke="#F9F9F9"/>
<circle cx="1376.67" cy="541.416" r="17.6728" stroke="#F9F9F9"/>
<circle cx="1437.25" cy="567.849" r="17.6728" stroke="#F9F9F9"/>
<circle cx="1296.27" cy="554.632" r="8.86172" stroke="#F9F9F9"/>
<path d="M1334.82 528.748C1341.06 548.206 1359.71 585.359 1384.38 578.31C1415.22 569.499 1417.42 524.893 1440.55 528.748C1463.68 532.603 1473.59 578.31 1492.32 578.31" stroke="#F9F9F9" stroke-linecap="round"/>
<path d="M1113.99 580.516L1162.45 529.853L1206.44 580.516L1259.38 529.853M1145.31 580.516L1162.45 561.994L1177.37 580.516M1228.81 529.853L1206.44 547.285L1190.79 529.853" stroke="#F9F9F9" stroke-linecap="round"/>
<circle cx="15.1627" cy="313.982" r="30.8893" stroke="#F9F9F9"/>
<circle cx="15.1605" cy="313.981" r="8.86172" stroke="#F9F9F9"/>
<circle cx="233.786" cy="332.705" r="8.86172" stroke="#F9F9F9"/>
<circle cx="320.795" cy="305.17" r="8.86172" stroke="#F9F9F9"/>
<path d="M185.324 342.616C199.091 309.391 237.53 262.877 281.144 342.616" stroke="#F9F9F9" stroke-linecap="round"/>
<path d="M369.807 295.81C356.039 329.035 317.601 375.55 273.987 295.81" stroke="#F9F9F9" stroke-linecap="round"/>
<path d="M195.238 289.201L146.778 339.864L102.79 289.201L49.8563 339.864M163.925 289.201L146.778 307.723L131.867 289.201M80.4238 339.864L102.79 322.432L118.447 339.864" stroke="#F9F9F9" stroke-linecap="round"/>
<circle cx="542.928" cy="313.982" r="30.8893" stroke="#F9F9F9"/>
<circle cx="769.813" cy="313.982" r="30.8893" stroke="#F9F9F9"/>
<circle cx="623.329" cy="300.766" r="17.6728" stroke="#F9F9F9"/>
<circle cx="683.903" cy="327.199" r="17.6728" stroke="#F9F9F9"/>
<circle cx="542.93" cy="313.981" r="8.86172" stroke="#F9F9F9"/>
<circle cx="769.811" cy="313.981" r="8.86172" stroke="#F9F9F9"/>
<circle cx="988.436" cy="332.705" r="8.86172" stroke="#F9F9F9"/>
<circle cx="1075.44" cy="305.17" r="8.86172" stroke="#F9F9F9"/>
<path d="M939.975 342.616C953.742 309.391 992.18 262.877 1035.79 342.616" stroke="#F9F9F9" stroke-linecap="round"/>
<path d="M1124.46 295.81C1110.69 329.035 1072.25 375.55 1028.64 295.81" stroke="#F9F9F9" stroke-linecap="round"/>
<path d="M581.477 288.098C587.718 307.556 606.368 344.709 631.039 337.66C661.877 328.849 664.08 284.243 687.209 288.098C710.338 291.953 720.25 337.66 738.974 337.66" stroke="#F9F9F9" stroke-linecap="round"/>
<path d="M360.65 339.865L409.111 289.201L453.098 339.865L506.032 289.201M391.963 339.865L409.111 321.342L424.022 339.865M475.465 289.201L453.098 306.634L437.442 289.201" stroke="#F9F9F9" stroke-linecap="round"/>
<path d="M949.889 289.201L901.428 339.864L857.441 289.201L804.507 339.864M918.576 289.201L901.428 307.723L886.517 289.201M835.074 339.864L857.441 322.432L873.097 339.864" stroke="#F9F9F9" stroke-linecap="round"/>
<circle cx="1293.66" cy="313.982" r="30.8893" stroke="#F9F9F9"/>
<circle cx="1374.06" cy="300.766" r="17.6728" stroke="#F9F9F9"/>
<circle cx="1434.63" cy="327.199" r="17.6728" stroke="#F9F9F9"/>
<circle cx="1293.66" cy="313.981" r="8.86172" stroke="#F9F9F9"/>
<path d="M1332.21 288.098C1338.45 307.556 1357.1 344.709 1381.77 337.66C1412.61 328.849 1414.81 284.243 1437.94 288.098C1461.07 291.953 1470.98 337.66 1489.7 337.66" stroke="#F9F9F9" stroke-linecap="round"/>
<path d="M1111.38 339.865L1159.84 289.201L1203.83 339.865L1256.76 289.201M1142.69 339.865L1159.84 321.342L1174.75 339.865M1226.19 289.201L1203.83 306.634L1188.17 289.201" stroke="#F9F9F9" stroke-linecap="round"/>
<circle cx="15.1627" cy="10.5514" r="30.8893" stroke="#F9F9F9"/>
<circle cx="15.1605" cy="10.5502" r="8.86172" stroke="#F9F9F9"/>
<circle cx="233.786" cy="29.2758" r="8.86172" stroke="#F9F9F9"/>
<circle cx="320.795" cy="1.74063" r="8.86172" stroke="#F9F9F9"/>
<path d="M185.324 39.1867C199.091 5.96176 237.53 -40.5531 281.144 39.1867" stroke="#F9F9F9" stroke-linecap="round"/>
<path d="M369.807 -7.62126C356.039 25.6037 317.601 72.1186 273.987 -7.62125" stroke="#F9F9F9" stroke-linecap="round"/>
<path d="M195.238 -14.2298L146.778 36.4336L102.79 -14.2298L49.8563 36.4336M163.925 -14.2298L146.778 4.29228L131.867 -14.2298M80.4238 36.4336L102.79 19.001L118.447 36.4336" stroke="#F9F9F9" stroke-linecap="round"/>
<circle cx="542.928" cy="10.5514" r="30.8893" stroke="#F9F9F9"/>
<circle cx="769.813" cy="10.5514" r="30.8893" stroke="#F9F9F9"/>
<circle cx="623.329" cy="-2.66514" r="17.6728" stroke="#F9F9F9"/>
<circle cx="683.903" cy="23.7685" r="17.6728" stroke="#F9F9F9"/>
<circle cx="542.93" cy="10.5502" r="8.86172" stroke="#F9F9F9"/>
<circle cx="769.811" cy="10.5502" r="8.86172" stroke="#F9F9F9"/>
<circle cx="988.436" cy="29.2758" r="8.86172" stroke="#F9F9F9"/>
<circle cx="1075.44" cy="1.74063" r="8.86172" stroke="#F9F9F9"/>
<path d="M939.975 39.1867C953.742 5.96176 992.18 -40.5531 1035.79 39.1867" stroke="#F9F9F9" stroke-linecap="round"/>
<path d="M1124.46 -7.62126C1110.69 25.6037 1072.25 72.1186 1028.64 -7.62125" stroke="#F9F9F9" stroke-linecap="round"/>
<path d="M581.477 -15.3327C587.718 4.12496 606.368 41.2781 631.039 34.2293C661.877 25.4183 664.08 -19.1876 687.209 -15.3328C710.338 -11.478 720.25 34.2293 738.974 34.2293" stroke="#F9F9F9" stroke-linecap="round"/>
<path d="M360.65 36.4339L409.111 -14.2295L453.098 36.4339L506.032 -14.2295M391.963 36.4339L409.111 17.9118L424.022 36.4339M475.465 -14.2295L453.098 3.20308L437.442 -14.2295" stroke="#F9F9F9" stroke-linecap="round"/>
<path d="M949.889 -14.2298L901.428 36.4336L857.441 -14.2298L804.507 36.4336M918.576 -14.2298L901.428 4.29228L886.517 -14.2298M835.074 36.4336L857.441 19.001L873.097 36.4336" stroke="#F9F9F9" stroke-linecap="round"/>
<circle cx="1293.66" cy="10.5514" r="30.8893" stroke="#F9F9F9"/>
<circle cx="1374.06" cy="-2.66514" r="17.6728" stroke="#F9F9F9"/>
<circle cx="1434.63" cy="23.7685" r="17.6728" stroke="#F9F9F9"/>
<circle cx="1293.66" cy="10.5502" r="8.86172" stroke="#F9F9F9"/>
<path d="M1332.21 -15.3327C1338.45 4.12496 1357.1 41.2781 1381.77 34.2293C1412.61 25.4183 1414.81 -19.1876 1437.94 -15.3328C1461.07 -11.478 1470.98 34.2293 1489.7 34.2293" stroke="#F9F9F9" stroke-linecap="round"/>
<path d="M1111.38 36.4339L1159.84 -14.2295L1203.83 36.4339L1256.76 -14.2295M1142.69 36.4339L1159.84 17.9118L1174.75 36.4339M1226.19 -14.2295L1203.83 3.20308L1188.17 -14.2295" stroke="#F9F9F9" stroke-linecap="round"/>
<circle cx="33.4733" cy="674.959" r="30.8893" stroke="#F9F9F9"/>
<circle cx="33.4711" cy="674.958" r="8.86172" stroke="#F9F9F9"/>
<circle cx="252.096" cy="693.683" r="8.86172" stroke="#F9F9F9"/>
<circle cx="339.104" cy="666.147" r="8.86172" stroke="#F9F9F9"/>
<path d="M203.635 703.593C217.402 670.368 255.84 623.853 299.455 703.593" stroke="#F9F9F9" stroke-linecap="round"/>
<path d="M388.117 656.788C374.35 690.013 335.912 736.528 292.297 656.788" stroke="#F9F9F9" stroke-linecap="round"/>
<path d="M-154.863 649.075C-148.622 668.533 -129.972 705.686 -105.301 698.638C-74.4626 689.826 -72.2599 645.221 -49.1309 649.075C-26.002 652.93 -16.0896 698.638 2.63389 698.638" stroke="#F9F9F9" stroke-linecap="round"/>
<path d="M213.549 650.177L165.088 700.841L121.101 650.177L68.1668 700.841M182.236 650.177L165.088 668.7L150.177 650.177M98.7343 700.841L121.101 683.408L136.757 700.841" stroke="#F9F9F9" stroke-linecap="round"/>
<circle cx="561.239" cy="674.959" r="30.8893" stroke="#F9F9F9"/>
<circle cx="788.124" cy="674.959" r="30.8893" stroke="#F9F9F9"/>
<circle cx="641.64" cy="661.742" r="17.6728" stroke="#F9F9F9"/>
<circle cx="702.214" cy="688.177" r="17.6728" stroke="#F9F9F9"/>
<circle cx="561.239" cy="674.958" r="8.86172" stroke="#F9F9F9"/>
<circle cx="788.121" cy="674.958" r="8.86172" stroke="#F9F9F9"/>
<circle cx="1006.75" cy="693.683" r="8.86172" stroke="#F9F9F9"/>
<circle cx="1093.76" cy="666.147" r="8.86172" stroke="#F9F9F9"/>
<path d="M958.285 703.593C972.052 670.368 1010.49 623.853 1054.11 703.593" stroke="#F9F9F9" stroke-linecap="round"/>
<path d="M1142.77 656.788C1129 690.013 1090.56 736.528 1046.95 656.788" stroke="#F9F9F9" stroke-linecap="round"/>
<path d="M599.787 649.075C606.028 668.533 624.678 705.686 649.349 698.638C680.188 689.826 682.391 645.221 705.519 649.075C728.648 652.93 738.561 698.638 757.284 698.638" stroke="#F9F9F9" stroke-linecap="round"/>
<path d="M378.961 700.842L427.422 650.179L471.409 700.842L524.343 650.179M410.274 700.842L427.422 682.32L442.333 700.842M493.775 650.179L471.409 667.611L455.752 650.179" stroke="#F9F9F9" stroke-linecap="round"/>
<path d="M968.199 650.177L919.739 700.841L875.751 650.177L822.817 700.841M936.886 650.177L919.739 668.7L904.828 650.177M853.385 700.841L875.751 683.408L891.408 700.841" stroke="#F9F9F9" stroke-linecap="round"/>
<circle cx="1311.97" cy="674.959" r="30.8893" stroke="#F9F9F9"/>
<circle cx="1392.37" cy="661.742" r="17.6728" stroke="#F9F9F9"/>
<circle cx="1452.94" cy="688.176" r="17.6728" stroke="#F9F9F9"/>
<circle cx="1311.97" cy="674.957" r="8.86172" stroke="#F9F9F9"/>
<path d="M1350.51 649.074C1356.75 668.532 1375.4 705.685 1400.08 698.637C1430.91 689.826 1433.12 645.22 1456.25 649.074C1479.37 652.929 1489.29 698.637 1508.01 698.637" stroke="#F9F9F9" stroke-linecap="round"/>
<path d="M1129.69 700.842L1178.15 650.179L1222.14 700.842L1275.07 650.179M1161 700.842L1178.15 682.32L1193.06 700.842M1244.5 650.179L1222.14 667.611L1206.48 650.179" stroke="#F9F9F9" stroke-linecap="round"/>
<circle cx="30.858" cy="434.308" r="30.8893" stroke="#F9F9F9"/>
<circle cx="30.8559" cy="434.307" r="8.86172" stroke="#F9F9F9"/>
<circle cx="249.481" cy="453.033" r="8.86172" stroke="#F9F9F9"/>
<circle cx="336.491" cy="425.496" r="8.86172" stroke="#F9F9F9"/>
<path d="M201.02 462.943C214.787 429.718 253.225 383.203 296.839 462.943" stroke="#F9F9F9" stroke-linecap="round"/>
<path d="M385.502 416.138C371.735 449.362 333.297 495.877 289.682 416.138" stroke="#F9F9F9" stroke-linecap="round"/>
<path d="M-157.479 408.424C-151.237 427.882 -132.587 465.035 -107.916 457.986C-77.0779 449.175 -74.8751 404.569 -51.7462 408.424C-28.6172 412.279 -18.7048 457.986 0.0186526 457.986" stroke="#F9F9F9" stroke-linecap="round"/>
<path d="M210.934 409.527L162.473 460.19L118.486 409.527L65.5516 460.19M179.621 409.527L162.473 428.049L147.562 409.527M96.1191 460.19L118.486 442.758L134.142 460.19" stroke="#F9F9F9" stroke-linecap="round"/>
<circle cx="558.626" cy="434.308" r="30.8893" stroke="#F9F9F9"/>
<circle cx="785.51" cy="434.308" r="30.8893" stroke="#F9F9F9"/>
<circle cx="639.026" cy="421.092" r="17.6728" stroke="#F9F9F9"/>
<circle cx="699.6" cy="447.525" r="17.6728" stroke="#F9F9F9"/>
<circle cx="558.627" cy="434.307" r="8.86172" stroke="#F9F9F9"/>
<circle cx="785.508" cy="434.307" r="8.86172" stroke="#F9F9F9"/>
<circle cx="1004.13" cy="453.033" r="8.86172" stroke="#F9F9F9"/>
<circle cx="1091.14" cy="425.496" r="8.86172" stroke="#F9F9F9"/>
<path d="M955.672 462.943C969.439 429.718 1007.88 383.203 1051.49 462.943" stroke="#F9F9F9" stroke-linecap="round"/>
<path d="M1140.15 416.138C1126.39 449.362 1087.95 495.877 1044.33 416.138" stroke="#F9F9F9" stroke-linecap="round"/>
<path d="M597.174 408.424C603.415 427.882 622.065 465.035 646.736 457.986C677.574 449.175 679.777 404.569 702.906 408.424C726.035 412.279 735.948 457.986 754.671 457.986" stroke="#F9F9F9" stroke-linecap="round"/>
<path d="M376.348 460.192L424.808 409.528L468.796 460.192L521.73 409.528M407.661 460.192L424.808 441.67L439.719 460.192M491.162 409.528L468.796 426.961L453.139 409.528" stroke="#F9F9F9" stroke-linecap="round"/>
<path d="M965.586 409.527L917.125 460.19L873.138 409.527L820.204 460.19M934.273 409.527L917.125 428.049L902.214 409.527M850.771 460.19L873.138 442.758L888.794 460.19" stroke="#F9F9F9" stroke-linecap="round"/>
<circle cx="1309.35" cy="434.308" r="30.8893" stroke="#F9F9F9"/>
<circle cx="1389.75" cy="421.092" r="17.6728" stroke="#F9F9F9"/>
<circle cx="1450.33" cy="447.525" r="17.6728" stroke="#F9F9F9"/>
<circle cx="1309.35" cy="434.307" r="8.86172" stroke="#F9F9F9"/>
<path d="M1347.9 408.424C1354.14 427.882 1372.79 465.035 1397.46 457.986C1428.3 449.175 1430.5 404.569 1453.63 408.424C1476.76 412.279 1486.67 457.986 1505.4 457.986" stroke="#F9F9F9" stroke-linecap="round"/>
<path d="M1127.07 460.192L1175.53 409.528L1219.52 460.192L1272.46 409.528M1158.39 460.192L1175.53 441.67L1190.45 460.192M1241.89 409.528L1219.52 426.961L1203.87 409.528" stroke="#F9F9F9" stroke-linecap="round"/>
<circle cx="30.858" cy="130.878" r="30.8893" stroke="#F9F9F9"/>
<circle cx="30.8559" cy="130.876" r="8.86172" stroke="#F9F9F9"/>
<circle cx="249.481" cy="149.602" r="8.86172" stroke="#F9F9F9"/>
<circle cx="336.491" cy="122.067" r="8.86172" stroke="#F9F9F9"/>
<path d="M201.02 159.513C214.787 126.288 253.225 79.773 296.839 159.513" stroke="#F9F9F9" stroke-linecap="round"/>
<path d="M385.502 112.705C371.735 145.93 333.297 192.445 289.682 112.705" stroke="#F9F9F9" stroke-linecap="round"/>
<path d="M-157.479 104.993C-151.237 124.451 -132.587 161.604 -107.916 154.555C-77.0779 145.744 -74.8751 101.139 -51.7462 104.993C-28.6172 108.848 -18.7048 154.555 0.0186526 154.555" stroke="#F9F9F9" stroke-linecap="round"/>
<path d="M210.934 106.096L162.473 156.76L118.486 106.096L65.5516 156.76M179.621 106.096L162.473 124.618L147.562 106.096M96.1191 156.76L118.486 139.327L134.142 156.76" stroke="#F9F9F9" stroke-linecap="round"/>
<circle cx="558.626" cy="130.878" r="30.8893" stroke="#F9F9F9"/>
<circle cx="785.51" cy="130.878" r="30.8893" stroke="#F9F9F9"/>
<circle cx="639.026" cy="117.661" r="17.6728" stroke="#F9F9F9"/>
<circle cx="699.6" cy="144.095" r="17.6728" stroke="#F9F9F9"/>
<circle cx="558.627" cy="130.876" r="8.86172" stroke="#F9F9F9"/>
<circle cx="785.508" cy="130.876" r="8.86172" stroke="#F9F9F9"/>
<circle cx="1004.13" cy="149.602" r="8.86172" stroke="#F9F9F9"/>
<circle cx="1091.14" cy="122.067" r="8.86172" stroke="#F9F9F9"/>
<path d="M955.672 159.513C969.439 126.288 1007.88 79.773 1051.49 159.513" stroke="#F9F9F9" stroke-linecap="round"/>
<path d="M1140.15 112.705C1126.39 145.93 1087.95 192.445 1044.33 112.705" stroke="#F9F9F9" stroke-linecap="round"/>
<path d="M597.174 104.993C603.415 124.451 622.065 161.604 646.736 154.555C677.574 145.744 679.777 101.139 702.906 104.993C726.035 108.848 735.948 154.555 754.671 154.555" stroke="#F9F9F9" stroke-linecap="round"/>
<path d="M376.348 156.76L424.808 106.097L468.796 156.76L521.73 106.097M407.661 156.76L424.808 138.238L439.719 156.76M491.162 106.097L468.796 123.529L453.139 106.097" stroke="#F9F9F9" stroke-linecap="round"/>
<path d="M965.586 106.096L917.125 156.76L873.138 106.096L820.204 156.76M934.273 106.096L917.125 124.618L902.214 106.096M850.771 156.76L873.138 139.327L888.794 156.76" stroke="#F9F9F9" stroke-linecap="round"/>
<circle cx="1309.35" cy="130.878" r="30.8893" stroke="#F9F9F9"/>
<circle cx="1389.75" cy="117.661" r="17.6728" stroke="#F9F9F9"/>
<circle cx="1450.33" cy="144.095" r="17.6728" stroke="#F9F9F9"/>
<circle cx="1309.35" cy="130.876" r="8.86172" stroke="#F9F9F9"/>
<path d="M1347.9 104.993C1354.14 124.451 1372.79 161.604 1397.46 154.555C1428.3 145.744 1430.5 101.139 1453.63 104.993C1476.76 108.848 1486.67 154.555 1505.4 154.555" stroke="#F9F9F9" stroke-linecap="round"/>
<path d="M1127.07 156.76L1175.53 106.097L1219.52 156.76L1272.46 106.097M1158.39 156.76L1175.53 138.238L1190.45 156.76M1241.89 106.097L1219.52 123.529L1203.87 106.097" stroke="#F9F9F9" stroke-linecap="round"/>
<circle cx="71.401" cy="735.122" r="30.8893" stroke="#F9F9F9"/>
<circle cx="-14.5089" cy="748.339" r="17.6728" stroke="#F9F9F9"/>
<circle cx="71.3988" cy="735.121" r="8.86172" stroke="#F9F9F9"/>
<circle cx="290.024" cy="753.845" r="8.86172" stroke="#F9F9F9"/>
<circle cx="377.034" cy="726.31" r="8.86172" stroke="#F9F9F9"/>
<path d="M241.562 763.756C255.33 730.531 293.768 684.016 337.382 763.756" stroke="#F9F9F9" stroke-linecap="round"/>
<path d="M426.043 716.95C412.276 750.175 373.838 796.69 330.223 716.95" stroke="#F9F9F9" stroke-linecap="round"/>
<path d="M-116.936 709.238C-110.694 728.695 -92.0444 765.848 -67.3735 758.8C-36.5349 749.989 -34.3321 705.383 -11.2032 709.238C11.9258 713.092 21.8382 758.8 40.5616 758.8" stroke="#F9F9F9" stroke-linecap="round"/>
<path d="M251.477 710.34L203.016 761.004L159.029 710.34L106.095 761.004M220.164 710.34L203.016 728.863L188.105 710.34M136.662 761.004L159.029 743.571L174.685 761.004" stroke="#F9F9F9" stroke-linecap="round"/>
<circle cx="599.167" cy="735.122" r="30.8893" stroke="#F9F9F9"/>
<circle cx="826.051" cy="735.122" r="30.8893" stroke="#F9F9F9"/>
<circle cx="679.567" cy="721.905" r="17.6728" stroke="#F9F9F9"/>
<circle cx="740.141" cy="748.339" r="17.6728" stroke="#F9F9F9"/>
<circle cx="599.168" cy="735.12" r="8.86172" stroke="#F9F9F9"/>
<circle cx="826.049" cy="735.12" r="8.86172" stroke="#F9F9F9"/>
<circle cx="1044.67" cy="753.845" r="8.86172" stroke="#F9F9F9"/>
<circle cx="1131.68" cy="726.31" r="8.86172" stroke="#F9F9F9"/>
<path d="M996.213 763.756C1009.98 730.531 1048.42 684.016 1092.03 763.756" stroke="#F9F9F9" stroke-linecap="round"/>
<path d="M1180.7 716.95C1166.93 750.175 1128.49 796.69 1084.88 716.95" stroke="#F9F9F9" stroke-linecap="round"/>
<path d="M637.715 709.238C643.956 728.695 662.606 765.848 687.277 758.8C718.115 749.989 720.318 705.383 743.447 709.238C766.576 713.092 776.489 758.8 795.212 758.8" stroke="#F9F9F9" stroke-linecap="round"/>
<path d="M416.889 761.005L465.349 710.342L509.337 761.005L562.271 710.342M448.202 761.005L465.349 742.483L480.26 761.005M531.703 710.342L509.337 727.774L493.68 710.342" stroke="#F9F9F9" stroke-linecap="round"/>
<path d="M1006.13 710.34L957.666 761.004L913.679 710.34L860.745 761.004M974.814 710.34L957.666 728.863L942.755 710.34M891.312 761.004L913.679 743.571L929.335 761.004" stroke="#F9F9F9" stroke-linecap="round"/>
<circle cx="1349.89" cy="735.122" r="30.8893" stroke="#F9F9F9"/>
<circle cx="1430.29" cy="721.905" r="17.6728" stroke="#F9F9F9"/>
<circle cx="1349.89" cy="735.121" r="8.86172" stroke="#F9F9F9"/>
<path d="M1388.44 709.238C1394.68 728.695 1413.33 765.848 1438 758.8C1468.84 749.989 1471.04 705.383 1494.17 709.238C1517.3 713.092 1527.22 758.8 1545.94 758.8" stroke="#F9F9F9" stroke-linecap="round"/>
<path d="M1167.62 761.005L1216.08 710.342L1260.06 761.005L1313 710.342M1198.93 761.005L1216.08 742.483L1230.99 761.005M1282.43 710.342L1260.06 727.774L1244.41 710.342" stroke="#F9F9F9" stroke-linecap="round"/>
<circle cx="63.5553" cy="494.47" r="30.8893" stroke="#F9F9F9"/>
<circle cx="63.5553" cy="191.041" r="30.8893" stroke="#F9F9F9"/>
<circle cx="63.5531" cy="494.47" r="8.86172" stroke="#F9F9F9"/>
<circle cx="63.5531" cy="191.039" r="8.86172" stroke="#F9F9F9"/>
<circle cx="282.178" cy="513.195" r="8.86172" stroke="#F9F9F9"/>
<circle cx="369.188" cy="485.66" r="8.86172" stroke="#F9F9F9"/>
<circle cx="369.188" cy="182.23" r="8.86172" stroke="#F9F9F9"/>
<path d="M233.717 523.107C247.484 489.882 285.922 443.367 329.537 523.107" stroke="#F9F9F9" stroke-linecap="round"/>
<path d="M233.717 219.676C247.484 186.451 285.922 139.936 329.537 219.676" stroke="#F9F9F9" stroke-linecap="round"/>
<path d="M418.199 476.299C404.432 509.524 365.994 556.039 322.379 476.299" stroke="#F9F9F9" stroke-linecap="round"/>
<path d="M418.199 172.868C404.432 206.093 365.994 252.608 322.379 172.868" stroke="#F9F9F9" stroke-linecap="round"/>
<path d="M-124.781 468.587C-118.54 488.045 -99.8901 525.198 -75.2192 518.149C-44.3806 509.338 -42.1778 464.732 -19.0489 468.587C4.08007 472.442 13.9925 518.149 32.7159 518.149" stroke="#F9F9F9" stroke-linecap="round"/>
<path d="M-124.781 165.157C-118.54 184.614 -99.8901 221.767 -75.2192 214.719C-44.3806 205.908 -42.1778 161.302 -19.0489 165.156C4.08007 169.011 13.9925 214.719 32.7159 214.719" stroke="#F9F9F9" stroke-linecap="round"/>
<path d="M243.631 469.689L195.17 520.353L151.183 469.689L98.2489 520.353M212.318 469.689L195.17 488.211L180.259 469.689M128.816 520.353L151.183 502.92L166.839 520.353" stroke="#F9F9F9" stroke-linecap="round"/>
<path d="M243.631 166.259L195.17 216.923L151.183 166.259L98.2489 216.923M212.318 166.259L195.17 184.782L180.259 166.259M128.816 216.923L151.183 199.49L166.839 216.923" stroke="#F9F9F9" stroke-linecap="round"/>
<circle cx="591.321" cy="494.47" r="30.8893" stroke="#F9F9F9"/>
<circle cx="591.321" cy="191.041" r="30.8893" stroke="#F9F9F9"/>
<circle cx="818.206" cy="494.47" r="30.8893" stroke="#F9F9F9"/>
<circle cx="818.206" cy="191.041" r="30.8893" stroke="#F9F9F9"/>
<circle cx="671.722" cy="481.254" r="17.6728" stroke="#F9F9F9"/>
<circle cx="671.722" cy="177.824" r="17.6728" stroke="#F9F9F9"/>
<circle cx="732.296" cy="507.688" r="17.6728" stroke="#F9F9F9"/>
<circle cx="732.296" cy="204.258" r="17.6728" stroke="#F9F9F9"/>
<circle cx="591.323" cy="494.47" r="8.86172" stroke="#F9F9F9"/>
<circle cx="591.323" cy="191.039" r="8.86172" stroke="#F9F9F9"/>
<circle cx="818.203" cy="494.47" r="8.86172" stroke="#F9F9F9"/>
<circle cx="818.203" cy="191.039" r="8.86172" stroke="#F9F9F9"/>
<circle cx="1036.83" cy="513.195" r="8.86172" stroke="#F9F9F9"/>
<circle cx="1123.84" cy="485.66" r="8.86172" stroke="#F9F9F9"/>
<circle cx="1123.84" cy="182.23" r="8.86172" stroke="#F9F9F9"/>
<path d="M988.367 523.107C1002.13 489.882 1040.57 443.367 1084.19 523.107" stroke="#F9F9F9" stroke-linecap="round"/>
<path d="M988.367 219.676C1002.13 186.451 1040.57 139.936 1084.19 219.676" stroke="#F9F9F9" stroke-linecap="round"/>
<path d="M1172.85 476.299C1159.08 509.524 1120.64 556.039 1077.03 476.299" stroke="#F9F9F9" stroke-linecap="round"/>
<path d="M1172.85 172.868C1159.08 206.093 1120.64 252.608 1077.03 172.868" stroke="#F9F9F9" stroke-linecap="round"/>
<path d="M629.869 468.587C636.11 488.045 654.76 525.198 679.431 518.149C710.27 509.338 712.473 464.732 735.602 468.587C758.73 472.442 768.643 518.149 787.366 518.149" stroke="#F9F9F9" stroke-linecap="round"/>
<path d="M629.869 165.157C636.11 184.614 654.76 221.767 679.431 214.719C710.27 205.908 712.473 161.302 735.602 165.156C758.73 169.011 768.643 214.719 787.366 214.719" stroke="#F9F9F9" stroke-linecap="round"/>
<path d="M409.043 520.353L457.504 469.689L501.491 520.353L554.425 469.689M440.356 520.353L457.504 501.831L472.415 520.353M523.857 469.689L501.491 487.122L485.834 469.689" stroke="#F9F9F9" stroke-linecap="round"/>
<path d="M409.043 216.923L457.504 166.26L501.491 216.923L554.425 166.26M440.356 216.923L457.504 198.401L472.415 216.923M523.857 166.26L501.491 183.692L485.834 166.26" stroke="#F9F9F9" stroke-linecap="round"/>
<path d="M998.281 469.689L949.821 520.353L905.833 469.689L852.899 520.353M966.968 469.689L949.821 488.211L934.91 469.689M883.467 520.353L905.833 502.92L921.49 520.353" stroke="#F9F9F9" stroke-linecap="round"/>
<path d="M998.281 166.259L949.821 216.923L905.833 166.259L852.899 216.923M966.968 166.259L949.821 184.782L934.91 166.259M883.467 216.923L905.833 199.49L921.49 216.923" stroke="#F9F9F9" stroke-linecap="round"/>
<circle cx="1342.05" cy="494.47" r="30.8893" stroke="#F9F9F9"/>
<circle cx="1342.05" cy="191.041" r="30.8893" stroke="#F9F9F9"/>
<circle cx="1422.45" cy="481.254" r="17.6728" stroke="#F9F9F9"/>
<circle cx="1422.45" cy="177.824" r="17.6728" stroke="#F9F9F9"/>
<circle cx="1342.05" cy="494.47" r="8.86172" stroke="#F9F9F9"/>
<circle cx="1342.05" cy="191.039" r="8.86172" stroke="#F9F9F9"/>
<path d="M1380.6 468.587C1386.84 488.045 1405.49 525.198 1430.16 518.149C1461 509.338 1463.2 464.732 1486.33 468.587C1509.46 472.442 1519.37 518.149 1538.09 518.149" stroke="#F9F9F9" stroke-linecap="round"/>
<path d="M1380.6 165.157C1386.84 184.614 1405.49 221.767 1430.16 214.719C1461 205.908 1463.2 161.302 1486.33 165.156C1509.46 169.011 1519.37 214.719 1538.09 214.719" stroke="#F9F9F9" stroke-linecap="round"/>
<path d="M1159.77 520.353L1208.23 469.689L1252.22 520.353L1305.15 469.689M1191.08 520.353L1208.23 501.831L1223.14 520.353M1274.59 469.689L1252.22 487.122L1236.56 469.689" stroke="#F9F9F9" stroke-linecap="round"/>
<path d="M1159.77 216.923L1208.23 166.26L1252.22 216.923L1305.15 166.26M1191.08 216.923L1208.23 198.401L1223.14 216.923M1274.59 166.26L1252.22 183.692L1236.56 166.26" stroke="#F9F9F9" stroke-linecap="round"/>
<circle cx="60.9401" cy="253.82" r="30.8893" stroke="#F9F9F9"/>
<circle cx="60.9379" cy="253.819" r="8.86172" stroke="#F9F9F9"/>
<circle cx="279.563" cy="272.544" r="8.86172" stroke="#F9F9F9"/>
<circle cx="366.573" cy="245.009" r="8.86172" stroke="#F9F9F9"/>
<path d="M231.102 282.455C244.869 249.23 283.307 202.715 326.922 282.455" stroke="#F9F9F9" stroke-linecap="round"/>
<path d="M415.584 235.647C401.817 268.872 363.379 315.387 319.764 235.647" stroke="#F9F9F9" stroke-linecap="round"/>
<path d="M-127.396 227.936C-121.155 247.394 -102.505 284.547 -77.8344 277.498C-46.9958 268.687 -44.7931 224.081 -21.6641 227.936C1.46484 231.791 11.3772 277.498 30.1007 277.498" stroke="#F9F9F9" stroke-linecap="round"/>
<path d="M241.016 229.039L192.555 279.702L148.568 229.039L95.6336 279.702M209.703 229.039L192.555 247.561L177.644 229.039M126.201 279.702L148.568 262.27L164.224 279.702" stroke="#F9F9F9" stroke-linecap="round"/>
<circle cx="588.706" cy="253.82" r="30.8893" stroke="#F9F9F9"/>
<circle cx="815.59" cy="253.82" r="30.8893" stroke="#F9F9F9"/>
<circle cx="669.106" cy="240.603" r="17.6728" stroke="#F9F9F9"/>
<circle cx="729.681" cy="267.037" r="17.6728" stroke="#F9F9F9"/>
<circle cx="588.707" cy="253.819" r="8.86172" stroke="#F9F9F9"/>
<circle cx="815.588" cy="253.819" r="8.86172" stroke="#F9F9F9"/>
<circle cx="1034.21" cy="272.544" r="8.86172" stroke="#F9F9F9"/>
<circle cx="1121.22" cy="245.009" r="8.86172" stroke="#F9F9F9"/>
<path d="M985.752 282.455C999.519 249.23 1037.96 202.715 1081.57 282.455" stroke="#F9F9F9" stroke-linecap="round"/>
<path d="M1170.23 235.647C1156.47 268.872 1118.03 315.387 1074.41 235.647" stroke="#F9F9F9" stroke-linecap="round"/>
<path d="M627.254 227.936C633.495 247.394 652.145 284.547 676.816 277.498C707.655 268.687 709.857 224.081 732.986 227.936C756.115 231.791 766.028 277.498 784.751 277.498" stroke="#F9F9F9" stroke-linecap="round"/>
<path d="M406.428 279.702L454.888 229.039L498.876 279.702L551.81 229.039M437.741 279.702L454.888 261.18L469.799 279.702M521.242 229.039L498.876 246.472L483.219 229.039" stroke="#F9F9F9" stroke-linecap="round"/>
<path d="M995.666 229.039L947.205 279.702L903.218 229.039L850.284 279.702M964.353 229.039L947.205 247.561L932.294 229.039M880.852 279.702L903.218 262.27L918.874 279.702" stroke="#F9F9F9" stroke-linecap="round"/>
<circle cx="1339.43" cy="253.82" r="30.8893" stroke="#F9F9F9"/>
<circle cx="1419.83" cy="240.603" r="17.6728" stroke="#F9F9F9"/>
<circle cx="1339.43" cy="253.819" r="8.86172" stroke="#F9F9F9"/>
<path d="M1377.98 227.936C1384.22 247.394 1402.87 284.547 1427.54 277.498C1458.38 268.687 1460.58 224.081 1483.71 227.936C1506.84 231.791 1516.75 277.498 1535.48 277.498" stroke="#F9F9F9" stroke-linecap="round"/>
<path d="M1157.15 279.702L1205.61 229.039L1249.6 279.702L1302.54 229.039M1188.47 279.702L1205.61 261.18L1220.53 279.702M1271.97 229.039L1249.6 246.472L1233.95 229.039" stroke="#F9F9F9" stroke-linecap="round"/>
<circle cx="79.2506" cy="614.795" r="30.8893" stroke="#F9F9F9"/>
<circle cx="-6.65928" cy="628.012" r="17.6728" stroke="#F9F9F9"/>
<circle cx="79.2484" cy="614.793" r="8.86172" stroke="#F9F9F9"/>
<circle cx="297.873" cy="633.519" r="8.86172" stroke="#F9F9F9"/>
<circle cx="384.883" cy="605.983" r="8.86172" stroke="#F9F9F9"/>
<path d="M249.412 643.429C263.179 610.204 301.617 563.689 345.232 643.429" stroke="#F9F9F9" stroke-linecap="round"/>
<path d="M433.895 596.624C420.127 629.849 381.689 676.364 338.075 596.624" stroke="#F9F9F9" stroke-linecap="round"/>
<path d="M-109.086 588.91C-102.845 608.368 -84.1948 645.521 -59.5239 638.472C-28.6853 629.661 -26.4825 585.056 -3.35357 588.91C19.7754 592.765 29.6878 638.472 48.4112 638.472" stroke="#F9F9F9" stroke-linecap="round"/>
<path d="M259.326 590.013L210.866 640.677L166.878 590.013L113.944 640.677M228.013 590.013L210.866 608.535L195.955 590.013M144.512 640.677L166.878 623.244L182.535 640.677" stroke="#F9F9F9" stroke-linecap="round"/>
<circle cx="607.016" cy="614.795" r="30.8893" stroke="#F9F9F9"/>
<circle cx="833.901" cy="614.795" r="30.8893" stroke="#F9F9F9"/>
<circle cx="687.417" cy="601.578" r="17.6728" stroke="#F9F9F9"/>
<circle cx="747.991" cy="628.012" r="17.6728" stroke="#F9F9F9"/>
<circle cx="607.018" cy="614.793" r="8.86172" stroke="#F9F9F9"/>
<circle cx="833.899" cy="614.793" r="8.86172" stroke="#F9F9F9"/>
<circle cx="1052.52" cy="633.519" r="8.86172" stroke="#F9F9F9"/>
<circle cx="1139.53" cy="605.983" r="8.86172" stroke="#F9F9F9"/>
<path d="M1004.06 643.428C1017.83 610.203 1056.27 563.688 1099.88 643.428" stroke="#F9F9F9" stroke-linecap="round"/>
<path d="M1188.54 596.624C1174.78 629.849 1136.34 676.364 1092.72 596.624" stroke="#F9F9F9" stroke-linecap="round"/>
<path d="M645.564 588.91C651.806 608.368 670.456 645.521 695.126 638.472C725.965 629.661 728.168 585.056 751.297 588.91C774.426 592.765 784.338 638.472 803.062 638.472" stroke="#F9F9F9" stroke-linecap="round"/>
<path d="M424.738 640.678L473.199 590.015L517.186 640.678L570.12 590.015M456.051 640.678L473.199 622.156L488.11 640.678M539.553 590.015L517.186 607.447L501.53 590.015" stroke="#F9F9F9" stroke-linecap="round"/>
<path d="M1013.98 590.012L965.516 640.676L921.529 590.012L868.595 640.676M982.664 590.012L965.516 608.534L950.605 590.012M899.162 640.676L921.529 623.243L937.185 640.676" stroke="#F9F9F9" stroke-linecap="round"/>
<circle cx="1357.74" cy="614.795" r="30.8893" stroke="#F9F9F9"/>
<circle cx="1438.14" cy="601.578" r="17.6728" stroke="#F9F9F9"/>
<circle cx="1357.74" cy="614.793" r="8.86172" stroke="#F9F9F9"/>
<path d="M1396.29 588.91C1402.53 608.368 1421.18 645.521 1445.85 638.472C1476.69 629.661 1478.89 585.056 1502.02 588.91C1525.15 592.765 1535.06 638.472 1553.79 638.472" stroke="#F9F9F9" stroke-linecap="round"/>
<path d="M1175.46 640.678L1223.93 590.015L1267.91 640.678L1320.85 590.015M1206.78 640.678L1223.93 622.156L1238.84 640.678M1290.28 590.015L1267.91 607.447L1252.26 590.015" stroke="#F9F9F9" stroke-linecap="round"/>
<circle cx="76.6334" cy="374.146" r="30.8893" stroke="#F9F9F9"/>
<circle cx="-9.27647" cy="387.363" r="17.6728" stroke="#F9F9F9"/>
<circle cx="76.6312" cy="374.145" r="8.86172" stroke="#F9F9F9"/>
<circle cx="295.256" cy="392.871" r="8.86172" stroke="#F9F9F9"/>
<circle cx="382.266" cy="365.334" r="8.86172" stroke="#F9F9F9"/>
<path d="M246.795 402.78C260.562 369.556 299 323.041 342.615 402.78" stroke="#F9F9F9" stroke-linecap="round"/>
<path d="M431.277 355.974C417.51 389.199 379.072 435.714 335.457 355.974" stroke="#F9F9F9" stroke-linecap="round"/>
<path d="M-111.703 348.262C-105.462 367.72 -86.812 404.873 -62.1411 397.824C-31.3025 389.013 -29.0997 344.407 -5.97076 348.262C17.1582 352.117 27.0706 397.824 45.794 397.824" stroke="#F9F9F9" stroke-linecap="round"/>
<path d="M256.709 349.365L208.248 400.028L164.261 349.365L111.327 400.028M225.396 349.365L208.248 367.887L193.337 349.365M141.894 400.028L164.261 382.596L179.917 400.028" stroke="#F9F9F9" stroke-linecap="round"/>
<circle cx="604.399" cy="374.146" r="30.8893" stroke="#F9F9F9"/>
<circle cx="831.284" cy="374.146" r="30.8893" stroke="#F9F9F9"/>
<circle cx="684.8" cy="360.93" r="17.6728" stroke="#F9F9F9"/>
<circle cx="745.374" cy="387.363" r="17.6728" stroke="#F9F9F9"/>
<circle cx="604.401" cy="374.145" r="8.86172" stroke="#F9F9F9"/>
<circle cx="831.282" cy="374.145" r="8.86172" stroke="#F9F9F9"/>
<circle cx="1049.91" cy="392.871" r="8.86172" stroke="#F9F9F9"/>
<circle cx="1136.92" cy="365.334" r="8.86172" stroke="#F9F9F9"/>
<path d="M1001.45 402.78C1015.21 369.556 1053.65 323.041 1097.27 402.78" stroke="#F9F9F9" stroke-linecap="round"/>
<path d="M1185.93 355.974C1172.16 389.199 1133.72 435.714 1090.11 355.974" stroke="#F9F9F9" stroke-linecap="round"/>
<path d="M642.947 348.262C649.188 367.72 667.838 404.873 692.509 397.824C723.348 389.013 725.551 344.407 748.68 348.262C771.809 352.117 781.721 397.824 800.444 397.824" stroke="#F9F9F9" stroke-linecap="round"/>
<path d="M422.121 400.03L470.582 349.366L514.569 400.03L567.503 349.366M453.434 400.03L470.582 381.508L485.493 400.03M536.936 349.366L514.569 366.799L498.913 349.366" stroke="#F9F9F9" stroke-linecap="round"/>
<path d="M1011.36 349.365L962.899 400.028L918.911 349.365L865.977 400.028M980.046 349.365L962.899 367.887L947.988 349.365M896.545 400.028L918.911 382.596L934.568 400.028" stroke="#F9F9F9" stroke-linecap="round"/>
<circle cx="1355.13" cy="374.146" r="30.8893" stroke="#F9F9F9"/>
<circle cx="1435.53" cy="360.93" r="17.6728" stroke="#F9F9F9"/>
<circle cx="1355.13" cy="374.145" r="8.86172" stroke="#F9F9F9"/>
<path d="M1393.68 348.262C1399.92 367.72 1418.57 404.873 1443.24 397.824C1474.08 389.013 1476.28 344.407 1499.41 348.262C1522.54 352.117 1532.45 397.824 1551.17 397.824" stroke="#F9F9F9" stroke-linecap="round"/>
<path d="M1172.85 400.03L1221.31 349.366L1265.3 400.03L1318.23 349.366M1204.16 400.03L1221.31 381.508L1236.22 400.03M1287.66 349.366L1265.3 366.799L1249.64 349.366" stroke="#F9F9F9" stroke-linecap="round"/>
<circle cx="76.6334" cy="70.7155" r="30.8893" stroke="#F9F9F9"/>
<circle cx="-9.27647" cy="83.9325" r="17.6728" stroke="#F9F9F9"/>
<circle cx="76.6312" cy="70.7152" r="8.86172" stroke="#F9F9F9"/>
<circle cx="295.256" cy="89.4398" r="8.86172" stroke="#F9F9F9"/>
<circle cx="382.264" cy="61.9047" r="8.86172" stroke="#F9F9F9"/>
<path d="M246.795 99.3508C260.562 66.1258 299 19.6109 342.615 99.3508" stroke="#F9F9F9" stroke-linecap="round"/>
<path d="M431.277 52.5428C417.51 85.7677 379.072 132.283 335.457 52.5428" stroke="#F9F9F9" stroke-linecap="round"/>
<path d="M-111.703 44.8323C-105.462 64.29 -86.812 101.443 -62.1411 94.3944C-31.3025 85.5833 -29.0997 40.9774 -5.97076 44.8323C17.1582 48.6871 27.0706 94.3944 45.794 94.3944" stroke="#F9F9F9" stroke-linecap="round"/>
<path d="M256.709 45.9342L208.248 96.5977L164.261 45.9342L111.327 96.5976M225.396 45.9342L208.248 64.4563L193.337 45.9342M141.894 96.5976L164.261 79.1651L179.917 96.5976" stroke="#F9F9F9" stroke-linecap="round"/>
<circle cx="604.399" cy="70.7155" r="30.8893" stroke="#F9F9F9"/>
<circle cx="831.284" cy="70.7155" r="30.8893" stroke="#F9F9F9"/>
<circle cx="684.8" cy="57.4989" r="17.6728" stroke="#F9F9F9"/>
<circle cx="745.374" cy="83.9325" r="17.6728" stroke="#F9F9F9"/>
<circle cx="604.399" cy="70.7152" r="8.86172" stroke="#F9F9F9"/>
<circle cx="831.282" cy="70.7152" r="8.86172" stroke="#F9F9F9"/>
<circle cx="1049.91" cy="89.4398" r="8.86172" stroke="#F9F9F9"/>
<circle cx="1136.92" cy="61.9047" r="8.86172" stroke="#F9F9F9"/>
<path d="M1001.45 99.3508C1015.21 66.1258 1053.65 19.6109 1097.27 99.3508" stroke="#F9F9F9" stroke-linecap="round"/>
<path d="M1185.93 52.5428C1172.16 85.7677 1133.72 132.283 1090.11 52.5428" stroke="#F9F9F9" stroke-linecap="round"/>
<path d="M642.947 44.8323C649.188 64.29 667.838 101.443 692.509 94.3944C723.348 85.5833 725.551 40.9774 748.68 44.8323C771.809 48.6871 781.721 94.3944 800.444 94.3944" stroke="#F9F9F9" stroke-linecap="round"/>
<path d="M422.121 96.598L470.582 45.9346L514.569 96.598L567.503 45.9346M453.434 96.598L470.582 78.0759L485.493 96.598M536.936 45.9346L514.569 63.3671L498.913 45.9346" stroke="#F9F9F9" stroke-linecap="round"/>
<path d="M1011.36 45.9342L962.897 96.5977L918.909 45.9342L865.975 96.5976M980.044 45.9342L962.897 64.4563L947.986 45.9342M896.543 96.5976L918.909 79.1651L934.566 96.5976" stroke="#F9F9F9" stroke-linecap="round"/>
<circle cx="1355.13" cy="70.7155" r="30.8893" stroke="#F9F9F9"/>
<circle cx="1435.53" cy="57.4989" r="17.6728" stroke="#F9F9F9"/>
<circle cx="1355.13" cy="70.7152" r="8.86172" stroke="#F9F9F9"/>
<path d="M1393.67 44.8323C1399.91 64.29 1418.56 101.443 1443.24 94.3944C1474.07 85.5833 1476.28 40.9774 1499.41 44.8323C1522.54 48.6871 1532.45 94.3944 1551.17 94.3944" stroke="#F9F9F9" stroke-linecap="round"/>
<path d="M1172.85 96.598L1221.31 45.9346L1265.3 96.598L1318.23 45.9346M1204.16 96.598L1221.31 78.0759L1236.22 96.598M1287.66 45.9346L1265.3 63.3671L1249.64 45.9346" stroke="#F9F9F9" stroke-linecap="round"/>
</svg>
