<svg width="86" height="84" viewBox="0 0 86 84" fill="none" xmlns="http://www.w3.org/2000/svg">
<path fill-rule="evenodd" clip-rule="evenodd" d="M30.5676 0H30.8171C31.9475 11.0007 40.6911 19.745 51.6916 20.8764V21.1244C40.158 22.3106 31.1053 31.8654 30.707 43.6154H30.6777C30.2609 31.3215 20.37 21.4308 8.07617 21.0141V20.9867C19.8269 20.5884 29.3823 11.5346 30.5676 0Z" fill="#DDECE1"/>
<path fill-rule="evenodd" clip-rule="evenodd" d="M64.4894 35.5381H64.739C65.8694 46.5388 74.613 55.283 85.6134 56.4144V56.6625C74.0799 57.8487 65.0272 67.4035 64.6289 79.1535H64.5995C64.1827 66.8596 54.2919 56.9689 41.998 56.5521V56.5248C53.7488 56.1265 63.3041 47.0727 64.4894 35.5381Z" fill="#DDECE1"/>
<path fill-rule="evenodd" clip-rule="evenodd" d="M16.6585 51.6919H16.8446C17.6821 59.8406 24.1591 66.3177 32.3077 67.1555V67.3388C23.7638 68.2173 17.0577 75.2954 16.763 83.9996H16.7401C16.4318 74.8933 9.10601 67.5668 0 67.2572V67.2371C8.70335 66.9413 15.7804 60.2353 16.6585 51.6919Z" fill="#DDECE1"/>
</svg>
