<svg width="25" height="25" viewBox="0 0 25 25" fill="none" xmlns="http://www.w3.org/2000/svg">
<path d="M10.4771 4.74638L7.68983 6.36833C7.71088 5.39529 7.98894 4.70465 8.43909 4.25259C8.90722 3.78247 9.63301 3.49854 10.6685 3.49854H15.3285C16.3641 3.49854 17.0899 3.78247 17.558 4.25259C18.0069 4.70342 18.2847 5.39151 18.3071 6.36035L15.5191 4.74585L15.5177 4.74501C14.024 3.88671 11.9636 3.88577 10.478 4.74582L10.4771 4.74638Z" fill="white" stroke="white"/>
<path d="M18.8385 8.96877L18.6985 8.89877L17.3385 8.11877L14.5185 6.48877C13.6585 5.98877 12.3385 5.98877 11.4785 6.48877L8.65854 8.10877L7.29854 8.90877L7.11854 8.99877C5.36854 10.1788 5.24854 10.3988 5.24854 12.2888V16.8088C5.24854 18.6988 5.36854 18.9188 7.15854 20.1288L11.4785 22.6188C11.9085 22.8788 12.4485 22.9888 12.9985 22.9888C13.5385 22.9888 14.0885 22.8688 14.5185 22.6188L18.8785 20.0988C20.6385 18.9188 20.7485 18.7088 20.7485 16.8088V12.2888C20.7485 10.3988 20.6285 10.1788 18.8385 8.96877ZM15.7885 14.4988L15.1785 15.2488C15.0785 15.3588 15.0085 15.5688 15.0185 15.7188L15.0785 16.6788C15.1185 17.2688 14.6985 17.5688 14.1485 17.3588L13.2585 16.9988C13.1185 16.9488 12.8885 16.9488 12.7485 16.9988L11.8585 17.3488C11.3085 17.5688 10.8885 17.2588 10.9285 16.6688L10.9885 15.7088C10.9985 15.5588 10.9285 15.3488 10.8285 15.2388L10.2085 14.4988C9.82854 14.0488 9.99853 13.5488 10.5685 13.3988L11.4985 13.1588C11.6485 13.1188 11.8185 12.9788 11.8985 12.8588L12.4185 12.0588C12.7385 11.5588 13.2485 11.5588 13.5785 12.0588L14.0985 12.8588C14.1785 12.9888 14.3585 13.1188 14.4985 13.1588L15.4285 13.3988C15.9985 13.5488 16.1685 14.0488 15.7885 14.4988Z" fill="white"/>
</svg>
