<svg width="12" height="12" viewBox="0 0 12 12" fill="none" xmlns="http://www.w3.org/2000/svg">
<path d="M5.99946 8.75477C6.9813 8.75477 7.77724 7.95884 7.77724 6.977C7.77724 5.99516 6.9813 5.19922 5.99946 5.19922C5.01762 5.19922 4.22168 5.99516 4.22168 6.977C4.22168 7.95884 5.01762 8.75477 5.99946 8.75477Z" stroke="#0D5520" stroke-width="0.8" stroke-miterlimit="10" stroke-linecap="round" stroke-linejoin="round"/>
<path d="M6.47445 7.47L5.53223 6.53223" stroke="#0D5520" stroke-width="0.8" stroke-miterlimit="10" stroke-linecap="round" stroke-linejoin="round"/>
<path d="M6.46566 6.54199L5.52344 7.48421" stroke="#0D5520" stroke-width="0.8" stroke-miterlimit="10" stroke-linecap="round" stroke-linejoin="round"/>
<path d="M4.22193 10.4441H7.77748C9.56415 10.4441 9.88415 9.72856 9.97748 8.85745L10.3108 5.3019C10.4308 4.21745 10.1197 3.33301 8.22193 3.33301H3.77748C1.87971 3.33301 1.56859 4.21745 1.68859 5.3019L2.02193 8.85745C2.11526 9.72856 2.43526 10.4441 4.22193 10.4441Z" stroke="#0D5520" stroke-width="0.8" stroke-miterlimit="10" stroke-linecap="round" stroke-linejoin="round"/>
<path d="M4.22168 3.33247V2.97691C4.22168 2.19024 4.22168 1.55469 5.6439 1.55469H6.35501C7.77724 1.55469 7.77724 2.19024 7.77724 2.97691V3.33247" stroke="#0D5520" stroke-width="0.8" stroke-miterlimit="10" stroke-linecap="round" stroke-linejoin="round"/>
<path d="M10.2879 5.55469C9.51903 6.11469 8.66569 6.5058 7.78125 6.72802" stroke="#0D5520" stroke-width="0.8" stroke-miterlimit="10" stroke-linecap="round" stroke-linejoin="round"/>
<path d="M1.83008 5.6748C2.5723 6.18147 3.38119 6.54147 4.22119 6.74592" stroke="#0D5520" stroke-width="0.8" stroke-miterlimit="10" stroke-linecap="round" stroke-linejoin="round"/>
</svg>
