<svg xmlns="http://www.w3.org/2000/svg" width="20" height="20" viewBox="0 0 20 20" fill="none">
  <mask id="mask0_6049_1219" style="mask-type:alpha" maskUnits="userSpaceOnUse" x="0" y="0" width="20" height="20">
    <rect width="20" height="20" fill="#D9D9D9"/>
  </mask>
  <g mask="url(#mask0_6049_1219)">
    <path d="M13.2528 9.48683L10.192 6.42595C10.114 6.34797 10.0589 6.26535 10.0269 6.1781C9.99483 6.09085 9.97881 5.99737 9.97881 5.89766C9.97881 5.79794 9.99483 5.70481 10.0269 5.61827C10.0589 5.53174 10.114 5.44947 10.192 5.37147L13.2528 2.31062C13.3308 2.23263 13.4134 2.17761 13.5007 2.14556C13.5879 2.1135 13.6814 2.09747 13.7811 2.09747C13.8808 2.09747 13.974 2.1135 14.0605 2.14556C14.147 2.17761 14.2293 2.23263 14.3073 2.31062L17.3681 5.37147C17.4461 5.44947 17.5012 5.5321 17.5332 5.61935C17.5653 5.7066 17.5813 5.80008 17.5813 5.89979C17.5813 5.99951 17.5653 6.09263 17.5332 6.17916C17.5012 6.2657 17.4461 6.34797 17.3681 6.42595L14.3073 9.48683C14.2293 9.56481 14.1467 9.61984 14.0594 9.65189C13.9722 9.68393 13.8787 9.69995 13.779 9.69995C13.6793 9.69995 13.5861 9.68393 13.4996 9.65189C13.4131 9.61984 13.3308 9.56481 13.2528 9.48683ZM3.22241 7.86666V3.53979C3.22241 3.32637 3.29459 3.14748 3.43895 3.00312C3.58331 2.85876 3.7622 2.78658 3.97562 2.78658H8.3025C8.5159 2.78658 8.69478 2.85876 8.83914 3.00312C8.9835 3.14748 9.05568 3.32637 9.05568 3.53979V7.86666C9.05568 8.08006 8.9835 8.25895 8.83914 8.40331C8.69478 8.54767 8.5159 8.61985 8.3025 8.61985H3.97562C3.7622 8.61985 3.58331 8.54767 3.43895 8.40331C3.29459 8.25895 3.22241 8.08006 3.22241 7.86666ZM11.0429 15.6871V11.3602C11.0429 11.1468 11.1151 10.968 11.2594 10.8236C11.4038 10.6792 11.5827 10.6071 11.7961 10.6071H16.123C16.3364 10.6071 16.5153 10.6792 16.6596 10.8236C16.804 10.968 16.8762 11.1468 16.8762 11.3602V15.6871C16.8762 15.9005 16.804 16.0794 16.6596 16.2238C16.5153 16.3681 16.3364 16.4403 16.123 16.4403H11.7961C11.5827 16.4403 11.4038 16.3681 11.2594 16.2238C11.1151 16.0794 11.0429 15.9005 11.0429 15.6871ZM3.22241 15.6871V11.3602C3.22241 11.1468 3.29459 10.968 3.43895 10.8236C3.58331 10.6792 3.7622 10.6071 3.97562 10.6071H8.3025C8.5159 10.6071 8.69478 10.6792 8.83914 10.8236C8.9835 10.968 9.05568 11.1468 9.05568 11.3602V15.6871C9.05568 15.9005 8.9835 16.0794 8.83914 16.2238C8.69478 16.3681 8.5159 16.4403 8.3025 16.4403H3.97562C3.7622 16.4403 3.58331 16.3681 3.43895 16.2238C3.29459 16.0794 3.22241 15.9005 3.22241 15.6871ZM4.47239 7.36989H7.80572V4.03656H4.47239V7.36989ZM13.8009 8.27372L16.155 5.91956L13.8009 3.56539L11.4467 5.91956L13.8009 8.27372ZM12.2928 15.1903H15.6262V11.857H12.2928V15.1903ZM4.47239 15.1903H7.80572V11.857H4.47239V15.1903Z" fill="#56616B"/>
  </g>
</svg>