<svg width="13" height="25" viewBox="0 0 13 25" fill="none" xmlns="http://www.w3.org/2000/svg">
<path id="Vector" d="M8.57137 3.98916C9.83459 4.24498 10.8709 4.763 11.7604 5.50864C12.0125 5.71998 12.0423 6.10053 11.8292 6.35114L10.7436 7.62743C10.5418 7.86478 10.1917 7.9049 9.93926 7.72219C8.96221 7.01485 7.94955 6.67749 6.78677 6.67749C5.45106 6.67749 4.61009 7.24645 4.61009 8.26055C4.61009 9.29936 5.22847 9.7199 7.77627 10.5115C10.8929 11.5009 12.6739 12.8119 12.6739 15.8297C12.6739 18.2228 11.1605 20.0596 8.53507 20.749C8.27599 20.817 8.09774 21.0549 8.09774 21.3228V24.1632C8.09774 24.4924 7.83085 24.7592 7.50167 24.7592H5.84923C5.52001 24.7592 5.25317 24.4923 5.25317 24.1632V21.5343C5.25317 21.238 5.03565 20.9835 4.74186 20.9449C2.87707 20.7001 1.42788 19.9937 0.342001 19.0872C0.0834001 18.8713 -0.131055 18.6926 0.0956576 18.4434L1.57932 16.8132C1.9061 16.4542 2.06387 16.6329 2.30849 16.8221C3.371 17.6437 4.57734 18.1054 5.99527 18.1054C7.60304 18.1054 8.56782 17.3634 8.56782 16.1265C8.56782 14.9392 7.97401 14.395 5.59949 13.653C1.88916 12.5151 0.578099 10.9815 0.578099 8.55736C0.578099 6.17767 2.27248 4.5021 4.7896 3.96656C5.06146 3.90872 5.25317 3.97575 5.25317 3.69776V0.507164C5.25317 0.17794 5.52006 0.246073 5.84923 0.246073H7.50167C7.8309 0.246073 8.09774 0.512958 8.09774 0.842134V3.40746C8.09774 3.68909 8.29534 3.93328 8.57137 3.98916V3.98916Z" fill="#30342D"/>
</svg>
