<svg width="12" height="12" viewBox="0 0 12 12" fill="none" xmlns="http://www.w3.org/2000/svg">
<path d="M5.27927 8.11493C5.76183 8.11493 6.18583 7.85646 6.41993 7.47085C6.47466 7.47649 6.53005 7.47938 6.58593 7.47938H6.58596H6.58599H6.58601H6.58604H6.58606H6.58609H6.58611H6.58614H6.58616H6.58619H6.58622H6.58624H6.58626H6.58629H6.58631H6.58634H6.58636H6.58639H6.58641H6.58644H6.58646H6.58648H6.58651H6.58653H6.58655H6.58658H6.5866H6.58662H6.58665H6.58667H6.58669H6.58672H6.58674H6.58676H6.58679H6.58681H6.58683H6.58685H6.58687H6.5869H6.58692H6.58694H6.58696H6.58698H6.58701H6.58703H6.58705H6.58707H6.58709H6.58711H6.58713H6.58716H6.58718H6.5872H6.58722H6.58724H6.58726H6.58728H6.5873H6.58732H6.58734H6.58736H6.58738H6.5874H6.58742H6.58744H6.58746H6.58748H6.5875H6.58752H6.58754H6.58756H6.58758H6.5876H6.58762H6.58763H6.58765H6.58767H6.58769H6.58771H6.58773H6.58775H6.58776H6.58778H6.5878H6.58782H6.58784H6.58785H6.58787H6.58789H6.58791H6.58793H6.58794H6.58796H6.58798H6.588H6.58801H6.58803H6.58805H6.58806H6.58808H6.5881H6.58811H6.58813H6.58815H6.58816H6.58818H6.5882H6.58821H6.58823H6.58824H6.58826H6.58828H6.58829H6.58831H6.58832H6.58834H6.58835H6.58837H6.58838H6.5884H6.58841H6.58843H6.58845H6.58846H6.58847H6.58849H6.5885H6.58852H6.58853H6.58855H6.58856H6.58858H6.58859H6.5886H6.58862H6.58863H6.58865H6.58866H6.58867H6.58869H6.5887H6.58872H6.58873H6.58874H6.58876H6.58877H6.58878H6.5888H6.58881H6.58882H6.58883H6.58885H6.58886H6.58887H6.58889H6.5889H6.58891H6.58892H6.58893H6.58895H6.58896H6.58897H6.58898H6.589H6.58901H6.58902H6.58903H6.58904H6.58905H6.58907H6.58908H6.58909H6.5891H6.58911H6.58912H6.58913H6.58915H6.58916H6.58917H6.58918H6.58919H6.5892H6.58921H6.58922H6.58923H6.58924H6.58925H6.58926H6.58927H6.58928H6.58929H6.5893H6.58931H6.58932H6.58933H6.58934H6.58935H6.58936H6.58937H6.58938H6.58939H6.5894H6.58941H6.58942H6.58943H6.58944H6.58945H6.58946H6.58947H6.58948H6.58949H6.58949H6.5895H6.58951H6.58952H6.58953H6.58954H6.58955H6.58955H6.58956H6.58957H6.58958H6.58959H6.5896H6.5896H6.58961H6.58962H6.58963H6.58964H6.58964H6.58965H6.58966H6.58967H6.58968H6.58968H6.58969H6.5897H6.58971H6.58971H6.58972H6.58973H6.58973H6.58974H6.58975H6.58976H6.58976H6.58977H6.58978H6.58978H6.58979H6.5898H6.5898H6.58981H6.58982H6.58982H6.58983H6.58984H6.58984H6.58985H6.58986H6.58986H6.58987H6.58987H6.58988H6.58989H6.58989H6.5899H6.5899H6.58991H6.58992H6.58992H6.58993H6.58993H6.58994H6.58994H6.58995H6.58995H6.58996H6.58997H6.58997H6.58998H6.58998H6.58999H6.58999H6.59H6.59H6.59001H6.59001H6.59002H6.59002H6.59003H6.59003H6.59004H6.59004H6.59005H6.59005H6.59005H6.59006H6.59006H6.59007H6.59007H6.59008H6.59008H6.59009H6.59009H6.59009H6.5901H6.5901H6.59011H6.59011H6.59011H6.59012H6.59012H6.59013H6.59013H6.59013H6.59014H6.59014H6.59015H6.59015H6.59016H6.59017H6.59017H6.59018H6.59019H6.59019H6.5902H6.5902H6.59021H6.59022H6.59022H6.59023H6.59023H6.59024H6.59024H6.59025H6.59025H6.59026H6.59026H6.59027H6.59027H6.59028H6.59028H6.59028H6.59029H6.59029H6.5903H6.5903H6.5903H6.59031H6.59031H6.59032H6.59032H6.59033H6.59033H6.59034H6.59034H6.59034H6.59035H6.59035H6.59036H6.59036H6.59036H6.59037H6.59037H6.59038H6.65666C6.8832 7.84956 7.28516 8.1016 7.7455 8.11847C7.35106 8.22031 6.98289 8.42464 6.68567 8.72099L6.00149 9.39716L5.31735 8.72102C5.01722 8.42176 4.64608 8.21572 4.24559 8.11493H5.27927ZM8.23075 8.04604C8.56926 7.92839 8.84644 7.67778 8.99927 7.35721V7.72382C8.99927 7.89172 8.86018 8.04382 8.66594 8.04382H8.3326C8.29861 8.04382 8.26465 8.04456 8.23075 8.04604ZM8.99927 2.87493V3.62724C8.81448 3.19185 8.43984 2.85738 7.98285 2.72109L7.97509 2.71878L7.9673 2.71659C7.29007 2.52649 6.56282 2.80083 6.18332 3.40566L6.18331 3.40566L6.18074 3.40979C6.1743 3.42016 6.16786 3.43056 6.1614 3.44098C5.77973 2.9605 5.19029 2.65271 4.52816 2.65271C3.92279 2.65271 3.37937 2.91075 2.99927 3.32124V2.87493C2.99927 2.70704 3.13836 2.55493 3.3326 2.55493H8.66594C8.86018 2.55493 8.99927 2.70704 8.99927 2.87493ZM2.99927 7.72382V7.68961C3.17591 7.85244 3.38631 7.97336 3.61501 8.04382H3.3326C3.13836 8.04382 2.99927 7.89172 2.99927 7.72382Z" fill="#292D32" stroke="white" stroke-width="2"/>
<path d="M7.46162 5.81277V4.5061C7.19939 4.93277 6.92828 5.39055 6.68384 5.80833H7.46162V5.81277Z" fill="white"/>
</svg>
