<svg width="12" height="12" viewBox="0 0 12 12" fill="none" xmlns="http://www.w3.org/2000/svg">
<path d="M5.9975 8.75502C6.97934 8.75502 7.77528 7.95908 7.77528 6.97724C7.77528 5.9954 6.97934 5.19946 5.9975 5.19946C5.01566 5.19946 4.21973 5.9954 4.21973 6.97724C4.21973 7.95908 5.01566 8.75502 5.9975 8.75502Z" stroke="white" stroke-width="0.8" stroke-miterlimit="10" stroke-linecap="round" stroke-linejoin="round"/>
<path d="M6.47298 7.47049L5.53076 6.53271" stroke="white" stroke-width="0.8" stroke-miterlimit="10" stroke-linecap="round" stroke-linejoin="round"/>
<path d="M6.46395 6.5415L5.52173 7.48373" stroke="white" stroke-width="0.8" stroke-miterlimit="10" stroke-linecap="round" stroke-linejoin="round"/>
<path d="M4.21973 10.4439H7.77529C9.56195 10.4439 9.88195 9.72832 9.97529 8.85721L10.3086 5.30165C10.4286 4.21721 10.1175 3.33276 8.21973 3.33276H3.77529C1.87751 3.33276 1.5664 4.21721 1.6864 5.30165L2.01973 8.85721C2.11306 9.72832 2.43306 10.4439 4.21973 10.4439Z" stroke="white" stroke-width="0.8" stroke-miterlimit="10" stroke-linecap="round" stroke-linejoin="round"/>
<path d="M4.21973 3.33271V2.97715C4.21973 2.19049 4.21973 1.55493 5.64195 1.55493H6.35306C7.77528 1.55493 7.77528 2.19049 7.77528 2.97715V3.33271" stroke="white" stroke-width="0.8" stroke-miterlimit="10" stroke-linecap="round" stroke-linejoin="round"/>
<path d="M10.2862 5.55493C9.51732 6.11493 8.66399 6.50604 7.77954 6.72827" stroke="white" stroke-width="0.8" stroke-miterlimit="10" stroke-linecap="round" stroke-linejoin="round"/>
<path d="M1.82861 5.6748C2.57084 6.18147 3.37972 6.54147 4.21972 6.74592" stroke="white" stroke-width="0.8" stroke-miterlimit="10" stroke-linecap="round" stroke-linejoin="round"/>
</svg>
