<svg width="24" height="20" viewBox="0 0 24 20" fill="none" xmlns="http://www.w3.org/2000/svg">
<path d="M19 3.59576H17V2.81155C17 2.60357 16.8946 2.4041 16.7071 2.25703C16.5196 2.10997 16.2652 2.02734 16 2.02734C15.7348 2.02734 15.4804 2.10997 15.2929 2.25703C15.1054 2.4041 15 2.60357 15 2.81155V3.59576H9V2.81155C9 2.60357 8.89464 2.4041 8.70711 2.25703C8.51957 2.10997 8.26522 2.02734 8 2.02734C7.73478 2.02734 7.48043 2.10997 7.29289 2.25703C7.10536 2.4041 7 2.60357 7 2.81155V3.59576H5C4.20435 3.59576 3.44129 3.84362 2.87868 4.28482C2.31607 4.72603 2 5.32443 2 5.94838V15.3589C2 15.9828 2.31607 16.5812 2.87868 17.0224C3.44129 17.4636 4.20435 17.7115 5 17.7115H19C19.7956 17.7115 20.5587 17.4636 21.1213 17.0224C21.6839 16.5812 22 15.9828 22 15.3589V5.94838C22 5.32443 21.6839 4.72603 21.1213 4.28482C20.5587 3.84362 19.7956 3.59576 19 3.59576ZM20 15.3589C20 15.5668 19.8946 15.7663 19.7071 15.9134C19.5196 16.0605 19.2652 16.1431 19 16.1431H5C4.73478 16.1431 4.48043 16.0605 4.29289 15.9134C4.10536 15.7663 4 15.5668 4 15.3589V9.86941H20V15.3589ZM20 8.301H4V5.94838C4 5.74039 4.10536 5.54093 4.29289 5.39386C4.48043 5.24679 4.73478 5.16417 5 5.16417H7V5.94838C7 6.15636 7.10536 6.35583 7.29289 6.5029C7.48043 6.64996 7.73478 6.73259 8 6.73259C8.26522 6.73259 8.51957 6.64996 8.70711 6.5029C8.89464 6.35583 9 6.15636 9 5.94838V5.16417H15V5.94838C15 6.15636 15.1054 6.35583 15.2929 6.5029C15.4804 6.64996 15.7348 6.73259 16 6.73259C16.2652 6.73259 16.5196 6.64996 16.7071 6.5029C16.8946 6.35583 17 6.15636 17 5.94838V5.16417H19C19.2652 5.16417 19.5196 5.24679 19.7071 5.39386C19.8946 5.54093 20 5.74039 20 5.94838V8.301Z" fill="#0D5520"/>
</svg>
