<svg width="16" height="16" viewBox="0 0 16 16" fill="none" xmlns="http://www.w3.org/2000/svg">
<path d="M14.6473 12.2202C14.6473 12.4602 14.594 12.7068 14.4807 12.9468C14.3673 13.1868 14.2207 13.4135 14.0273 13.6268C13.7007 13.9868 13.3407 14.2468 12.934 14.4135C12.534 14.5802 12.1007 14.6668 11.634 14.6668C10.954 14.6668 10.2273 14.5068 9.46065 14.1802C8.69398 13.8535 7.92732 13.4135 7.16732 12.8602C6.40065 12.3002 5.67398 11.6802 4.98065 10.9935C4.29398 10.3002 3.67398 9.5735 3.12065 8.8135C2.57398 8.0535 2.13398 7.2935 1.81398 6.54016C1.49398 5.78016 1.33398 5.0535 1.33398 4.36016C1.33398 3.90683 1.41398 3.4735 1.57398 3.0735C1.73398 2.66683 1.98732 2.2935 2.34065 1.96016C2.76732 1.54016 3.23398 1.3335 3.72732 1.3335C3.91398 1.3335 4.10065 1.3735 4.26732 1.4535C4.44065 1.5335 4.59398 1.6535 4.71398 1.82683L6.26065 4.00683C6.38065 4.1735 6.46732 4.32683 6.52732 4.4735C6.58732 4.6135 6.62065 4.7535 6.62065 4.88016C6.62065 5.04016 6.57398 5.20016 6.48065 5.3535C6.39398 5.50683 6.26732 5.66683 6.10732 5.82683L5.60065 6.3535C5.52732 6.42683 5.49398 6.5135 5.49398 6.62016C5.49398 6.6735 5.50065 6.72016 5.51398 6.7735C5.53398 6.82683 5.55398 6.86683 5.56732 6.90683C5.68732 7.12683 5.89398 7.4135 6.18732 7.76016C6.48732 8.10683 6.80732 8.46016 7.15398 8.8135C7.51398 9.16683 7.86065 9.4935 8.21398 9.7935C8.56065 10.0868 8.84732 10.2868 9.07398 10.4068C9.10732 10.4202 9.14732 10.4402 9.19398 10.4602C9.24732 10.4802 9.30065 10.4868 9.36065 10.4868C9.47398 10.4868 9.56065 10.4468 9.63398 10.3735L10.1407 9.8735C10.3073 9.70683 10.4673 9.58016 10.6207 9.50016C10.774 9.40683 10.9273 9.36016 11.094 9.36016C11.2207 9.36016 11.354 9.38683 11.5007 9.44683C11.6473 9.50683 11.8007 9.5935 11.9673 9.70683L14.174 11.2735C14.3473 11.3935 14.4673 11.5335 14.5407 11.7002C14.6073 11.8668 14.6473 12.0335 14.6473 12.2202Z" stroke="#0D5520" stroke-width="1.5" stroke-miterlimit="10"/>
<path d="M12.3333 6.00033C12.3333 5.60033 12.02 4.98699 11.5533 4.48699C11.1267 4.02699 10.56 3.66699 10 3.66699" stroke="#0D5520" stroke-width="1.5" stroke-linecap="round" stroke-linejoin="round"/>
<path d="M14.6667 6.00016C14.6667 3.42016 12.58 1.3335 10 1.3335" stroke="#0D5520" stroke-width="1.5" stroke-linecap="round" stroke-linejoin="round"/>
</svg>
