<svg width="25" height="24" viewBox="0 0 25 24" fill="none" xmlns="http://www.w3.org/2000/svg">
<g clip-path="url(#clip0_3422_50692)">
<path d="M15.4796 5C16.4661 5.19057 17.3727 5.66826 18.0835 6.37194C18.7942 7.07561 19.2766 7.97326 19.4691 8.95M15.4796 1C17.5292 1.22544 19.4404 2.13417 20.8995 3.57701C22.3586 5.01984 23.2788 6.91101 23.5091 8.94M22.4991 16.92V19.92C22.5003 20.1985 22.4426 20.4742 22.3299 20.7293C22.2173 20.9845 22.052 21.2136 21.8447 21.4019C21.6374 21.5901 21.3927 21.7335 21.1263 21.8227C20.8598 21.9119 20.5775 21.9451 20.2973 21.92C17.1894 21.5856 14.204 20.5341 11.581 18.85C9.14067 17.3147 7.0717 15.2662 5.52101 12.85C3.81409 10.2412 2.75183 7.27099 2.42031 4.18C2.39507 3.90347 2.42826 3.62476 2.51777 3.36162C2.60728 3.09849 2.75115 2.85669 2.94022 2.65162C3.12929 2.44655 3.35941 2.28271 3.61594 2.17052C3.87246 2.05833 4.14977 2.00026 4.43021 2H7.46021C7.95037 1.99522 8.42556 2.16708 8.79721 2.48353C9.16886 2.79999 9.41161 3.23945 9.48021 3.72C9.6081 4.68007 9.84527 5.62273 10.1872 6.53C10.3231 6.88792 10.3525 7.27691 10.272 7.65088C10.1914 8.02485 10.0043 8.36811 9.73271 8.64L8.45001 9.91C9.8878 12.4135 11.9814 14.4864 14.51 15.91L15.7927 14.64C16.0673 14.3711 16.414 14.1858 16.7917 14.1061C17.1694 14.0263 17.5623 14.0555 17.9238 14.19C18.8402 14.5286 19.7922 14.7634 20.7619 14.89C21.2525 14.9585 21.7006 15.2032 22.0209 15.5775C22.3412 15.9518 22.5114 16.4296 22.4991 16.92Z" stroke="white" stroke-width="2" stroke-linecap="round" stroke-linejoin="round"/>
</g>
<defs>
<clipPath id="clip0_3422_50692">
<rect width="24.24" height="24" fill="white" transform="translate(0.279297)"/>
</clipPath>
</defs>
</svg>
