<svg width="118" height="48" viewBox="0 0 118 48" fill="none" xmlns="http://www.w3.org/2000/svg">
<path d="M117.373 35.5877C117.373 34.6882 117.373 33.8402 117.373 32.0671C117.43 31.0146 117.24 29.9633 116.818 28.9973C116.397 28.0312 115.755 27.1772 114.944 26.5034C113.758 25.4858 112.466 24.5984 111.09 23.8566C107.296 21.948 103.168 20.7958 98.9346 20.4644C98.4271 20.4629 97.93 20.3203 97.4989 20.0526C97.0678 19.7848 96.7196 19.4025 96.4933 18.9482C95.9536 18.036 95.4268 17.1108 94.9 16.1729C93.3069 13.1958 91.517 10.3284 89.542 7.58975C83.1175 -0.864873 65.9384 -0.119633 59.3983 0.137347C59.2878 0.146568 59.1804 0.178759 59.0831 0.23186C58.9857 0.284962 58.9005 0.357803 58.8329 0.445722L58.6916 0.587061L58.5117 0.754097V15.5947H61.4156V2.98982C72.2601 2.87418 82.6549 2.89988 87.7945 10.3137C87.8546 10.3921 87.9103 10.4736 87.9616 10.5579H85.5845C85.3132 10.5483 85.0429 10.5957 84.791 10.6972C84.5392 10.7986 84.3115 10.9518 84.1225 11.1467C83.9336 11.3417 83.7877 11.5742 83.6943 11.8291C83.6008 12.084 83.5619 12.3557 83.5801 12.6266C83.5801 14.3226 83.5801 16.3399 83.5801 18.3957C83.5615 18.6783 83.6051 18.9616 83.7077 19.2255C83.8102 19.4895 83.9694 19.7278 84.1738 19.9237C84.3783 20.1196 84.6232 20.2684 84.8914 20.3596C85.1595 20.4508 85.4443 20.4822 85.7258 20.4516H92.9084C93.2111 20.4444 93.5105 20.388 93.795 20.2845C94.3358 21.3018 95.1541 22.1448 96.1548 22.7157C97.1555 23.2865 98.2976 23.5618 99.4486 23.5096C99.6794 23.4888 99.9116 23.4888 100.142 23.5096C100.631 23.5867 101.068 23.651 101.504 23.7409C105.16 24.3032 108.66 25.6156 111.784 27.5956C112.536 28.0243 113.176 28.625 113.652 29.3486C114.127 30.0721 114.425 30.898 114.52 31.7587C114.52 32.0671 114.52 32.7223 114.52 32.7223V36.8597V37.3737C114.52 38.6586 114.238 38.877 113.094 38.9413L110.1 39.0569C109.085 34.7011 105.989 30.8464 100.399 30.8464C94.0905 30.8464 90.904 35.6391 90.39 40.5345C90.3681 40.7157 90.3851 40.8995 90.4398 41.0737C90.4944 41.2478 90.5856 41.4083 90.7072 41.5445C90.8288 41.6807 90.9779 41.7894 91.1448 41.8634C91.3117 41.9373 91.4924 41.9749 91.6749 41.9736C91.9886 41.9763 92.2925 41.8641 92.5292 41.6581C92.7659 41.4522 92.919 41.1668 92.9598 40.8558C92.8827 41.6138 93.4738 33.5704 100.335 33.5704C107.492 33.5704 107.813 42.2691 107.813 42.025H110.383C111.912 42.025 113.39 41.9222 113.518 41.9094C116.165 41.7423 117.296 41.0999 117.373 37.4765C117.411 36.8475 117.411 36.2167 117.373 35.5877ZM85.8415 18.1645V12.7679H86.4582C87.4219 12.7679 88.3213 12.7679 89.2465 12.7679C89.3494 12.7804 89.447 12.8203 89.5291 12.8835L90.1459 13.8729L92.5101 18.1645H85.8415Z" fill="#30342D"/>
<path d="M100.333 35.0352C99.2305 35.0504 98.1575 35.3911 97.2486 36.0144C96.3396 36.6378 95.6352 37.5159 95.224 38.5385C94.8127 39.561 94.713 40.6823 94.9373 41.7614C95.1616 42.8405 95.6999 43.8292 96.4845 44.6032C97.2692 45.3772 98.2652 45.9019 99.3472 46.1114C100.429 46.3209 101.549 46.2058 102.566 45.7806C103.583 45.3554 104.451 44.639 105.062 43.7216C105.673 42.8042 105.999 41.7267 105.999 40.6245C105.985 39.133 105.382 37.7075 104.32 36.6601C103.258 35.6126 101.824 35.0284 100.333 35.0352ZM100.333 43.6697C99.7337 43.6546 99.1528 43.4632 98.6622 43.1195C98.1717 42.7758 97.7934 42.295 97.5747 41.7374C97.356 41.1798 97.3066 40.5701 97.4326 39.9846C97.5587 39.399 97.8546 38.8637 98.2834 38.4455C98.7122 38.0273 99.2548 37.7448 99.8433 37.6334C100.432 37.522 101.04 37.5867 101.592 37.8192C102.144 38.0518 102.615 38.442 102.946 38.941C103.278 39.44 103.455 40.0256 103.455 40.6245C103.453 41.0317 103.371 41.4345 103.213 41.8096C103.055 42.1848 102.824 42.525 102.533 42.8105C102.243 43.096 101.899 43.3212 101.521 43.4731C101.144 43.6249 100.74 43.7005 100.333 43.6954V43.6697Z" fill="#30342D"/>
<path d="M8.40323 24.126C7.42277 24.0726 6.44387 24.2561 5.54928 24.6609C4.6547 25.0657 3.87072 25.6799 3.26364 26.4517V17.9971H0V41.4208H3.28934V32.4907C3.18064 31.0578 3.64246 29.64 4.57424 28.5461C5.00625 28.1157 5.52264 27.7794 6.09094 27.5582C6.65924 27.3371 7.26714 27.236 7.87642 27.2612C8.38943 27.2343 8.90263 27.3103 9.38587 27.4846C9.8691 27.6589 10.3126 27.9281 10.6903 28.2763C11.0492 28.676 11.325 29.1432 11.5014 29.6505C11.6779 30.1579 11.7516 30.6954 11.7183 31.2315V41.3822H15.0076V31.103C15.0587 30.1693 14.925 29.2346 14.6141 28.3526C14.3032 27.4707 13.8212 26.6588 13.1959 25.9634C12.5704 25.3384 11.8205 24.8518 10.9949 24.5353C10.1692 24.2188 9.28625 24.0793 8.40323 24.126Z" fill="#30342D"/>
<path d="M30.5391 26.9918C29.8336 26.0783 28.9194 25.3473 27.8731 24.8599C26.8269 24.3725 25.679 24.1431 24.5258 24.1907C23.3955 24.1737 22.2743 24.3935 21.2342 24.8361C20.194 25.2787 19.2582 25.9343 18.4868 26.7605C17.6736 27.5889 17.0342 28.5715 16.6062 29.6505C16.1781 30.7295 15.97 31.8831 15.9941 33.0437C15.9707 34.2041 16.1792 35.3576 16.6072 36.4365C17.0352 37.5154 17.6742 38.498 18.4868 39.3268C19.2601 40.1505 20.1964 40.8044 21.236 41.2468C22.2757 41.6892 23.396 41.9105 24.5258 41.8966C25.68 41.9417 26.8281 41.7098 27.8743 41.2202C28.9205 40.7307 29.8342 39.9977 30.5391 39.0827V41.4598H33.8156V24.5505H30.5391V26.9918ZM24.8856 38.7358C24.1422 38.751 23.4037 38.6128 22.7162 38.3298C22.0286 38.0468 21.4068 37.6251 20.8895 37.0911C19.8576 35.9987 19.2827 34.5529 19.2827 33.0501C19.2827 31.5474 19.8576 30.1015 20.8895 29.0091C21.4074 28.4768 22.0297 28.0571 22.7173 27.7763C23.4049 27.4955 24.143 27.3597 24.8856 27.3773C25.6341 27.3574 26.3787 27.4921 27.0729 27.7728C27.767 28.0536 28.3959 28.4744 28.9201 29.0091C29.9578 30.0986 30.5367 31.5455 30.5367 33.0501C30.5367 34.5547 29.9578 36.0016 28.9201 37.0911C28.3911 37.6159 27.7602 38.0268 27.0663 38.2986C26.3724 38.5704 25.6303 38.6973 24.8856 38.6715V38.7358Z" fill="#30342D"/>
<path d="M47.4565 33.4798C47.568 34.9131 47.1058 36.3319 46.1716 37.4245C45.7396 37.8549 45.2232 38.1912 44.6549 38.4123C44.0866 38.6334 43.4787 38.7346 42.8694 38.7094C42.3504 38.7363 41.8312 38.658 41.3432 38.4791C40.8553 38.3003 40.4085 38.0246 40.0298 37.6686C39.6703 37.2693 39.3942 36.8022 39.2177 36.2947C39.0411 35.7872 38.9678 35.2496 39.0018 34.7133V24.5498H35.7382V34.829C35.6847 35.7619 35.816 36.6963 36.1248 37.5783C36.4335 38.4603 36.9134 39.2726 37.5371 39.9686C38.1613 40.5994 38.9094 41.094 39.7343 41.4213C40.5591 41.7486 41.4429 41.9015 42.3297 41.8702C43.3114 41.9232 44.2914 41.7382 45.1862 41.3311C46.0811 40.9239 46.8643 40.3066 47.4693 39.5317V41.4334H50.7587V24.5498H47.4565V33.4798Z" fill="#30342D"/>
<path d="M56.3011 16.9824H53.0117V41.434H56.3011V16.9824Z" fill="#30342D"/>
<path d="M61.8909 24.5498H58.6016V41.4205H61.8909V24.5498Z" fill="#30342D"/>
<path d="M60.2592 17.7015C59.9737 17.6965 59.6902 17.7511 59.427 17.8617C59.1637 17.9723 58.9264 18.1365 58.7301 18.3439C58.532 18.5432 58.3754 18.7798 58.2695 19.0401C58.1637 19.3004 58.1106 19.5791 58.1134 19.8601C58.1151 20.1402 58.1719 20.4172 58.2807 20.6754C58.3894 20.9335 58.5479 21.1677 58.7472 21.3646C58.9464 21.5614 59.1825 21.7171 59.4419 21.8228C59.7014 21.9284 59.9791 21.9819 60.2592 21.9802C60.5384 21.9842 60.8156 21.9316 61.0739 21.8256C61.3323 21.7196 61.5665 21.5624 61.7625 21.3634C61.9609 21.167 62.1177 20.9327 62.2236 20.6744C62.3296 20.4162 62.3825 20.1392 62.3792 19.8601C62.3821 19.5791 62.329 19.3004 62.2231 19.0401C62.1172 18.7798 61.9606 18.5432 61.7625 18.3439C61.5706 18.1379 61.3377 17.9742 61.0788 17.8636C60.8199 17.7529 60.5407 17.6977 60.2592 17.7015Z" fill="#30342D"/>
<path d="M67.376 19.0769C66.7118 19.7502 66.1969 20.5558 65.8648 21.4414C65.5327 22.3269 65.391 23.2725 65.4487 24.2165V24.4992H62.8789V27.6857H65.4487V41.4213H68.7252V27.7371H73.0681V24.5506H68.7252V24.2679C68.6821 23.7616 68.7456 23.2519 68.9116 22.7716C69.0776 22.2914 69.3423 21.8513 69.6889 21.4797C70.1353 21.1432 70.6469 20.9033 71.191 20.775C71.7351 20.6467 72.3 20.6329 72.8497 20.7344H73.0681V17.5479H72.8754C71.9029 17.4126 70.913 17.4785 69.967 17.7415C69.021 18.0045 68.1392 18.4591 67.376 19.0769Z" fill="#30342D"/>
<path d="M86.7092 24.5498L81.9936 36.8077L76.7126 24.6783V24.5498H73.1406L80.4003 41.125L80.1305 41.6775C79.2182 43.9903 77.8305 45.0696 75.916 44.9026H75.6847V47.9992H76.3786C77.8304 48.0112 79.2434 47.5311 80.3875 46.6372C81.7802 45.4976 82.8224 43.9877 83.3941 42.2814L90.2298 24.5498H86.7092Z" fill="#30342D"/>
</svg>
