<svg width="15" height="14" viewBox="0 0 15 14" fill="none" xmlns="http://www.w3.org/2000/svg">
<path d="M7.4999 2.5763L6.82771 1.88536C5.2499 0.263483 2.35678 0.823171 1.3124 2.86223C0.822089 3.8213 0.711464 5.20598 1.60678 6.97317C2.46928 8.67473 4.26365 10.7129 7.4999 12.9329C10.7362 10.7129 12.5296 8.67473 13.393 6.97317C14.2883 5.20505 14.1787 3.8213 13.6874 2.86223C12.643 0.823171 9.7499 0.262546 8.17209 1.88442L7.4999 2.5763ZM7.4999 14.0625C-6.87479 4.5638 3.07396 -2.84995 7.3349 1.07161C7.39115 1.12317 7.44646 1.17661 7.4999 1.23192C7.5528 1.17666 7.60784 1.12349 7.6649 1.07255C11.9249 -2.85183 21.8746 4.56286 7.4999 14.0625Z" fill="#f5f5f5"/>
</svg>
