<svg width="24" height="24" viewBox="0 0 24 24" fill="none" xmlns="http://www.w3.org/2000/svg">
<path d="M10 9V14C10 14.5304 10.2107 15.0391 10.5858 15.4142C10.9609 15.7893 11.4696 16 12 16C12.5304 16 13.0391 15.7893 13.4142 15.4142C13.7893 15.0391 14 14.5304 14 14V7C14 5.93913 13.5786 4.92172 12.8284 4.17157C12.0783 3.42143 11.0609 3 10 3C8.93913 3 7.92172 3.42143 7.17157 4.17157C6.42143 4.92172 6 5.93913 6 7V15C6 16.5913 6.63214 18.1174 7.75736 19.2426C8.88258 20.3679 10.4087 21 12 21C13.5913 21 15.1174 20.3679 16.2426 19.2426C17.3679 18.1174 18 16.5913 18 15V5" stroke="#1C1D36" stroke-width="2" stroke-linecap="round" stroke-linejoin="round"/>
</svg>
