<svg width="24" height="24"  viewBox="0 0 24 24" fill="none" xmlns="http://www.w3.org/2000/svg">
<path d="M9.69928 19.039L9.69931 19.039L9.69564 19.0343C9.55281 18.8494 9.35354 18.7065 9.16111 18.6103C8.96956 18.5145 8.73469 18.44 8.5 18.44H7C4.51418 18.44 2.5 16.4319 2.5 13.96V12.96V6.98C2.5 4.5081 4.51418 2.5 7 2.5H17C19.4858 2.5 21.5 4.5081 21.5 6.98V13.96C21.5 16.4319 19.4858 18.44 17 18.44H15.5C15.0314 18.44 14.585 18.6649 14.3019 19.0375L14.3007 19.039L12.8007 21.029L12.8 21.03C12.5506 21.3626 12.2559 21.49 12 21.49C11.7441 21.49 11.4494 21.3626 11.2 21.03L11.1993 21.029L9.69928 19.039ZM6.5 11C6.5 11.8229 7.1606 12.5 8 12.5C8.8394 12.5 9.5 11.8229 9.5 11C9.5 10.1739 8.82614 9.5 8 9.5C7.17386 9.5 6.5 10.1739 6.5 11ZM10.5 11C10.5 11.8229 11.1606 12.5 12 12.5C12.8394 12.5 13.5 11.8229 13.5 11C13.5 10.1739 12.8261 9.5 12 9.5C11.1739 9.5 10.5 10.1739 10.5 11ZM14.5 11C14.5 11.8229 15.1606 12.5 16 12.5C16.8394 12.5 17.5 11.8229 17.5 11C17.5 10.1739 16.8261 9.5 16 9.5C15.1739 9.5 14.5 10.1739 14.5 11Z" fill="white" stroke="white"/>
</svg>
