<svg width="116" height="48" viewBox="0 0 116 48" fill="none" xmlns="http://www.w3.org/2000/svg">
<g opacity="0.3" clip-path="url(#clip0_4322_10112)">
<path d="M20.1055 0.905273V42.1128C20.1055 42.6562 19.6527 43.109 19.1093 43.109H15.3961C14.8527 43.109 14.3999 42.6562 14.3999 42.1128V5.70527C14.3999 3.07886 12.2263 0.905273 9.59987 0.905273H5.79609C3.16968 0.905273 0.996094 3.07886 0.996094 5.70527V46.8223H4.79987V5.70527C4.79987 5.16188 5.2527 4.70905 5.79609 4.70905H9.59987C10.1433 4.70905 10.5961 5.16188 10.5961 5.70527V42.0223C10.5961 44.6487 12.7697 46.8223 15.3961 46.8223H19.1999C21.8263 46.8223 23.9999 44.6487 23.9999 42.0223V0.905273H20.1055Z" fill="#30342D"/>
<path d="M35.4121 23.1843V9.87109H37.4951L43.4725 19.1994C43.7442 19.6522 43.9253 20.0145 44.0159 20.1956V9.87109H46.0083V23.1843H43.9253L38.0385 13.856C37.7668 13.4032 37.5857 13.0409 37.4951 12.8598V23.1843H35.4121Z" fill="#30342D"/>
<path d="M59.6831 13.6748L61.4944 16.5729L63.3963 13.6748H65.6604L62.6717 18.1125L65.9321 23.1842H63.668L61.4944 19.6522L59.3208 23.1842H57.0566L60.4982 18.1125L57.5095 13.6748H59.6831Z" fill="#30342D"/>
<path d="M77.3439 21.6451C78.159 21.6451 78.8835 21.3734 79.5175 20.7394C80.1515 20.1055 80.4232 19.3809 80.4232 18.4753C80.4232 17.5696 80.1515 16.7545 79.5175 16.2111C78.8835 15.5772 78.159 15.3055 77.3439 15.3055C76.5288 15.3055 75.8043 15.5772 75.1703 16.2111C74.5364 16.8451 74.2647 17.5696 74.2647 18.4753C74.2647 19.3809 74.5364 20.196 75.1703 20.7394C75.7137 21.3734 76.4382 21.6451 77.3439 21.6451ZM82.325 18.4753C82.325 20.0149 81.8722 21.1923 80.7854 22.0979C79.7892 23.0036 78.6118 23.4564 77.2533 23.4564C75.8949 23.4564 74.7175 23.0036 73.7213 22.0979C72.725 21.1923 72.1816 20.0149 72.1816 18.4753C72.1816 16.9357 72.725 15.7583 73.7213 14.8526C74.7175 13.947 75.8949 13.4941 77.2533 13.4941C78.6118 13.4941 79.7892 13.947 80.7854 14.8526C81.8722 15.6677 82.325 16.9357 82.325 18.4753Z" fill="#30342D"/>
<path d="M85.5855 15.305V13.7654H83.6836V23.1842H85.5855V18.2031C85.5855 16.4824 86.4006 15.3956 88.6647 15.4861V13.6748C87.0345 13.6748 85.9477 14.1276 85.5855 15.305Z" fill="#30342D"/>
<path d="M83.773 30.2484V28.7087H81.8711V38.1276H83.773V33.1465C83.773 31.4257 84.5881 30.3389 86.8522 30.4295V28.6182C85.3126 28.6182 84.2258 29.071 83.773 30.2484Z" fill="#30342D"/>
<path d="M93.8261 21.6447C94.6412 21.6447 95.3657 21.373 95.9091 20.739C96.4525 20.1051 96.7242 19.3805 96.7242 18.4749C96.7242 17.5692 96.4525 16.7541 95.9091 16.2107C95.3657 15.5768 94.6412 15.3051 93.8261 15.3051C93.011 15.3051 92.2865 15.5768 91.7431 16.2107C91.1997 16.8447 90.928 17.5692 90.928 18.4749C90.928 19.3805 91.1997 20.1956 91.7431 20.739C92.2865 21.373 93.011 21.6447 93.8261 21.6447ZM98.5356 9.87109V23.1843H96.6337V21.6447C95.9091 22.822 94.9129 23.456 93.5544 23.456C92.1959 23.456 91.1091 23.0032 90.294 22.0975C89.3884 21.1918 88.9355 20.0145 88.9355 18.4749C88.9355 17.0258 89.3884 15.8485 90.294 14.8522C91.1997 13.9466 92.2865 13.4937 93.4638 13.4937C95.0035 13.4937 95.9997 14.0371 96.6337 15.2145V9.87109H98.5356Z" fill="#30342D"/>
<path d="M46.0989 24.8145V33.4182C46.0989 34.9579 45.7366 36.2258 44.7404 37.1314C43.7442 38.0371 42.2951 38.4899 40.7555 38.4899C39.2159 38.4899 37.7668 38.0371 36.7706 37.1314C35.7744 36.2258 35.4121 35.0484 35.4121 33.4182V24.8145H37.4046V33.3277C37.4046 35.2295 38.7631 36.4975 40.7555 36.4975C42.748 36.4975 44.1065 35.2295 44.1065 33.3277V24.8145H46.0989Z" fill="#30342D"/>
<path d="M56.2422 38.1278H54.3403V32.241C54.3403 31.0637 53.8875 30.2486 52.4385 30.2486C51.08 30.2486 49.812 31.6071 49.812 33.3278V38.1278H47.9102V28.6184H49.812V30.2486C50.446 28.9806 51.7139 28.3467 53.0724 28.3467C54.8837 28.3467 56.3328 29.7052 56.3328 31.6976V38.1278H56.2422Z" fill="#30342D"/>
<path d="M58.1426 28.6182H60.135V38.1276H58.1426V33.4182V28.6182Z" fill="#30342D"/>
<path d="M70.8232 28.6182L67.0194 38.1276H65.2081L61.4043 28.6182H63.4873L66.1137 35.6823L68.7401 28.6182H70.8232Z" fill="#30342D"/>
<path d="M96.6348 28.6182H98.5367V38.1276H96.6348V33.237V28.6182Z" fill="#30342D"/>
<path d="M103.608 36.2263C103.336 36.2263 103.155 35.9546 103.155 35.6829V30.3395H105.51V28.7093H103.155V24.9961H101.253V28.7093H99.8945V30.3395H101.253V35.6829C101.253 37.0414 102.34 38.1282 103.698 38.1282H105.6V36.2263H103.608Z" fill="#30342D"/>
<path d="M70.1885 11.6822H72.0904V9.78027H70.1885C68.83 9.78027 67.7433 10.8671 67.7433 12.2256V13.6746H66.3848V15.3954H67.7433V23.0029V23.184H69.6451V23.0029V15.3954H71.9999V13.7652H69.6451V12.3161C69.6451 11.9539 69.9168 11.6822 70.1885 11.6822Z" fill="#30342D"/>
<path d="M58.1426 27.0791H60.135V24.9961H58.1426V25.9923V27.0791Z" fill="#30342D"/>
<path d="M96.6348 27.0791H98.5367V24.9961H96.6348V25.9923V27.0791Z" fill="#30342D"/>
<path d="M113.751 28.6182L111.125 35.4106L108.499 28.6182H106.234L110.038 38.1276L109.585 39.2144C109.132 40.3012 108.77 40.3012 107.412 40.3012V42.1125H108.68C109.857 42.1125 110.763 41.388 111.306 40.0295L115.834 28.7087H113.751V28.6182Z" fill="#30342D"/>
<path d="M56.9665 18.2033C56.9665 16.8448 56.5136 15.6675 55.6985 14.7618C54.8834 13.8561 53.7061 13.4033 52.3476 13.4033C50.9891 13.4033 49.8117 13.8561 48.9061 14.8524C48.0004 15.758 47.457 17.026 47.457 18.475C47.457 19.9241 47.9099 21.1014 48.8155 22.0977C49.7212 23.0033 50.8985 23.5467 52.1665 23.5467C54.1589 23.5467 55.8797 22.4599 56.6948 20.4675H54.7023C54.1589 21.3731 53.4344 21.826 52.1665 21.826C50.5363 21.826 49.3589 20.6486 49.2684 18.9278H56.7853V18.2033H56.9665ZM49.4495 17.3882C49.6306 16.6637 49.9929 16.1203 50.5363 15.6675C51.5325 14.7618 53.1627 14.8524 54.1589 15.6675C54.7023 16.1203 54.974 16.6637 55.0646 17.3882H49.4495Z" fill="#30342D"/>
<path d="M80.5133 33.1467C80.5133 31.7882 80.0605 30.6108 79.2454 29.7052C78.4303 28.7995 77.253 28.3467 75.8945 28.3467C74.536 28.3467 73.3586 28.7995 72.453 29.7957C71.5473 30.7014 71.0039 31.9693 71.0039 33.4184C71.0039 34.8674 71.4567 36.0448 72.3624 37.041C73.2681 37.9467 74.4454 38.4901 75.7133 38.4901C77.7058 38.4901 79.4265 37.4033 80.2416 35.4108H78.2492C77.7058 36.3165 76.9813 36.7693 75.7133 36.7693C74.0831 36.7693 72.9058 35.592 72.8152 33.8712H80.3322V33.1467H80.5133ZM72.9964 32.3316C73.1775 31.6071 73.5398 31.0637 74.0832 30.6108C75.0794 29.7052 76.7096 29.7957 77.7058 30.6108C78.2492 31.0637 78.5209 31.6071 78.6115 32.3316H72.9964Z" fill="#30342D"/>
<path d="M91.1085 28.4375C90.2028 28.4375 89.3877 28.7092 88.7537 29.162C88.1198 29.6149 87.7575 30.2488 87.7575 31.0639C87.7575 32.513 88.8443 33.5092 91.0179 33.962C92.5575 34.2337 93.282 34.6866 93.282 35.4111C93.282 36.2262 92.467 36.7696 91.4707 36.7696C90.3839 36.7696 89.6594 36.2262 89.2066 35.3205H87.3047C87.667 37.2224 89.2971 38.3998 91.3802 38.3998C93.6443 38.3998 95.0028 37.0413 95.0028 35.3205C95.0028 33.7809 94.0066 32.8752 91.833 32.4224C90.2934 32.1507 89.4783 31.6979 89.4783 30.8828C89.4783 30.2488 90.2028 29.796 91.1085 29.796C92.1047 29.796 93.0103 30.2488 93.1009 31.1545H94.8217C94.8217 29.3432 93.0103 28.4375 91.1085 28.4375Z" fill="#30342D"/>
</g>
<defs>
<clipPath id="clip0_4322_10112">
<rect width="115.925" height="48" fill="white"/>
</clipPath>
</defs>
</svg>
