<svg width="221" height="48" viewBox="0 0 221 48" fill="none" xmlns="http://www.w3.org/2000/svg">
<g opacity="0.3" clip-path="url(#clip0_4322_10134)">
<path d="M71.0574 12.1634V14.528C72.7137 12.6701 75.0327 11.6567 77.8487 11.6567C79.8364 11.6567 81.6585 12.1634 83.1494 13.1768C84.8057 14.1902 85.9652 15.5414 86.9591 17.2304C87.953 18.9193 88.2842 20.9462 88.2842 23.1419C88.2842 25.5065 87.7873 27.5332 86.7935 29.2224C85.7996 30.9113 84.6401 32.2625 82.9836 33.107C81.3273 33.9515 79.6708 34.4582 77.6831 34.4582C74.7015 34.4582 72.5481 33.6137 70.8916 31.7558V43.7477H65.2598V12.1634H71.0574ZM76.8548 29.0534C78.6769 29.0534 80.002 28.5467 81.1615 27.3645C82.321 26.1821 82.818 24.6621 82.818 22.9729C82.818 21.284 82.321 19.7638 81.1615 18.5816C80.002 17.3993 78.6769 16.8926 76.8548 16.8926C75.0327 16.8926 73.7076 17.3993 72.5481 18.5816C71.3886 19.7638 70.8916 21.115 70.8916 22.9729C70.8916 24.8309 71.3886 26.1821 72.5481 27.3645C73.542 28.5467 75.0327 29.0534 76.8548 29.0534ZM100.708 34.4582C99.0511 34.4582 97.3946 33.9515 95.7383 33.107C94.0818 32.0936 92.9223 30.9113 91.9284 29.0534C90.9346 27.3645 90.4377 25.3376 90.4377 22.9729C90.4377 20.9462 90.9346 18.9193 91.9284 17.2304C92.9223 15.5414 94.2474 14.0213 95.7383 13.0079C97.3946 11.9945 99.2167 11.4878 101.039 11.4878C102.364 11.4878 103.689 11.6567 104.849 12.1634C106.008 12.6701 106.836 13.1768 107.499 14.0213V12.1634H113.131V33.7827H107.499V31.7558C106.671 32.6003 105.677 33.276 104.683 33.6137C103.523 34.1205 102.198 34.4582 100.708 34.4582ZM101.867 29.0534C103.689 29.0534 105.014 28.5467 106.008 27.3645C107.002 26.1821 107.665 24.6621 107.665 22.9729C107.665 21.284 107.168 19.7638 106.008 18.5816C105.014 17.3993 103.523 16.8926 101.867 16.8926C100.211 16.8926 98.7199 17.3993 97.726 18.5816C96.7321 19.7638 96.0695 21.284 96.0695 22.9729C96.0695 24.6621 96.5665 26.1821 97.726 27.3645C98.8855 28.5467 100.045 29.0534 101.867 29.0534ZM122.904 12.1634V14.8658C123.732 13.8524 124.726 13.0079 125.886 12.5012C127.211 11.8256 128.536 11.6567 129.861 11.6567C132.18 11.6567 134.002 12.3323 135.327 13.5146C136.652 14.6969 137.315 16.5549 137.315 19.0883V33.7827H131.683V21.115C131.683 19.7638 131.352 18.5816 130.523 17.9061C129.861 17.2304 128.867 16.8926 127.542 16.8926C126.217 16.8926 124.892 17.3993 124.063 18.4126C123.235 19.4261 122.738 20.7773 122.738 22.6352V33.7827H117.106V12.1634H122.904ZM149.573 34.4582C147.75 34.4582 146.094 33.7825 144.934 32.6003C143.609 31.4181 142.947 29.5601 142.947 27.1955V17.0614H139.468V12.1634H142.947V8.44755L148.579 5.74515V11.9945H154.376V16.8926H148.579V26.6888C148.579 27.5333 148.744 28.2089 149.241 28.7157C149.738 29.2224 150.235 29.3912 150.898 29.3912C151.892 29.3912 153.051 28.8845 154.211 28.04H154.873L154.542 33.107C153.548 33.6137 152.72 33.7827 152.057 33.9515C151.395 34.2893 150.566 34.4582 149.573 34.4582ZM157.689 2.19824H163.321V14.8658C164.15 13.8524 165.143 13.0079 166.302 12.5012C167.628 11.8256 168.953 11.6567 170.444 11.6567C172.763 11.6567 174.75 12.3323 176.076 13.5146C177.401 14.6969 178.228 16.5549 178.228 19.0883V33.7827H172.598V21.115C172.598 19.7638 172.265 18.5816 171.438 17.9061C170.775 17.2304 169.782 16.8926 168.455 16.8926C166.966 16.8926 165.806 17.3993 164.812 18.4126C163.819 19.4261 163.321 20.7773 163.321 22.6352V33.7827H157.689V2.19824ZM192.806 34.4582C190.486 34.4582 188.499 33.9515 186.843 32.938C185.02 31.9248 183.695 30.5736 182.702 28.7157C181.708 26.8577 181.211 24.9998 181.211 22.8041C181.211 20.7773 181.708 18.7505 182.702 17.0614C183.695 15.3725 185.02 14.0213 186.676 13.0079C188.334 11.9945 190.321 11.4878 192.475 11.4878C194.628 11.4878 196.615 11.9945 198.107 13.0079C199.763 14.0213 200.923 15.3725 201.75 17.0614C202.579 18.7505 203.076 20.6085 203.076 22.6352V24.3241H186.676C187.007 26.0133 187.836 27.1955 188.83 28.04C189.99 28.8845 191.481 29.3912 193.302 29.3912C196.118 29.3912 198.603 28.3777 200.756 26.52H201.419L201.254 31.9248C199.929 32.7693 198.603 33.276 197.113 33.6137C195.455 34.2892 194.131 34.4582 192.806 34.4582ZM197.113 20.4395C196.947 19.0883 196.449 18.0749 195.455 17.3993C194.462 16.5549 193.468 16.2169 191.977 16.2169C190.652 16.2169 189.492 16.5549 188.499 17.2304C187.505 17.9061 186.843 18.9193 186.511 20.2705H197.113V20.4395ZM205.892 12.1634H211.523V14.3591C212.187 13.5146 213.014 12.839 214.007 12.3323C215.003 11.8256 215.996 11.6567 216.99 11.6567C217.819 11.6567 218.481 11.8256 218.977 11.9945C219.475 12.1634 219.971 12.3323 220.468 12.6701L220.799 18.7505H219.971C219.475 18.2438 218.977 17.7371 218.315 17.3993C217.652 17.0614 216.99 16.8926 216.327 16.8926C215.003 16.8926 213.843 17.3993 212.849 18.2438C212.02 19.0883 211.523 20.4395 211.523 22.1285V33.9515H205.892V12.1634Z" fill="#30342D"/>
<path d="M0 30.067C0 25.169 2.31901 21.4531 6.46011 21.4531C15.0736 21.4531 29.6502 39.1877 23.1901 45.6059C17.0613 52.024 0 45.0992 0 30.067Z" fill="#30342D"/>
<path d="M16.3988 15.0321C12.4234 19.7613 6.95717 18.4101 4.14122 15.5388C-1.65632 9.45842 4.14122 0 12.0921 0C19.7118 0 23.3559 6.75602 16.3988 15.0321Z" fill="#30342D"/>
<path d="M40.578 4.55975C33.621 4.39086 21.3633 9.45787 21.3633 18.7474C21.3633 33.2729 53.167 55.061 53.0014 21.6186C53.0014 9.12007 47.2038 4.72867 40.578 4.55975Z" fill="#30342D"/>
</g>
<defs>
<clipPath id="clip0_4322_10134">
<rect width="220.8" height="48" fill="white"/>
</clipPath>
</defs>
</svg>
