<svg width="25" height="24" viewBox="0 0 25 24" fill="none" xmlns="http://www.w3.org/2000/svg">
<path d="M21.4886 15.9999V7.9999C21.4882 7.64918 21.3947 7.30471 21.2174 7.00106C21.0402 6.69742 20.7854 6.44526 20.4786 6.2699L13.4086 2.2699C13.1015 2.09437 12.7532 2.00195 12.3986 2.00195C12.044 2.00195 11.6957 2.09437 11.3886 2.2699L4.31859 6.2699C4.01182 6.44526 3.75701 6.69742 3.57974 7.00106C3.40247 7.30471 3.30896 7.64918 3.30859 7.9999V15.9999C3.30896 16.3506 3.40247 16.6951 3.57974 16.9987C3.75701 17.3024 4.01182 17.5545 4.31859 17.7299L11.3886 21.7299C11.6957 21.9054 12.044 21.9979 12.3986 21.9979C12.7532 21.9979 13.1015 21.9054 13.4086 21.7299L20.4786 17.7299C20.7854 17.5545 21.0402 17.3024 21.2174 16.9987C21.3947 16.6951 21.4882 16.3506 21.4886 15.9999Z" stroke="white" stroke-width="2" stroke-linecap="round" stroke-linejoin="round"/>
<path d="M7.85352 4.20996L12.3985 6.80996L16.9435 4.20996" stroke="white" stroke-width="2" stroke-linecap="round" stroke-linejoin="round"/>
<path d="M7.85359 19.79V14.6L3.30859 12" stroke="white" stroke-width="2" stroke-linecap="round" stroke-linejoin="round"/>
<path d="M21.4884 12L16.9434 14.6V19.79" stroke="white" stroke-width="2" stroke-linecap="round" stroke-linejoin="round"/>
<path d="M3.58203 6.95996L12.3993 12.01L21.2166 6.95996" stroke="white" stroke-width="2" stroke-linecap="round" stroke-linejoin="round"/>
<path d="M12.3984 22.08V12" stroke="white" stroke-width="2" stroke-linecap="round" stroke-linejoin="round"/>
</svg>
