<svg width="172" height="48" viewBox="0 0 172 48" fill="none" xmlns="http://www.w3.org/2000/svg">
<g opacity="0.3" clip-path="url(#clip0_9477_32903)">
<path opacity="0.977" fill-rule="evenodd" clip-rule="evenodd" d="M166.309 -0.0683594C167.954 -0.0683594 169.6 -0.0683594 171.246 -0.0683594C171.246 11.9545 171.246 23.9773 171.246 36.0002C169.6 36.0002 167.954 36.0002 166.309 36.0002C166.309 23.9773 166.309 11.9545 166.309 -0.0683594Z" fill="#30342D"/>
<path opacity="0.98" fill-rule="evenodd" clip-rule="evenodd" d="M45.4883 2.26248C50.2886 2.23962 55.0886 2.26248 59.8883 2.33105C66.2353 3.12364 69.5723 6.71222 69.8997 13.0968C69.6235 19.2929 66.4235 22.8815 60.2997 23.8625C57.1457 23.9311 53.9914 23.954 50.8369 23.9311C50.8369 27.9539 50.8369 31.9768 50.8369 35.9996C49.054 35.9996 47.2711 35.9996 45.4883 35.9996C45.4883 24.7539 45.4883 13.5082 45.4883 2.26248ZM50.8369 6.92534C53.5343 6.90249 56.2315 6.92534 58.9283 6.99391C62.5609 7.40383 64.4809 9.43811 64.6883 13.0968C64.5319 16.5668 62.7491 18.6011 59.3397 19.1996C56.5058 19.2682 53.6715 19.2911 50.8369 19.2682C50.8369 15.1539 50.8369 11.0396 50.8369 6.92534Z" fill="#30342D"/>
<path opacity="0.98" fill-rule="evenodd" clip-rule="evenodd" d="M0.777344 16.8C0.777344 13.7372 0.777344 10.6742 0.777344 7.61139C3.82253 9.26262 6.81681 10.9998 9.7602 12.8228C15.6573 9.39425 21.5545 5.96568 27.4516 2.53711C27.5431 5.59996 27.5431 8.66283 27.4516 11.7257C21.6118 15.0684 15.7832 18.4284 9.96591 21.8057C12.8598 23.4925 15.7627 25.1612 18.6745 26.8114C24.5578 23.4469 30.432 20.064 36.2973 16.6628C36.4802 19.7256 36.4802 22.7886 36.2973 25.8514C30.4002 29.2343 24.5031 32.6171 18.6059 36C15.6802 34.3086 12.7545 32.6171 9.82877 30.9257C9.71452 27.9096 9.64595 24.8925 9.62306 21.8743C6.70052 20.1276 3.75194 18.4362 0.777344 16.8Z" fill="#30342D"/>
<path opacity="0.976" fill-rule="evenodd" clip-rule="evenodd" d="M96.6429 11.4515C102.267 10.9383 106.587 13.0412 109.603 17.76C111.706 21.9207 111.706 26.0806 109.603 30.24C106.34 35.2156 101.746 37.2498 95.82 36.3429C89.5232 34.6292 86.186 30.5149 85.8086 24C86.3122 17.1201 89.9237 12.9373 96.6429 11.4515ZM97.3286 16.3886C102.008 16.2014 104.819 18.3957 105.763 22.9715C106.1 26.3877 104.843 29.0162 101.991 30.8572C98.3179 32.47 95.1866 31.7614 92.5972 28.7315C90.6772 25.6229 90.6772 22.5144 92.5972 19.4058C93.7932 17.7912 95.3703 16.7855 97.3286 16.3886Z" fill="#30342D"/>
<path opacity="0.97" fill-rule="evenodd" clip-rule="evenodd" d="M150.54 11.451C154.679 11.0401 158.223 12.2744 161.169 15.1539C163.533 18.1639 164.517 21.5924 164.118 25.4396C157.535 25.3939 150.952 25.4396 144.369 25.5767C145.237 29.8055 147.819 32.0455 152.118 32.2967C154.9 32.2077 157.232 31.1562 159.112 29.1424C160.269 29.8882 161.298 30.7796 162.198 31.8167C160.287 34.374 157.727 35.8826 154.518 36.3424C149.793 37.099 145.793 35.7504 142.518 32.2967C139.583 28.439 138.852 24.1876 140.323 19.5424C142.221 14.9224 145.628 12.2252 150.54 11.451ZM150.678 15.5653C155.487 15.1792 158.414 17.3278 159.455 22.011C154.472 22.011 149.489 22.011 144.506 22.011C145.218 18.5566 147.275 16.4082 150.678 15.5653Z" fill="#30342D"/>
<path opacity="0.974" fill-rule="evenodd" clip-rule="evenodd" d="M83.8893 11.7256C84.575 11.7256 85.2607 11.7256 85.9465 11.7256C85.9921 13.5564 85.9463 15.385 85.8093 17.2113C81.9542 15.8371 79.1428 16.9801 77.375 20.6399C77.195 21.1775 77.0578 21.726 76.9636 22.2856C76.895 26.8568 76.8721 31.4282 76.895 35.9999C75.1578 35.9999 73.4208 35.9999 71.6836 35.9999C71.6836 28.0456 71.6836 20.0913 71.6836 12.137C73.4208 12.137 75.1578 12.137 76.895 12.137C76.8723 13.0981 76.895 14.0581 76.9636 15.017C77.7991 13.9088 78.8733 13.1088 80.1865 12.617C81.4044 12.1715 82.6387 11.8744 83.8893 11.7256Z" fill="#30342D"/>
<path opacity="0.972" fill-rule="evenodd" clip-rule="evenodd" d="M118.723 47.9318C116.986 47.9318 115.249 47.9318 113.512 47.9318C113.512 36.0004 113.512 24.069 113.512 12.1375C115.249 12.1375 116.986 12.1375 118.723 12.1375C118.7 13.19 118.723 14.2414 118.792 15.2918C121.069 12.8856 123.881 11.697 127.226 11.7261C132.896 12.071 136.576 14.951 138.266 20.3661C139.434 25.1555 138.428 29.407 135.249 33.1204C131.998 36.0644 128.227 37.0015 123.935 35.9318C121.909 35.413 120.195 34.3844 118.792 32.8461C118.723 37.8745 118.7 42.9031 118.723 47.9318ZM125.306 16.2518C129.804 16.2469 132.524 18.4412 133.466 22.8347C133.843 26.0339 132.768 28.6168 130.243 30.5833C126.289 32.6973 122.884 32.0345 120.026 28.5947C118.216 25.3832 118.307 22.2289 120.3 19.1318C121.623 17.5455 123.292 16.5855 125.306 16.2518Z" fill="#30342D"/>
</g>
<defs>
<clipPath id="clip0_9477_32903">
<rect width="170.469" height="48" fill="white" transform="translate(0.847656)"/>
</clipPath>
</defs>
</svg>
