<svg width="131" height="48" viewBox="0 0 131 48" fill="none" xmlns="http://www.w3.org/2000/svg">
<g opacity="0.3" clip-path="url(#clip0_4322_10093)">
<path d="M45.5734 25.6368C45.5725 25.637 45.5717 25.6372 45.5708 25.6374C45.5522 25.9241 45.5289 26.2099 45.499 26.4936C45.4997 26.4934 45.5001 26.4932 45.5005 26.493C45.4986 26.5127 45.4958 26.5321 45.4936 26.5518C45.4871 26.6123 45.4791 26.6725 45.472 26.7329C45.4528 26.8986 45.432 27.0638 45.4089 27.2283C45.3974 27.3096 45.3853 27.3905 45.373 27.4714C45.3509 27.6173 45.3269 27.763 45.3018 27.9081C45.2876 27.9905 45.2737 28.0731 45.2586 28.1552C45.2275 28.3239 45.1937 28.4915 45.1585 28.6586C45.1016 28.93 45.0406 29.1996 44.9738 29.4671C44.9741 29.4668 44.9743 29.4666 44.9747 29.4666C44.973 29.4731 44.971 29.4798 44.9693 29.4862C44.9036 29.7472 44.8331 30.0062 44.7578 30.2631C44.7397 30.3258 44.7193 30.3872 44.7005 30.4495C44.6534 30.6058 44.6069 30.7626 44.5563 30.9172L44.5522 30.9198C43.2945 34.7641 40.9896 38.1386 37.9719 40.7001C36.6653 37.4491 35.187 33.4532 36.328 29.9918C37.7168 25.779 41.781 24.8614 45.6177 23.9114C45.6192 24.0119 45.6216 24.1124 45.6216 24.2134C45.6216 24.507 45.6132 24.7987 45.6009 25.0895L45.6024 25.0891C45.5996 25.1581 45.5939 25.2262 45.5905 25.2949C45.5849 25.4089 45.5808 25.5232 45.5734 25.6368ZM24 45.835C23.9641 45.835 23.9284 45.8339 23.8925 45.8337C23.9364 45.7715 23.9792 45.7096 24.021 45.6482C24.8461 44.4352 24.9825 42.9997 25.1027 41.7332C25.1693 41.0318 25.2523 40.1591 25.4623 39.8445C25.4891 39.8043 25.5126 39.7695 25.5332 39.7397C25.8074 39.6302 26.1537 39.459 26.6584 39.1194C27.4253 38.603 27.6506 37.5749 27.1699 36.7853C27.0528 36.5926 27.0041 36.5128 27.7488 35.4184C28.448 34.3907 29.4056 32.9834 29.0886 31.0811C28.4819 27.4406 21.5734 25.7219 19.772 25.5866C19.6429 25.5769 19.5093 25.5719 19.3746 25.5719C18.7065 25.5719 18.0686 25.6917 17.5058 25.7976C17.0521 25.8828 16.6237 25.9632 16.2797 25.9632C16.1387 25.9632 16.0225 25.9496 15.9268 25.9217C15.2642 25.4443 13.6031 23.3146 13.3715 22.5403C13.3788 22.5094 13.3954 22.4839 13.4311 22.448C13.5984 22.28 14.0069 22.1105 14.5427 22.1105C14.8786 22.1107 15.207 22.1803 15.4671 22.307C15.706 22.4233 15.9651 22.4815 16.2243 22.4815C16.4749 22.4815 16.7254 22.4272 16.958 22.3183C17.4312 22.0966 17.7788 21.6731 17.9038 21.1658C18.4091 19.1152 17.0608 17.8192 16.2552 17.045C15.8883 16.6923 15.4724 16.2925 15.4403 16.0426C15.3391 15.2538 16.5102 14.2865 17.4512 13.5092C17.6299 13.3615 17.8025 13.2188 17.9638 13.0806C18.9281 12.2547 19.6349 11.5989 19.9475 10.6815C20.2662 9.74551 20.0654 8.92865 19.8112 7.89427C19.7058 7.4653 19.5862 6.97924 19.4635 6.35784C19.284 5.44908 18.9873 4.6813 18.5783 4.06421C21.2811 4.20411 23.8664 5.53448 26.1617 6.71589C26.5256 6.90292 26.8783 7.08454 27.219 7.25492C28.8151 8.05276 30.1464 8.40843 31.5354 8.40843C33.1896 8.40843 34.8028 7.88303 36.8696 7.03503C36.9211 7.01384 36.9691 6.98703 37.0177 6.96151C37.3103 7.1827 37.5965 7.41124 37.8772 7.6467C37.8071 7.85557 37.7721 8.07805 37.787 8.30703C37.7955 8.43892 37.8089 8.59481 37.824 8.76757C37.8471 9.032 37.8973 9.60995 37.8966 10.125C37.5585 9.9734 37.1641 9.85881 36.7161 9.85881C36.3537 9.85881 36.0026 9.9347 35.672 10.0843C34.2197 10.7416 34.035 12.1658 33.9462 12.8502C33.9252 13.0125 33.9012 13.1965 33.8752 13.28C33.0958 15.7741 33.3055 18.0169 34.4657 19.5948C35.3888 20.8504 36.8303 21.5418 38.5248 21.5418C39.7392 21.5418 41.0538 21.1922 42.4322 20.5027C43.3016 20.0681 44.2344 19.5312 44.9256 18.7639C45.2117 19.8621 45.4128 20.9939 45.5228 22.152C45.3321 22.1998 45.1416 22.2474 44.9498 22.2947C41.1152 23.2424 36.3429 24.4218 34.6852 29.4503C33.293 33.6742 35.16 38.3595 36.5527 41.8058C33.0112 44.3403 28.6774 45.835 24 45.835ZM21.7421 45.7174C21.2084 45.6618 20.6802 45.587 20.1586 45.4932C19.5806 44.3023 19.4351 41.7896 19.0796 40.5109C18.4805 38.3572 17.5867 35.9924 16.1849 34.2406C14.4748 32.1035 13.6659 32.0949 13.7266 29.4938C13.7928 26.6621 13.268 26.1522 10.4269 24.643C9.36309 24.0778 7.04949 23.7403 6.15955 23.1129C4.39029 21.8655 5.16013 20.5356 2.80413 19.9414C2.85077 19.7101 2.90253 19.4806 2.95667 19.2521L2.95388 19.2512C3.61395 16.451 4.82019 13.8595 6.4533 11.595L6.45658 11.5961C8.84737 8.27956 12.1522 5.66422 16.0015 4.12605C16.8251 4.39459 17.4652 5.16757 17.7666 6.69319C18.4275 10.0389 19.0446 9.87719 16.8384 11.7671C15.5438 12.8761 13.472 14.2941 13.7247 16.2629C13.9674 18.1537 16.7105 18.7795 16.2243 20.7518C15.7105 20.5016 15.1223 20.381 14.5428 20.3808C13.0593 20.3808 11.6307 21.1719 11.6367 22.6071C11.6418 23.8283 14.3482 27.1526 15.2119 27.5023C15.5563 27.6417 15.9141 27.693 16.2797 27.693C17.2905 27.693 18.3613 27.3016 19.3747 27.3016C19.4644 27.3016 19.5535 27.3046 19.6422 27.3113C21.4743 27.4493 27.0138 29.1544 27.3825 31.3654C27.8192 33.987 24.301 35.3982 25.6923 37.6845C24.4141 38.5451 24.7005 37.8703 24.0238 38.8841C23.0811 40.296 23.6966 43.0499 22.5909 44.6752C22.2748 45.1397 21.9935 45.4808 21.7421 45.7174ZM2.37838 24.2134C2.37838 23.3485 2.43049 22.4958 2.53008 21.6573C2.79738 21.7392 2.94603 21.824 2.99645 21.8634C3.08698 21.9341 3.16318 22.0651 3.32796 22.3699C3.62845 22.9254 4.08259 23.765 5.16283 24.5267C5.88869 25.0385 6.90186 25.3243 7.97449 25.6272C8.59282 25.8017 9.29358 25.9996 9.61546 26.1706C10.5829 26.6845 11.4747 27.1788 11.759 27.5771C11.9008 27.776 12.028 28.1412 11.9974 29.4534C11.9382 31.9861 12.6498 32.8895 13.8158 34.1537C14.1141 34.4772 14.4522 34.8439 14.8344 35.3213C15.8579 36.6004 16.7256 38.5024 17.4131 40.9745C17.5236 41.3719 17.6265 42.0307 17.726 42.6677C17.8514 43.4709 17.9813 44.2958 18.1751 45.0372C9.07332 42.488 2.37838 34.1181 2.37838 24.2134ZM24 2.59179C24.8662 2.59179 25.7198 2.64519 26.5591 2.74573L26.5585 2.744C28.9922 3.03222 31.3036 3.7254 33.4227 4.75567L33.4151 4.7574C34.0634 5.07265 34.6943 5.41859 35.3046 5.79459C33.8404 6.35632 32.6772 6.6787 31.5354 6.6787C30.4268 6.6787 29.3338 6.37816 27.9924 5.70768C26.0809 4.752 23.7857 3.44324 21.2654 2.76757C22.1615 2.65384 23.0735 2.59179 24 2.59179ZM38.6858 12.3877C39.656 12.0394 39.6785 10.4716 39.5981 9.25795C39.8826 9.5546 40.1557 9.86162 40.4231 10.1738L40.4244 10.1682C40.4755 10.2277 40.5237 10.2895 40.5738 10.3496C40.6413 10.4301 40.7079 10.5111 40.7743 10.5926C40.8802 10.723 40.9851 10.8541 41.088 10.9868C41.1507 11.0677 41.2125 11.1494 41.2742 11.2311C41.3767 11.3673 41.4783 11.5042 41.5777 11.6428C41.6 11.6739 41.6236 11.7038 41.6458 11.7351C41.6454 11.736 41.6448 11.7366 41.6443 11.7375C41.8614 12.0437 42.0714 12.3555 42.2729 12.6729C42.2731 12.6726 42.2735 12.672 42.2739 12.6716C42.2841 12.6878 42.2934 12.7046 42.3038 12.7209C42.4266 12.9157 42.5453 13.1133 42.6623 13.3124C42.6863 13.3535 42.7111 13.3939 42.7349 13.435C42.8668 13.6631 42.9939 13.8941 43.1176 14.1273C43.1232 14.1382 43.1297 14.1488 43.1354 14.1596C43.1354 14.1598 43.1351 14.1598 43.1351 14.1598C43.424 14.7072 43.6925 15.2672 43.9345 15.8413L43.9332 15.8439C44.0277 16.0672 44.1189 16.2923 44.2056 16.5196C44.0048 17.5055 43.1862 18.192 41.6582 18.9559C40.4804 19.5449 39.4257 19.8121 38.5248 19.8121C35.7501 19.8121 34.4389 17.2755 35.5263 13.7957C35.7643 13.0339 35.5669 12.0305 36.3851 11.6601C36.4958 11.6099 36.6063 11.5885 36.7161 11.5885C37.3948 11.5885 38.0497 12.4106 38.5494 12.4106C38.5963 12.4106 38.6417 12.4035 38.6858 12.3877ZM40.9706 7.0294C36.4376 2.49643 30.4106 0 24 0C17.5894 0 11.5624 2.49643 7.02947 7.0294C2.49645 11.5624 0 17.5894 0 24C0 30.4106 2.49645 36.4376 7.02947 40.9706C11.5624 45.5035 17.5894 48 24 48C30.4106 48 36.4376 45.5035 40.9706 40.9706C45.5036 36.4376 48 30.4106 48 24C48 17.5894 45.5036 11.5624 40.9706 7.0294Z" fill="#30342D"/>
<path d="M40.9094 16.3756C40.5398 16.6558 40.166 16.9058 39.7751 17.0811C39.5796 17.1691 39.3801 17.2426 39.1723 17.2939C38.9651 17.3481 38.7461 17.3864 38.5195 17.381C38.0618 17.394 37.561 17.2779 37.0471 17.0493L37.0224 17.0383C37.0047 17.0303 36.9833 17.0331 36.968 17.0469C36.9472 17.0655 36.9455 17.0978 36.9641 17.1185C37.3372 17.5347 37.8281 17.8294 38.3662 17.9769C38.9057 18.1226 39.4828 18.0971 40.0166 17.9509C40.553 17.8059 41.0501 17.5473 41.5033 17.2376C41.9569 16.9267 42.3759 16.568 42.7524 16.1713C43.0639 15.8465 43.3509 15.5014 43.6255 15.1475C43.4704 14.8132 43.3072 14.4835 43.1357 14.1587C42.7571 14.6002 42.3755 15.027 41.9818 15.4225C41.8069 15.5961 41.6309 15.7628 41.454 15.9256C41.2722 16.0796 41.0942 16.2379 40.9094 16.3756Z" fill="#30342D"/>
<path d="M38.4012 14.3522C38.1538 14.3286 37.8959 14.2655 37.6362 14.1708C37.3806 14.0703 37.119 13.9414 36.8743 13.7801L36.8587 13.7699C36.8397 13.7574 36.8137 13.7583 36.7956 13.7738C36.7737 13.7929 36.7711 13.8259 36.7899 13.848C37.1796 14.3021 37.6827 14.6543 38.258 14.837C38.8338 15.0231 39.4769 14.9652 40.0276 14.7267C40.5804 14.4858 41.0561 14.1066 41.4624 13.6765C41.7614 13.363 42.0278 13.0238 42.2747 12.6705C42.0732 12.3524 41.8643 12.0396 41.6468 11.7332C41.1147 12.6365 40.4948 13.5321 39.7225 14.0164C39.338 14.2709 38.9013 14.3836 38.4012 14.3522Z" fill="#30342D"/>
<path d="M21.1496 29.3984C20.2169 29.1915 19.2697 29.1072 18.3255 29.1379C17.3816 29.1768 16.4357 29.3068 15.5102 29.6724L15.4919 29.6798C15.4732 29.6871 15.4597 29.705 15.459 29.7265C15.458 29.7555 15.4806 29.7796 15.5094 29.7805C15.9631 29.7963 16.4181 29.8281 16.8712 29.8676C17.3248 29.9027 17.7778 29.9458 18.2294 29.9993C19.1327 30.1055 20.0311 30.2529 20.916 30.4536C21.8029 30.6439 22.6788 30.8917 23.5136 31.2406C23.929 31.4188 24.3324 31.6238 24.7106 31.8679C25.0905 32.1081 25.4464 32.3909 25.7383 32.7336C25.751 32.7485 25.7718 32.7556 25.7919 32.7501C25.8194 32.7423 25.8356 32.7135 25.8278 32.6858L25.822 32.6653C25.684 32.1749 25.3733 31.7556 25.0326 31.3818C24.6834 31.0131 24.2784 30.7088 23.8559 30.4474C23.0042 29.9377 22.0808 29.6058 21.1496 29.3984Z" fill="#30342D"/>
<path d="M43.1591 29.6565C42.1647 30.1764 41.2194 30.8115 40.4181 31.6113C39.6313 32.4187 38.9911 33.3957 38.6799 34.4889C38.3409 35.576 38.3699 36.7427 38.5978 37.8383C38.6019 37.8584 38.6177 37.8751 38.6393 37.879C38.6674 37.8844 38.6946 37.8655 38.7 37.8372L38.7037 37.8171C38.8123 37.2329 38.8561 36.6908 39.0086 36.1764C39.1249 35.6627 39.2974 35.1825 39.5074 34.7376C39.91 33.8407 40.4951 33.077 41.1863 32.3713C41.8838 31.6701 42.6942 31.0357 43.5627 30.4234C44.0185 30.0997 44.4907 29.7857 44.9757 29.4664C45.03 29.2493 45.0808 29.0307 45.1286 28.811C44.4525 29.0426 43.7945 29.3265 43.1591 29.6565Z" fill="#30342D"/>
<path d="M10.3394 22.3205C10.3597 22.324 10.3812 22.3154 10.3927 22.2968C10.4079 22.2723 10.4003 22.2403 10.3759 22.2252L10.3578 22.2139C9.87179 21.9123 9.42407 21.6539 9.03648 21.3322C8.64366 21.0228 8.31318 20.6721 7.99519 20.3089C7.6783 19.9424 7.38092 19.5497 7.0559 19.1314C6.72846 18.7151 6.37424 18.2695 5.8826 17.8416C5.81968 17.7889 5.76005 17.7368 5.6924 17.6862L5.48016 17.5383C5.33936 17.4343 5.19173 17.3634 5.04509 17.2818C4.75227 17.1409 4.47339 17.0276 4.19374 16.9376C4.02533 16.8838 3.85785 16.8367 3.6908 16.7928C3.57778 17.1011 3.4722 17.4129 3.37305 17.7275C3.52373 17.7802 3.67365 17.8345 3.82178 17.8924C4.31638 18.0868 4.7924 18.3171 5.18269 18.665C5.58293 19.0031 5.93166 19.4096 6.28995 19.8085C6.6473 20.209 7.01571 20.6072 7.42794 20.9605C7.83893 21.3147 8.29341 21.6219 8.78412 21.8578C9.28074 22.0834 9.80734 22.2256 10.3394 22.3205Z" fill="#30342D"/>
<path d="M31.5381 4.65425C31.7974 4.65036 32.0566 4.62269 32.3098 4.56387C32.4462 4.5269 32.579 4.47955 32.7089 4.42615C31.0376 3.68755 29.2564 3.15458 27.3965 2.85966C27.7755 3.19761 28.1878 3.49015 28.6252 3.7455C29.0661 4.00366 29.5277 4.23242 30.0153 4.39998C30.5046 4.55912 31.019 4.65663 31.5381 4.65425Z" fill="#30342D"/>
<path d="M45.1092 25.7234C44.1044 25.9307 43.1025 26.1844 42.1412 26.5664C41.1857 26.956 40.2752 27.4903 39.5232 28.2077C39.3466 28.3973 39.1524 28.5713 38.9907 28.7738C38.8367 28.982 38.6625 29.1762 38.5258 29.3958C38.3972 29.6207 38.2545 29.8373 38.1386 30.0678L37.821 30.7735C37.8121 30.7932 37.8162 30.8172 37.8329 30.8328C37.8538 30.8522 37.8867 30.8511 37.9062 30.8302L37.9211 30.8141C38.6644 30.019 39.3496 29.3538 40.1137 28.8384C40.867 28.3149 41.6761 27.9175 42.5472 27.568C43.4164 27.2183 44.3392 26.9102 45.2889 26.5712C45.3591 26.5452 45.43 26.5188 45.5007 26.4929C45.5306 26.2092 45.5539 25.9236 45.5728 25.6369C45.4184 25.6665 45.2636 25.6922 45.1092 25.7234Z" fill="#30342D"/>
<path d="M24.2772 37.4113C24.2976 37.3957 24.3015 37.3666 24.2859 37.3462L24.2615 37.314C24.0615 37.0522 23.9527 36.7933 23.8865 36.5527C23.8195 36.3129 23.7923 36.0866 23.781 35.8586C23.7646 35.7508 23.7782 35.6277 23.7665 35.5194L23.7709 35.3443C23.7696 35.288 23.7685 35.2297 23.7732 35.1691C23.7754 35.1096 23.7797 35.0507 23.7791 34.9922L23.7732 34.8539L23.7635 34.6987C23.743 34.4909 23.695 34.2837 23.6254 34.0857C23.4891 33.6859 23.2535 33.3365 22.9836 33.0574C22.7067 32.7821 22.3985 32.5717 22.0734 32.4282C21.7492 32.2831 21.4147 32.1944 21.0748 32.1644C20.9042 32.1512 20.7348 32.1465 20.5622 32.1646C20.4756 32.1745 20.3902 32.1851 20.3052 32.199C20.2176 32.2204 20.1341 32.2357 20.0459 32.269L20.0163 32.2803C20.0026 32.2855 19.9913 32.2967 19.9867 32.3117C19.9784 32.3378 19.9929 32.3657 20.0191 32.3737C20.2934 32.46 20.564 32.5739 20.8217 32.7045C21.0823 32.8301 21.3329 32.9759 21.5658 33.1443C22.0292 33.4797 22.4269 33.9205 22.6122 34.4515C22.6641 34.5819 22.6948 34.7188 22.7211 34.8565L22.7722 35.2909C22.7834 35.4403 22.8251 35.5867 22.8511 35.7346C22.8948 35.879 22.9294 36.026 22.9908 36.1652C23.2052 36.725 23.6325 37.2434 24.2362 37.4191C24.2496 37.423 24.2651 37.4206 24.2772 37.4113Z" fill="#30342D"/>
<path d="M13.0234 13.4886C13.4707 12.9593 14.007 12.4356 14.5671 11.8897C15.1297 11.3403 15.7195 10.7805 16.3061 10.1013L16.3224 10.0823C16.3347 10.0683 16.3386 10.0479 16.331 10.0296C16.3202 10.0034 16.2903 9.99085 16.2642 10.0017C15.8804 10.1597 15.5097 10.3398 15.1432 10.5318C14.7804 10.7297 14.4255 10.9426 14.0809 11.1723C13.3956 11.6345 12.7405 12.1567 12.196 12.7934C11.67 13.4339 11.2387 14.2101 11.1905 15.0663C11.1657 15.4899 11.2353 15.9147 11.3753 16.3109C11.5155 16.71 11.7497 17.0609 11.9893 17.3986C11.9999 17.4136 12.0181 17.4222 12.0374 17.4194C12.065 17.4157 12.0842 17.3902 12.0804 17.3627L12.0765 17.3349C12.0135 16.8812 11.9156 16.4957 11.9258 16.1186C11.9226 15.7487 11.9633 15.4224 12.0524 15.1262C12.2254 14.5383 12.5822 14.0235 13.0234 13.4886Z" fill="#30342D"/>
<path d="M7.14651 14.1753C7.06086 14.5662 7.04043 14.9749 7.1021 15.3723C7.16155 15.7699 7.29786 16.1533 7.48705 16.5042C7.67455 16.857 7.91864 17.1745 8.18664 17.4646C8.45394 17.7563 8.74837 18.0209 9.06054 18.2603C9.68545 18.739 10.3634 19.1388 11.0618 19.4906C11.0827 19.5009 11.1088 19.4966 11.1253 19.4785C11.1449 19.4566 11.1432 19.4229 11.1213 19.4032L11.1115 19.3943C10.5154 18.8577 9.92372 18.3559 9.42134 17.8021C9.16408 17.5342 8.92759 17.257 8.73232 16.9667C8.53697 16.6774 8.35453 16.3954 8.24389 16.0996C8.02456 15.5083 7.9656 14.9552 8.14348 14.3939C8.30395 13.835 8.63461 13.2661 9.06112 12.7299C9.27042 12.4583 9.50352 12.1939 9.75429 11.9386C9.99887 11.6769 10.2657 11.43 10.5336 11.1786C10.8006 10.926 11.0797 10.6804 11.3686 10.4428L12.2452 9.72861C13.4387 8.78916 14.689 7.87888 15.9462 6.89359L15.9573 6.88472C15.9759 6.87024 15.9831 6.84451 15.9732 6.82181C15.9616 6.79478 15.9302 6.78245 15.9033 6.79413C14.468 7.41705 13.0853 8.15478 11.7728 9.00862C11.1176 9.43629 10.4786 9.89186 9.87591 10.3948C9.27446 10.8977 8.70091 11.4417 8.21096 12.0627C7.72869 12.6847 7.31864 13.3892 7.14651 14.1753Z" fill="#30342D"/>
<path d="M16.3068 31.4099C16.2864 31.4009 16.2616 31.4056 16.2459 31.4234C16.2264 31.4452 16.2283 31.479 16.2503 31.4984C16.6837 31.8841 17.0919 32.3032 17.4799 32.7362C17.8708 33.1674 18.2408 33.6171 18.582 34.0874C19.2582 35.0275 19.8344 36.0593 20.1111 37.1778C20.1828 37.4558 20.2228 37.7388 20.2677 38.0296L20.3968 38.8963L20.6372 40.6327L21.078 44.1111C21.0807 44.1326 21.0966 44.1509 21.1188 44.1559C21.1474 44.1624 21.1756 44.1445 21.182 44.116L21.1856 44.1002C21.4562 42.8947 21.5156 41.7051 21.5084 40.5219C21.5053 39.93 21.4677 39.3414 21.4212 38.7535C21.3891 38.4605 21.3652 38.1665 21.3254 37.8742L21.296 37.6551C21.2868 37.5836 21.2769 37.51 21.2612 37.4208L21.2176 37.1663L21.1571 36.9181C20.8145 35.5983 20.1018 34.4997 19.2717 33.5832C18.4203 32.6806 17.4551 31.9126 16.3197 31.4156L16.3068 31.4099Z" fill="#30342D"/>
<path fill-rule="evenodd" clip-rule="evenodd" d="M43.8926 12.3066H51.7698C56.9693 12.3066 60.4253 14.903 60.4253 19.7201C60.4253 23.0046 58.5884 25.1629 56.1598 26.1326L60.8612 34.8286H55.7862L51.832 26.946H48.594V34.8286H43.8926V12.3066ZM76.2932 23.6161C77.5209 20.679 80.3585 18.7503 83.9159 18.7503C88.7107 18.7503 92.229 22.2539 92.229 27.0085C92.229 31.7631 88.7107 35.2666 83.9159 35.2666C80.3585 35.2666 77.5209 33.338 76.2932 30.4009C75.0567 33.338 72.202 35.2666 68.6446 35.2666C63.8498 35.2666 60.3626 31.7631 60.3626 27.0085C60.3626 22.2539 63.8498 18.7503 68.6446 18.7503C72.202 18.7503 75.0567 20.679 76.2932 23.6161ZM51.8943 16.3417C54.0738 16.3417 55.5994 17.4679 55.5994 19.7201C55.5994 22.0035 54.136 23.0671 52.0188 23.0671H48.594V16.3417H51.8943ZM68.6446 31.3252C70.8552 31.3252 72.5676 29.6048 72.5676 27.0085C72.5676 24.4122 70.8552 22.6917 68.6446 22.6917C66.434 22.6917 64.7527 24.4122 64.7527 27.0085C64.7527 29.6048 66.434 31.3252 68.6446 31.3252ZM83.9159 31.3252C86.1265 31.3252 87.839 29.6048 87.839 27.0085C87.839 24.4122 86.1265 22.6917 83.9159 22.6917C81.7053 22.6917 80.024 24.4122 80.024 27.0085C80.024 29.6048 81.7053 31.3252 83.9159 31.3252ZM105.136 19.1884V12.3066H109.93V30.7934H112.979C113.213 31.6148 113.574 32.3413 114.062 32.9735C114.55 33.6055 115.306 34.2239 116.331 34.8286H105.136V22.8483H99.2859V29.1356C99.2859 30.7934 100.251 31.3565 101.279 31.3565C102.244 31.3565 103.24 31.0437 103.925 30.6996V34.5471C103.24 34.8913 101.808 35.2666 99.9708 35.2666C97.5112 35.2666 95.1138 34.1093 94.7713 30.8247C94.7401 30.3241 94.6779 29.7924 94.6779 29.2294V22.8483H92.7458C92.5897 22.2954 92.2802 21.6967 91.8171 21.0524C91.354 20.4078 90.7868 19.7864 90.1159 19.1884H94.7713V14.4963H99.2859V19.1884H105.136ZM122.168 18.7503C126.963 18.7503 130.481 22.2539 130.481 27.0085C130.481 31.7631 126.963 35.2666 122.168 35.2666C117.373 35.2666 113.886 31.7631 113.886 27.0085C113.886 22.2539 117.373 18.7503 122.168 18.7503ZM122.168 31.3252C124.378 31.3252 126.091 29.6048 126.091 27.0085C126.091 24.4122 124.378 22.6917 122.168 22.6917C119.957 22.6917 118.276 24.4122 118.276 27.0085C118.276 29.6048 119.957 31.3252 122.168 31.3252Z" fill="#30342D"/>
</g>
<defs>
<clipPath id="clip0_4322_10093">
<rect width="130.48" height="48" fill="white"/>
</clipPath>
</defs>
</svg>
