<svg width="235" height="48" viewBox="0 0 235 48" fill="none" xmlns="http://www.w3.org/2000/svg">
<g opacity="0.3">
<path opacity="0.974" fill-rule="evenodd" clip-rule="evenodd" d="M9.4331 0.0290756C10.9217 -0.0366871 12.3969 0.065515 13.8587 0.335805C15.7437 1.00043 17.6082 1.71609 19.4522 2.48291C19.8296 2.41224 20.1575 2.24869 20.4357 1.99214C20.7274 1.37881 20.9527 0.744859 21.1118 0.0904214C21.3958 0.0294437 21.6826 0.00907686 21.9724 0.0290756C22.0658 3.99582 22.1477 7.96281 22.2182 11.9302C21.8406 11.9691 21.4718 11.9282 21.1118 11.8075C20.4761 8.17028 18.6321 5.32788 15.5798 3.2804C13.237 1.93497 10.8193 1.77142 8.3267 2.78964C5.79028 4.51076 5.27806 6.69872 6.79003 9.35364C7.6 10.285 8.522 11.0825 9.55604 11.7461C11.7298 12.9945 13.9426 14.1806 16.1945 15.3042C18.552 16.5522 20.6213 18.1678 22.4026 20.1505C24.1775 22.7197 24.7512 25.5416 24.1237 28.6162C22.7061 33.5472 19.4484 36.39 14.3505 37.1433C11.2766 37.4954 8.36724 36.9629 5.62215 35.5483C3.70559 34.6662 2.31234 35.1766 1.4424 37.082C1.08244 37.2022 0.713639 37.2439 0.335999 37.2046C0.335999 32.7055 0.335999 28.2077 0.335999 23.7086C0.698346 23.6742 1.04667 23.7159 1.38094 23.8313C1.90888 26.7648 3.09723 29.3818 4.94602 31.6835C6.58185 33.519 8.61026 34.6846 11.0312 35.1802C13.4507 35.6293 15.5201 34.995 17.2394 33.2785C19.0081 30.7866 18.8237 28.415 16.6862 26.1624C16.0344 25.5514 15.3377 24.9993 14.5963 24.5061C12.2803 23.2068 9.94451 21.9393 7.5891 20.7026C5.53508 19.5432 3.75254 18.05 2.24147 16.2244C0.186573 13.1671 -0.223215 9.89532 1.01213 6.40904C2.67697 2.76203 5.48396 0.635418 9.4331 0.0290756Z" fill="#30342D"/>
<path opacity="0.975" fill-rule="evenodd" clip-rule="evenodd" d="M60.3272 0.0300128C61.9909 -0.0682632 63.63 0.0747953 65.2445 0.459434C66.5278 0.963205 67.4498 1.84254 68.0105 3.0973C68.2265 5.49985 67.1201 6.76762 64.6913 6.90074C62.0706 6.68407 61.1897 5.3141 62.0482 2.79057C61.7505 1.74217 61.0948 1.41508 60.0813 1.80904C59.4983 2.25674 59.191 2.84971 59.1593 3.58807C59.1582 6.32765 59.1787 9.06785 59.2207 11.8084C60.3681 11.8084 61.5156 11.8084 62.6629 11.8084C62.6629 12.7081 62.6629 13.6079 62.6629 14.5076C61.5156 14.5076 60.3681 14.5076 59.2207 14.5076C59.2002 20.7649 59.2207 27.0222 59.2822 33.2794C59.3926 34.2904 59.9458 34.9235 60.9418 35.1812C61.5076 35.3186 62.0812 35.3799 62.6629 35.3652C62.6629 35.7333 62.6629 36.1014 62.6629 36.4694C57.9914 36.4694 53.3199 36.4694 48.6484 36.4694C48.6484 36.1014 48.6484 35.7333 48.6484 35.3652C49.7261 35.4229 50.689 35.1358 51.5374 34.5064C51.7143 34.2892 51.8372 34.0438 51.9062 33.7702C52.0868 27.3534 52.1482 20.9318 52.0906 14.5076C50.9432 14.5076 49.7958 14.5076 48.6484 14.5076C48.6484 13.6079 48.6484 12.7081 48.6484 11.8084C49.7958 11.8084 50.9432 11.8084 52.0906 11.8084C52.0701 10.3355 52.0906 8.8632 52.1521 7.39151C52.8346 3.84732 54.904 1.53667 58.3602 0.459434C59.0307 0.305456 59.6863 0.162274 60.3272 0.0300128Z" fill="#30342D"/>
<path opacity="0.973" fill-rule="evenodd" clip-rule="evenodd" d="M177.729 0.0297764C181.08 -0.204074 182.739 1.34994 182.707 4.69206C182.083 7.31643 180.423 8.44115 177.729 8.06608C175.415 7.15104 174.493 5.45385 174.963 2.97438C175.413 1.53913 176.335 0.557596 177.729 0.0297764Z" fill="#30342D"/>
<path opacity="0.974" fill-rule="evenodd" clip-rule="evenodd" d="M123.757 0.765625C128.715 0.765625 133.674 0.765625 138.632 0.765625C138.632 1.1337 138.632 1.50177 138.632 1.86985C137.816 1.90138 137.037 2.08542 136.297 2.42196C135.732 2.9407 135.548 3.57453 135.743 4.32368C136.137 5.82948 136.629 7.30178 137.219 8.74058C139.308 14.0982 141.398 19.4552 143.488 24.8132C145.287 20.4257 147.069 16.0291 148.836 11.6238C147.87 8.93885 146.784 6.30098 145.578 3.71022C144.652 2.35902 143.362 1.74556 141.706 1.86985C141.706 1.50177 141.706 1.1337 141.706 0.765625C147.278 0.765625 152.852 0.765625 158.425 0.765625C158.425 1.1337 158.425 1.50177 158.425 1.86985C157.402 1.86936 156.418 2.0534 155.474 2.42196C154.895 2.92991 154.711 3.56373 154.921 4.32368C157.249 10.8846 159.626 17.4284 162.051 23.9543C164.059 18.5154 166.067 13.0756 168.075 7.63636C168.596 6.37447 168.842 5.06572 168.813 3.71022C168.637 2.92193 168.166 2.41067 167.399 2.17658C166.749 2.03413 166.093 1.93193 165.432 1.86985C165.432 1.50177 165.432 1.1337 165.432 0.765625C168.423 0.765625 171.415 0.765625 174.406 0.765625C174.445 1.14253 174.404 1.51061 174.283 1.86985C173.022 2.08566 172.14 2.78083 171.64 3.95561C167.511 14.9696 163.454 26.0119 159.47 37.0823C159.092 37.2198 158.703 37.2394 158.302 37.1437C155.479 29.6067 152.671 22.0612 149.881 14.5071C146.873 22.0011 143.84 29.4853 140.784 36.9597C140.406 37.2382 139.997 37.2787 139.554 37.0823C135.44 26.4388 131.301 15.8061 127.138 5.18252C126.769 4.44637 126.4 3.71022 126.032 2.97407C125.427 2.34957 124.689 1.9815 123.819 1.86985C123.757 1.50398 123.738 1.13591 123.757 0.765625Z" fill="#30342D"/>
<path opacity="0.975" fill-rule="evenodd" clip-rule="evenodd" d="M92.164 2.85059C92.4918 2.85059 92.8196 2.85059 93.1475 2.85059C93.1475 5.83604 93.1475 8.82162 93.1475 11.8071C98.6385 11.8071 104.13 11.8071 109.621 11.8071C109.621 12.1752 109.621 12.5432 109.621 12.9113C108.806 12.8785 108.13 13.1648 107.592 13.7701C107.43 14.1267 107.389 14.4948 107.469 14.8744C107.69 15.659 107.936 16.436 108.207 17.2055C109.682 20.7231 111.157 24.2394 112.632 27.757C113.592 25.0897 114.575 22.4309 115.583 19.782C116.052 18.5428 116.42 17.2742 116.689 15.9786C117.072 13.8853 116.191 12.8628 114.046 12.9113C114.046 12.5432 114.046 12.1752 114.046 11.8071C116.71 11.8071 119.373 11.8071 122.037 11.8071C122.037 12.1752 122.037 12.5432 122.037 12.9113C121.13 12.9858 120.413 13.3948 119.886 14.1382C119.599 14.7108 119.312 15.2833 119.025 15.8559C116.04 23.7352 113.09 31.6291 110.174 39.5354C109.354 41.7033 108.371 43.7891 107.223 45.7927C105.145 48.1054 102.707 48.5753 99.9088 47.2036C97.9792 45.654 97.549 43.7523 98.618 41.4985C99.4843 40.301 100.652 39.8716 102.122 40.2102C102.91 40.4654 103.463 40.9758 103.781 41.7438C103.989 42.7597 104.153 43.783 104.273 44.8111C104.538 45.0491 104.845 45.1105 105.195 44.9952C105.816 44.6762 106.287 44.2063 106.609 43.5842C107.585 41.5537 108.425 39.4679 109.129 37.3269C106.363 30.7421 103.597 24.1584 100.831 17.5736C100.269 16.3284 99.6132 15.1423 98.8639 14.0155C98.8036 14.1742 98.7831 14.3378 98.8024 14.5063C96.9175 14.5063 95.0324 14.5063 93.1475 14.5063C93.0908 20.3992 93.1522 26.2884 93.3319 32.1739C93.9287 33.6695 94.8916 33.9762 96.2208 33.0941C96.8932 32.5469 97.4259 31.8917 97.8189 31.131C97.9419 31.0488 98.0648 31.0488 98.1877 31.131C98.3742 31.3384 98.5792 31.5224 98.8024 31.6831C97.2982 35.6191 94.4707 37.2349 90.32 36.5294C88.3525 35.9565 87.0208 34.7087 86.3246 32.7873C86.198 32.2635 86.116 31.731 86.0788 31.1924C86.0173 25.6307 85.9968 20.0679 86.0173 14.5063C84.9929 14.5063 83.9683 14.5063 82.9439 14.5063C82.905 14.1294 82.9459 13.7613 83.0669 13.4021C86.9463 10.595 89.9787 7.0778 92.164 2.85059Z" fill="#30342D"/>
<path opacity="0.975" fill-rule="evenodd" clip-rule="evenodd" d="M36.2309 11.0711C39.4992 10.7059 42.2241 11.7283 44.406 14.1384C45.1216 15.0773 45.4904 16.1405 45.5124 17.3284C45.5196 22.3612 45.6016 27.3916 45.7582 32.4195C45.9938 33.1605 46.465 33.3863 47.172 33.0943C47.4403 32.806 47.7271 32.5397 48.0325 32.2968C48.3193 32.5017 48.5652 32.7471 48.7701 33.0329C46.7063 36.5885 43.7969 37.5504 40.0418 35.9162C39.1232 35.126 38.611 34.1237 38.5051 32.9102C36.6415 34.7285 34.4491 35.9763 31.9282 36.6523C28.3824 36.9983 26.4154 35.4033 26.0273 31.8674C26.1988 29.562 27.1823 27.6811 28.9778 26.2235C31.9118 24.1648 35.0261 22.3858 38.3207 20.8865C38.4641 19.2522 38.4846 17.6167 38.3822 15.9788C38.1029 14.26 37.0784 13.3193 35.3089 13.1569C34.2911 13.1906 33.3691 13.4974 32.5428 14.0771C31.9099 14.684 31.8893 15.318 32.4814 15.9788C33.8982 17.337 34.103 18.851 33.096 20.5184C32.0135 21.5735 30.7227 21.9208 29.2236 21.5613C26.8301 20.6889 26.031 19.0326 26.8264 16.5923C28.033 14.0401 30.0204 12.4247 32.7887 11.7459C33.9356 11.4262 35.0829 11.2012 36.2309 11.0711ZM38.3207 22.8495C38.4637 25.4874 38.4841 28.1449 38.3822 30.8245C37.3176 31.9827 36.0268 32.3716 34.5098 31.9901C33.3075 31.1214 32.8772 29.9558 33.219 28.4933C33.8795 26.729 34.9655 25.2776 36.4767 24.1378C37.0995 23.7059 37.7142 23.2765 38.3207 22.8495Z" fill="#30342D"/>
<path opacity="0.97" fill-rule="evenodd" clip-rule="evenodd" d="M73.3563 11.0717C77.3906 10.968 80.2795 12.7266 82.0231 16.3475C82.9274 18.5903 83.3986 20.9214 83.4368 23.3409C79.1342 23.3409 74.8315 23.3409 70.5288 23.3409C70.5778 26.0843 71.3769 28.5786 72.926 30.8251C75.1362 33.3942 77.6153 33.701 80.3635 31.7453C81.1548 30.8803 81.872 29.9601 82.5148 28.9847C82.8606 29.1871 83.168 29.4325 83.4368 29.7208C82.526 31.7244 81.2967 33.5034 79.7488 35.0579C76.7853 37.2038 73.548 37.6946 70.037 36.5302C66.9692 35.0616 65.0228 32.6691 64.1977 29.3528C63.3274 25.5824 63.4913 21.86 64.6894 18.1878C66.3188 14.248 69.2077 11.876 73.3563 11.0717ZM73.4792 12.9121C74.8815 12.8977 75.8446 13.552 76.3681 14.8752C76.7146 15.827 76.9195 16.8085 76.9828 17.8198C77.0443 19.005 77.0647 20.1914 77.0443 21.3778C74.8315 21.3778 72.6187 21.3778 70.4058 21.3778C70.2984 19.4957 70.5237 17.6553 71.082 15.8567C71.355 15.107 71.7238 14.4117 72.1884 13.7709C72.5761 13.4014 73.0064 13.1151 73.4792 12.9121Z" fill="#30342D"/>
<path opacity="0.976" fill-rule="evenodd" clip-rule="evenodd" d="M200.718 11.0717C204.406 10.9377 206.68 12.6554 207.541 16.2248C207.664 17.0799 207.745 17.9388 207.787 18.8013C207.792 23.7531 207.874 28.7025 208.033 33.647C208.099 34.204 208.366 34.6334 208.832 34.9352C209.35 35.1365 209.883 35.28 210.43 35.3647C210.43 35.7327 210.43 36.1008 210.43 36.4689C206.414 36.4689 202.399 36.4689 198.382 36.4689C198.343 36.0922 198.385 35.7242 198.505 35.3647C199.384 35.1819 200.02 34.6911 200.411 33.8924C200.542 33.1624 200.625 32.4262 200.657 31.6839C200.766 26.7333 200.725 21.7852 200.534 16.8382C200.209 15.1322 199.205 14.4983 197.522 14.9365C196.301 15.6297 195.338 16.5908 194.633 17.8198C194.55 22.7274 194.55 27.6351 194.633 32.5428C194.525 34.1316 195.241 35.0727 196.784 35.3647C196.905 35.7242 196.946 36.0922 196.907 36.4689C188.711 36.4689 180.516 36.4689 172.32 36.4689C172.32 36.1008 172.32 35.7327 172.32 35.3647C173.258 35.3598 174.057 35.0322 174.718 34.3831C174.823 34.1881 174.906 33.9844 174.963 33.7697C175.104 30.5637 175.165 27.3541 175.148 24.1384C175.165 20.9226 175.104 17.713 174.963 14.5071C174.489 13.3388 173.609 12.8071 172.32 12.9121C172.32 12.544 172.32 12.1759 172.32 11.8079C175.68 11.8079 179.041 11.8079 182.401 11.8079C182.38 18.8835 182.401 25.9579 182.462 33.0335C182.601 34.5414 183.441 35.3193 184.983 35.3647C186.779 35.1389 187.578 34.1169 187.38 32.2974C187.496 26.4867 187.456 20.6797 187.257 14.8752C187.213 14.3163 186.988 13.846 186.581 13.4642C186.041 13.169 185.468 12.985 184.86 12.9121C184.86 12.544 184.86 12.1759 184.86 11.8079C188.096 11.8079 191.334 11.8079 194.571 11.8079C194.55 12.7903 194.571 13.7718 194.633 14.7525C196.248 12.813 198.277 11.586 200.718 11.0717Z" fill="#30342D"/>
<path opacity="0.974" fill-rule="evenodd" clip-rule="evenodd" d="M220.267 11.0725C222.312 10.9859 224.279 11.3336 226.167 12.1154C228.83 12.1768 231.494 12.1972 234.158 12.1768C234.158 13.1583 234.158 14.1398 234.158 15.1214C232.683 15.1009 231.208 15.1214 229.732 15.1827C231.656 17.1139 232.332 19.4241 231.761 22.1148C231.036 24.8434 229.376 26.7856 226.782 27.9426C224.422 28.9683 221.963 29.2751 219.406 28.8628C217.316 29.1904 216.517 30.3768 217.009 32.4209C217.416 33.0024 217.969 33.3496 218.668 33.4637C221.786 33.476 224.9 33.5582 228.011 33.7091C233.134 34.5299 235.039 37.4537 233.728 42.4816C232.744 44.7207 231.085 46.2139 228.749 46.9598C224.214 48.3045 219.665 48.3462 215.103 47.0825C213.809 46.7328 212.722 46.058 211.846 45.0581C210.754 43.2545 211.021 41.6804 212.645 40.3345C213.396 39.9186 214.174 39.5713 214.98 39.2916C211.68 37.1126 211.126 34.3729 213.321 31.0713C214.468 29.8554 215.799 28.8935 217.316 28.188C212.958 26.6261 210.93 23.538 211.231 18.9248C211.869 15.4257 213.857 13.0333 217.193 11.7473C218.216 11.4331 219.24 11.2082 220.267 11.0725ZM221.619 12.7902C223.017 12.8558 223.939 13.551 224.385 14.876C224.938 16.6529 225.163 18.4733 225.061 20.3357C225.165 21.9859 224.981 23.6018 224.508 25.1821C223.598 27.2433 222.142 27.7954 220.144 26.8384C219.09 25.7734 218.537 24.4852 218.484 22.9736C218.402 21.2559 218.402 19.5382 218.484 17.8206C218.529 16.4527 218.898 15.1849 219.59 14.0171C220.136 13.3675 220.812 12.9584 221.619 12.7902ZM218.545 40.0278C220.677 40.0069 222.808 40.0278 224.938 40.0891C226.017 40.1001 227.083 40.2228 228.134 40.4572C229.634 40.8952 230.187 41.8559 229.794 43.3404C229.051 44.5698 227.966 45.3256 226.536 45.6102C223.832 46.1832 221.127 46.1832 218.422 45.6102C216.834 45.1906 215.851 44.1882 215.472 42.6043C215.865 40.9847 216.89 40.1259 218.545 40.0278Z" fill="#30342D"/>
</g>
</svg>
