<svg width="25" height="24" viewBox="0 0 25 24" fill="none" xmlns="http://www.w3.org/2000/svg">
<path d="M18.1271 3C17.3294 3 16.5645 3.31607 16.0005 3.87868C15.4365 4.44129 15.1196 5.20435 15.1196 6V18C15.1196 18.7956 15.4365 19.5587 16.0005 20.1213C16.5645 20.6839 17.3294 21 18.1271 21C18.9247 21 19.6896 20.6839 20.2536 20.1213C20.8177 19.5587 21.1345 18.7956 21.1345 18C21.1345 17.2044 20.8177 16.4413 20.2536 15.8787C19.6896 15.3161 18.9247 15 18.1271 15H6.09729C5.29966 15 4.53471 15.3161 3.9707 15.8787C3.4067 16.4413 3.08984 17.2044 3.08984 18C3.08984 18.7956 3.4067 19.5587 3.9707 20.1213C4.53471 20.6839 5.29966 21 6.09729 21C6.89491 21 7.65987 20.6839 8.22387 20.1213C8.78788 19.5587 9.10473 18.7956 9.10473 18V6C9.10473 5.20435 8.78788 4.44129 8.22387 3.87868C7.65987 3.31607 6.89491 3 6.09729 3C5.29966 3 4.53471 3.31607 3.9707 3.87868C3.4067 4.44129 3.08984 5.20435 3.08984 6C3.08984 6.79565 3.4067 7.55871 3.9707 8.12132C4.53471 8.68393 5.29966 9 6.09729 9H18.1271C18.9247 9 19.6896 8.68393 20.2536 8.12132C20.8177 7.55871 21.1345 6.79565 21.1345 6C21.1345 5.20435 20.8177 4.44129 20.2536 3.87868C19.6896 3.31607 18.9247 3 18.1271 3Z" stroke="white" stroke-width="2" stroke-linecap="round" stroke-linejoin="round"/>
</svg>
