<svg width="136" height="48" viewBox="0 0 136 48" fill="none" xmlns="http://www.w3.org/2000/svg">
<g opacity="0.2">
<path d="M19.602 17.8658C20.7822 17.302 21.2815 15.8875 20.7173 14.7066C20.1531 13.5257 18.739 13.0255 17.5588 13.5894C16.3786 14.1532 15.8793 15.5677 16.4435 16.7486C17.0077 17.9295 18.4218 18.4297 19.602 17.8658Z" fill="#30342D"/>
<path d="M21.5903 6.56309C22.7705 5.99922 23.2698 4.5848 22.7056 3.40389C22.1414 2.22298 20.7273 1.72277 19.5471 2.28664C18.3669 2.85051 17.8675 4.26493 18.4318 5.44584C18.996 6.62675 20.4101 7.12696 21.5903 6.56309Z" fill="#30342D"/>
<path d="M36.4223 9.80723C37.6025 9.24336 38.1018 7.82894 37.5376 6.64803C36.9734 5.46712 35.5593 4.96691 34.3791 5.53078C33.1989 6.09465 32.6996 7.50907 33.2638 8.68999C33.828 9.8709 35.2421 10.3711 36.4223 9.80723Z" fill="#30342D"/>
<path d="M33.4907 20.5279C34.6709 19.9641 35.1702 18.5496 34.606 17.3687C34.0418 16.1878 32.6277 15.6876 31.4475 16.2515C30.2673 16.8154 29.7679 18.2298 30.3321 19.4107C30.8964 20.5916 32.3105 21.0918 33.4907 20.5279Z" fill="#30342D"/>
<path d="M44.4243 22.4977C45.6045 21.9338 46.1038 20.5194 45.5396 19.3385C44.9754 18.1576 43.5613 17.6573 42.3811 18.2212C41.2009 18.7851 40.7015 20.1995 41.2657 21.3804C41.83 22.5613 43.2441 23.0615 44.4243 22.4977Z" fill="#30342D"/>
<path d="M41.4536 37.2027C42.6338 36.6389 43.1331 35.2244 42.5689 34.0435C42.0047 32.8626 40.5906 32.3624 39.4104 32.9263C38.2302 33.4902 37.7308 34.9046 38.295 36.0855C38.8593 37.2664 40.2734 37.7666 41.4536 37.2027Z" fill="#30342D"/>
<path d="M28.6528 45.2789C29.833 44.715 30.3323 43.3006 29.7681 42.1197C29.2039 40.9388 27.7898 40.4386 26.6096 41.0025C25.4294 41.5663 24.93 42.9808 25.4943 44.1617C26.0585 45.3426 27.4726 45.8428 28.6528 45.2789Z" fill="#30342D"/>
<path d="M13.9594 42.234C15.1396 41.6701 15.639 40.2557 15.0747 39.0748C14.5105 37.8939 13.0964 37.3937 11.9162 37.9575C10.736 38.5214 10.2367 39.9358 10.8009 41.1167C11.3651 42.2977 12.7792 42.7979 13.9594 42.234Z" fill="#30342D"/>
<path d="M6.00239 29.6754C7.18258 29.1115 7.68193 27.6971 7.11771 26.5162C6.5535 25.3353 5.13938 24.8351 3.95919 25.3989C2.779 25.9628 2.27965 27.3772 2.84387 28.5581C3.40808 29.7391 4.8222 30.2393 6.00239 29.6754Z" fill="#30342D"/>
<path d="M8.97309 15.0758C10.1533 14.5119 10.6526 13.0975 10.0884 11.9166C9.5242 10.7357 8.11008 10.2355 6.92989 10.7993C5.7497 11.3632 5.25035 12.7776 5.81457 13.9585C6.37878 15.1394 7.7929 15.6397 8.97309 15.0758Z" fill="#30342D"/>
<path d="M13.4571 17.4615C14.3239 17.0473 14.6907 16.0084 14.2763 15.141C13.8619 14.2736 12.8232 13.9062 11.9563 14.3204C11.0895 14.7346 10.7227 15.7735 11.1371 16.6409C11.5515 17.5083 12.5902 17.8757 13.4571 17.4615Z" fill="#30342D"/>
<path d="M10.23 8.65778C10.9715 8.30349 11.2852 7.41478 10.9307 6.67279C10.5762 5.93081 9.68772 5.61652 8.94618 5.97081C8.20465 6.3251 7.8909 7.2138 8.24541 7.95579C8.59991 8.69778 9.48843 9.01207 10.23 8.65778Z" fill="#30342D"/>
<path d="M8.27684 39.9312C9.01838 39.5769 9.33212 38.6882 8.97762 37.9462C8.62311 37.2042 7.73459 36.89 6.99306 37.2442C6.25152 37.5985 5.93777 38.4872 6.29228 39.2292C6.64679 39.9712 7.5353 40.2855 8.27684 39.9312Z" fill="#30342D"/>
<path d="M26.0073 3.32868C26.7488 2.97439 27.0626 2.08568 26.7081 1.34369C26.3536 0.601706 25.4651 0.287414 24.7235 0.641704C23.982 0.995994 23.6682 1.8847 24.0227 2.62669C24.3773 3.36868 25.2658 3.68297 26.0073 3.32868Z" fill="#30342D"/>
<path d="M2.62645 24.0347C3.36798 23.6804 3.68173 22.7917 3.32723 22.0497C2.97272 21.3078 2.0842 20.9935 1.34267 21.3478C0.601133 21.702 0.287384 22.5908 0.64189 23.3327C0.996396 24.0747 1.88491 24.389 2.62645 24.0347Z" fill="#30342D"/>
<path d="M23.6792 47.358C24.4207 47.0037 24.7345 46.115 24.38 45.373C24.0255 44.631 23.1369 44.3167 22.3954 44.671C21.6539 45.0253 21.3401 45.914 21.6946 46.656C22.0491 47.398 22.9376 47.7123 23.6792 47.358Z" fill="#30342D"/>
<path d="M41.3237 10.5299C42.0652 10.1756 42.379 9.28685 42.0245 8.54487C41.67 7.80288 40.7815 7.48859 40.0399 7.84288C39.2984 8.19717 38.9846 9.08588 39.3392 9.82786C39.6937 10.5699 40.5822 10.8841 41.3237 10.5299Z" fill="#30342D"/>
<path d="M39.1655 41.9C39.907 41.5457 40.2208 40.657 39.8663 39.915C39.5118 39.173 38.6233 38.8587 37.8817 39.213C37.1402 39.5673 36.8264 40.456 37.181 41.198C37.5355 41.94 38.424 42.2543 39.1655 41.9Z" fill="#30342D"/>
<path d="M47.0268 26.5279C47.7684 26.1736 48.0821 25.2849 47.7276 24.5429C47.3731 23.8009 46.4846 23.4866 45.7431 23.8409C45.0015 24.1952 44.6878 25.0839 45.0423 25.8259C45.3968 26.5679 46.2853 26.8822 47.0268 26.5279Z" fill="#30342D"/>
<path d="M22.2383 11.9683C23.1052 11.5542 23.472 10.5153 23.0575 9.64786C22.6431 8.78047 21.6044 8.41306 20.7376 8.82723C19.8707 9.2414 19.5039 10.2803 19.9183 11.1477C20.3328 12.0151 21.3715 12.3825 22.2383 11.9683Z" fill="#30342D"/>
<path d="M33.0313 14.0709C33.8982 13.6567 34.2649 12.6178 33.8505 11.7504C33.4361 10.883 32.3974 10.5156 31.5305 10.9298C30.6637 11.3439 30.2969 12.3828 30.7113 13.2502C31.1257 14.1176 32.1644 14.485 33.0313 14.0709Z" fill="#30342D"/>
<path d="M38.5411 22.6715C39.4079 22.2573 39.7747 21.2184 39.3603 20.351C38.9459 19.4836 37.9072 19.1162 37.0403 19.5304C36.1734 19.9445 35.8067 20.9834 36.2211 21.8508C36.6355 22.7182 37.6742 23.0856 38.5411 22.6715Z" fill="#30342D"/>
<path d="M36.6133 33.3394C37.4802 32.9253 37.847 31.8864 37.4325 31.019C37.0181 30.1516 35.9794 29.7842 35.1126 30.1983C34.2457 30.6125 33.8789 31.6514 34.2933 32.5188C34.7078 33.3862 35.7465 33.7536 36.6133 33.3394Z" fill="#30342D"/>
<path d="M27.6622 39.0885C28.529 38.6743 28.8958 37.6354 28.4814 36.768C28.0669 35.9006 27.0283 35.5332 26.1614 35.9473C25.2945 36.3615 24.9278 37.4004 25.3422 38.2678C25.7566 39.1352 26.7953 39.5026 27.6622 39.0885Z" fill="#30342D"/>
<path d="M11.1934 28.0797C12.0603 27.6655 12.427 26.6266 12.0126 25.7592C11.5982 24.8918 10.5595 24.5244 9.69264 24.9386C8.82578 25.3527 8.459 26.3916 8.87343 27.259C9.28785 28.1264 10.3265 28.4938 11.1934 28.0797Z" fill="#30342D"/>
<path d="M16.9336 37.2408C17.8005 36.8266 18.1673 35.7877 17.7529 34.9203C17.3384 34.0529 16.2997 33.6855 15.4329 34.0997C14.566 34.5139 14.1992 35.5528 14.6137 36.4202C15.0281 37.2876 16.0668 37.655 16.9336 37.2408Z" fill="#30342D"/>
<path d="M30.725 34.2213C31.9052 33.6574 32.4046 32.243 31.8404 31.0621C31.2762 29.8812 29.862 29.381 28.6818 29.9448C27.5017 30.5087 27.0023 31.9231 27.5665 33.104C28.1307 34.285 29.5449 34.7852 30.725 34.2213Z" fill="#30342D"/>
<path d="M29.4637 10.5895C30.9572 9.87592 31.5891 8.08598 30.8751 6.59156C30.1611 5.09713 28.3716 4.46412 26.8781 5.17769C25.3846 5.89126 24.7526 7.6812 25.4666 9.17562C26.1807 10.67 27.9702 11.3031 29.4637 10.5895Z" fill="#30342D"/>
<path d="M39.4852 17.6754C40.9787 16.9619 41.6106 15.1719 40.8966 13.6775C40.1826 12.1831 38.3931 11.5501 36.8996 12.2636C35.406 12.9772 34.7741 14.7671 35.4881 16.2616C36.2021 17.756 37.9917 18.389 39.4852 17.6754Z" fill="#30342D"/>
<path d="M41.575 30.5133C43.0686 29.7997 43.7005 28.0098 42.9865 26.5154C42.2725 25.021 40.4829 24.388 38.9894 25.1015C37.4959 25.8151 36.864 27.605 37.578 29.0995C38.292 30.5939 40.0815 31.2269 41.575 30.5133Z" fill="#30342D"/>
<path d="M33.8641 40.8375C35.3576 40.124 35.9895 38.334 35.2755 36.8396C34.5615 35.3452 32.772 34.7122 31.2785 35.4257C29.785 36.1393 29.153 37.9292 29.867 39.4237C30.581 40.9181 32.3706 41.5511 33.8641 40.8375Z" fill="#30342D"/>
<path d="M21.4618 42.6618C22.9553 41.9482 23.5872 40.1583 22.8732 38.6638C22.1592 37.1694 20.3696 36.5364 18.8761 37.25C17.3826 37.9635 16.7507 39.7535 17.4647 41.2479C18.1787 42.7423 19.9682 43.3753 21.4618 42.6618Z" fill="#30342D"/>
<path d="M11.2586 35.1735C12.7522 34.4599 13.3841 32.67 12.6701 31.1755C11.9561 29.6811 10.1665 29.0481 8.673 29.7617C7.17948 30.4752 6.54756 32.2652 7.26157 33.7596C7.97558 35.254 9.76512 35.887 11.2586 35.1735Z" fill="#30342D"/>
<path d="M9.36801 22.8346C10.8615 22.121 11.4934 20.3311 10.7794 18.8367C10.0654 17.3422 8.27589 16.7092 6.78237 17.4228C5.28886 18.1364 4.65694 19.9263 5.37095 21.4207C6.08495 22.9152 7.8745 23.5482 9.36801 22.8346Z" fill="#30342D"/>
<path d="M16.8661 12.1373C18.3596 11.4238 18.9915 9.63384 18.2775 8.13941C17.5635 6.64498 15.7739 6.01198 14.2804 6.72555C12.7869 7.43912 12.155 9.22905 12.869 10.7235C13.583 12.2179 15.3725 12.8509 16.8661 12.1373Z" fill="#30342D"/>
<path d="M16.6665 31.2076C17.8466 30.6438 18.346 29.2293 17.7818 28.0484C17.2176 26.8675 15.8034 26.3673 14.6233 26.9312C13.4431 27.495 12.9437 28.9095 13.5079 30.0904C14.0721 31.2713 15.4863 31.7715 16.6665 31.2076Z" fill="#30342D"/>
<path d="M26.9516 16.359C28.1318 15.7951 28.6311 14.3807 28.0669 13.1998C27.5027 12.0189 26.0886 11.5187 24.9084 12.0825C23.7282 12.6464 23.2289 14.0608 23.7931 15.2417C24.3573 16.4227 25.7714 16.9229 26.9516 16.359Z" fill="#30342D"/>
<path d="M15.1977 24.0094C16.3779 23.4455 16.8772 22.0311 16.313 20.8502C15.7488 19.6693 14.3347 19.1691 13.1545 19.7329C11.9743 20.2968 11.475 21.7112 12.0392 22.8921C12.6034 24.073 14.0175 24.5733 15.1977 24.0094Z" fill="#30342D"/>
<path d="M23.4711 35.8414C24.6513 35.2775 25.1507 33.8631 24.5865 32.6822C24.0222 31.5013 22.6081 31.0011 21.4279 31.565C20.2477 32.1288 19.7484 33.5433 20.3126 34.7242C20.8768 35.9051 22.2909 36.4053 23.4711 35.8414Z" fill="#30342D"/>
<path d="M35.1645 28.0406C36.3447 27.4768 36.844 26.0623 36.2798 24.8814C35.7156 23.7005 34.3015 23.2003 33.1213 23.7642C31.9411 24.328 31.4418 25.7425 32.006 26.9234C32.5702 28.1043 33.9843 28.6045 35.1645 28.0406Z" fill="#30342D"/>
</g>
<path d="M22.976 17.0252C24.0985 17.0252 25.0086 16.1143 25.0086 14.9906C25.0086 13.867 24.0985 12.9561 22.976 12.9561C21.8534 12.9561 20.9434 13.867 20.9434 14.9906C20.9434 16.1143 21.8534 17.0252 22.976 17.0252Z" fill="#30342D"/>
<path d="M28.6771 9.034C29.7997 9.034 30.7097 8.12309 30.7097 6.99942C30.7097 5.87576 29.7997 4.96484 28.6771 4.96484C27.5546 4.96484 26.6445 5.87576 26.6445 6.99942C26.6445 8.12309 27.5546 9.034 28.6771 9.034Z" fill="#30342D"/>
<path d="M38.9232 17.0252C40.0458 17.0252 40.9558 16.1143 40.9558 14.9906C40.9558 13.867 40.0458 12.9561 38.9232 12.9561C37.8007 12.9561 36.8906 13.867 36.8906 14.9906C36.8906 16.1143 37.8007 17.0252 38.9232 17.0252Z" fill="#30342D"/>
<path d="M32.7201 24.199C33.8427 24.199 34.7527 23.2881 34.7527 22.1645C34.7527 21.0408 33.8427 20.1299 32.7201 20.1299C31.5975 20.1299 30.6875 21.0408 30.6875 22.1645C30.6875 23.2881 31.5975 24.199 32.7201 24.199Z" fill="#30342D"/>
<path d="M40.4115 29.7576C41.5341 29.7576 42.4441 28.8467 42.4441 27.7231C42.4441 26.5994 41.5341 25.6885 40.4115 25.6885C39.2889 25.6885 38.3789 26.5994 38.3789 27.7231C38.3789 28.8467 39.2889 29.7576 40.4115 29.7576Z" fill="#30342D"/>
<path d="M32.7201 40.0145C33.8427 40.0145 34.7527 39.1036 34.7527 37.9799C34.7527 36.8562 33.8427 35.9453 32.7201 35.9453C31.5975 35.9453 30.6875 36.8562 30.6875 37.9799C30.6875 39.1036 31.5975 40.0145 32.7201 40.0145Z" fill="#30342D"/>
<path d="M19.8764 41.5037C20.9989 41.5037 21.909 40.5928 21.909 39.4691C21.909 38.3455 20.9989 37.4346 19.8764 37.4346C18.7538 37.4346 17.8438 38.3455 17.8438 39.4691C17.8438 40.5928 18.7538 41.5037 19.8764 41.5037Z" fill="#30342D"/>
<path d="M9.64979 33.743C10.7724 33.743 11.6824 32.8321 11.6824 31.7084C11.6824 30.5847 10.7724 29.6738 9.64979 29.6738C8.52722 29.6738 7.61719 30.5847 7.61719 31.7084C7.61719 32.8321 8.52722 33.743 9.64979 33.743Z" fill="#30342D"/>
<path d="M8.14003 21.116C9.2626 21.116 10.1726 20.2051 10.1726 19.0815C10.1726 17.9578 9.2626 17.0469 8.14003 17.0469C7.01745 17.0469 6.10742 17.9578 6.10742 19.0815C6.10742 20.2051 7.01745 21.116 8.14003 21.116Z" fill="#30342D"/>
<path d="M15.8099 10.9432C16.9325 10.9432 17.8426 10.0323 17.8426 8.9086C17.8426 7.78493 16.9325 6.87402 15.8099 6.87402C14.6874 6.87402 13.7773 7.78493 13.7773 8.9086C13.7773 10.0323 14.6874 10.9432 15.8099 10.9432Z" fill="#30342D"/>
<path d="M18.3862 14.4453C19.2079 14.4453 19.874 13.7785 19.874 12.956C19.874 12.1335 19.2079 11.4668 18.3862 11.4668C17.5645 11.4668 16.8984 12.1335 16.8984 12.956C16.8984 13.7785 17.5645 14.4453 18.3862 14.4453Z" fill="#30342D"/>
<path d="M19.1415 6.45446C19.8475 6.45446 20.4198 5.88162 20.4198 5.17498C20.4198 4.46835 19.8475 3.89551 19.1415 3.89551C18.4356 3.89551 17.8633 4.46835 17.8633 5.17498C17.8633 5.88162 18.4356 6.45446 19.1415 6.45446Z" fill="#30342D"/>
<path d="M6.10831 29.8627C6.81426 29.8627 7.38655 29.2898 7.38655 28.5832C7.38655 27.8766 6.81426 27.3037 6.10831 27.3037C5.40236 27.3037 4.83008 27.8766 4.83008 28.5832C4.83008 29.2898 5.40236 29.8627 6.10831 29.8627Z" fill="#30342D"/>
<path d="M33.2646 8.15368C33.9705 8.15368 34.5428 7.58084 34.5428 6.8742C34.5428 6.16757 33.9705 5.59473 33.2646 5.59473C32.5586 5.59473 31.9863 6.16757 31.9863 6.8742C31.9863 7.58084 32.5586 8.15368 33.2646 8.15368Z" fill="#30342D"/>
<path d="M7.61613 15.515C8.32208 15.515 8.89436 14.9422 8.89436 14.2355C8.89436 13.5289 8.32208 12.9561 7.61613 12.9561C6.91018 12.9561 6.33789 13.5289 6.33789 14.2355C6.33789 14.9422 6.91018 15.515 7.61613 15.515Z" fill="#30342D"/>
<path d="M15.2665 41.2943C15.9725 41.2943 16.5448 40.7215 16.5448 40.0148C16.5448 39.3082 15.9725 38.7354 15.2665 38.7354C14.5606 38.7354 13.9883 39.3082 13.9883 40.0148C13.9883 40.7215 14.5606 41.2943 15.2665 41.2943Z" fill="#30342D"/>
<path d="M42.4442 19.3754C43.1502 19.3754 43.7225 18.8025 43.7225 18.0959C43.7225 17.3892 43.1502 16.8164 42.4442 16.8164C41.7383 16.8164 41.166 17.3892 41.166 18.0959C41.166 18.8025 41.7383 19.3754 42.4442 19.3754Z" fill="#30342D"/>
<path d="M29.2235 42.7836C29.9295 42.7836 30.5018 42.2107 30.5018 41.5041C30.5018 40.7975 29.9295 40.2246 29.2235 40.2246C28.5176 40.2246 27.9453 40.7975 27.9453 41.5041C27.9453 42.2107 28.5176 42.7836 29.2235 42.7836Z" fill="#30342D"/>
<path d="M40.9579 33.8275C41.6639 33.8275 42.2362 33.2547 42.2362 32.548C42.2362 31.8414 41.6639 31.2686 40.9579 31.2686C40.252 31.2686 39.6797 31.8414 39.6797 32.548C39.6797 33.2547 40.252 33.8275 40.9579 33.8275Z" fill="#30342D"/>
<path d="M27.187 13.4394C28.0087 13.4394 28.6748 12.7726 28.6748 11.9502C28.6748 11.1277 28.0087 10.4609 27.187 10.4609C26.3653 10.4609 25.6992 11.1277 25.6992 11.9502C25.6992 12.7726 26.3653 13.4394 27.187 13.4394Z" fill="#30342D"/>
<path d="M34.7534 19.039C35.5751 19.039 36.2412 18.3723 36.2412 17.5498C36.2412 16.7273 35.5751 16.0605 34.7534 16.0605C33.9317 16.0605 33.2656 16.7273 33.2656 17.5498C33.2656 18.3723 33.9317 19.039 34.7534 19.039Z" fill="#30342D"/>
<path d="M35.8413 27.7236C36.663 27.7236 37.3291 27.0568 37.3291 26.2343C37.3291 25.4119 36.663 24.7451 35.8413 24.7451C35.0196 24.7451 34.3535 25.4119 34.3535 26.2343C34.3535 27.0568 35.0196 27.7236 35.8413 27.7236Z" fill="#30342D"/>
<path d="M30.394 35.2324C31.2157 35.2324 31.8818 34.5656 31.8818 33.7431C31.8818 32.9207 31.2157 32.2539 30.394 32.2539C29.5724 32.2539 28.9062 32.9207 28.9062 33.7431C28.9062 34.5656 29.5724 35.2324 30.394 35.2324Z" fill="#30342D"/>
<path d="M21.3843 36.3642C22.2059 36.3642 22.872 35.6974 22.872 34.875C22.872 34.0525 22.2059 33.3857 21.3843 33.3857C20.5626 33.3857 19.8965 34.0525 19.8965 34.875C19.8965 35.6974 20.5626 36.3642 21.3843 36.3642Z" fill="#30342D"/>
<path d="M12.73 21.8085C13.5516 21.8085 14.2178 21.1418 14.2178 20.3193C14.2178 19.4968 13.5516 18.8301 12.73 18.8301C11.9083 18.8301 11.2422 19.4968 11.2422 20.3193C11.2422 21.1418 11.9083 21.8085 12.73 21.8085Z" fill="#30342D"/>
<path d="M13.7768 30.9951C14.5985 30.9951 15.2646 30.3283 15.2646 29.5058C15.2646 28.6834 14.5985 28.0166 13.7768 28.0166C12.9552 28.0166 12.2891 28.6834 12.2891 29.5058C12.2891 30.3283 12.9552 30.9951 13.7768 30.9951Z" fill="#30342D"/>
<path d="M25.5326 33.743C26.6552 33.743 27.5652 32.8321 27.5652 31.7084C27.5652 30.5847 26.6552 29.6738 25.5326 29.6738C24.41 29.6738 23.5 30.5847 23.5 31.7084C23.5 32.8321 24.41 33.743 25.5326 33.743Z" fill="#30342D"/>
<path d="M33.2655 15.0329C34.6774 15.0329 35.8219 13.8873 35.8219 12.474C35.8219 11.0607 34.6774 9.91504 33.2655 9.91504C31.8536 9.91504 30.709 11.0607 30.709 12.474C30.709 13.8873 31.8536 15.0329 33.2655 15.0329Z" fill="#30342D"/>
<path d="M38.3983 24.1999C39.8102 24.1999 40.9547 23.0543 40.9547 21.641C40.9547 20.2277 39.8102 19.082 38.3983 19.082C36.9864 19.082 35.8418 20.2277 35.8418 21.641C35.8418 23.0543 36.9864 24.1999 38.3983 24.1999Z" fill="#30342D"/>
<path d="M35.2772 34.8757C36.6891 34.8757 37.8336 33.73 37.8336 32.3168C37.8336 30.9035 36.6891 29.7578 35.2772 29.7578C33.8653 29.7578 32.7207 30.9035 32.7207 32.3168C32.7207 33.73 33.8653 34.8757 35.2772 34.8757Z" fill="#30342D"/>
<path d="M25.533 40.0144C26.9449 40.0144 28.0895 38.8687 28.0895 37.4554C28.0895 36.0422 26.9449 34.8965 25.533 34.8965C24.1211 34.8965 22.9766 36.0422 22.9766 37.4554C22.9766 38.8687 24.1211 40.0144 25.533 40.0144Z" fill="#30342D"/>
<path d="M15.2869 36.8259C16.6988 36.8259 17.8434 35.6802 17.8434 34.267C17.8434 32.8537 16.6988 31.708 15.2869 31.708C13.875 31.708 12.7305 32.8537 12.7305 34.267C12.7305 35.6802 13.875 36.8259 15.2869 36.8259Z" fill="#30342D"/>
<path d="M10.1737 27.2829C11.5856 27.2829 12.7301 26.1373 12.7301 24.724C12.7301 23.3107 11.5856 22.165 10.1737 22.165C8.76176 22.165 7.61719 23.3107 7.61719 24.724C7.61719 26.1373 8.76176 27.2829 10.1737 27.2829Z" fill="#30342D"/>
<path d="M13.2537 17.0681C14.6656 17.0681 15.8102 15.9224 15.8102 14.5091C15.8102 13.0959 14.6656 11.9502 13.2537 11.9502C11.8418 11.9502 10.6973 13.0959 10.6973 14.5091C10.6973 15.9224 11.8418 17.0681 13.2537 17.0681Z" fill="#30342D"/>
<path d="M22.9764 11.5935C24.3883 11.5935 25.5329 10.4478 25.5329 9.03454C25.5329 7.62127 24.3883 6.47559 22.9764 6.47559C21.5645 6.47559 20.4199 7.62127 20.4199 9.03454C20.4199 10.4478 21.5645 11.5935 22.9764 11.5935Z" fill="#30342D"/>
<path d="M15.8099 26.2342C16.9325 26.2342 17.8426 25.3233 17.8426 24.1996C17.8426 23.0759 16.9325 22.165 15.8099 22.165C14.6874 22.165 13.7773 23.0759 13.7773 24.1996C13.7773 25.3233 14.6874 26.2342 15.8099 26.2342Z" fill="#30342D"/>
<path d="M29.2201 18.5779C30.3427 18.5779 31.2527 17.667 31.2527 16.5434C31.2527 15.4197 30.3427 14.5088 29.2201 14.5088C28.0975 14.5088 27.1875 15.4197 27.1875 16.5434C27.1875 17.667 28.0975 18.5779 29.2201 18.5779Z" fill="#30342D"/>
<path d="M17.3197 20.1297C18.4423 20.1297 19.3523 19.2188 19.3523 18.0951C19.3523 16.9715 18.4423 16.0605 17.3197 16.0605C16.1971 16.0605 15.2871 16.9715 15.2871 18.0951C15.2871 19.2188 16.1971 20.1297 17.3197 20.1297Z" fill="#30342D"/>
<path d="M19.351 32.3377C20.4735 32.3377 21.3836 31.4268 21.3836 30.3031C21.3836 29.1795 20.4735 28.2686 19.351 28.2686C18.2284 28.2686 17.3184 29.1795 17.3184 30.3031C17.3184 31.4268 18.2284 32.3377 19.351 32.3377Z" fill="#30342D"/>
<path d="M31.2533 30.618C32.3759 30.618 33.2859 29.7071 33.2859 28.5834C33.2859 27.4597 32.3759 26.5488 31.2533 26.5488C30.1307 26.5488 29.2207 27.4597 29.2207 28.5834C29.2207 29.7071 30.1307 30.618 31.2533 30.618Z" fill="#30342D"/>
<path d="M57.1348 28.8779L58.9788 27.095C59.9427 28.8779 61.5772 29.7589 63.2954 29.7589C65.0975 29.7589 66.271 28.6891 66.271 27.3677C66.271 26.4868 65.7052 25.7317 64.5527 25.1234C64.2594 24.9766 63.6726 24.7249 62.7716 24.3473C61.8915 23.9488 61.2209 23.6132 60.7599 23.3615C58.9788 22.2918 58.1196 20.8864 58.1196 19.1245C58.1196 17.7612 58.6225 16.5866 59.6284 15.6636C60.6342 14.7407 61.9753 14.2793 63.5888 14.2793C65.789 14.2793 67.5492 15.0973 68.9113 16.7753L67.2349 18.6421C66.271 17.4465 65.0556 16.8383 63.6307 16.8383C62.122 16.8383 61.0323 17.6563 61.0323 18.9567C61.0323 19.7748 61.5352 20.4879 62.4992 21.0333C62.8135 21.2011 63.4421 21.5367 64.4689 21.9981C65.4747 22.4386 66.1872 22.7952 66.6272 23.0469C68.4084 24.0117 69.2885 25.417 69.2885 27.1999C69.2885 28.6891 68.7227 29.9267 67.6121 30.8915C66.5015 31.8354 65.0556 32.3178 63.3164 32.3178C60.7599 32.3598 58.392 31.1222 57.1348 28.8779Z" fill="#30342D"/>
<path d="M73.0383 30.4929C71.781 29.2344 71.1523 27.6612 71.1523 25.7106C71.1523 23.7389 71.781 22.1658 73.0592 20.9073C74.3375 19.6488 75.9719 19.0195 77.9626 19.0195C80.5191 19.0195 82.8031 20.32 83.809 22.4175L81.6506 23.6131C80.8753 22.2707 79.4714 21.3897 77.9626 21.3897C76.7682 21.3897 75.7414 21.7882 74.9451 22.6272C74.1489 23.4453 73.7507 24.473 73.7507 25.6896C73.7507 26.8852 74.1489 27.892 74.9242 28.71C75.6995 29.528 76.7053 29.9475 77.8788 29.9475C79.3875 29.9475 80.9172 29.0246 81.5878 27.7661L83.7461 29.0246C82.6984 31.0173 80.4143 32.3387 77.8578 32.3387C75.9091 32.3597 74.2746 31.7304 73.0383 30.4929Z" fill="#30342D"/>
<path d="M87.2043 20.9492C88.4825 19.6487 90.0751 18.9775 92.0448 18.9775C94.0146 18.9775 95.6071 19.6487 96.8644 20.9492C98.1426 22.2496 98.7713 23.8018 98.7713 25.6686C98.7713 27.5563 98.1426 29.1504 96.8644 30.4509C95.6071 31.7513 94.0146 32.3806 92.0448 32.3806C90.0751 32.3806 88.4825 31.7513 87.2043 30.4509C85.947 29.1504 85.3184 27.5773 85.3184 25.6686C85.3184 23.8228 85.947 22.2496 87.2043 20.9492ZM94.9366 22.6901C94.1612 21.8301 93.1973 21.4106 92.0239 21.4106C90.8713 21.4106 89.9074 21.8301 89.0902 22.6901C88.3149 23.5081 87.9167 24.5359 87.9167 25.6895C87.9167 26.8642 88.3149 27.8919 89.0902 28.71C89.8865 29.528 90.8713 29.9685 92.0239 29.9685C93.1764 29.9685 94.1403 29.549 94.9366 28.71C95.7328 27.8919 96.131 26.8642 96.131 25.6895C96.1519 24.5359 95.7538 23.5081 94.9366 22.6901Z" fill="#30342D"/>
<path d="M112.831 20.9497C114.026 22.2502 114.654 23.8233 114.654 25.711C114.654 27.5988 114.047 29.13 112.831 30.4304C111.637 31.7309 110.107 32.3601 108.305 32.3601C106.524 32.3601 105.078 31.6679 103.968 30.2836V37.3102H101.369V19.3136H103.968V21.1595C105.12 19.7122 106.587 18.999 108.326 18.999C110.149 19.02 111.637 19.6492 112.831 20.9497ZM110.904 22.6697C110.149 21.8516 109.164 21.4112 107.949 21.4112C106.734 21.4112 105.749 21.8307 104.994 22.6697C104.261 23.4877 103.884 24.4945 103.884 25.6901C103.884 26.8856 104.261 27.9344 104.994 28.7524C105.749 29.5704 106.734 29.9899 107.949 29.9899C109.164 29.9899 110.149 29.5914 110.904 28.7524C111.658 27.9344 112.035 26.8856 112.035 25.6901C112.035 24.4735 111.658 23.4877 110.904 22.6697Z" fill="#30342D"/>
<path d="M116.834 15.8733C116.834 14.9084 117.609 14.1533 118.636 14.1533C119.6 14.1533 120.354 14.9084 120.354 15.8733C120.354 16.8801 119.6 17.6562 118.636 17.6562C117.609 17.6562 116.834 16.901 116.834 15.8733ZM119.872 32.066H117.274V19.3342H119.872V32.066Z" fill="#30342D"/>
<path d="M124.359 30.4929C123.101 29.2344 122.473 27.6612 122.473 25.7106C122.473 23.7389 123.101 22.1658 124.38 20.9073C125.658 19.6488 127.292 19.0195 129.283 19.0195C131.839 19.0195 134.123 20.32 135.129 22.4175L132.971 23.6131C132.196 22.2707 130.792 21.3897 129.283 21.3897C128.089 21.3897 127.062 21.7882 126.265 22.6272C125.469 23.4453 125.071 24.473 125.071 25.6896C125.071 26.8852 125.469 27.892 126.245 28.71C127.02 29.528 128.026 29.9475 129.199 29.9475C130.708 29.9475 132.238 29.0246 132.908 27.7661L135.066 29.0246C134.019 31.0173 131.735 32.3387 129.178 32.3387C127.25 32.3597 125.616 31.7304 124.359 30.4929Z" fill="#30342D"/>
</svg>
