<svg width="34" height="34" viewBox="0 0 34 34" fill="none" xmlns="http://www.w3.org/2000/svg">
<g clip-path="url(#clip0_3548_67044)">
<path d="M30.3333 17.0121C30.3426 16.2954 29.9544 15.6366 29.3239 15.2909L14.6321 7.21876C13.974 6.84685 13.1983 6.89254 12.5782 7.31596C11.9468 7.74651 11.6235 8.77146 11.8001 9.51172L13.1716 15.258C13.3124 15.8472 13.8398 16.2621 14.4465 16.2595L22.6225 16.2342C23.0412 16.2258 23.3807 16.5653 23.3723 16.984C23.371 17.3956 23.0365 17.7301 22.6178 17.7385L14.434 17.7575C13.8273 17.7587 13.2974 18.1754 13.1529 18.7656L11.7329 24.5347C11.5605 25.2164 11.757 25.897 12.2381 26.3781C12.2947 26.4346 12.3583 26.4983 12.422 26.5478C13.045 27.0284 13.8608 27.0897 14.5574 26.7186L29.2991 18.7254C29.9317 18.3899 30.324 17.7288 30.3333 17.0121Z" fill="white"/>
</g>
<defs>
<clipPath id="clip0_3548_67044">
<rect width="24" height="24" fill="white" transform="translate(17.002 0.0292969) rotate(45)"/>
</clipPath>
</defs>
</svg>
