<svg width="24" height="24" viewBox="0 0 24 24" fill="none" xmlns="http://www.w3.org/2000/svg">
<g id="material-symbols:verified-rounded">
<path id="Vector" d="M6.69922 19.3007L3.94922 18.7007C3.69922 18.6507 3.49922 18.5214 3.34922 18.3127C3.19922 18.1047 3.14089 17.8757 3.17422 17.6257L3.44922 14.8007L1.57422 12.6507C1.40755 12.4674 1.32422 12.2507 1.32422 12.0007C1.32422 11.7507 1.40755 11.534 1.57422 11.3507L3.44922 9.20069L3.17422 6.37569C3.14089 6.12569 3.19922 5.89669 3.34922 5.68869C3.49922 5.48003 3.69922 5.35069 3.94922 5.30069L6.69922 4.70069L8.14922 2.25069C8.28255 2.03403 8.46589 1.89236 8.69922 1.82569C8.93255 1.75903 9.16589 1.76736 9.39922 1.85069L11.9992 2.95069L14.5992 1.85069C14.8326 1.76736 15.0659 1.75903 15.2992 1.82569C15.5326 1.89236 15.7159 2.03403 15.8492 2.25069L17.2992 4.70069L20.0492 5.30069C20.2992 5.35069 20.4992 5.48003 20.6492 5.68869C20.7992 5.89669 20.8576 6.12569 20.8242 6.37569L20.5492 9.20069L22.4242 11.3507C22.5909 11.534 22.6742 11.7507 22.6742 12.0007C22.6742 12.2507 22.5909 12.4674 22.4242 12.6507L20.5492 14.8007L20.8242 17.6257C20.8576 17.8757 20.7992 18.1047 20.6492 18.3127C20.4992 18.5214 20.2992 18.6507 20.0492 18.7007L17.2992 19.3007L15.8492 21.7507C15.7159 21.9674 15.5326 22.109 15.2992 22.1757C15.0659 22.2424 14.8326 22.234 14.5992 22.1507L11.9992 21.0507L9.39922 22.1507C9.16589 22.234 8.93255 22.2424 8.69922 22.1757C8.46589 22.109 8.28255 21.9674 8.14922 21.7507L6.69922 19.3007ZM10.2492 14.8507C10.4326 15.034 10.6659 15.1257 10.9492 15.1257C11.2326 15.1257 11.4659 15.034 11.6492 14.8507L15.8992 10.6007C16.0992 10.4007 16.1992 10.163 16.1992 9.88769C16.1992 9.61303 16.0992 9.37569 15.8992 9.17569C15.6992 8.97569 15.4619 8.87569 15.1872 8.87569C14.9119 8.87569 14.6742 8.97569 14.4742 9.17569L10.9492 12.7007L9.49922 11.2757C9.29922 11.0924 9.06189 11.0047 8.78722 11.0127C8.51189 11.0214 8.28255 11.1174 8.09922 11.3007C7.91589 11.484 7.82422 11.7174 7.82422 12.0007C7.82422 12.284 7.91589 12.5174 8.09922 12.7007L10.2492 14.8507Z" fill="#0D5520"/>
</g>
</svg>
